<svg xmlns="http://www.w3.org/2000/svg" xmlns:xlink="http://www.w3.org/1999/xlink" width="1000" zoomAndPan="magnify" viewBox="0 0 750 225" height="300" preserveAspectRatio="xMidYMid meet" version="1.0"><defs><clipPath id="378a842ed6"><path d="M 87 43 L 505.433594 43 L 505.433594 187.917969 L 87 187.917969 Z M 87 43 " clip-rule="nonzero"/></clipPath><clipPath id="db2aef9f9d"><path d="M 549 37 L 662.875 37 L 662.875 169 L 549 169 Z M 549 37 " clip-rule="nonzero"/></clipPath><clipPath id="d3cf887f0b"><path d="M 520.875 71 L 521 71 L 521 187.703125 L 520.875 187.703125 Z M 520.875 71 " clip-rule="nonzero"/></clipPath><clipPath id="a3c0cf8f9c"><path d="M 520.875 76 L 609 76 L 609 161 L 520.875 161 Z M 520.875 76 " clip-rule="nonzero"/></clipPath></defs><g clip-path="url(#378a842ed6)"><path fill="#016b69" d="M 170.847656 112.097656 C 177.40625 109.191406 183.15625 106.835938 187.769531 100.964844 C 198.195312 87.710938 196.730469 64.847656 183.835938 53.789062 C 166.105469 38.582031 135.863281 43.90625 114.265625 43.90625 L 98.03125 43.90625 C 95.535156 43.90625 92.769531 43.554688 90.632812 45.136719 C 86.425781 48.261719 88.292969 57.808594 88.292969 62.460938 L 88.292969 164.515625 C 88.292969 169.761719 86.273438 180.414062 89.226562 184.878906 C 92.277344 189.496094 104.730469 187.246094 109.628906 187.246094 L 146.269531 187.246094 C 155.535156 187.246094 164.769531 187.660156 173.632812 184.4375 C 182.625 181.167969 190.242188 175.339844 194.824219 166.832031 C 206.375 145.394531 194.746094 117.578125 170.847656 112.097656 Z M 113.335938 63.855469 L 140.703125 63.855469 C 147.527344 63.855469 154.535156 63.699219 160.644531 67.265625 C 172.578125 74.226562 170.796875 95.09375 159.253906 101.476562 C 153.632812 104.582031 147.347656 104.214844 141.167969 104.214844 L 113.335938 104.214844 Z M 162.964844 164.390625 C 156.367188 167.691406 149.25 167.296875 142.09375 167.296875 L 113.335938 167.296875 L 113.335938 121.835938 L 141.628906 121.835938 C 149.09375 121.835938 156.710938 121.65625 163.429688 125.492188 C 177.53125 133.546875 177.777344 156.976562 162.964844 164.390625 Z M 231.769531 46.28125 C 229.914062 43.863281 226.945312 43.90625 224.1875 43.90625 L 207.957031 43.90625 L 207.957031 174.722656 C 207.957031 177.871094 207.054688 182.679688 209.183594 185.292969 C 210.964844 187.472656 213.773438 187.246094 216.300781 187.246094 L 232.996094 187.246094 L 232.996094 57.359375 C 232.996094 54.035156 233.925781 49.082031 231.769531 46.28125 Z M 366.609375 96.324219 C 364.730469 85.0625 360.539062 73.78125 353.378906 64.78125 C 337.761719 45.148438 315.453125 43.90625 292.363281 43.90625 L 259.898438 43.90625 C 256.03125 43.90625 250.320312 42.792969 247.609375 46.273438 C 245.550781 48.929688 246.449219 53.742188 246.449219 56.894531 L 246.449219 187.246094 L 292.828125 187.246094 C 303.214844 187.246094 313.722656 187.960938 323.90625 185.554688 C 362.984375 176.304688 372.328125 130.601562 366.609375 96.324219 Z M 338.585938 141.324219 C 336.054688 149.230469 331.773438 156.578125 324.832031 161.375 C 310.449219 171.328125 288.050781 167.300781 271.492188 167.300781 L 271.492188 63.855469 C 288.101562 63.855469 310.429688 59.984375 324.832031 70.09375 C 345.085938 84.3125 345.425781 119.953125 338.585938 141.324219 Z M 505.996094 45.367188 C 505.484375 42.710938 497.121094 43.90625 495.042969 43.90625 C 484.910156 43.90625 472.289062 41.726562 466.039062 51.792969 C 459.140625 62.914062 456.347656 78.378906 452.21875 90.757812 C 444.140625 114.984375 435.171875 139.007812 428.253906 163.589844 C 425.539062 156.40625 423.914062 148.640625 421.453125 141.324219 C 414.328125 120.148438 407.1875 98.972656 400.117188 77.773438 C 397.691406 70.492188 395.132812 63.253906 392.695312 55.96875 C 391.496094 52.371094 390.714844 47.945312 387.433594 45.601562 C 381.542969 41.402344 368.4375 43.90625 361.472656 43.90625 C 363.160156 55.171875 369.171875 67 372.910156 77.769531 C 381.429688 102.324219 390.050781 126.871094 398.265625 151.527344 C 400.902344 159.433594 403.53125 167.378906 406.441406 175.1875 C 408.207031 179.929688 410.183594 184.40625 415.273438 186.277344 C 421.71875 188.644531 430.292969 187.246094 437.074219 187.246094 C 439.105469 187.246094 442.988281 187.984375 444.722656 186.765625 C 446.730469 185.359375 447.464844 180.65625 448.203125 178.429688 C 450.585938 171.285156 453.246094 164.230469 455.625 157.089844 C 464.566406 130.261719 473.773438 103.398438 483.476562 76.835938 C 486.375 68.894531 489.71875 59.863281 496.4375 54.320312 C 498.808594 52.371094 506.738281 49.195312 505.996094 45.367188 Z M 505.996094 45.367188 " fill-opacity="1" fill-rule="nonzero"/></g><g clip-path="url(#db2aef9f9d)"><path fill="#ffc72f" d="M 556.078125 136.367188 C 557.667969 129.488281 561.5 122.859375 565.820312 117.347656 C 567.382812 115.355469 571.878906 112.203125 571.628906 109.460938 C 571.351562 106.347656 566.640625 102.644531 564.839844 100.183594 C 560.914062 94.828125 558.019531 88.519531 556.371094 82.09375 C 555.847656 80.070312 554.054688 75.421875 555.207031 73.480469 C 556.308594 71.621094 560.765625 72.269531 562.574219 72.394531 C 567.402344 72.722656 572.292969 73.46875 576.949219 74.808594 C 579.179688 75.449219 582.488281 77.300781 584.816406 76.824219 C 588.035156 76.167969 591.0625 70.035156 593.226562 67.714844 C 598.515625 62.03125 605.15625 57.089844 612.199219 53.796875 C 610.566406 49.9375 607.09375 46.746094 603.847656 44.191406 C 585.648438 29.820312 556.933594 38.675781 550.46875 61.21875 C 547.183594 72.695312 550.039062 85.535156 555.273438 96.011719 C 556.792969 99.058594 558.628906 102.09375 560.667969 104.824219 C 561.609375 106.089844 563.546875 107.761719 563.546875 109.464844 C 563.546875 111.402344 561.046875 113.574219 559.960938 115.03125 C 556.675781 119.410156 554.027344 124.289062 552.097656 129.410156 C 551.585938 130.757812 550.003906 133.726562 551.003906 135.097656 C 551.878906 136.28125 554.742188 136.195312 556.078125 136.367188 M 557.472656 75.132812 C 557.640625 83.136719 567.003906 80.757812 573.242188 82.3125 C 577.195312 83.296875 584.636719 88.363281 588.449219 87.492188 C 591.226562 86.859375 594.601562 78.796875 596.46875 76.527344 C 602.644531 69.039062 610.015625 64.628906 618.234375 59.828125 C 619.816406 65.613281 622.140625 70.9375 622.796875 76.992188 C 623.195312 80.625 622.167969 86.613281 623.617188 89.878906 C 624.328125 91.472656 626.503906 91.730469 627.980469 92.234375 C 631.679688 93.523438 635.246094 95.0625 638.644531 97.007812 C 642.59375 99.261719 646.386719 101.855469 649.773438 104.902344 C 650.882812 105.898438 652.628906 108.386719 654.375 107.910156 C 656.394531 107.363281 657.675781 103.75 658.445312 102.042969 C 661.375 95.539062 662.894531 88.253906 661.894531 81.167969 C 659.3125 62.78125 642.71875 51.1875 624.734375 52.449219 C 612.953125 53.277344 602.519531 61.542969 594.585938 69.570312 C 592.253906 71.9375 588.980469 78.960938 585.953125 79.984375 C 583.890625 80.679688 579.53125 77.960938 577.433594 77.402344 C 570.726562 75.628906 564.363281 75.132812 557.472656 75.132812 M 611.734375 65.390625 C 612.886719 73.226562 615.171875 80 614.976562 88.121094 C 614.917969 90.289062 613.046875 95.332031 614.792969 97.003906 C 616.800781 98.914062 622.496094 99.058594 625.183594 99.960938 C 631.371094 102.042969 637.253906 105.292969 642.34375 109.371094 C 644.042969 110.734375 648.8125 113.984375 648.8125 116.378906 C 648.8125 118.3125 644.679688 120.421875 643.273438 121.359375 C 639.238281 124.050781 634.839844 126.320312 630.289062 127.996094 C 628.265625 128.734375 624.679688 129.117188 623.148438 130.679688 C 621.28125 132.585938 622.566406 138.039062 622.269531 140.546875 C 621.195312 149.644531 616.53125 157.375 614.984375 166.0625 C 621.980469 168.300781 629.554688 169.242188 636.785156 167.5 C 661.683594 161.5 667.617188 132.050781 654.246094 112.714844 C 649.476562 105.816406 641.144531 100.242188 633.539062 96.882812 C 630.601562 95.578125 622.679688 94.445312 621.03125 91.738281 C 619.351562 88.972656 620.625 82.953125 620.550781 79.78125 C 620.410156 74.175781 618.847656 68.289062 616.84375 63.085938 Z M 611.734375 65.390625 " fill-opacity="1" fill-rule="nonzero"/></g><g clip-path="url(#d3cf887f0b)"><path fill="#016b69" d="M 185.042969 141.003906 C 191.597656 138.097656 197.347656 135.738281 201.960938 129.871094 C 212.390625 116.617188 210.925781 93.753906 198.027344 82.695312 C 180.300781 67.488281 150.054688 72.8125 128.460938 72.8125 L 112.226562 72.8125 C 109.726562 72.8125 106.960938 72.457031 104.828125 74.039062 C 100.621094 77.164062 102.484375 86.710938 102.484375 91.367188 L 102.484375 193.417969 C 102.484375 198.664062 100.464844 209.320312 103.417969 213.78125 C 106.46875 218.402344 118.925781 216.148438 123.820312 216.148438 L 160.460938 216.148438 C 169.726562 216.148438 178.960938 216.5625 187.828125 213.339844 C 196.820312 210.070312 204.433594 204.246094 209.019531 195.734375 C 220.566406 174.296875 208.941406 146.480469 185.042969 141.003906 Z M 127.53125 92.761719 L 154.894531 92.761719 C 161.722656 92.761719 168.726562 92.601562 174.835938 96.171875 C 186.773438 103.132812 184.992188 123.996094 173.445312 130.382812 C 167.824219 133.488281 161.539062 133.121094 155.359375 133.121094 L 127.53125 133.121094 Z M 177.15625 193.292969 C 170.558594 196.597656 163.441406 196.199219 156.285156 196.199219 L 127.53125 196.199219 L 127.53125 150.738281 L 155.820312 150.738281 C 163.289062 150.738281 170.902344 150.558594 177.621094 154.394531 C 191.722656 162.449219 191.96875 185.882812 177.15625 193.292969 Z M 245.960938 75.183594 C 244.109375 72.765625 241.136719 72.8125 238.378906 72.8125 L 222.148438 72.8125 L 222.148438 203.625 C 222.148438 206.773438 221.246094 211.582031 223.375 214.195312 C 225.15625 216.378906 227.964844 216.148438 230.496094 216.148438 L 247.191406 216.148438 L 247.191406 86.265625 C 247.191406 82.941406 248.121094 77.988281 245.960938 75.183594 Z M 380.800781 125.230469 C 378.925781 113.964844 374.730469 102.683594 367.570312 93.6875 C 351.953125 74.054688 329.644531 72.8125 306.558594 72.8125 L 274.089844 72.8125 C 270.222656 72.8125 264.511719 71.695312 261.804688 75.179688 C 259.742188 77.835938 260.640625 82.648438 260.640625 85.800781 L 260.640625 216.148438 L 307.023438 216.148438 C 317.410156 216.148438 327.917969 216.867188 338.097656 214.457031 C 377.175781 205.207031 386.519531 159.503906 380.800781 125.230469 Z M 352.78125 170.230469 C 350.246094 178.132812 345.964844 185.480469 339.023438 190.28125 C 324.644531 200.230469 302.242188 196.207031 285.6875 196.207031 L 285.6875 92.761719 C 302.292969 92.761719 324.625 88.886719 339.023438 98.996094 C 359.28125 113.21875 359.621094 148.855469 352.78125 170.230469 Z M 520.1875 74.273438 C 519.675781 71.617188 511.3125 72.8125 509.234375 72.8125 C 499.105469 72.8125 486.480469 70.632812 480.234375 80.699219 C 473.332031 91.816406 470.539062 107.285156 466.410156 119.664062 C 458.335938 143.890625 449.367188 167.914062 442.449219 192.496094 C 439.734375 185.308594 438.105469 177.542969 435.644531 170.230469 C 428.523438 149.050781 421.382812 127.875 414.308594 106.679688 C 411.882812 99.398438 409.324219 92.15625 406.890625 84.875 C 405.691406 81.277344 404.910156 76.847656 401.625 74.503906 C 395.734375 70.304688 382.628906 72.8125 375.664062 72.8125 C 377.351562 84.074219 383.363281 95.90625 387.101562 106.675781 C 395.625 131.226562 404.246094 155.777344 412.460938 180.433594 C 415.097656 188.335938 417.722656 196.285156 420.632812 204.09375 C 422.398438 208.835938 424.375 213.308594 429.46875 215.183594 C 435.910156 217.550781 444.484375 216.148438 451.265625 216.148438 C 453.300781 216.148438 457.179688 216.890625 458.914062 215.671875 C 460.925781 214.261719 461.660156 209.558594 462.398438 207.332031 C 464.777344 200.191406 467.4375 193.136719 469.816406 185.992188 C 478.757812 159.167969 487.964844 132.300781 497.667969 105.738281 C 500.570312 97.796875 503.910156 88.765625 510.628906 83.222656 C 513 81.277344 520.933594 78.097656 520.1875 74.273438 Z M 520.1875 74.273438 " fill-opacity="1" fill-rule="nonzero"/></g><g clip-path="url(#a3c0cf8f9c)"><path fill="#ffc72f" d="M 608.023438 155.382812 C 602.472656 151.910156 597.507812 146.84375 593.804688 141.464844 C 592.34375 139.332031 590.242188 133.488281 587.898438 132.472656 C 584.867188 131.164062 577.347656 135.886719 574.164062 136.757812 C 564.953125 139.277344 556.550781 138.472656 547.261719 137.292969 C 548.652344 130.558594 551.589844 124.117188 555.148438 118.273438 C 556.605469 115.871094 560.488281 112.339844 560.5 109.460938 C 560.511719 105.898438 555.230469 100.558594 553.496094 97.398438 C 549.941406 90.914062 548.195312 83.722656 546.800781 76.523438 C 541.949219 76.949219 537.089844 80.167969 533.351562 83.117188 C 515.507812 97.164062 515.949219 124.261719 534.742188 137.421875 C 544.964844 144.578125 557.949219 145.519531 569.988281 143.582031 C 573.78125 142.972656 581.28125 138.953125 584.78125 139.90625 C 586.691406 140.425781 587.96875 143.664062 589.019531 145.179688 C 592.148438 149.71875 595.863281 153.648438 600.132812 157.121094 C 601.316406 158.082031 603.449219 160.351562 605.136719 160.070312 C 606.871094 159.777344 607.621094 156.78125 608.023438 155.382812 Z M 608.023438 155.382812 " fill-opacity="1" fill-rule="nonzero"/></g><path fill="#ffc72f" d="M 606.167969 164.199219 L 590.601562 150.746094 L 583.867188 142.824219 L 570.921875 145.910156 L 548.195312 146.105469 C 548.195312 156.226562 550.84375 165.945312 558.070312 173.394531 C 572.917969 188.6875 597.257812 184.855469 609.683594 168.835938 C 615.566406 161.253906 618.363281 151.800781 619.488281 142.394531 C 619.867188 139.253906 618.398438 131.445312 620.367188 129.140625 C 622.285156 126.898438 628.011719 126.375 630.757812 125.367188 C 636.46875 123.285156 641.621094 119.929688 646.53125 116.414062 C 645.734375 114.730469 644.078125 112.378906 641.890625 112.757812 C 639.421875 113.179688 636.644531 115.832031 634.46875 117.074219 C 630.574219 119.285156 626.273438 120.890625 621.949219 122.035156 C 620.035156 122.542969 615.34375 122.597656 614.078125 124.179688 C 613.105469 125.386719 613.769531 127.566406 613.929688 128.933594 C 614.339844 132.386719 614.199219 136.132812 614.046875 139.601562 C 613.636719 148.71875 609.582031 156.042969 606.167969 164.199219 Z M 606.167969 164.199219 " fill-opacity="1" fill-rule="nonzero"/></svg>