<?xml version="1.0" encoding="utf-8"?>
<!-- Generator: Adobe Illustrator 25.0.0, SVG Export Plug-In . SVG Version: 6.00 Build 0)  -->
<svg version="1.1" id="Layer_1" xmlns="http://www.w3.org/2000/svg" xmlns:xlink="http://www.w3.org/1999/xlink" x="0px" y="0px"
	 viewBox="0 0 1045 321" style="enable-background:new 0 0 1045 321;" xml:space="preserve">
<style type="text/css">
	.st0{fill:#000732;}
	.st1{fill-rule:evenodd;clip-rule:evenodd;fill:#000732;}
</style>
<g>
	<g>
		<path class="st0" d="M499.7,123.5c0,5.9-0.9,11.2-2.8,16c-1.9,4.8-4.5,8.9-7.9,12.3c-3.4,3.4-7.4,6.1-12.2,7.9
			c-4.7,1.9-10,2.8-15.7,2.8h-29.2V84.4h29.2c5.7,0,11,0.9,15.7,2.8c4.7,1.9,8.8,4.5,12.2,8c3.4,3.4,6,7.6,7.9,12.4
			C498.7,112.3,499.7,117.6,499.7,123.5z M488.8,123.5c0-4.8-0.7-9.1-2-12.9c-1.3-3.8-3.2-7-5.6-9.6c-2.4-2.6-5.3-4.6-8.7-6
			c-3.4-1.4-7.2-2.1-11.4-2.1h-18.6v61h18.6c4.2,0,8-0.7,11.4-2.1c3.4-1.4,6.3-3.4,8.7-6s4.3-5.8,5.6-9.6
			C488.1,132.6,488.8,128.3,488.8,123.5z"/>
	</g>
	<g>
		<path class="st0" d="M512.2,162.5v-55.3h5.6c1.1,0,1.8,0.2,2.2,0.6s0.7,1.1,0.8,2.1l0.7,8.6c1.9-3.9,4.2-6.9,7-9
			c2.8-2.2,6-3.2,9.8-3.2c1.5,0,2.9,0.2,4.1,0.5c1.2,0.3,2.4,0.8,3.4,1.4l-1.3,7.3c-0.3,0.9-0.8,1.4-1.7,1.4c-0.5,0-1.3-0.2-2.3-0.5
			c-1.1-0.3-2.5-0.5-4.4-0.5c-3.4,0-6.2,1-8.5,2.9s-4.2,4.8-5.7,8.6v35.2L512.2,162.5L512.2,162.5z"/>
	</g>
	<g>
		<path class="st0" d="M571.6,106.4c3.3,0,6.4,0.6,9.2,1.7c2.8,1.1,5.2,2.7,7.3,4.8c2,2.1,3.6,4.7,4.8,7.7c1.1,3.1,1.7,6.6,1.7,10.5
			c0,1.5-0.2,2.5-0.5,3.1s-0.9,0.8-1.9,0.8h-36.8c0.1,3.5,0.5,6.5,1.4,9.1c0.9,2.6,2.1,4.7,3.6,6.5c1.5,1.7,3.3,3,5.5,3.9
			c2.1,0.9,4.5,1.3,7.1,1.3c2.4,0,4.5-0.3,6.3-0.8c1.8-0.6,3.3-1.2,4.6-1.8c1.3-0.7,2.3-1.3,3.2-1.8c0.9-0.6,1.6-0.8,2.2-0.8
			c0.8,0,1.4,0.3,1.9,0.9l2.7,3.5c-1.2,1.5-2.6,2.7-4.3,3.8c-1.7,1.1-3.5,2-5.4,2.6c-1.9,0.7-3.9,1.2-5.9,1.6
			c-2,0.3-4.1,0.5-6.1,0.5c-3.8,0-7.3-0.6-10.6-1.9c-3.2-1.3-6-3.2-8.3-5.7c-2.3-2.5-4.2-5.6-5.5-9.2c-1.3-3.7-2-7.9-2-12.7
			c0-3.9,0.6-7.5,1.8-10.8c1.2-3.3,2.9-6.2,5.1-8.7s4.9-4.4,8.1-5.8C564,107.1,567.6,106.4,571.6,106.4z M571.8,113.6
			c-4.7,0-8.4,1.4-11.1,4.1c-2.7,2.7-4.4,6.5-5,11.3h30.1c0-2.3-0.3-4.3-0.9-6.2c-0.6-1.9-1.5-3.5-2.7-4.9c-1.2-1.4-2.7-2.4-4.4-3.2
			C576,113.9,574,113.6,571.8,113.6z"/>
		<path class="st0" d="M647.5,162.5h-4.3c-0.9,0-1.7-0.1-2.3-0.4c-0.6-0.3-1-0.9-1.1-1.9l-1.1-5.1c-1.5,1.3-2.9,2.5-4.3,3.5
			s-2.8,1.9-4.4,2.6c-1.5,0.7-3.2,1.2-4.9,1.6c-1.7,0.4-3.6,0.5-5.8,0.5c-2.1,0-4.2-0.3-6-0.9c-1.9-0.6-3.5-1.5-4.9-2.7
			c-1.4-1.2-2.5-2.7-3.3-4.6c-0.8-1.8-1.2-4-1.2-6.5c0-2.2,0.6-4.3,1.8-6.3c1.2-2,3.1-3.8,5.8-5.4c2.7-1.6,6.2-2.9,10.5-3.9
			c4.3-1,9.6-1.5,15.9-1.5v-4.3c0-4.3-0.9-7.6-2.8-9.8c-1.8-2.2-4.6-3.3-8.2-3.3c-2.4,0-4.4,0.3-6,0.9c-1.6,0.6-3,1.3-4.2,2
			c-1.2,0.7-2.2,1.4-3.1,2c-0.9,0.6-1.7,0.9-2.5,0.9c-0.7,0-1.2-0.2-1.7-0.5c-0.5-0.3-0.9-0.8-1.2-1.3l-1.7-3.1
			c3.1-2.9,6.3-5.1,9.9-6.6c3.5-1.5,7.4-2.2,11.7-2.2c3.1,0,5.8,0.5,8.2,1.5c2.4,1,4.4,2.4,6.1,4.3c1.6,1.8,2.9,4,3.7,6.6
			c0.8,2.6,1.3,5.4,1.3,8.5V162.5L647.5,162.5z M622.3,156.6c1.7,0,3.3-0.2,4.7-0.5c1.4-0.3,2.8-0.8,4-1.5c1.3-0.6,2.5-1.4,3.6-2.3
			c1.1-0.9,2.3-1.9,3.4-3.1v-11.4c-4.5,0-8.3,0.3-11.4,0.9c-3.1,0.6-5.7,1.3-7.6,2.2c-2,0.9-3.4,2-4.3,3.2c-0.9,1.2-1.3,2.6-1.3,4.2
			c0,1.5,0.2,2.7,0.7,3.8c0.5,1.1,1.1,1.9,1.9,2.6c0.8,0.7,1.7,1.2,2.8,1.5C619.8,156.4,621,156.6,622.3,156.6z"/>
		<path class="st0" d="M662.2,162.5v-55.3h5.8c1.4,0,2.3,0.7,2.6,2l0.7,5.7c2-2.5,4.3-4.6,6.8-6.2c2.5-1.6,5.5-2.4,8.8-2.4
			c3.7,0,6.8,1,9.1,3.1c2.3,2.1,4,4.9,5,8.4c0.8-2,1.8-3.7,3-5.2c1.3-1.5,2.7-2.7,4.2-3.6c1.6-0.9,3.2-1.6,5-2.1
			c1.8-0.4,3.6-0.7,5.4-0.7c2.9,0,5.5,0.5,7.8,1.4c2.3,0.9,4.2,2.3,5.8,4.1c1.6,1.8,2.8,4,3.6,6.6c0.8,2.6,1.3,5.6,1.3,8.9v35.2
			h-9.7v-35.2c0-4.3-0.9-7.6-2.8-9.8c-1.9-2.2-4.6-3.4-8.2-3.4c-1.6,0-3.1,0.3-4.6,0.8c-1.4,0.6-2.7,1.4-3.8,2.5
			c-1.1,1.1-2,2.5-2.6,4.1c-0.6,1.7-1,3.6-1,5.8v35.2h-9.7v-35.2c0-4.4-0.9-7.7-2.7-9.9c-1.8-2.2-4.4-3.3-7.8-3.3
			c-2.4,0-4.6,0.6-6.7,1.9c-2.1,1.3-3.9,3-5.6,5.3v41.2L662.2,162.5L662.2,162.5z"/>
	</g>
	<g>
		<path class="st0" d="M810.1,135.5c0,4.4-0.5,8.3-1.6,11.7c-1.1,3.5-2.7,6.4-4.7,8.8c-2.1,2.4-4.7,4.2-7.7,5.5
			c-3.1,1.3-6.6,1.9-10.5,1.9c-3.5,0-7.2-0.5-11-1.5c0.1-1.1,0.2-2.1,0.3-3.1c0.1-1,0.2-2.1,0.3-3.1c0.1-0.6,0.3-1.1,0.7-1.5
			s1-0.6,1.7-0.6c0.7,0,1.5,0.2,2.6,0.5c1.1,0.3,2.5,0.5,4.4,0.5c2.4,0,4.5-0.4,6.4-1.1c1.9-0.7,3.5-1.9,4.7-3.4
			c1.3-1.5,2.3-3.5,2.9-5.9c0.7-2.4,1-5.2,1-8.5V84.3h10.5L810.1,135.5L810.1,135.5z"/>
	</g>
	<g>
		<path class="st0" d="M845.7,106.4c4,0,7.7,0.7,10.9,2c3.3,1.3,6,3.3,8.3,5.7c2.3,2.5,4,5.5,5.2,9s1.8,7.4,1.8,11.8
			c0,4.4-0.6,8.3-1.8,11.8c-1.2,3.5-3,6.5-5.2,8.9c-2.3,2.5-5,4.4-8.3,5.7c-3.3,1.3-6.9,2-10.9,2s-7.7-0.7-10.9-2s-6-3.2-8.3-5.7
			c-2.3-2.5-4.1-5.5-5.3-8.9c-1.2-3.5-1.9-7.4-1.9-11.8c0-4.3,0.6-8.2,1.9-11.8c1.2-3.5,3-6.5,5.3-9c2.3-2.5,5.1-4.4,8.3-5.7
			C838,107.1,841.7,106.4,845.7,106.4z M845.7,155.7c5.5,0,9.5-1.8,12.2-5.5s4-8.8,4-15.3c0-6.6-1.3-11.7-4-15.4
			c-2.7-3.7-6.8-5.5-12.2-5.5c-2.8,0-5.2,0.5-7.2,1.4c-2,0.9-3.7,2.3-5.1,4.1c-1.4,1.8-2.4,4-3.1,6.6c-0.7,2.6-1,5.5-1,8.8
			s0.3,6.2,1,8.8c0.7,2.6,1.7,4.8,3.1,6.5c1.4,1.8,3.1,3.1,5.1,4.1C840.5,155.3,843,155.7,845.7,155.7z"/>
		<path class="st0" d="M884.3,162.5V82.2h9.8v33.1c2.3-2.7,4.9-4.8,7.9-6.4c3-1.6,6.4-2.4,10.2-2.4c3.2,0,6.1,0.6,8.7,1.8
			c2.6,1.2,4.8,3,6.6,5.4c1.8,2.4,3.2,5.3,4.2,8.8c1,3.5,1.5,7.6,1.5,12.1c0,4.1-0.5,7.9-1.6,11.4c-1.1,3.5-2.7,6.5-4.7,9.1
			c-2.1,2.6-4.6,4.6-7.5,6.1c-3,1.5-6.3,2.2-10,2.2c-3.6,0-6.6-0.7-9.1-2.1s-4.7-3.3-6.5-5.8l-0.5,5c-0.3,1.4-1.1,2.1-2.5,2.1
			L884.3,162.5L884.3,162.5z M909,114.2c-3.2,0-5.9,0.7-8.3,2.2c-2.4,1.5-4.6,3.5-6.6,6.2v26.7c1.7,2.4,3.7,4.1,5.8,5.1
			c2.1,1,4.5,1.5,7.1,1.5c5.2,0,9.1-1.8,11.9-5.5c2.8-3.7,4.1-8.9,4.1-15.7c0-3.6-0.3-6.7-1-9.3c-0.6-2.6-1.6-4.7-2.8-6.4
			s-2.7-2.9-4.4-3.6C913.2,114.5,911.2,114.2,909,114.2z"/>
		<path class="st0" d="M976.6,116.4c-0.4,0.8-1.1,1.2-2,1.2c-0.5,0-1.2-0.2-1.9-0.6c-0.7-0.4-1.5-0.8-2.5-1.3
			c-1-0.5-2.2-0.9-3.6-1.4c-1.4-0.4-3-0.6-4.9-0.6c-1.6,0-3.1,0.2-4.4,0.6c-1.3,0.4-2.4,1-3.4,1.7c-0.9,0.7-1.6,1.6-2.1,2.5
			c-0.5,1-0.7,2-0.7,3.1c0,1.4,0.4,2.6,1.2,3.5c0.8,0.9,1.9,1.8,3.2,2.5s2.9,1.3,4.6,1.8c1.7,0.5,3.5,1.1,5.3,1.7
			c1.8,0.6,3.6,1.3,5.3,2c1.7,0.7,3.2,1.6,4.6,2.7c1.3,1.1,2.4,2.4,3.2,4c0.8,1.6,1.2,3.5,1.2,5.7c0,2.5-0.5,4.9-1.4,7.1
			s-2.3,4-4,5.6c-1.8,1.6-4,2.8-6.5,3.7c-2.6,0.9-5.6,1.4-8.9,1.4c-3.9,0-7.3-0.6-10.5-1.9c-3.1-1.3-5.8-2.9-8-4.8l2.3-3.7
			c0.3-0.5,0.6-0.8,1-1.1c0.4-0.3,0.9-0.4,1.6-0.4s1.3,0.3,2.1,0.8c0.7,0.5,1.6,1.1,2.6,1.7c1,0.6,2.3,1.2,3.8,1.7
			c1.5,0.5,3.3,0.8,5.5,0.8c1.9,0,3.5-0.2,5-0.7c1.4-0.5,2.6-1.2,3.5-2c0.9-0.8,1.6-1.8,2.1-2.9c0.5-1.1,0.7-2.3,0.7-3.5
			c0-1.5-0.4-2.8-1.2-3.8c-0.8-1-1.9-1.9-3.2-2.6s-2.9-1.3-4.6-1.9c-1.7-0.5-3.5-1.1-5.3-1.7c-1.8-0.6-3.6-1.2-5.3-2
			c-1.7-0.7-3.3-1.7-4.6-2.8c-1.3-1.1-2.4-2.5-3.2-4.2c-0.8-1.7-1.2-3.7-1.2-6c0-2.1,0.4-4.1,1.3-6.1c0.9-1.9,2.1-3.7,3.8-5.1
			c1.7-1.5,3.7-2.6,6.2-3.5c2.4-0.9,5.2-1.3,8.3-1.3c3.6,0,6.9,0.6,9.8,1.7c2.9,1.1,5.4,2.7,7.5,4.7L976.6,116.4z"/>
	</g>
	<path class="st0" d="M623.8,249.6h-7.4l11.4-53.7h7.4l-3.7,17.1c0.1-0.1,0.5-0.3,1-0.8c0.5-0.4,1.1-0.8,1.8-1.3
		c1.2-1,2.8-1.8,4-1.8c2,0,3.1,1.2,3.7,2.6c0.5,1.5,0.6,3.5,0.2,5.2l-6.9,32.8H628l6.7-31.7c0.3-1.5-0.5-1.8-1.4-1.8
		c-0.8,0-1.4,0.4-2,1c-0.1,0.1-0.3,0.3-0.4,0.4c-0.1,0.1-0.3,0.3-0.4,0.5L623.8,249.6z M602.1,240.4c-0.3,1.5-0.6,3.2,1.4,3.2
		c1.7,0,2.3-0.8,2.8-3.2l1.2-5.6h7.4l-0.8,3.9c-1,4.5-2.3,7.3-4.3,9.1c-2,1.8-4.5,2.4-7.6,2.4c-2.6,0-4.8-0.7-6.2-2.6
		c-1.2-1.8-1.7-4.8-0.7-9.3l3.7-17.5c1-4.5,2.6-7.5,4.7-9.3c2.1-1.8,4.6-2.6,7.2-2.6c3.1,0,5.4,0.7,6.6,2.4c1.2,1.8,1.5,4.6,0.5,9.1
		l-0.7,3.1h-7.4l1-4.8c0.5-2.4,0.2-3.2-1.5-3.2c-2,0-2.4,1.8-2.7,3.2L602.1,240.4z M584.3,230.3c-4,1.5-6.2,5.1-7,8.9
		c-0.2,0.7-0.2,1.4-0.1,2.2c0.2,0.9,0.5,1.5,1.4,1.5c1.7,0,3.3-1,3.6-2.4L584.3,230.3z M586.6,219.1c0.2-0.7,0.4-1.6,0.3-2.4
		c-0.1-0.8-0.7-1.2-1.5-1.2c-1.2,0-1.9,1-2.4,2.1c-0.2,0.6-0.4,1.2-0.6,1.9c-0.1,0.4-0.1,0.7-0.2,1c-0.1,0.4-0.1,0.7-0.1,1h-7.4
		l0.3-1.7c0.7-2.9,2.3-5.6,4.5-7.5c2.3-2,4.9-3.1,7.7-3.1c2.4,0,4.4,0.9,5.8,2.6c1.4,1.7,1.9,3.9,1.3,6.5l-5.2,24.6
		c-0.8,3.6-0.9,5.2-1,6.9h-7.2c-0.5-0.8-0.2-2.7,0-3.2h-0.5c-0.5,0.7-1.4,1.6-2.6,2.4c-1.2,0.8-2.7,1.4-4.2,1.4
		c-1,0-2.4-0.4-3.3-1.8c-1-1.4-1.5-3.9-0.6-8c1-4.5,2.9-7.6,5.2-9.9c2.3-2.3,4.8-3.6,6.7-4.5c2.1-1,3.5-1.6,4-2.4L586.6,219.1z
		 M556.9,225.2h5.3l1.2-5.6c0.3-1.5,0.3-2.6-0.3-3.5c-0.3-0.4-0.8-0.6-1.5-0.6c-1.4,0-2.2,1-2.8,2c-0.3,0.5-0.6,1.2-0.8,2
		L556.9,225.2z M567,235.2l-1,4.6c-1.1,3.9-2.8,6.6-5.9,8.7c-1.5,1.1-3.4,1.6-5.9,1.6c-4.8,0-6.7-2.6-7.2-5.3
		c-0.4-1.7-0.4-3.4-0.1-5.3l4.3-20.1c1.1-3.9,2.9-6.7,6-8.9c1.4-1.1,3.4-1.6,5.8-1.6c2.3,0,4,0.7,5.2,1.6c1.2,1,1.8,2.3,2.1,3.6
		c0.4,1.5,0.4,3.1,0.1,5.1l-2.4,11.6h-12.2l-1.9,8.7c-0.2,1.4-0.1,2.6,0.4,3.4c0.3,0.4,0.8,0.6,1.5,0.6c1.4,0,2.2-0.9,2.7-2
		c0.4-0.5,0.6-1.2,0.7-2.1l1-4.4L567,235.2L567,235.2z M533.3,219.6c1.1,0,2.6-0.1,4-1.2c1.4-1.1,2.8-3,3.6-6.8
		c0.8-3.8,0.3-5.8-0.7-6.9c-1-1.1-2.4-1.1-3.5-1.1L533.3,219.6z M533.2,249.6l0.7-22.7h-2.1l-4.8,22.7h-7.9l11.4-53.7h7.9
		c9.4,0,12.3,5.3,10.2,15.5c-1.2,5.3-3.6,10.2-7,12.2l-0.4,26L533.2,249.6L533.2,249.6z"/>
	<path class="st0" d="M899.4,219.8c0.2-1,0.4-2.1,0.4-3.1c-0.2-0.9-0.6-1.6-1.8-1.6c-1,0-1.7,0.7-2.2,1.6c-0.6,0.9-0.9,2.1-1.1,3.1
		c-0.3,1.2,0.1,2.6,0.8,3.7c0.7,1.2,1.5,2.3,2.5,3.4c1.2,1.5,2.7,3.3,3.5,5.3c0.8,2,1.2,4.3,0.7,6.9c-0.6,2.6-1.7,5.3-3.7,7.3
		c-2,2.1-4.6,3.7-8.1,3.7c-4.5,0-6.7-2-7.6-4.5c-1-2.6-0.7-5.6-0.1-7.7h6.9c-0.2,1.1-0.4,2.6-0.2,3.8c0.3,1.2,0.9,2.3,2.4,2.3
		c2.1,0,3.1-2.5,3.6-4.8c0.5-2.4-1.3-4.8-3.1-7.1c-1.4-1.7-2.7-3.2-3.7-5.2c-0.9-2-1.3-4.2-0.7-7.1c0.5-2.3,1.5-5,3.4-7.2
		c1.8-2.1,4.4-3.6,7.9-3.7c4.4-0.1,6.4,1.5,7.2,3.7c0.8,2.1,0.4,4.9-0.1,7.2L899.4,219.8L899.4,219.8z M864.5,249.6h-6.9l6.7-31.7
		c0.3-1.5-0.8-1.8-1.6-1.8c-0.8,0-1.6,0.4-2.2,1c-0.4,0.3-0.7,0.6-1,1l-6.7,31.5h-7.4l8.5-40h7.4l-0.7,3.4c0.1-0.1,0.5-0.3,1-0.8
		c1.1-0.8,2.5-1.8,4-2.6c0.7-0.4,1.3-0.5,2-0.5c2.6,0,3.7,2.1,4.1,4.5c0.1-0.1,0.4-0.2,0.6-0.4c0.2-0.2,0.4-0.4,0.8-0.7
		c1.2-1.1,2.6-2,4.2-2.8c0.8-0.4,1.5-0.6,2-0.6c2,0,3.1,1.2,3.7,2.6c0.5,1.5,0.6,3.5,0.2,5.2l-6.9,32.8h-6.9l6.7-31.7
		c0.3-1.5-0.8-1.8-1.6-1.8c-0.8,0-1.6,0.4-2.2,1c-0.4,0.3-0.7,0.6-1,1L864.5,249.6z M836.3,230.3c-4,1.5-6.2,5.1-7,8.9
		c-0.2,0.7-0.2,1.4-0.1,2.2c0.2,0.9,0.5,1.5,1.4,1.5c1.7,0,3.3-1,3.6-2.4L836.3,230.3z M838.7,219.1c0.2-0.7,0.4-1.6,0.3-2.4
		c-0.1-0.8-0.7-1.2-1.5-1.2c-1.2,0-1.9,1-2.4,2.1c-0.2,0.6-0.4,1.2-0.6,1.9c-0.1,0.4-0.1,0.7-0.2,1c-0.1,0.4-0.1,0.7-0.1,1h-7.4
		l0.3-1.7c0.7-2.9,2.3-5.6,4.5-7.5c2.3-2,4.9-3.1,7.7-3.1c2.4,0,4.4,0.9,5.8,2.6c1.4,1.7,1.9,3.9,1.3,6.5l-5.2,24.6
		c-0.8,3.6-0.9,5.2-1,6.9h-7.2c-0.5-0.8-0.2-2.7,0-3.2h-0.5c-0.5,0.7-1.4,1.6-2.6,2.4c-1.2,0.8-2.7,1.4-4.2,1.4
		c-1,0-2.4-0.4-3.3-1.8c-1-1.4-1.5-3.9-0.6-8c1-4.5,2.9-7.6,5.2-9.9c2.3-2.3,4.8-3.6,6.7-4.5c2-1,3.5-1.6,4-2.4L838.7,219.1z
		 M808.9,225.2h5.3l1.2-5.6c0.3-1.5,0.3-2.6-0.3-3.5c-0.3-0.4-0.8-0.6-1.5-0.6c-1.4,0-2.2,1-2.8,2c-0.3,0.5-0.6,1.2-0.8,2
		L808.9,225.2z M819,235.2l-1,4.6c-1.1,3.9-2.8,6.6-5.9,8.7c-1.5,1.1-3.4,1.6-5.9,1.6c-4.8,0-6.7-2.6-7.2-5.3
		c-0.4-1.7-0.4-3.4-0.1-5.3l4.3-20.1c1.1-3.9,2.9-6.7,6-8.9c1.4-1.1,3.4-1.6,5.8-1.6c2.3,0,4,0.7,5.2,1.6c1.2,1,1.8,2.3,2.1,3.6
		c0.4,1.5,0.4,3.1,0.1,5.1l-2.4,11.6h-12.2l-1.9,8.7c-0.2,1.4-0.1,2.6,0.4,3.4c0.3,0.4,0.8,0.6,1.5,0.6c1.4,0,2.2-0.9,2.7-2
		c0.4-0.5,0.6-1.2,0.7-2.1l1-4.4L819,235.2L819,235.2z M801.2,217.2c-0.6-0.2-1.2-0.3-2-0.3c-1.2,0-2.6,0.1-4,1.2
		c-1.7,1.2-2.1,2.4-2.4,3.7l-5.9,27.8h-7.4l8.5-40h7.4l-1,4.5c0.2-0.5,1-1.8,2.3-2.9c1.4-1.1,3.4-2.1,6.1-2.1L801.2,217.2z
		 M761.8,241.7c2.7,0,4.3-0.3,5.7-2.9c1.2-2.4,2.3-6.7,3-10.2c0.4-1.7,0.7-3.7,1.2-5.9c0.4-2.2,0.9-4.2,1.2-5.9
		c0.7-3.4,1.6-7.5,1.3-10.2c-0.2-2.6-1.7-2.9-4.4-2.9L761.8,241.7z M752.3,249.6l11.4-53.7h6.2c7.3,0,10.8,1.5,12.2,5.6
		c1.2,4.1,0.1,10.7-2.2,21.3c-2.3,10.5-4,17.2-6.9,21.3c-3,4.1-7.2,5.6-14.6,5.6L752.3,249.6L752.3,249.6z"/>
	<path class="st0" d="M744.7,217.2c-0.6-0.2-1.2-0.3-2-0.3c-1.2,0-2.6,0.1-4,1.2c-1.7,1.2-2.1,2.4-2.4,3.7l-5.9,27.8h-7.4l8.5-40
		h7.4l-1,4.5c0.2-0.5,1-1.8,2.3-2.9c1.4-1.1,3.4-2.1,6.1-2.1L744.7,217.2z M718.3,209.6h7.4l-8.5,40h-7.4l0.7-3.4
		c-0.1,0.1-0.4,0.3-1,0.7c-1.1,0.9-2.3,1.8-3.7,2.6c-0.9,0.4-1.6,0.6-2.1,0.6c-2,0-3.1-1.2-3.7-2.7c-0.6-1.5-0.6-3.4-0.2-5.1
		l6.9-32.8h7.4l-6.7,31.7c-0.4,1.5,0.5,1.8,1.4,1.8c0.8,0,1.3-0.4,1.9-1c0.3-0.2,0.6-0.6,0.9-1L718.3,209.6z M692.7,219.5
		c0.4-1.5,0.3-2.7-0.2-3.5c-0.3-0.4-0.8-0.6-1.5-0.6c-1.4,0-2.2,1-2.7,2.1c-0.4,0.6-0.6,1.2-0.7,2.1l-4.3,20.1
		c-0.4,1.4-0.3,2.6,0.2,3.4c0.3,0.4,0.8,0.6,1.5,0.6c1.4,0,2.2-0.9,2.7-2c0.4-0.6,0.6-1.2,0.7-2L692.7,219.5z M695.3,239.9
		c-1.1,3.9-2.7,6.6-5.9,8.7c-1.5,1.1-3.4,1.6-5.9,1.6c-2.3,0-4-0.7-5.1-1.7c-1.2-1-1.8-2.2-2.1-3.6c-0.4-1.7-0.4-3.4-0.1-5.3
		l4.3-20.1c1.1-3.9,2.7-6.7,5.9-8.9c1.4-1.1,3.4-1.6,5.8-1.6c2.3,0,4,0.7,5.2,1.6c1.2,1,1.8,2.3,2,3.6c0.4,1.5,0.4,3.1,0.1,5.1
		L695.3,239.9z M648.9,257.2c0.1,0.1,0.2,0.1,0.4,0.1c0.3,0.1,2,0.2,3.4-0.7c1.3-0.8,2.4-2.1,3.2-3.7c0.4-0.7,0.6-1.4,0.7-2.2
		l2-41.2h7.2l-2.3,24.6l-0.3,2h0.3l0.6-2l8.2-24.6h7.2l-16.2,43c-1.1,2.9-2.6,5.6-4.9,7.7c-2.3,2.1-4.8,3.6-7.7,3.6h-0.9
		c-0.6,0-1.5-0.1-2.3-0.1L648.9,257.2z"/>
</g>
<g>
	<path class="st1" d="M131.9,28.4c3.5,14.5,11.1,28.7,21.1,39.7c6.3,7.1,13.8,13.9,21.3,19.9c9.9,7.7,22.8,15.7,32.6,23.3
		c12,9.2,22.3,26.8,17.1,42.7c-3.1,9.6-9.8,16-17.9,21.1c-2.4,1.6-5.7,2.3-8,4l-0.5-0.2l-0.3-0.3c0-0.3,0-0.5,0.3-0.9
		c9.8-7.7,13.4-17.4,12.4-30c-0.3-3-2.4-7.3-4-9.6c-11.8-15.2-30.5-24.6-45.1-36.9c-9.6-8-18.6-17.9-25.1-28.9
		c-5.4-9.2-8.9-21.3-8.2-32.4c0.2-5.1,1.9-11.3,3.5-16.2C133.3,24.7,131,26.7,131.9,28.4"/>
	<path class="st1" d="M174.6,127.3c11,3.8,20,12.4,24,23.2c1.7,11.8-0.7,17.6-8.5,26c-0.7-0.7,0.2-9.9-1.2-13.4
		c-6.6-17.1-31.5-18.5-45.6-26.6c-18.5-10.4-32.4-29.6-31-51.9l0.3-0.5c0.5,0,0.9,0,1.2,0.5l0.3,0.9
		C125.1,112.7,149.3,118.4,174.6,127.3"/>
	<path class="st1" d="M289.2,121.7c4.9-0.5,11.1-0.7,14.8,3c0.3,0,0.5,0,0.7,0.2c0.2,0.3,0.2,0.5,0.2,0.9c-0.7,0.7-4.9,1.2-6.1,1.6
		c-13.1,3.7-26.1,9.1-30.1,22.6c-2.1,7.3-4.2,15.5-7.1,22.3c-5.4,13.8-19.5,28.7-34.1,33.6c-7.7,2.6-16.7,5.4-24.6,7.8
		c-8,2.4-16.7,15-19.3,22.5c-2.3,6.4-7,13.2-12.4,17.8c-8.4,7-17.9,11.3-29.3,9.6c-6.8-1-13.1-3.5-19-7.5l-0.4-0.9l0.3-0.3h0.2
		l0.2-0.2c7,1.9,13.6,2.8,20.2,1c13.1-3.1,21.6-19.3,28.9-29.3c5.1-6.8,11.5-15.3,19.9-17.9c22.5-7,33.6-11.1,45.6-32.1
		c5.6-9.4,5.6-22.5,8.2-33.1c3.1-14.1,12.5-24.6,27.5-25.1C278.7,118.1,284.1,120,289.2,121.7"/>
	<path class="st1" d="M404.3,125.2c-2.3,6.6-5.6,13.8-9.4,19.5c-12.9,19.5-33.3,31.2-56.4,33.4c-16,1.6-32.6,0.9-48.2,3.3
		c-8.2,1.2-15.5,4-23.2,7v0.2v0.2c-0.7,0.9-3.8,0.3-1-1.2l0.3-0.2c0-2.3,12.9-13.2,15-14.6c12.2-8.4,22.5-10.1,37.1-11.7
		c3.8-0.3,8.2-0.9,12.2-1.2c19.2-1.2,32.6-5.4,48.2-13.2c3.8-1.9,24.7-21.9,24.9-21.9h0.2L404.3,125.2z"/>
	<path class="st1" d="M170.9,155.7c4,1.2,6.4,2.3,10.3,7.8c2.8,4.5,2.8,9.9,3.1,15.2l-0.5,0.2c-0.9-0.3-1-1.2-1.9-2.1
		c-0.2-0.3-3.3-2.8-7.7-3.7c-23.2-4.7-47.6-6.8-52.8-34.1c0.2-0.2,0.7-0.3,0.9-0.5c1,0.9,1.7,2.8,2.4,3.3
		C142.4,156.4,145.7,152.6,170.9,155.7"/>
	<path class="st1" d="M369.3,187.4c-6.1,8.9-17.1,15-26.6,18.5c-11,4-23.9,4.2-34.7-0.7c-10.3-4.5-25.6-7.5-36.6-3.5l-0.2-0.2
		c0-0.2,0.2-1.2,0.2-1.2c2.3,0,5.2-3.7,6.8-4.5c13.2-7.5,25.1-9.8,39.9-6.1c2.1,0.5,18.1,3.5,18.3,3.5c9.6,1.2,19.7,2.3,28.2-4
		C365.8,188.3,367,187.4,369.3,187.4"/>
	<polygon class="st1" points="89.6,203.3 92.4,204.1 95,205.2 97.8,205.9 100.6,206.7 102,206.9 103.2,207.3 106.1,207.6 108.7,208 
		111.7,208.5 114.3,208.5 117.3,208.5 120.1,208.5 123,208.5 129,207.8 134.7,206.9 138.4,205.7 142.2,204.8 144.1,204.3 146,204 
		150,203.6 151.9,203.4 154,203.6 156,203.6 158,204 159.8,204.1 161.7,204.8 163.4,205.4 165.2,206.1 165.2,206.7 165,206.9 
		164.8,207.3 164.5,207.4 162.4,207.3 160.3,207.3 158.2,207.3 156.5,207.4 154.4,207.8 152.5,208.1 150.7,208.8 148.6,209.4 
		147.1,210.1 145,210.6 141.3,212.1 134.4,215.3 129,217 123.2,218.8 120.2,219.5 117.3,220.2 114.2,220.7 111,220.8 108.1,221 
		105.1,221 103.5,220.8 102.1,220.7 99.2,220.3 96.6,219.5 95.2,218.8 93.8,218.2 92.6,217.5 91.3,216.8 89.9,215.8 88.9,214.9 
		88,214.2 87.3,213.4 86.8,212.7 86.1,211.8 85.8,210.9 85.4,210.1 84.7,208.1 83.7,204.3 83.2,202.4 83,201.5 82.5,200.5 
		82.6,200.3 83,200.1 83.2,200 83.5,200 84,200.1 84.7,200.3 	"/>
	<polygon class="st1" points="181.2,210.6 181.2,210.9 181,211.3 180.3,211.6 180.2,211.8 179.8,212.1 179.1,212.1 177.4,212.5 
		176.5,212.5 175.8,212.8 174.4,213.4 173.2,213.9 170.6,215.3 168.1,216.8 165.9,218.6 163.3,220.5 161.2,222.4 158.9,224.3 
		156.6,226.4 154.4,228.5 152.3,230.4 147.4,234.3 145,236 142.5,237.8 141.3,238.3 140.1,239.1 137.5,240.5 135.2,241.6 
		133.1,242.6 130.9,243.7 128.3,244.9 126.2,245.6 123.6,246.3 121.1,247 118.3,247.5 115.9,247.8 114.7,247.8 113.5,247.8 
		110.8,247.5 108.4,247.1 107.2,247 106.1,246.6 104.7,246.3 103.5,245.6 102.5,245.1 101.4,244.5 100.4,243.7 99.2,243 97.8,241.2 
		97.1,240.5 96.6,239.5 95.9,238.4 95.3,237.8 94.1,235.8 93.4,233.9 92.6,232 91.3,227.8 91.5,227.6 91.7,227.5 92.6,227.5 
		92.9,228.2 93.6,228.9 94.5,229.4 95.2,229.7 96.9,230.4 98.6,231 101.6,231.8 104.7,232.2 107.7,232.4 110.5,232.4 113.6,232.4 
		116.6,232 119.2,231.5 122,231 124.9,230.1 127.6,229.4 130.3,228.2 133,227.3 138.4,224.7 143.4,222.1 151.4,217.9 155.4,215.8 
		159.4,213.9 163.4,212.5 165.5,211.6 167.6,211.1 170.1,210.6 172.2,210.1 174.4,209.7 176.7,209.5 177.9,209.5 179.1,209.5 
		179.8,209.7 180.3,210.1 180.7,210.1 181,210.1 	"/>
</g>
</svg>
