<?xml version="1.0" encoding="utf-8"?>
<!-- Generator: Adobe Illustrator 25.0.0, SVG Export Plug-In . SVG Version: 6.00 Build 0)  -->
<svg version="1.1" id="Layer_1" xmlns="http://www.w3.org/2000/svg" xmlns:xlink="http://www.w3.org/1999/xlink" x="0px" y="0px"
	 viewBox="0 0 1045.1 321.4" style="enable-background:new 0 0 1045.1 321.4;" xml:space="preserve">
<style type="text/css">
	.st0{fill:#006698;}
	.st1{fill:#016699;}
	.st2{fill:#03689A;}
	.st3{fill:#026799;}
	.st4{fill:#03679A;}
	.st5{fill:#096B9C;}
	.st6{fill:#0A6B9C;}
	.st7{fill:#006699;}
</style>
<g>
	<path class="st0" d="M228.9,248.4c25.6,0,51.3,0.1,76.9-0.1c4.2,0,5.5,0.6,4.1,5.2c-10.5,36.1-43.3,60.8-81,60.7
		c-37.7,0-70.6-24.7-81.1-60.6c-1.3-4.5-0.4-5.4,4.2-5.4C177.7,248.5,203.3,248.4,228.9,248.4z"/>
	<path class="st0" d="M721.4,48.4c-10.6,24.3-20.9,48-31.3,71.7c-5.5,12.6-11.2,25.2-16.5,37.8c-2.2,5.2-4.9,9.6-11.2,9.6
		c-6.3,0-9.1-4.1-11.4-9.4c-15.4-35.2-31-70.4-46.5-105.5c-0.5-1.2-0.9-2.4-1.5-4.1c4.5,0,8.6-0.5,12.6,0.1
		c8,1.2,13.6,5.6,16.8,13.2c9.2,22.4,18.4,44.7,27.6,67.1c0.6,1.5,1.3,2.9,2.4,5.5c4.4-10.7,8.4-20.4,12.4-30.2
		c5.5-13.5,11.1-27,16.5-40.5c4.4-10.8,10.8-15.2,22.5-15.2C716,48.4,718.3,48.4,721.4,48.4z"/>
	<path class="st1" d="M496.8,206.2c5.4,12.8,10.8,25.6,16.6,39.6c5.8-13.9,11.2-26.7,16.5-39.6c0.3,0,0.7,0,1,0.1
		c2.4,10.4,4.8,20.7,7.2,31.1c1.4,6,2.8,12,4,18c0.2,1.1,2.1,3.6-1,3.8c-2.1,0.1-5,1.6-5.8-2.5c-1.9-9.8-4.2-19.4-6.6-30.7
		c-5.3,12.1-10,23-15.2,35c-5.1-11.9-9.8-22.7-14.9-34.7c-2.2,10.5-4.1,19.9-6.1,29.2c-0.3,1.6-0.1,3.3-2.4,3.8
		c-4.3,0.9-5.6-0.3-4.7-4.5c3.5-16.1,7-32.3,10.5-48.4C496.1,206.4,496.4,206.3,496.8,206.2z"/>
	<path class="st2" d="M947.3,226.6c5.8-5.5,11.2-6.9,17.1-4.2c6.2,2.8,8.2,8.4,8.3,14.7c0.2,6.3-0.1,12.6,0.1,18.9
		c0.1,2.8-1.1,3.3-3.5,3.3c-2.3,0-3.7-0.3-3.6-3.2c0.2-5.3,0-10.6,0.1-15.9c0-2.2-0.1-4.3-0.9-6.4c-1.5-4.3-4.5-6.4-9.1-6.1
		c-4.6,0.3-7.6,3-7.9,7.5c-0.5,6.6-0.4,13.3-0.4,19.9c0,2.6-0.1,4.3-3.6,4.3c-3.5,0-3.6-1.8-3.6-4.4c0.1-9.6,0-19.3,0.1-28.9
		c0-1.7-1-4.3,2.5-4.2C945.3,222.1,948.4,221.1,947.3,226.6z"/>
	<path class="st1" d="M865.2,255.1c-5.6,5.3-10.9,6.4-16.6,3.9c-6.1-2.6-8.2-8-8.5-14.1c-0.3-6.5,0-13-0.2-19.4
		c-0.1-2.4,0.5-3.6,3.2-3.5c2.4,0.1,4.1,0,3.9,3.3c-0.3,5.8-0.1,11.6-0.1,17.4c0,3.8,0.9,7.3,4.3,9.6c5.6,3.8,12.9,0.5,13.6-6.6
		c0.7-6.4,0.4-12.9,0.4-19.4c0-2.5-0.1-4.4,3.5-4.3c3.4,0,3.7,1.5,3.6,4.2c-0.1,9.5,0,18.9-0.1,28.4c0,1.7,1.4,4.4-1.9,4.7
		C868.1,259.5,864.8,260.5,865.2,255.1z"/>
	<path class="st1" d="M674.9,255c-3.2,2.6-5.6,4.6-8.8,5.1c-7.9,1.2-14.4-3.2-16-11.4c-1.6-8.1-0.4-16.2-0.7-24.4
		c-0.1-3.1,2.3-2,3.9-2.2c1.9-0.2,3.2,0.1,3.1,2.6c-0.1,5-0.1,10,0,15c0.1,2.5,0.2,5,0.8,7.4c1.1,4.4,4.1,6.9,8.6,6.8
		c4.5-0.1,7.5-2.5,8.5-7c1.5-6.7,0.4-13.6,0.7-20.4c0.1-2.3-0.6-4.5,3.3-4.5c3.9,0,3.8,1.9,3.8,4.6c-0.1,9.5,0,18.9-0.1,28.4
		c0,1.7,1.2,4.3-2.3,4.4C677.1,259.4,674,260.2,674.9,255z"/>
	<path class="st1" d="M610.1,226.6c5.6-5.3,11.2-7,17.5-3.9c6.3,3.2,7.9,9,7.9,15.5c0,6-0.1,12,0,18c0.1,2.8-1.1,3.3-3.5,3.3
		c-2.4,0-3.7-0.5-3.6-3.3c0.2-5.8,0.2-11.6,0-17.5c-0.2-7.3-3.6-11.1-9.5-10.9c-5.4,0.2-8.6,4.3-8.7,11.2c0,5.3-0.1,10.6,0,16
		c0,2.7,0.2,4.7-3.7,4.6c-3.7-0.1-3.4-2-3.4-4.4c0-9.6,0-19.3,0.1-28.9c0-1.7-1.1-4.2,2.5-4.2C608.4,222,611.2,221.5,610.1,226.6z"
		/>
	<path class="st1" d="M698.2,244c0-3.3,0.1-6.7,0-10c0-2.4,1.1-5.4-3.4-5.5c-2,0-1.2-2.3-1.3-3.7c-0.1-1.4-0.1-2.9,1.9-2.7
		c3.2,0.3,2.9-1.7,2.9-3.8c0-3.7-0.2-7.3,0.1-11c0.5-6.1,4.6-9.2,10.6-8.1c3.7,0.6,5.2,3.2,4.2,6.8c-0.5,2-1.7,1.1-2.7,0.9
		c-3.8-0.7-5.3,0.9-5.2,4.6c0.1,1.7,0.2,3.3,0,5c-0.5,4,0.3,6.6,5.2,5.6c2.9-0.6,2.7,1.4,2.7,3.4c0,2-0.1,3.9-2.8,3.3
		c-5.1-1-5.2,2-5.1,5.7c0.2,7.1,0,14.3,0.1,21.4c0.1,2.5-0.6,3.5-3.3,3.5c-2.5-0.1-4.1-0.3-3.9-3.5C698.4,252,698.2,248,698.2,244z"
		/>
	<path class="st3" d="M800.5,248.8c0.6,8.1-0.2,9.2-7,10.8c-7.8,1.9-16.5-1.5-20.5-8c-4.5-7.2-4-17.1,1.1-23.4
		c5.1-6.2,14.1-8.5,21.7-6c5.3,1.7,5.6,5.3,4.8,10c-4.6-2.6-9.3-5.3-14.9-3.4c-2.8,0.9-5,2.6-6.6,5c-3.1,4.6-2.6,11.2,1.2,15.2
		C785.1,254.3,791.9,254.3,800.5,248.8z"/>
	<path class="st4" d="M822.3,244.6c0,3.7-0.1,7.3,0,11c0.1,2.6-0.3,4-3.5,3.9c-2.9-0.1-3.7-1-3.7-3.8c0.2-7.6,0-15.3,0.1-23
		c0-2,0.4-4.2-2.8-3.9c-1.5,0.1-2-1-2-2.3c0.1-1.4-0.6-4,0.7-4c6.2-0.1,3.7-4.6,4-7.5c0.2-2,0.5-3,2.8-3.1c3-0.1,4.9,0.4,4.3,4
		c-0.7,4.2,0.1,7.2,5.5,6.2c2.7-0.5,2.2,1.7,2.2,3.3c0,1.6,0.4,3.8-2.2,3.4c-5.5-0.9-5.9,2.1-5.6,6.3
		C822.5,238.2,822.3,241.4,822.3,244.6z"/>
	<path class="st5" d="M894.3,227.4c2.1-1.9,3.1-3,4.3-3.9c1.7-1.3,3.8-2.9,5.8-2c1.9,0.8,0.6,3.3,0.9,5c0.5,3.3-2.1,2.6-3.9,3.1
		c-4.1,1.2-6.5,3.9-6.6,8.3c-0.2,5.5-0.1,11-0.2,16.4c0,2.5,0.8,5.3-3.7,5.2c-4.2-0.1-3.4-2.6-3.4-5c0-9.1-0.1-18.3,0.1-27.4
		c0-1.9-1.7-4.9,2.5-5.2C893.3,221.8,895.6,222.3,894.3,227.4z"/>
	<path class="st3" d="M924.1,240.6c0,5.1-0.1,10.3,0.1,15.4c0.1,2.6-0.8,3.4-3.4,3.4c-2.6,0-3.9-0.4-3.8-3.5
		c0.2-10.3,0.2-20.6,0-30.9c-0.1-3,1.5-3,3.7-3.1c2.4-0.1,3.7,0.3,3.5,3.2C923.9,230.3,924.1,235.5,924.1,240.6z"/>
	<path class="st6" d="M925.3,210c-0.1,2.8-1.6,4.6-4.4,4.8c-2.8,0.2-4.8-1.3-5-4.3c-0.2-3.1,1.5-5.2,4.6-5.3
		C923.3,205.2,925,206.9,925.3,210z"/>
	<path class="st0" d="M362.4,56c-3.3-27.4-27.6-48.6-56.2-48.7c-25.8-0.1-51.6,0-77.4,0c-26,0-51.9-0.2-77.9,0
		c-36.3,0.3-63,34.6-54.4,69.7c6.6,27,28.9,43.8,58.4,43.9c48.8,0.1,97.5,0,146.3,0c6.7,0,13.3-0.3,19.8-2.1
		C348.7,111,366,85,362.4,56z M158.2,91.3c-14.9-0.2-27-12.6-26.9-27.6c0.2-15.2,12.7-27.4,27.9-27.2c15,0.3,27,12.6,26.8,27.6
		C185.8,79.5,173.5,91.5,158.2,91.3z M298.8,91.3c-14.9-0.1-27.2-12.7-27.1-27.5c0.1-15.1,12.7-27.4,27.9-27.3
		c14.9,0.1,27.1,12.5,27,27.5C326.5,79.3,314.1,91.4,298.8,91.3z"/>
	<path class="st0" d="M432.6,205.5c-2.8-2.6-5.8-5.1-8.2-8c-2.8-3.4-4.6-3.5-7.9-0.1c-8.1,8.5-21.2,9.5-31.1,3
		c-9.6-6.3-13.8-18.6-9.9-29.4c6.4-17.7,28.6-22.3,42-8.8c1,1,1.6,4.4,4.3,1.6c3.8-3.8,7.6-7.4,11.5-11.1c0.9-0.9,1.3-1.6,0.5-3
		c-2.8-4.7-6.3-5.9-11.4-3.7c-7.9,3.5-13.5,1.2-16.2-7c-1.2-3.6-2.6-5.4-6.9-5.3c-4.1,0.1-6.1,1.2-7.4,5.2
		c-2.7,8.4-8.8,10.8-16.6,6.7c-3.2-1.7-5.3-1.7-8.2,1c-3.3,3-4,5.7-1.6,9.3c0.7,1.1,1.3,2.3,1.8,3.5c1.4,3.3-0.9,7.3-4.4,7.3
		c-15.5,0.1-31,0-46.4,0.1c-2.7,0-3.4-1-3.4-3.5c0.1-7-0.2-14,0.1-21c0.2-3.9-0.9-5.1-5-5c-26.5,0.2-52.9,0.1-79.4,0.1
		c-26.6,0-53.3,0.1-79.9-0.1c-3.5,0-4.6,0.9-4.4,4.4c0.3,7.1,0,14.3,0.1,21.5c0.1,2.9-0.9,3.6-3.7,3.6c-15.3-0.1-30.6,0-45.9-0.1
		c-3.8,0-6.1-3.5-4.8-7c0.6-1.6,1.1-3.2,2.1-4.5c2.6-3.6,0.8-5.9-1.7-8.5c-2.6-2.7-4.8-2.9-8.2-1.2c-8.2,4.3-14.1,1.9-16.9-7
		c-1.1-3.5-2.8-4.7-6.6-5c-5.5-0.5-6.6,2.7-7.9,6.6c-2.1,6.4-8.8,9-14.8,6.1c-1.2-0.6-2.4-1.2-3.6-1.7c-5-2.1-6.2,2.7-8.6,4.9
		c-2.4,2.2,0.9,3.2,2.1,4.5c2.5,2.7,5.3,5.1,7.8,7.7c2.3,2.4,3.6,3.6,6.7,0.2c9.1-9.9,24.2-10.4,34.2-1.8
		c10.1,8.7,11.9,23.9,3.9,34.2c-8.1,10.5-22.8,13.1-34,6.1c-2.9-1.8-4.5-6.9-8.1-5.6c-3.1,1.1-5.4,4.7-8.1,7.3
		c-1.4,1.4-2.9,2.7-4.4,4.1c-0.7,0.7-1.3,1.2-0.6,2.5c2.3,4.8,6.7,6.4,11.6,4.1c8.1-3.8,13.7-1.4,16.3,7.2c1.1,3.5,2.5,5.1,6.5,5.1
		c4-0.1,6.3-0.9,7.6-5.1c2.7-8.8,8.3-10.9,16.8-7c1.6,0.7,3.1,2.6,5.4,1.3c5.2-2.9,6.5-6.8,3.9-12.1c-0.4-0.9-0.9-1.8-1.3-2.7
		c-1.7-4.1,0.4-7.5,4.9-7.5c15.1,0,30.3,0.1,45.4-0.1c3.1,0,3.9,0.8,3.9,3.9c-0.2,11.8,0,23.6-0.1,35.4c-0.1,3.4,0.7,4.5,4.3,4.5
		c53.3-0.1,106.5-0.1,159.8,0c3.6,0,4.6-1.1,4.5-4.6c-0.2-11.8,0.1-23.6-0.1-35.4c0-3.1,0.9-3.9,3.9-3.9c15.1,0.1,30.3,0,45.4,0.1
		c4.2,0,6.5,3.8,4.7,7.7c-0.9,2-1.9,3.9-2.9,5.8c-0.4,0.9-1,1.6-0.5,2.8c1.9,4.6,7.2,6.7,11.8,4.5c7.9-3.6,13.7-1.4,16.2,6.7
		c1.3,4.2,3.3,5.4,7.7,5.6c5.3,0.2,5.7-3.3,6.9-6.6c2.4-6.7,9.1-9.8,15.1-6.1c5.1,3.1,7.9,1.5,11.2-2.3
		C434.8,208.2,434.4,207.1,432.6,205.5z M228.9,204.6c-13.9,0-25.1-11-25.2-24.8c-0.1-13.4,10.2-23.8,23.9-24
		c14.2-0.2,26,11.3,25.9,25.3C253.3,194.4,242.7,204.5,228.9,204.6z"/>
	<path class="st0" d="M597.2,112c-0.2-6.3-0.6-12.6-2-18.8c-11.2-50.4-60.5-56-88.3-35.6c-24.7,18.1-31.5,57-15,84
		c21,34.2,66.2,32.3,89.7,17.2c1.7-1.1,2.4-2.4,2.4-4.5c-0.1-6.1,0-12.3,0-18.7c-2.2-0.1-3.2,1.2-4.4,1.9c-12,7.3-24.9,10.6-39,9.8
		c-15.4-1-28.1-10.4-33.1-24.8c-1.9-5.6-1.9-5.7,4.1-5.7c26.8,0,53.6-0.1,80.4,0.1C595.9,116.9,597.3,116,597.2,112z M569.3,98.3
		c-10-0.2-19.9-0.1-29.9-0.1s-19.9-0.1-29.9,0c-2.9,0-3.2-0.7-2.4-3.4c4.4-15.7,17.5-25.9,33.6-25.8c15.4,0.1,27.4,9.7,31.8,25.2
		C573.3,97.6,572.7,98.4,569.3,98.3z"/>
	<path class="st0" d="M788.1,46.4c-34.1,0-60.6,26.9-60.5,61.5c0.1,34.4,26.4,61.1,60.3,61.2c34.5,0.1,61-26.6,61-61.5
		C848.9,73.2,822.4,46.5,788.1,46.4z M788.1,146.7c-21.4,0-37.9-17.3-37.7-39.4c0.2-21.7,16.6-38.5,37.5-38.5
		c22,0,38.1,16.6,38,39.3C825.7,130.3,809.6,146.7,788.1,146.7z"/>
	<path class="st7" d="M1021.8,225c0-2-0.4-2.8-2.7-3.1c-4-0.5-4.8,1.4-4.2,5.5c-9.3-7.7-18.3-7.8-25-1.1c-6.8,6.9-7.4,19.9-1.2,27.4
		c2.8,3.4,6.3,5.3,10.6,6.1c6,1.1,10.9-1.5,15.4-5.7c0.7,4.9,0,9-3.7,11.7c-7.1,5.2-14.1,1.4-20.9-1.5c-0.5,7.4-0.2,7.9,6.4,9.6
		c2.9,0.8,5.8,1.2,8.9,1c9.1-0.6,16.1-6.9,16.4-15.6C1022,247.9,1021.8,236.5,1021.8,225z M1003.3,253.1c-6.7,0.1-11.5-5-11.6-12.2
		c0-7.1,4.8-12.5,11.3-12.6c6.3-0.1,11.7,5.6,11.8,12.3C1014.9,247.5,1009.8,253,1003.3,253.1z"/>
	<path class="st7" d="M588.2,254.6c0.1-9.5-0.1-18.9,0.1-28.4c0.1-3.7-1.2-4.2-4.5-4.3c-4.1-0.1-1.9,3.3-3.1,4.8
		c-9.7-7-18.9-6.9-25.1,0.3c-6.5,7.5-6.5,20.4,0.1,27.5c6.7,7.2,15.5,7.4,25.6-0.3c-0.9,4.1,0.4,5.3,4,5.2
		C589.6,259.3,588.2,256.5,588.2,254.6z M569.5,253.1c-6.7,0-11.3-5.1-11.3-12.4c0-7.1,5-12.4,11.5-12.4c6.3,0,11.6,5.8,11.6,12.5
		C581.1,247.7,576,253.1,569.5,253.1z"/>
	<path class="st7" d="M757.2,225.1c0-2.4-0.8-2.9-3.1-3.1c-3.8-0.3-4.5,1.6-3.9,5.3c-9.7-7.7-18.5-7.7-25.3-0.5
		c-6.8,7.2-6.9,20.5-0.2,27.9c6.4,7.1,15.5,7.1,25.2-0.1c0.1,0.8,0.2,1.4,0.1,2c-0.5,3.7,2.3,2.7,4.2,2.9c2.8,0.3,2.8-1.3,2.8-3.4
		C757.1,245.7,757,235.4,757.2,225.1z M738.3,253.1c-6.6,0-11.4-5.3-11.3-12.5c0-7,5.1-12.4,11.6-12.3c6.4,0.1,11.6,5.8,11.5,12.6
		C750,247.8,744.8,253.1,738.3,253.1z"/>
	<path class="st7" d="M243.6,179.4c0,8.3-6.7,14.9-14.9,14.8c-8-0.1-14.5-6.6-14.6-14.7c-0.1-8.1,6.7-14.9,14.9-14.8
		C237.1,164.8,243.6,171.4,243.6,179.4z"/>
</g>
</svg>
