<svg xmlns="http://www.w3.org/2000/svg" xmlns:xlink="http://www.w3.org/1999/xlink" width="1000" zoomAndPan="magnify" viewBox="0 0 750 225" height="300" preserveAspectRatio="xMidYMid meet" version="1.0"><defs><g/></defs><path fill="#e0b226" d="M 65.460938 176.160156 C 89.695312 196.40625 118.132812 202.621094 148.773438 196.605469 C 174.609375 191.59375 195.039062 177.964844 209.457031 155.511719 C 211.257812 152.703125 212.0625 150.097656 211.660156 146.890625 C 211.058594 142.882812 210.859375 138.871094 209.859375 135.0625 C 204.050781 111.808594 189.832031 95.371094 168.800781 84.546875 C 154.183594 76.925781 138.5625 74.921875 122.339844 75.722656 C 111.523438 76.324219 101.511719 78.933594 92.296875 84.746094 C 89.09375 86.75 86.890625 89.558594 85.691406 93.164062 C 84.488281 97.777344 87.492188 101.785156 92.296875 101.984375 C 95.703125 101.984375 98.90625 100.78125 101.710938 98.980469 C 110.722656 93.566406 120.335938 91.761719 130.75 93.164062 C 155.785156 96.773438 172.007812 122.632812 163.796875 146.488281 C 157.585938 164.730469 139.761719 175.957031 119.136719 174.554688 C 101.3125 173.351562 87.691406 164.730469 78.28125 149.695312 C 61.457031 123.035156 66.863281 85.746094 90.496094 64.296875 C 103.714844 52.269531 118.933594 46.253906 136.957031 49.261719 C 156.984375 52.46875 170.203125 64.699219 178.214844 82.941406 C 179.015625 84.746094 180.015625 86.347656 181.820312 87.550781 C 189.628906 92.765625 196.238281 99.179688 201.648438 106.597656 C 209.457031 117.621094 214.0625 129.851562 215.265625 143.28125 C 215.464844 143.082031 215.664062 143.082031 215.867188 142.882812 C 216.066406 142.480469 216.265625 142.28125 216.265625 141.878906 C 225.078125 118.023438 223.476562 94.96875 210.457031 73.117188 C 195.039062 48.058594 172.007812 34.027344 143.167969 30.019531 C 110.523438 25.40625 81.683594 34.226562 58.253906 58.082031 C 43.832031 72.71875 35.820312 90.558594 35.421875 111.207031 C 34.820312 137.667969 45.234375 159.320312 65.460938 176.160156 Z M 65.460938 176.160156 " fill-opacity="1" fill-rule="nonzero"/><path fill="#e0b429" d="M 491.546875 126.304688 C 493.664062 126.039062 492.871094 123.65625 492.871094 122.335938 C 492.871094 101.691406 492.871094 81.046875 492.871094 60.402344 C 492.871094 58.8125 493.929688 55.902344 490.75 56.167969 C 487.839844 56.167969 489.160156 58.8125 489.160156 60.402344 C 489.160156 75.222656 489.160156 90.042969 489.160156 104.867188 C 488.898438 104.867188 488.632812 104.867188 488.367188 104.867188 C 484.660156 89.78125 480.6875 74.429688 476.714844 59.34375 C 476.1875 57.753906 476.449219 55.636719 473.539062 55.902344 C 470.890625 56.167969 471.683594 58.285156 471.683594 59.609375 C 471.683594 80.515625 471.683594 101.691406 471.683594 122.597656 C 471.683594 124.1875 470.890625 126.570312 473.804688 126.304688 C 476.449219 126.039062 475.65625 123.65625 475.65625 122.070312 C 475.65625 110.160156 475.65625 98.515625 475.65625 86.605469 C 475.65625 83.429688 475.65625 79.988281 475.65625 76.8125 C 477.246094 78.398438 477.773438 80.253906 478.304688 82.105469 C 481.746094 95.601562 485.191406 109.101562 488.632812 122.597656 C 489.160156 124.1875 488.632812 126.832031 491.546875 126.304688 Z M 491.546875 126.304688 " fill-opacity="1" fill-rule="nonzero"/><path fill="#e1b42b" d="M 405.214844 111.484375 C 407.863281 96.925781 407.863281 82.371094 404.6875 67.8125 C 403.097656 59.871094 399.65625 54.84375 389.328125 55.902344 C 386.414062 56.167969 385.355469 56.960938 385.355469 59.871094 C 385.621094 70.195312 385.355469 80.78125 385.355469 91.101562 C 385.355469 101.425781 385.355469 112.011719 385.355469 122.335938 C 385.355469 123.921875 384.824219 125.773438 387.472656 126.570312 C 393.300781 128.15625 398.332031 126.039062 401.242188 120.746094 C 403.097656 117.835938 404.6875 114.921875 405.214844 111.484375 Z M 398.597656 117.304688 C 398.066406 119.160156 397.273438 121.011719 395.417969 122.070312 C 393.828125 123.128906 392.242188 123.65625 390.386719 123.128906 C 388.269531 122.597656 389.0625 120.480469 389.0625 119.160156 C 389.0625 109.894531 389.0625 100.367188 389.0625 91.101562 C 389.0625 81.839844 389.0625 72.839844 389.0625 63.578125 C 389.0625 59.34375 391.179688 58.019531 394.886719 59.871094 C 397.273438 61.195312 399.125 63.3125 399.65625 65.960938 C 404.15625 83.164062 404.6875 100.367188 398.597656 117.304688 Z M 398.597656 117.304688 " fill-opacity="1" fill-rule="nonzero"/><path fill="#e0b328" d="M 272.542969 55.375 C 271.21875 55.375 269.632812 55.375 268.308594 55.375 C 259.570312 55.375 257.980469 57.226562 257.980469 65.960938 C 257.980469 74.164062 257.980469 82.632812 257.980469 90.839844 C 257.980469 98.515625 257.980469 106.453125 257.980469 114.128906 C 257.980469 125.773438 259.304688 127.097656 270.691406 126.832031 C 276.78125 126.832031 278.898438 124.714844 279.164062 118.628906 C 279.164062 111.484375 279.164062 104.070312 279.164062 96.925781 C 279.164062 90.574219 278.371094 90.042969 272.28125 90.839844 C 271.21875 91.101562 270.160156 90.839844 269.894531 92.164062 C 269.632812 93.75 270.691406 94.28125 272.015625 94.28125 C 274.398438 94.015625 275.457031 95.074219 275.457031 97.71875 C 275.191406 104.601562 275.191406 111.484375 275.191406 118.363281 C 275.191406 123.921875 271.21875 122.863281 267.777344 123.128906 C 264.070312 123.394531 261.953125 122.070312 261.953125 118.101562 C 261.953125 113.335938 261.953125 108.570312 261.953125 103.808594 C 261.953125 91.367188 261.953125 79.191406 261.953125 66.753906 C 261.953125 59.871094 262.480469 59.609375 268.574219 59.34375 C 274.929688 59.34375 275.191406 59.609375 275.191406 66.222656 C 275.191406 69.402344 275.191406 72.578125 275.191406 75.753906 C 275.191406 77.074219 275.191406 78.132812 277.046875 78.398438 C 278.898438 78.398438 278.898438 77.339844 278.898438 76.015625 C 278.898438 71.253906 278.898438 66.488281 278.898438 61.726562 C 278.636719 57.753906 276.515625 55.375 272.542969 55.375 Z M 272.542969 55.375 " fill-opacity="1" fill-rule="nonzero"/><path fill="#e0b328" d="M 569.929688 93.222656 C 569.929688 91.898438 569.402344 90.839844 567.8125 90.839844 C 565.429688 91.101562 562.78125 89.78125 560.660156 91.632812 C 559.867188 92.425781 560.398438 94.28125 561.984375 94.28125 C 567.8125 93.484375 566.488281 97.457031 566.488281 100.632812 C 566.488281 105.925781 566.488281 111.21875 566.488281 116.511719 C 566.488281 121.011719 565.164062 123.128906 560.132812 123.128906 C 555.367188 123.128906 552.71875 121.804688 552.980469 116.511719 C 553.246094 107.25 552.980469 98.25 552.980469 88.984375 C 552.980469 81.046875 552.980469 73.105469 552.980469 65.164062 C 552.980469 59.34375 556.425781 59.078125 560.925781 59.078125 C 565.691406 59.078125 566.753906 61.195312 566.488281 65.164062 C 566.222656 68.605469 566.488281 72.3125 566.488281 75.753906 C 566.488281 77.074219 566.488281 78.132812 568.339844 78.132812 C 570.195312 78.132812 570.195312 76.8125 570.195312 75.753906 C 570.195312 72.046875 570.195312 68.34375 570.195312 64.636719 C 570.195312 57.492188 568.605469 55.636719 562.515625 55.375 C 551.394531 55.109375 549.539062 56.167969 549.011719 63.84375 C 548.746094 72.839844 549.011719 81.839844 549.011719 90.839844 C 549.011719 90.839844 549.273438 90.839844 549.273438 90.839844 C 549.273438 100.632812 549.273438 110.160156 549.273438 119.953125 C 549.273438 123.65625 550.863281 126.304688 554.835938 126.570312 C 559.601562 126.570312 564.898438 128.949219 568.605469 124.1875 C 569.136719 123.394531 569.664062 122.335938 569.664062 121.277344 C 569.664062 112.011719 569.664062 102.484375 569.929688 93.222656 Z M 569.929688 93.222656 " fill-opacity="1" fill-rule="nonzero"/><path fill="#e0b328" d="M 321.535156 117.835938 C 321.800781 100.894531 321.800781 83.957031 322.066406 67.019531 C 322.066406 55.902344 321.003906 55.109375 309.882812 55.109375 C 309.617188 55.109375 309.617188 55.109375 309.355469 55.109375 C 303 55.375 301.144531 56.960938 301.144531 63.3125 C 301.144531 72.578125 301.144531 81.574219 301.144531 90.839844 C 301.144531 99.835938 301.144531 108.835938 301.144531 117.835938 C 301.144531 124.980469 303 126.570312 310.941406 126.570312 C 319.152344 126.832031 321.535156 124.714844 321.535156 117.835938 Z M 318.355469 116.777344 C 318.355469 121.804688 315.972656 123.128906 311.207031 123.128906 C 306.175781 123.128906 304.585938 121.011719 304.585938 116.511719 C 304.585938 108.308594 304.585938 99.835938 304.585938 91.632812 C 304.585938 82.898438 304.585938 74.429688 304.585938 65.695312 C 304.585938 61.195312 306.175781 59.078125 311.207031 59.078125 C 315.972656 59.078125 318.621094 60.136719 318.355469 65.429688 C 318.355469 82.371094 318.355469 99.574219 318.355469 116.777344 Z M 318.355469 116.777344 " fill-opacity="1" fill-rule="nonzero"/><path fill="#e0b327" d="M 613.09375 94.28125 C 611.242188 82.898438 609.386719 71.253906 607.535156 59.871094 C 607.269531 58.285156 607.796875 55.902344 605.148438 55.902344 C 604.089844 55.902344 603.03125 55.636719 602.503906 57.226562 C 602.238281 58.550781 601.972656 59.871094 601.707031 61.460938 C 598.53125 81.839844 595.617188 102.21875 592.4375 122.597656 C 592.175781 124.1875 590.585938 126.304688 593.234375 127.097656 C 596.148438 127.890625 595.882812 125.246094 596.148438 123.394531 C 598.792969 104.867188 601.179688 86.339844 603.828125 67.285156 C 605.148438 69.402344 605.148438 71.253906 605.414062 73.105469 C 607.796875 90.042969 610.445312 106.984375 612.828125 123.921875 C 613.09375 125.773438 613.359375 127.628906 615.742188 127.363281 C 618.921875 127.097656 617.332031 124.980469 617.066406 123.394531 C 616.273438 113.335938 614.683594 103.808594 613.09375 94.28125 Z M 613.09375 94.28125 " fill-opacity="1" fill-rule="nonzero"/><path fill="#e1b52d" d="M 447.058594 122.863281 C 443.347656 122.863281 439.640625 122.863281 435.933594 122.863281 C 433.285156 122.863281 432.492188 122.070312 432.492188 119.421875 C 432.757812 113.863281 432.492188 108.570312 432.492188 103.011719 C 432.492188 91.898438 432.492188 91.898438 443.347656 91.898438 C 443.878906 91.898438 444.410156 91.898438 444.9375 91.898438 C 445.996094 91.898438 447.585938 92.425781 447.585938 90.308594 C 447.585938 88.457031 446.527344 87.925781 444.9375 87.925781 C 442.023438 87.925781 438.847656 87.925781 435.933594 87.925781 C 433.550781 87.925781 432.492188 87.132812 432.492188 84.488281 C 432.492188 76.8125 432.492188 69.402344 432.492188 61.726562 C 432.492188 59.34375 433.285156 58.550781 435.667969 58.8125 C 439.378906 59.078125 443.085938 58.8125 446.792969 58.8125 C 447.851562 58.8125 448.910156 58.8125 449.175781 57.492188 C 449.441406 55.636719 448.117188 55.636719 446.792969 55.636719 C 442.023438 55.636719 437.257812 55.902344 432.492188 55.636719 C 429.3125 55.375 428.519531 56.695312 428.785156 59.609375 C 429.050781 69.929688 428.785156 80.515625 428.785156 90.839844 C 428.785156 101.425781 428.785156 112.011719 428.785156 122.597656 C 428.785156 125.773438 429.578125 127.097656 433.023438 126.832031 C 437.789062 126.570312 442.554688 126.832031 447.320312 126.832031 C 448.644531 126.832031 449.96875 127.097656 449.96875 125.246094 C 449.96875 123.394531 448.644531 122.863281 447.058594 122.863281 Z M 447.058594 122.863281 " fill-opacity="1" fill-rule="nonzero"/><path fill="#e0b327" d="M 699.425781 126.832031 C 700.746094 126.832031 702.601562 127.097656 702.601562 124.980469 C 702.601562 122.597656 700.746094 122.863281 699.160156 122.863281 C 695.714844 122.863281 692.007812 122.597656 688.566406 122.863281 C 685.917969 122.863281 685.125 122.070312 685.125 119.421875 C 685.125 113.863281 685.125 108.570312 685.125 103.011719 C 685.125 91.898438 685.125 91.898438 695.980469 91.898438 C 696.777344 91.898438 697.304688 91.898438 698.101562 91.898438 C 699.160156 91.898438 700.746094 92.164062 700.746094 90.308594 C 700.746094 88.722656 699.6875 88.191406 698.363281 88.191406 C 695.453125 88.191406 692.273438 87.925781 689.359375 88.191406 C 685.917969 88.457031 685.125 87.132812 685.125 83.957031 C 685.390625 77.074219 685.390625 70.195312 685.125 63.3125 C 684.859375 59.609375 686.449219 58.8125 689.625 59.078125 C 692.804688 59.34375 695.980469 59.078125 699.160156 59.078125 C 700.21875 59.078125 701.808594 59.34375 701.808594 57.492188 C 701.808594 55.636719 700.484375 55.636719 699.160156 55.636719 C 694.921875 55.636719 690.683594 55.902344 686.449219 55.636719 C 682.742188 55.375 681.152344 56.433594 681.417969 60.402344 C 681.679688 70.722656 681.417969 80.78125 681.417969 91.101562 C 681.417969 97.457031 681.152344 103.808594 681.417969 110.160156 C 681.679688 115.453125 679.035156 122.863281 682.476562 125.773438 C 685.917969 128.421875 692.804688 126.570312 698.363281 126.832031 C 699.160156 126.832031 699.425781 126.832031 699.425781 126.832031 Z M 699.425781 126.832031 " fill-opacity="1" fill-rule="nonzero"/><path fill="#e1b42a" d="M 362.847656 122.863281 C 359.402344 122.863281 356.226562 122.597656 352.78125 122.863281 C 348.8125 123.128906 347.75 122.070312 347.75 118.101562 C 348.015625 98.515625 347.75 78.929688 347.75 59.34375 C 347.75 57.753906 348.28125 55.375 345.367188 55.636719 C 342.71875 55.636719 343.515625 58.019531 343.515625 59.34375 C 343.515625 69.929688 343.515625 80.515625 343.515625 91.101562 C 343.515625 101.953125 343.515625 112.542969 343.515625 123.394531 C 343.515625 124.980469 342.984375 127.097656 345.898438 127.097656 C 351.460938 127.097656 357.285156 127.097656 362.847656 127.097656 C 364.433594 127.097656 364.964844 126.039062 364.699219 124.714844 C 364.964844 122.863281 363.90625 122.863281 362.847656 122.863281 Z M 362.847656 122.863281 " fill-opacity="1" fill-rule="nonzero"/><path fill="#e2b737" d="M 656.523438 55.902344 C 651.757812 55.902344 646.992188 55.902344 642.222656 55.902344 C 640.898438 55.902344 639.046875 55.375 638.78125 57.492188 C 638.515625 60.136719 640.898438 59.609375 642.222656 59.34375 C 646.992188 58.550781 647.253906 61.195312 647.253906 64.902344 C 646.992188 74.164062 647.253906 83.691406 647.253906 92.957031 C 647.253906 102.75 647.253906 112.277344 647.253906 122.070312 C 647.253906 123.65625 645.929688 126.570312 649.109375 126.832031 C 652.023438 126.832031 650.964844 123.921875 650.964844 122.335938 C 650.964844 103.542969 651.226562 85.015625 650.964844 66.222656 C 650.964844 61.726562 651.226562 58.550781 656.789062 59.609375 C 658.113281 59.871094 659.964844 60.136719 659.703125 57.753906 C 659.4375 55.109375 657.847656 55.902344 656.523438 55.902344 Z M 656.523438 55.902344 " fill-opacity="1" fill-rule="nonzero"/><g fill="#e0b226" fill-opacity="1"><g transform="translate(255.554169, 163.323637)"><g><path d="M 5.203125 -10.71875 L 5.203125 -1.453125 L 7.703125 -0.96875 L 7.703125 0 L 0.890625 0 L 0.890625 -0.96875 L 2.828125 -1.453125 L 2.828125 -23 L 0.71875 -23.46875 L 0.71875 -24.4375 L 7.828125 -24.4375 C 9.890625 -24.4375 11.410156 -23.921875 12.390625 -22.890625 C 13.378906 -21.859375 13.875 -20.203125 13.875 -17.921875 C 13.875 -16.285156 13.570312 -14.875 12.96875 -13.6875 C 12.375 -12.507812 11.550781 -11.691406 10.5 -11.234375 L 14.953125 -1.453125 L 16.734375 -0.96875 L 16.734375 0 L 12.796875 0 L 8.15625 -10.71875 Z M 11.421875 -17.65625 C 11.421875 -19.519531 11.113281 -20.84375 10.5 -21.625 C 9.894531 -22.40625 8.828125 -22.796875 7.296875 -22.796875 L 5.203125 -22.796875 L 5.203125 -12.359375 L 7.375 -12.359375 C 8.84375 -12.359375 9.882812 -12.757812 10.5 -13.5625 C 11.113281 -14.375 11.421875 -15.738281 11.421875 -17.65625 Z M 11.421875 -17.65625 "/></g></g></g><g fill="#e0b226" fill-opacity="1"><g transform="translate(285.510011, 163.323637)"><g><path d="M 0.71875 -0.96875 L 2.828125 -1.453125 L 2.828125 -23 L 0.71875 -23.46875 L 0.71875 -24.4375 L 13.078125 -24.4375 L 13.078125 -18.59375 L 12.265625 -18.59375 L 11.875 -22.546875 C 10.957031 -22.710938 9.628906 -22.796875 7.890625 -22.796875 L 5.203125 -22.796875 L 5.203125 -13.25 L 9.65625 -13.25 L 10.03125 -16.171875 L 10.8125 -16.171875 L 10.8125 -8.65625 L 10.03125 -8.65625 L 9.65625 -11.609375 L 5.203125 -11.609375 L 5.203125 -1.640625 L 8.453125 -1.640625 C 10.554688 -1.640625 11.9375 -1.738281 12.59375 -1.9375 L 13.296875 -6.453125 L 14.109375 -6.453125 L 13.875 0 L 0.71875 0 Z M 0.71875 -0.96875 "/></g></g></g><g fill="#e0b226" fill-opacity="1"><g transform="translate(314.054398, 163.323637)"><g><path d="M 1.703125 -6.578125 L 2.5 -6.578125 L 2.9375 -3.28125 C 3.238281 -2.707031 3.757812 -2.203125 4.5 -1.765625 C 5.238281 -1.328125 5.96875 -1.109375 6.6875 -1.109375 C 7.832031 -1.109375 8.726562 -1.539062 9.375 -2.40625 C 10.019531 -3.28125 10.34375 -4.484375 10.34375 -6.015625 C 10.34375 -6.890625 10.21875 -7.613281 9.96875 -8.1875 C 9.71875 -8.757812 9.390625 -9.238281 8.984375 -9.625 C 8.578125 -10.019531 8.113281 -10.351562 7.59375 -10.625 C 7.082031 -10.90625 6.550781 -11.1875 6 -11.46875 C 5.457031 -11.75 4.925781 -12.054688 4.40625 -12.390625 C 3.894531 -12.734375 3.4375 -13.164062 3.03125 -13.6875 C 2.632812 -14.207031 2.3125 -14.851562 2.0625 -15.625 C 1.8125 -16.394531 1.6875 -17.347656 1.6875 -18.484375 C 1.6875 -20.421875 2.175781 -21.941406 3.15625 -23.046875 C 4.132812 -24.160156 5.5 -24.71875 7.25 -24.71875 C 8.570312 -24.71875 10.007812 -24.457031 11.5625 -23.9375 L 11.5625 -18.84375 L 10.765625 -18.84375 L 10.34375 -21.828125 C 9.5 -22.734375 8.46875 -23.1875 7.25 -23.1875 C 6.144531 -23.1875 5.285156 -22.851562 4.671875 -22.1875 C 4.054688 -21.53125 3.75 -20.617188 3.75 -19.453125 C 3.75 -18.660156 3.875 -18.003906 4.125 -17.484375 C 4.375 -16.960938 4.695312 -16.515625 5.09375 -16.140625 C 5.5 -15.765625 5.960938 -15.441406 6.484375 -15.171875 C 7.003906 -14.910156 7.535156 -14.632812 8.078125 -14.34375 C 8.628906 -14.0625 9.160156 -13.738281 9.671875 -13.375 C 10.191406 -13.019531 10.65625 -12.566406 11.0625 -12.015625 C 11.46875 -11.460938 11.796875 -10.785156 12.046875 -9.984375 C 12.296875 -9.191406 12.421875 -8.210938 12.421875 -7.046875 C 12.421875 -4.691406 11.929688 -2.867188 10.953125 -1.578125 C 9.984375 -0.285156 8.582031 0.359375 6.75 0.359375 C 5.863281 0.359375 4.972656 0.242188 4.078125 0.015625 C 3.191406 -0.210938 2.398438 -0.523438 1.703125 -0.921875 Z M 1.703125 -6.578125 "/></g></g></g><g fill="#e0b226" fill-opacity="1"><g transform="translate(341.224147, 163.323637)"><g><path d="M 3.859375 0 L 3.859375 -0.96875 L 6.484375 -1.453125 L 6.484375 -22.875 L 5.859375 -22.875 C 3.785156 -22.875 2.367188 -22.753906 1.609375 -22.515625 L 1.28125 -18.703125 L 0.453125 -18.703125 L 0.453125 -24.4375 L 14.9375 -24.4375 L 14.9375 -18.703125 L 14.109375 -18.703125 L 13.765625 -22.515625 C 13.523438 -22.597656 12.988281 -22.671875 12.15625 -22.734375 C 11.332031 -22.804688 10.429688 -22.84375 9.453125 -22.84375 L 8.84375 -22.84375 L 8.84375 -1.453125 L 11.46875 -0.96875 L 11.46875 0 Z M 3.859375 0 "/></g></g></g><g fill="#e0b226" fill-opacity="1"><g transform="translate(367.755236, 163.323637)"><g><path d="M 5.65625 -0.96875 L 5.65625 0 L 0.25 0 L 0.25 -0.96875 L 2.109375 -1.453125 L 7.71875 -24.640625 L 10.046875 -24.640625 L 15.890625 -1.453125 L 17.96875 -0.96875 L 17.96875 0 L 11.015625 0 L 11.015625 -0.96875 L 13.21875 -1.453125 L 11.59375 -8.515625 L 5.109375 -8.515625 L 3.453125 -1.453125 Z M 8.296875 -22.015625 L 5.46875 -10.15625 L 11.203125 -10.15625 Z M 8.296875 -22.015625 "/></g></g></g><g fill="#e0b226" fill-opacity="1"><g transform="translate(399.097981, 163.323637)"><g><path d="M 14.234375 -23 L 12.015625 -23.46875 L 12.015625 -24.4375 L 17.625 -24.4375 L 17.625 -23.46875 L 15.515625 -23 L 15.515625 -8.40625 C 15.515625 -5.476562 14.972656 -3.285156 13.890625 -1.828125 C 12.804688 -0.367188 11.234375 0.359375 9.171875 0.359375 C 6.984375 0.359375 5.347656 -0.367188 4.265625 -1.828125 C 3.179688 -3.296875 2.640625 -5.375 2.640625 -8.0625 L 2.640625 -23 L 0.53125 -23.46875 L 0.53125 -24.4375 L 7.109375 -24.4375 L 7.109375 -23.46875 L 5 -23 L 5 -8.328125 C 5 -3.890625 6.453125 -1.671875 9.359375 -1.671875 C 10.929688 -1.671875 12.132812 -2.222656 12.96875 -3.328125 C 13.8125 -4.441406 14.234375 -6.082031 14.234375 -8.25 Z M 14.234375 -23 "/></g></g></g><g fill="#e0b226" fill-opacity="1"><g transform="translate(430.440735, 163.323637)"><g><path d="M 5.203125 -10.71875 L 5.203125 -1.453125 L 7.703125 -0.96875 L 7.703125 0 L 0.890625 0 L 0.890625 -0.96875 L 2.828125 -1.453125 L 2.828125 -23 L 0.71875 -23.46875 L 0.71875 -24.4375 L 7.828125 -24.4375 C 9.890625 -24.4375 11.410156 -23.921875 12.390625 -22.890625 C 13.378906 -21.859375 13.875 -20.203125 13.875 -17.921875 C 13.875 -16.285156 13.570312 -14.875 12.96875 -13.6875 C 12.375 -12.507812 11.550781 -11.691406 10.5 -11.234375 L 14.953125 -1.453125 L 16.734375 -0.96875 L 16.734375 0 L 12.796875 0 L 8.15625 -10.71875 Z M 11.421875 -17.65625 C 11.421875 -19.519531 11.113281 -20.84375 10.5 -21.625 C 9.894531 -22.40625 8.828125 -22.796875 7.296875 -22.796875 L 5.203125 -22.796875 L 5.203125 -12.359375 L 7.375 -12.359375 C 8.84375 -12.359375 9.882812 -12.757812 10.5 -13.5625 C 11.113281 -14.375 11.421875 -15.738281 11.421875 -17.65625 Z M 11.421875 -17.65625 "/></g></g></g><g fill="#e0b226" fill-opacity="1"><g transform="translate(460.39658, 163.323637)"><g><path d="M 5.65625 -0.96875 L 5.65625 0 L 0.25 0 L 0.25 -0.96875 L 2.109375 -1.453125 L 7.71875 -24.640625 L 10.046875 -24.640625 L 15.890625 -1.453125 L 17.96875 -0.96875 L 17.96875 0 L 11.015625 0 L 11.015625 -0.96875 L 13.21875 -1.453125 L 11.59375 -8.515625 L 5.109375 -8.515625 L 3.453125 -1.453125 Z M 8.296875 -22.015625 L 5.46875 -10.15625 L 11.203125 -10.15625 Z M 8.296875 -22.015625 "/></g></g></g><g fill="#e0b226" fill-opacity="1"><g transform="translate(491.739335, 163.323637)"><g><path d="M 14.171875 -23 L 11.96875 -23.46875 L 11.96875 -24.4375 L 17.578125 -24.4375 L 17.578125 -23.46875 L 15.46875 -23 L 15.46875 0 L 14.28125 0 L 4.125 -21.984375 L 4.125 -1.453125 L 6.328125 -0.96875 L 6.328125 0 L 0.71875 0 L 0.71875 -0.96875 L 2.828125 -1.453125 L 2.828125 -23 L 0.71875 -23.46875 L 0.71875 -24.4375 L 5.703125 -24.4375 L 14.171875 -6.34375 Z M 14.171875 -23 "/></g></g></g><g fill="#e0b226" fill-opacity="1"><g transform="translate(523.082089, 163.323637)"><g><path d="M 3.859375 0 L 3.859375 -0.96875 L 6.484375 -1.453125 L 6.484375 -22.875 L 5.859375 -22.875 C 3.785156 -22.875 2.367188 -22.753906 1.609375 -22.515625 L 1.28125 -18.703125 L 0.453125 -18.703125 L 0.453125 -24.4375 L 14.9375 -24.4375 L 14.9375 -18.703125 L 14.109375 -18.703125 L 13.765625 -22.515625 C 13.523438 -22.597656 12.988281 -22.671875 12.15625 -22.734375 C 11.332031 -22.804688 10.429688 -22.84375 9.453125 -22.84375 L 8.84375 -22.84375 L 8.84375 -1.453125 L 11.46875 -0.96875 L 11.46875 0 Z M 3.859375 0 "/></g></g></g><g fill="#e0b226" fill-opacity="1"><g transform="translate(551.172238, 163.323637)"><g/></g></g><g fill="#e0b226" fill-opacity="1"><g transform="translate(570.64647, 163.323637)"><g><path d="M 15.765625 -1.28125 C 14.816406 -0.8125 13.828125 -0.421875 12.796875 -0.109375 C 11.773438 0.203125 10.675781 0.359375 9.5 0.359375 C 6.832031 0.359375 4.753906 -0.707031 3.265625 -2.84375 C 1.773438 -4.976562 1.03125 -8.007812 1.03125 -11.9375 C 1.03125 -16.21875 1.75 -19.414062 3.1875 -21.53125 C 4.632812 -23.65625 6.753906 -24.71875 9.546875 -24.71875 C 11.546875 -24.71875 13.472656 -24.351562 15.328125 -23.625 L 15.328125 -18.375 L 14.515625 -18.375 L 14.171875 -21.390625 C 13.609375 -21.992188 12.929688 -22.453125 12.140625 -22.765625 C 11.359375 -23.085938 10.53125 -23.25 9.65625 -23.25 C 7.550781 -23.25 6.015625 -22.320312 5.046875 -20.46875 C 4.078125 -18.625 3.59375 -15.789062 3.59375 -11.96875 C 3.59375 -8.382812 4.09375 -5.664062 5.09375 -3.8125 C 6.09375 -1.957031 7.570312 -1.03125 9.53125 -1.03125 C 10.21875 -1.03125 10.9375 -1.148438 11.6875 -1.390625 C 12.4375 -1.640625 13.007812 -1.9375 13.40625 -2.28125 L 13.40625 -9.21875 L 11.296875 -9.703125 L 11.296875 -10.6875 L 17.375 -10.6875 L 17.375 -9.703125 L 15.765625 -9.21875 Z M 15.765625 -1.28125 "/></g></g></g><g fill="#e0b226" fill-opacity="1"><g transform="translate(601.989208, 163.323637)"><g><path d="M 5.203125 -10.71875 L 5.203125 -1.453125 L 7.703125 -0.96875 L 7.703125 0 L 0.890625 0 L 0.890625 -0.96875 L 2.828125 -1.453125 L 2.828125 -23 L 0.71875 -23.46875 L 0.71875 -24.4375 L 7.828125 -24.4375 C 9.890625 -24.4375 11.410156 -23.921875 12.390625 -22.890625 C 13.378906 -21.859375 13.875 -20.203125 13.875 -17.921875 C 13.875 -16.285156 13.570312 -14.875 12.96875 -13.6875 C 12.375 -12.507812 11.550781 -11.691406 10.5 -11.234375 L 14.953125 -1.453125 L 16.734375 -0.96875 L 16.734375 0 L 12.796875 0 L 8.15625 -10.71875 Z M 11.421875 -17.65625 C 11.421875 -19.519531 11.113281 -20.84375 10.5 -21.625 C 9.894531 -22.40625 8.828125 -22.796875 7.296875 -22.796875 L 5.203125 -22.796875 L 5.203125 -12.359375 L 7.375 -12.359375 C 8.84375 -12.359375 9.882812 -12.757812 10.5 -13.5625 C 11.113281 -14.375 11.421875 -15.738281 11.421875 -17.65625 Z M 11.421875 -17.65625 "/></g></g></g><g fill="#e0b226" fill-opacity="1"><g transform="translate(631.945036, 163.323637)"><g><path d="M 3.59375 -12.25 C 3.59375 -8.320312 4.035156 -5.476562 4.921875 -3.71875 C 5.804688 -1.957031 7.191406 -1.078125 9.078125 -1.078125 C 10.953125 -1.078125 12.332031 -1.957031 13.21875 -3.71875 C 14.113281 -5.476562 14.5625 -8.320312 14.5625 -12.25 C 14.5625 -16.144531 14.113281 -18.953125 13.21875 -20.671875 C 12.332031 -22.390625 10.953125 -23.25 9.078125 -23.25 C 7.179688 -23.25 5.789062 -22.390625 4.90625 -20.671875 C 4.03125 -18.953125 3.59375 -16.144531 3.59375 -12.25 Z M 1.03125 -12.25 C 1.03125 -20.5625 3.710938 -24.71875 9.078125 -24.71875 C 11.722656 -24.71875 13.722656 -23.660156 15.078125 -21.546875 C 16.441406 -19.441406 17.125 -16.34375 17.125 -12.25 C 17.125 -8.09375 16.4375 -4.953125 15.0625 -2.828125 C 13.6875 -0.703125 11.691406 0.359375 9.078125 0.359375 C 6.460938 0.359375 4.46875 -0.695312 3.09375 -2.8125 C 1.71875 -4.9375 1.03125 -8.082031 1.03125 -12.25 Z M 1.03125 -12.25 "/></g></g></g><g fill="#e0b226" fill-opacity="1"><g transform="translate(663.287773, 163.323637)"><g><path d="M 14.234375 -23 L 12.015625 -23.46875 L 12.015625 -24.4375 L 17.625 -24.4375 L 17.625 -23.46875 L 15.515625 -23 L 15.515625 -8.40625 C 15.515625 -5.476562 14.972656 -3.285156 13.890625 -1.828125 C 12.804688 -0.367188 11.234375 0.359375 9.171875 0.359375 C 6.984375 0.359375 5.347656 -0.367188 4.265625 -1.828125 C 3.179688 -3.296875 2.640625 -5.375 2.640625 -8.0625 L 2.640625 -23 L 0.53125 -23.46875 L 0.53125 -24.4375 L 7.109375 -24.4375 L 7.109375 -23.46875 L 5 -23 L 5 -8.328125 C 5 -3.890625 6.453125 -1.671875 9.359375 -1.671875 C 10.929688 -1.671875 12.132812 -2.222656 12.96875 -3.328125 C 13.8125 -4.441406 14.234375 -6.082031 14.234375 -8.25 Z M 14.234375 -23 "/></g></g></g><g fill="#e0b226" fill-opacity="1"><g transform="translate(694.630511, 163.323637)"><g><path d="M 10.53125 -17.203125 C 10.53125 -19.210938 10.210938 -20.644531 9.578125 -21.5 C 8.953125 -22.363281 7.894531 -22.796875 6.40625 -22.796875 L 5.203125 -22.796875 L 5.203125 -11.234375 L 6.484375 -11.234375 C 7.867188 -11.234375 8.890625 -11.695312 9.546875 -12.625 C 10.203125 -13.5625 10.53125 -15.085938 10.53125 -17.203125 Z M 5.203125 -9.59375 L 5.203125 -1.453125 L 7.8125 -0.96875 L 7.8125 0 L 0.890625 0 L 0.890625 -0.96875 L 2.828125 -1.453125 L 2.828125 -23 L 0.71875 -23.46875 L 0.71875 -24.4375 L 6.9375 -24.4375 C 10.957031 -24.4375 12.96875 -22.039062 12.96875 -17.25 C 12.96875 -14.738281 12.457031 -12.832031 11.4375 -11.53125 C 10.425781 -10.238281 8.96875 -9.59375 7.0625 -9.59375 Z M 5.203125 -9.59375 "/></g></g></g></svg>