<svg xmlns="http://www.w3.org/2000/svg" xmlns:xlink="http://www.w3.org/1999/xlink" width="1000" zoomAndPan="magnify" viewBox="0 0 750 225" height="300" preserveAspectRatio="xMidYMid meet" version="1.0"><defs><clipPath id="57df3d913a"><path d="M 105 30.023438 L 135 30.023438 L 135 56 L 105 56 Z M 105 30.023438 " clip-rule="nonzero"/></clipPath><clipPath id="2cf1374534"><path d="M 101 30.023438 L 135 30.023438 L 135 56 L 101 56 Z M 101 30.023438 " clip-rule="nonzero"/></clipPath><clipPath id="0d5569ee02"><path d="M 85 156 L 110 156 L 110 190.535156 L 85 190.535156 Z M 85 156 " clip-rule="nonzero"/></clipPath><clipPath id="3b877cad58"><path d="M 46.597656 88 L 78 88 L 78 113 L 46.597656 113 Z M 46.597656 88 " clip-rule="nonzero"/></clipPath><clipPath id="a880bfc23e"><path d="M 181 62 L 212.773438 62 L 212.773438 96 L 181 96 Z M 181 62 " clip-rule="nonzero"/></clipPath><clipPath id="d340449bc4"><path d="M 88 155 L 118 155 L 118 190.535156 L 88 190.535156 Z M 88 155 " clip-rule="nonzero"/></clipPath><clipPath id="3e569db3c1"><path d="M 89 151 L 121 151 L 121 190.535156 L 89 190.535156 Z M 89 151 " clip-rule="nonzero"/></clipPath><clipPath id="f4cb3ee073"><path d="M 46.597656 88 L 79 88 L 79 121 L 46.597656 121 Z M 46.597656 88 " clip-rule="nonzero"/></clipPath><clipPath id="e2e8ca16ad"><path d="M 116 30.023438 L 180 30.023438 L 180 97 L 116 97 Z M 116 30.023438 " clip-rule="nonzero"/></clipPath><clipPath id="04b1cb46e6"><path d="M 155 72 L 212.773438 72 L 212.773438 187 L 155 187 Z M 155 72 " clip-rule="nonzero"/></clipPath><clipPath id="ce179dbaf7"><path d="M 364 85 L 454 85 L 454 184.085938 L 364 184.085938 Z M 364 85 " clip-rule="nonzero"/></clipPath><clipPath id="804220a270"><path d="M 241.949219 33.957031 L 684 33.957031 L 684 181 L 241.949219 181 Z M 241.949219 33.957031 " clip-rule="nonzero"/></clipPath><clipPath id="ea720a0d4d"><path d="M 449 42 L 685.71875 42 L 685.71875 182 L 449 182 Z M 449 42 " clip-rule="nonzero"/></clipPath></defs><path stroke-linecap="butt" transform="matrix(0.944697, 0, 0, 0.945336, 27.155996, -12.992224)" fill="none" stroke-linejoin="miter" d="M 145.520634 84.146747 L 151.582432 95.972905 " stroke="#71688c" stroke-width="2" stroke-opacity="1" stroke-miterlimit="4"/><path stroke-linecap="butt" transform="matrix(0.944697, 0, 0, 0.945336, 27.155996, -12.992224)" fill="none" stroke-linejoin="miter" d="M 151.582432 95.972905 L 156.048149 104.799136 " stroke="#6a688b" stroke-width="2" stroke-opacity="1" stroke-miterlimit="4"/><path stroke-linecap="butt" transform="matrix(0.944697, 0, 0, 0.945336, 27.155996, -12.992224)" fill="none" stroke-linejoin="miter" d="M 156.048149 104.799136 L 161.646835 115.761679 " stroke="#5f678b" stroke-width="2" stroke-opacity="1" stroke-miterlimit="4"/><path stroke-linecap="butt" transform="matrix(0.944697, 0, 0, 0.945336, 27.155996, -12.992224)" fill="none" stroke-linejoin="miter" d="M 161.646835 115.761679 L 161.1217 115.960021 " stroke="#656992" stroke-width="2" stroke-opacity="1" stroke-miterlimit="4"/><path stroke-linecap="butt" transform="matrix(0.944697, 0, 0, 0.945336, 27.155996, -12.992224)" fill="none" stroke-linejoin="miter" d="M 110.27868 78.708863 C 110.084339 77.994005 109.77422 77.370053 109.344188 76.845272 " stroke="#0094da" stroke-width="2" stroke-opacity="1" stroke-miterlimit="4"/><path stroke-linecap="butt" transform="matrix(0.944697, 0, 0, 0.945336, 27.155996, -12.992224)" fill="none" stroke-linejoin="miter" d="M 109.344188 76.845272 L 101.839301 61.581182 " stroke="#008bd2" stroke-width="2" stroke-opacity="1" stroke-miterlimit="4"/><g clip-path="url(#57df3d913a)"><path stroke-linecap="butt" transform="matrix(0.944697, 0, 0, 0.945336, 27.155996, -12.992224)" fill="none" stroke-linejoin="miter" d="M 101.839301 61.581182 L 94.636264 47.011289 C 94.59905 46.941043 94.545296 46.883193 94.475002 46.841872 L 94.148344 46.651794 " stroke="#0284cd" stroke-width="2" stroke-opacity="1" stroke-miterlimit="4"/></g><path stroke-linecap="butt" transform="matrix(0.944697, 0, 0, 0.945336, 27.155996, -12.992224)" fill="none" stroke-linejoin="miter" d="M 109.344188 76.845272 C 106.954202 75.655219 104.572486 74.465165 102.19077 73.270979 C 99.4948 71.923905 94.603185 69.246284 90.670873 67.477732 C 90.240841 67.283522 89.806674 66.961216 89.376642 66.506682 C 88.198189 65.267042 86.726156 64.663751 84.956408 64.70094 " stroke="#0072bd" stroke-width="2" stroke-opacity="1" stroke-miterlimit="4"/><path stroke-linecap="butt" transform="matrix(0.944697, 0, 0, 0.945336, 27.155996, -12.992224)" fill="none" stroke-linejoin="miter" d="M 159.380897 86.349173 C 158.97154 86.679743 158.97154 87.369809 159.380897 88.41937 C 159.430516 88.543334 159.422247 88.659034 159.356088 88.774734 C 158.309952 90.568078 158.818548 92.402744 158.008103 94.018407 C 157.966753 94.096918 157.954349 94.183693 157.970888 94.270467 L 158.111476 95.084497 C 158.123881 95.179536 158.111476 95.266311 158.070127 95.348953 C 157.822031 95.80762 157.780682 96.291079 157.950214 96.795199 C 157.987428 96.902635 157.983293 97.005938 157.933674 97.105109 C 157.416809 98.167067 157.267951 99.270345 157.487102 100.414946 C 157.503642 100.476928 157.499507 100.534777 157.482967 100.596759 L 156.866864 102.927281 C 156.842054 103.018188 156.784165 103.071906 156.689062 103.084302 L 156.548475 103.100831 C 156.482316 103.109095 156.457506 103.146284 156.478181 103.208266 C 156.701467 103.910728 156.560879 104.439641 156.048149 104.799136 " stroke="#c92127" stroke-width="2" stroke-opacity="1" stroke-miterlimit="4"/><path stroke-linecap="butt" transform="matrix(0.944697, 0, 0, 0.945336, 27.155996, -12.992224)" fill="none" stroke-linejoin="miter" d="M 110.092609 78.828695 C 110.038855 78.54771 109.832109 78.444407 109.4641 78.522917 C 107.524821 78.940263 105.333312 79.237776 102.897842 79.415458 " stroke="#0094da" stroke-width="2" stroke-opacity="1" stroke-miterlimit="4"/><path stroke-linecap="butt" transform="matrix(0.944697, 0, 0, 0.945336, 27.155996, -12.992224)" fill="none" stroke-linejoin="miter" d="M 102.897842 79.415458 C 100.065419 77.204768 96.968361 75.477537 93.610803 74.233766 C 93.511565 74.196577 93.437137 74.130463 93.391653 74.039556 C 93.019509 73.316433 90.220166 72.196625 89.405586 71.886716 C 89.339427 71.866055 89.285673 71.824734 89.240189 71.771016 C 88.694379 71.109875 87.979038 70.783437 87.098299 70.787569 C 87.007331 70.791701 86.920497 70.762776 86.846069 70.704926 L 84.811686 69.138849 C 84.737258 69.076867 84.654559 69.047942 84.563591 69.052074 C 83.930947 69.060338 83.476106 68.795882 83.190796 68.258705 " stroke="#0080c9" stroke-width="2" stroke-opacity="1" stroke-miterlimit="4"/><path stroke-linecap="butt" transform="matrix(0.944697, 0, 0, 0.945336, 27.155996, -12.992224)" fill="none" stroke-linejoin="miter" d="M 170.346715 88.0888 C 169.854659 88.192103 169.49492 88.448295 169.267499 88.861508 C 168.998729 89.357364 169.296444 90.113544 169.085563 90.795345 C 168.68861 92.06391 168.69688 93.410984 168.399166 94.60517 C 167.853356 96.840653 167.530832 99.113324 167.443998 101.423185 C 167.435728 101.50996 167.410919 101.588471 167.357165 101.654585 C 166.877514 102.282669 166.964347 104.266091 166.985022 105.0388 C 166.989157 105.150367 166.956077 105.245406 166.877514 105.328049 C 166.182847 106.092493 165.9761 106.972637 166.257275 107.972613 C 166.27795 108.034594 166.27795 108.096576 166.265545 108.162691 L 165.893402 110.038678 C 165.872727 110.141981 165.889267 110.241152 165.943021 110.327927 C 166.00091 110.418834 166.079473 110.480816 166.182847 110.509741 C 166.451617 110.584119 166.720387 110.54693 166.989157 110.394041 " stroke="#b41f25" stroke-width="2" stroke-opacity="1" stroke-miterlimit="4"/><path stroke-linecap="butt" transform="matrix(0.944697, 0, 0, 0.945336, 27.155996, -12.992224)" fill="none" stroke-linejoin="miter" d="M 166.989157 110.394041 L 161.646835 115.761679 " stroke="#c4232e" stroke-width="2" stroke-opacity="1" stroke-miterlimit="4"/><path stroke-linecap="butt" transform="matrix(0.944697, 0, 0, 0.945336, 27.155996, -12.992224)" fill="none" stroke-linejoin="miter" d="M 151.669265 85.134327 C 151.851202 85.349197 152.074487 85.481425 152.339123 85.539275 C 152.545869 85.580597 152.649242 85.704561 152.661647 85.915299 C 152.682321 86.431816 152.467305 86.832632 152.020733 87.117749 C 151.900821 87.19626 151.838797 87.307827 151.834662 87.456584 L 151.793313 91.105255 C 151.789178 91.220955 151.747828 91.315994 151.66513 91.394504 C 151.011812 92.014324 150.871225 92.658936 151.239233 93.332474 C 151.714749 94.200221 151.987654 94.923344 152.049678 95.501842 C 152.070352 95.679524 152.004194 95.811752 151.847067 95.898527 C 151.772638 95.94398 151.685805 95.968773 151.582432 95.972905 " stroke="#db2228" stroke-width="2" stroke-opacity="1" stroke-miterlimit="4"/><path stroke-linecap="butt" transform="matrix(0.944697, 0, 0, 0.945336, 27.155996, -12.992224)" fill="none" stroke-linejoin="miter" d="M 167.05118 151.198831 L 154.91518 163.31837 " stroke="#65608a" stroke-width="2" stroke-opacity="1" stroke-miterlimit="4"/><path stroke-linecap="butt" transform="matrix(0.944697, 0, 0, 0.945336, 27.155996, -12.992224)" fill="none" stroke-linejoin="miter" d="M 154.91518 163.31837 L 149.639017 168.595101 " stroke="#655985" stroke-width="2" stroke-opacity="1" stroke-miterlimit="4"/><path stroke-linecap="butt" transform="matrix(0.944697, 0, 0, 0.945336, 27.155996, -12.992224)" fill="none" stroke-linejoin="miter" d="M 149.639017 168.595101 L 144.871451 173.36358 " stroke="#655581" stroke-width="2" stroke-opacity="1" stroke-miterlimit="4"/><path stroke-linecap="butt" transform="matrix(0.944697, 0, 0, 0.945336, 27.155996, -12.992224)" fill="none" stroke-linejoin="miter" d="M 144.871451 173.36358 L 142.030758 176.13624 " stroke="#65507d" stroke-width="2" stroke-opacity="1" stroke-miterlimit="4"/><path stroke-linecap="butt" transform="matrix(0.944697, 0, 0, 0.945336, 27.155996, -12.992224)" fill="none" stroke-linejoin="miter" d="M 142.030758 176.13624 L 141.828147 176.032936 " stroke="#656992" stroke-width="2" stroke-opacity="1" stroke-miterlimit="4"/><g clip-path="url(#2cf1374534)"><path stroke-linecap="butt" transform="matrix(0.944697, 0, 0, 0.945336, 27.155996, -12.992224)" fill="none" stroke-linejoin="miter" d="M 101.839301 61.581182 C 101.632555 61.663824 101.504372 61.622503 101.450618 61.465482 C 101.405134 61.320858 101.301761 61.263008 101.152904 61.296065 C 100.892404 61.353915 100.710467 61.271272 100.602959 61.048137 C 100.56988 60.977891 100.516126 60.920041 100.445832 60.87872 C 97.5886 59.180414 94.656939 57.622601 91.646715 56.213544 C 91.580556 56.180487 91.514397 56.168091 91.439969 56.176355 C 91.0885 56.209412 90.753571 56.130902 90.439317 55.940824 C 90.352484 55.887106 90.302865 55.812727 90.286325 55.713556 C 90.240841 55.403647 90.00515 55.457364 89.583388 55.882974 " stroke="#0262b0" stroke-width="2" stroke-opacity="1" stroke-miterlimit="4"/></g><path stroke-linecap="butt" transform="matrix(0.944697, 0, 0, 0.945336, 27.155996, -12.992224)" fill="none" stroke-linejoin="miter" d="M 78.64238 176.016408 L 78.224753 178.210569 " stroke="#0094da" stroke-width="2" stroke-opacity="1" stroke-miterlimit="4"/><path stroke-linecap="butt" transform="matrix(0.944697, 0, 0, 0.945336, 27.155996, -12.992224)" fill="none" stroke-linejoin="miter" d="M 78.224753 178.210569 L 77.017355 185.25172 " stroke="#0090d5" stroke-width="2" stroke-opacity="1" stroke-miterlimit="4"/><path stroke-linecap="butt" transform="matrix(0.944697, 0, 0, 0.945336, 27.155996, -12.992224)" fill="none" stroke-linejoin="miter" d="M 77.017355 185.25172 L 76.103537 190.11937 " stroke="#008bd2" stroke-width="2" stroke-opacity="1" stroke-miterlimit="4"/><g clip-path="url(#0d5569ee02)"><path stroke-linecap="butt" transform="matrix(0.944697, 0, 0, 0.945336, 27.155996, -12.992224)" fill="none" stroke-linejoin="miter" d="M 76.103537 190.11937 L 72.580582 210.771759 C 72.568178 210.854401 72.580582 210.92878 72.613662 211.00729 L 72.758384 211.321332 " stroke="#0284cd" stroke-width="2" stroke-opacity="1" stroke-miterlimit="4"/></g><path stroke-linecap="butt" transform="matrix(0.944697, 0, 0, 0.945336, 27.155996, -12.992224)" fill="none" stroke-linejoin="miter" d="M 52.637846 150.14927 C 52.641981 149.52945 52.873537 149.079048 53.328378 148.798063 C 53.415212 148.740213 53.477236 148.661703 53.50618 148.562532 C 53.663307 148.012958 53.812164 147.289836 53.961022 146.393163 C 55.180824 138.918139 56.065698 133.368687 56.607373 129.753073 " stroke="#00a1e4" stroke-width="2" stroke-opacity="1" stroke-miterlimit="4"/><path stroke-linecap="butt" transform="matrix(0.944697, 0, 0, 0.945336, 27.155996, -12.992224)" fill="none" stroke-linejoin="miter" d="M 56.607373 129.753073 L 57.670048 123.203646 " stroke="#0099de" stroke-width="2" stroke-opacity="1" stroke-miterlimit="4"/><path stroke-linecap="butt" transform="matrix(0.944697, 0, 0, 0.945336, 27.155996, -12.992224)" fill="none" stroke-linejoin="miter" d="M 57.670048 123.203646 L 58.521842 118.290543 " stroke="#0094da" stroke-width="2" stroke-opacity="1" stroke-miterlimit="4"/><path stroke-linecap="butt" transform="matrix(0.944697, 0, 0, 0.945336, 27.155996, -12.992224)" fill="none" stroke-linejoin="miter" d="M 58.521842 118.290543 L 58.749263 116.323649 C 58.761668 116.19142 58.720319 116.075721 58.625215 115.984814 C 58.530112 115.889775 58.414334 115.852586 58.282017 115.873246 L 48.494653 117.360813 " stroke="#0090d5" stroke-width="2" stroke-opacity="1" stroke-miterlimit="4"/><path stroke-linecap="butt" transform="matrix(0.944697, 0, 0, 0.945336, 27.155996, -12.992224)" fill="none" stroke-linejoin="miter" d="M 48.494653 117.360813 L 42.205434 118.274014 " stroke="#008bd2" stroke-width="2" stroke-opacity="1" stroke-miterlimit="4"/><g clip-path="url(#3b877cad58)"><path stroke-linecap="butt" transform="matrix(0.944697, 0, 0, 0.945336, 27.155996, -12.992224)" fill="none" stroke-linejoin="miter" d="M 42.205434 118.274014 L 23.441151 120.914446 " stroke="#0284cd" stroke-width="2" stroke-opacity="1" stroke-miterlimit="4"/></g><path stroke-linecap="butt" transform="matrix(0.944697, 0, 0, 0.945336, 27.155996, -12.992224)" fill="none" stroke-linejoin="miter" d="M 142.030758 176.13624 L 143.55241 176.91308 " stroke="#0094da" stroke-width="2" stroke-opacity="1" stroke-miterlimit="4"/><path stroke-linecap="butt" transform="matrix(0.944697, 0, 0, 0.945336, 27.155996, -12.992224)" fill="none" stroke-linejoin="miter" d="M 143.55241 176.91308 L 150.147613 180.363409 " stroke="#0090d5" stroke-width="2" stroke-opacity="1" stroke-miterlimit="4"/><path stroke-linecap="butt" transform="matrix(0.944697, 0, 0, 0.945336, 27.155996, -12.992224)" fill="none" stroke-linejoin="miter" d="M 150.147613 180.363409 L 155.576768 183.222844 " stroke="#008bd2" stroke-width="2" stroke-opacity="1" stroke-miterlimit="4"/><path stroke-linecap="butt" transform="matrix(0.944697, 0, 0, 0.945336, 27.155996, -12.992224)" fill="none" stroke-linejoin="miter" d="M 155.576768 183.222844 C 161.39047 186.346734 167.216577 189.396247 173.055089 192.363117 C 173.249431 192.462288 173.452042 192.491213 173.667058 192.454023 " stroke="#0284cd" stroke-width="2" stroke-opacity="1" stroke-miterlimit="4"/><path stroke-linecap="butt" transform="matrix(0.944697, 0, 0, 0.945336, 27.155996, -12.992224)" fill="none" stroke-linejoin="miter" d="M 109.827974 192.420966 C 108.711544 191.751561 107.243646 190.941664 105.42428 189.995406 C 99.064768 186.689701 94.565971 184.363312 91.923755 183.024501 " stroke="#00a1e4" stroke-width="2" stroke-opacity="1" stroke-miterlimit="4"/><path stroke-linecap="butt" transform="matrix(0.944697, 0, 0, 0.945336, 27.155996, -12.992224)" fill="none" stroke-linejoin="miter" d="M 91.923755 183.024501 L 85.626266 179.789043 " stroke="#0099de" stroke-width="2" stroke-opacity="1" stroke-miterlimit="4"/><path stroke-linecap="butt" transform="matrix(0.944697, 0, 0, 0.945336, 27.155996, -12.992224)" fill="none" stroke-linejoin="miter" d="M 85.626266 179.789043 C 84.216257 179.078317 79.659571 177.210594 78.91115 176.119711 " stroke="#0094da" stroke-width="2" stroke-opacity="1" stroke-miterlimit="4"/><path stroke-linecap="butt" transform="matrix(0.944697, 0, 0, 0.945336, 27.155996, -12.992224)" fill="none" stroke-linejoin="miter" d="M 85.626266 179.789043 C 85.708965 180.235313 85.617996 180.458448 85.357496 180.458448 C 84.977083 180.458448 84.886115 180.623733 85.080456 180.950172 C 86.24237 182.912934 87.33399 184.966603 88.10722 187.098782 C 88.301562 187.623563 88.619951 188.193797 89.062388 188.809484 C 89.653682 189.623514 90.406238 191.057363 91.328326 193.115164 C 91.35727 193.189543 91.411024 193.234996 91.489588 193.255657 L 91.588826 193.288714 C 91.679794 193.317639 91.737683 193.375489 91.766628 193.462263 C 92.473699 195.875428 93.685232 197.999343 95.39709 199.842273 " stroke="#0080c9" stroke-width="2" stroke-opacity="1" stroke-miterlimit="4"/><path stroke-linecap="butt" transform="matrix(0.944697, 0, 0, 0.945336, 27.155996, -12.992224)" fill="none" stroke-linejoin="miter" d="M 90.29046 202.367005 C 89.045848 199.767895 87.718537 197.226634 86.308528 194.743224 C 85.580782 193.458131 86.027354 192.60278 84.832361 191.268102 C 83.881328 190.19788 83.645638 188.987166 82.872407 187.813641 C 82.297653 186.941761 81.954454 185.974843 81.851081 184.908753 C 81.842811 184.830242 81.801462 184.780657 81.727033 184.764128 C 81.582311 184.726939 81.557501 184.693882 81.528557 184.536861 C 81.268057 183.012105 80.333564 182.396417 79.829103 181.094796 C 79.436286 180.070028 78.90288 179.111374 78.224753 178.210569 " stroke="#0077c0" stroke-width="2" stroke-opacity="1" stroke-miterlimit="4"/><path stroke-linecap="butt" transform="matrix(0.944697, 0, 0, 0.945336, 27.155996, -12.992224)" fill="none" stroke-linejoin="miter" d="M 102.897842 79.415458 L 97.377719 80.465019 " stroke="#0099de" stroke-width="2" stroke-opacity="1" stroke-miterlimit="4"/><path stroke-linecap="butt" transform="matrix(0.944697, 0, 0, 0.945336, 27.155996, -12.992224)" fill="none" stroke-linejoin="miter" d="M 97.377719 80.465019 C 96.100027 79.452647 94.727233 78.617956 93.26347 77.969212 C 91.770762 77.303939 90.703952 76.787423 90.054769 76.415531 C 87.441498 74.9197 84.757932 73.531304 82.012343 72.250343 C 81.937914 72.213154 81.859351 72.20489 81.772517 72.217286 L 81.160549 72.316457 " stroke="#008dd3" stroke-width="2" stroke-opacity="1" stroke-miterlimit="4"/><path stroke-linecap="butt" transform="matrix(0.944697, 0, 0, 0.945336, 27.155996, -12.992224)" fill="none" stroke-linejoin="miter" d="M 176.085988 88.960679 C 175.920591 89.973051 175.71798 90.968895 175.478155 91.944078 C 175.184575 93.125867 175.209385 94.501867 174.816567 95.972905 C 174.547797 96.981145 174.283162 99.067871 174.026796 102.224819 C 174.018527 102.319858 173.985447 102.398368 173.919288 102.464482 C 173.447907 102.980999 173.642249 103.191737 174.494043 103.092566 " stroke="#a31c21" stroke-width="2" stroke-opacity="1" stroke-miterlimit="4"/><path stroke-linecap="butt" transform="matrix(0.944697, 0, 0, 0.945336, 27.155996, -12.992224)" fill="none" stroke-linejoin="miter" d="M 174.494043 103.092566 L 166.989157 110.394041 " stroke="#ba212c" stroke-width="2" stroke-opacity="1" stroke-miterlimit="4"/><path stroke-linecap="butt" transform="matrix(0.944697, 0, 0, 0.945336, 27.155996, -12.992224)" fill="none" stroke-linejoin="miter" d="M 169.813309 168.206681 C 169.606563 168.512459 170.090349 170.330596 169.416357 169.285167 C 169.333658 169.165335 169.222015 169.103353 169.073158 169.103353 C 168.043562 169.099221 167.026371 169.210789 166.025719 169.442188 C 164.983719 169.681851 163.668813 169.454584 162.912122 169.702512 C 161.485573 170.157047 159.947382 170.103329 158.632476 170.400842 C 156.395483 170.904962 153.988957 170.938019 151.813987 171.52065 C 150.60659 171.842956 149.407462 171.855352 148.071881 172.10328 C 146.926508 172.314019 146.029229 173.008217 144.871451 173.36358 " stroke="#0080c9" stroke-width="2" stroke-opacity="1" stroke-miterlimit="4"/><g clip-path="url(#a880bfc23e)"><path stroke-linecap="butt" transform="matrix(0.944697, 0, 0, 0.945336, 27.155996, -12.992224)" fill="none" stroke-linejoin="miter" d="M 187.204798 90.716835 L 174.494043 103.092566 " stroke="#b3202a" stroke-width="2" stroke-opacity="1" stroke-miterlimit="4"/></g><path stroke-linecap="butt" transform="matrix(0.944697, 0, 0, 0.945336, 27.155996, -12.992224)" fill="none" stroke-linejoin="miter" d="M 170.400469 172.23964 C 170.487302 173.272673 170.156508 173.570186 169.420492 173.128048 C 169.358468 173.094991 169.288174 173.074331 169.21788 173.070199 C 167.191768 173.049538 165.136711 173.611508 163.292535 173.834643 C 162.010709 173.991664 160.749557 174.25612 159.50908 174.628012 C 158.305817 174.987507 157.230737 174.793297 156.002665 175.119735 C 155.101251 175.359399 154.311481 175.218907 153.604409 175.347003 C 151.64859 175.702366 149.692771 176.028804 147.732818 176.322185 C 146.587444 176.495735 145.561983 177.231254 144.032061 176.640359 C 143.709537 176.512263 143.55241 176.607302 143.55241 176.91308 " stroke="#0077c0" stroke-width="2" stroke-opacity="1" stroke-miterlimit="4"/><path stroke-linecap="butt" transform="matrix(0.944697, 0, 0, 0.945336, 27.155996, -12.992224)" fill="none" stroke-linejoin="miter" d="M 168.45292 159.888702 C 168.589372 161.161398 168.382626 161.483704 167.836816 160.847356 C 167.733443 160.731657 167.601125 160.686203 167.448133 160.71926 C 166.517775 160.905206 165.591552 161.103548 164.669465 161.314287 C 162.602003 161.78535 160.468382 161.570479 158.293412 162.256413 C 157.354785 162.553926 156.188736 162.409302 155.250109 163.417541 C 155.16741 163.504316 155.084712 163.504316 155.006148 163.417541 L 154.91518 163.31837 " stroke="#0094d9" stroke-width="2" stroke-opacity="1" stroke-miterlimit="4"/><path stroke-linecap="butt" transform="matrix(0.944697, 0, 0, 0.945336, 27.155996, -12.992224)" fill="none" stroke-linejoin="miter" d="M 169.304714 164.859655 C 169.056618 164.599331 168.961515 164.553877 169.019404 164.71503 C 169.052483 164.814202 169.044214 164.905108 168.99046 164.991883 C 168.936706 165.078658 168.858142 165.132376 168.758904 165.144772 C 167.32822 165.355511 165.951291 165.557985 164.619845 165.748063 C 162.924527 165.991859 159.542159 166.801756 156.908213 166.876135 C 154.530632 166.942249 151.90909 168.033131 149.639017 168.595101 " stroke="#0089d1" stroke-width="2" stroke-opacity="1" stroke-miterlimit="4"/><g clip-path="url(#d340449bc4)"><path stroke-linecap="butt" transform="matrix(0.944697, 0, 0, 0.945336, 27.155996, -12.992224)" fill="none" stroke-linejoin="miter" d="M 84.261741 205.404121 C 82.884812 203.577719 81.743573 201.532314 80.84216 199.259643 C 80.379048 198.098514 79.721595 196.949782 78.878071 195.809314 C 78.828452 195.747332 78.803642 195.677085 78.799507 195.598575 C 78.762293 195.12338 78.601031 194.69777 78.307451 194.321746 C 78.253697 194.247368 78.224753 194.168858 78.224753 194.082083 C 78.204078 193.053182 77.769911 192.363117 76.922252 192.011885 C 76.748585 191.941639 76.665887 191.813543 76.670022 191.627597 L 76.707236 190.135898 C 76.711371 189.825988 76.583188 189.747478 76.314418 189.904499 C 76.235855 189.949952 76.165561 190.020198 76.103537 190.11937 " stroke="#0262b0" stroke-width="2" stroke-opacity="1" stroke-miterlimit="4"/></g><g clip-path="url(#3e569db3c1)"><path stroke-linecap="butt" transform="matrix(0.944697, 0, 0, 0.945336, 27.155996, -12.992224)" fill="none" stroke-linejoin="miter" d="M 86.999061 204.023989 C 85.15075 200.49515 83.306574 196.970442 81.466533 193.449867 C 81.197763 192.941615 80.643683 192.168906 80.379048 191.367273 C 80.139223 190.652414 79.915937 190.11937 79.713325 189.768139 C 78.861531 188.334289 78.12138 186.846722 77.492871 185.30957 C 77.430848 185.164945 77.327475 185.115359 77.174482 185.160813 C 77.116593 185.181474 77.062839 185.210398 77.017355 185.25172 " stroke="#006db8" stroke-width="2" stroke-opacity="1" stroke-miterlimit="4"/></g><path stroke-linecap="butt" transform="matrix(0.944697, 0, 0, 0.945336, 27.155996, -12.992224)" fill="none" stroke-linejoin="miter" d="M 58.521842 118.290543 C 58.215858 118.15005 58.009112 117.931047 57.897469 117.629402 C 57.860255 117.530231 57.789961 117.455852 57.694858 117.406267 C 57.595619 117.356681 57.496381 117.352549 57.393008 117.381474 C 57.062214 117.484777 56.797579 117.64593 56.594968 117.864933 C 55.730769 118.782266 54.845895 119.678939 53.936212 120.546686 C 49.941876 124.385435 46.19977 128.44732 42.118601 132.207559 C 41.465283 132.814982 40.563869 133.831486 39.418496 135.265335 C 39.323392 135.385167 39.302718 135.517395 39.356472 135.66202 C 39.484654 136.017383 39.381281 136.347954 39.042217 136.653731 " stroke="#0077c0" stroke-width="2" stroke-opacity="1" stroke-miterlimit="4"/><path stroke-linecap="butt" transform="matrix(0.944697, 0, 0, 0.945336, 27.155996, -12.992224)" fill="none" stroke-linejoin="miter" d="M 35.490318 133.104231 C 35.717739 132.777793 35.68466 132.50094 35.395215 132.273673 C 35.308382 132.203427 35.287707 132.120784 35.333191 132.025745 C 35.370405 131.934838 35.36627 131.835667 35.312516 131.724099 C 35.246358 131.575343 35.262897 131.43485 35.362136 131.306754 C 36.122961 130.315043 36.970621 129.39771 37.892709 128.56302 C 39.629377 126.99281 41.444608 125.174672 42.96626 123.459838 C 44.785626 121.414434 47.345144 119.54671 48.655915 118.055011 C 48.974304 117.691384 48.92055 117.459984 48.494653 117.360813 " stroke="#006db8" stroke-width="2" stroke-opacity="1" stroke-miterlimit="4"/><path stroke-linecap="butt" transform="matrix(0.944697, 0, 0, 0.945336, 27.155996, -12.992224)" fill="none" stroke-linejoin="miter" d="M 97.377719 80.465019 C 86.792315 82.117871 80.366643 83.101318 78.092435 83.419492 C 77.674808 83.477342 77.29026 83.324453 76.934657 82.956694 C 76.831284 82.85339 76.707236 82.816201 76.558379 82.845126 C 76.273069 82.902976 76.049783 82.779012 75.884386 82.46497 " stroke="#00a1e4" stroke-width="2" stroke-opacity="1" stroke-miterlimit="4"/><path stroke-linecap="butt" transform="matrix(0.944697, 0, 0, 0.945336, 27.155996, -12.992224)" fill="none" stroke-linejoin="miter" d="M 56.607373 129.753073 C 55.073316 130.562971 53.762545 131.616664 52.666791 132.905889 C 51.86875 133.848015 51.207163 134.550477 50.690297 135.013275 C 48.341661 137.112398 46.220445 139.418127 44.31838 141.930462 " stroke="#008dd3" stroke-width="2" stroke-opacity="1" stroke-miterlimit="4"/><g clip-path="url(#f4cb3ee073)"><path stroke-linecap="butt" transform="matrix(0.944697, 0, 0, 0.945336, 27.155996, -12.992224)" fill="none" stroke-linejoin="miter" d="M 32.269213 129.852244 C 32.881181 128.075428 33.927317 126.653975 35.411755 125.592018 C 36.193255 125.03418 36.817629 124.410228 37.27247 123.724295 C 37.326224 123.645784 37.400653 123.592066 37.487486 123.563141 C 38.173884 123.352403 38.62459 122.910265 38.847876 122.232595 C 38.872686 122.158217 38.914035 122.092103 38.976059 122.042517 C 40.27029 120.997088 41.432203 119.823563 42.461799 118.513678 C 42.701625 118.216164 42.41218 118.236825 42.205434 118.274014 " stroke="#0262b0" stroke-width="2" stroke-opacity="1" stroke-miterlimit="4"/></g><path stroke-linecap="butt" transform="matrix(0.944697, 0, 0, 0.945336, 27.155996, -12.992224)" fill="none" stroke-linejoin="miter" d="M 57.670048 123.203646 C 56.793444 123.377196 56.21869 123.612727 55.937515 123.91024 C 54.808681 125.108558 53.663307 126.286216 52.488989 127.443212 C 52.141655 127.786179 52.058957 128.290299 51.604115 128.645662 C 51.182353 128.963836 50.963202 129.133254 50.946662 129.149782 C 46.981271 133.029853 44.264626 135.66202 42.796728 137.046284 C 42.242648 137.5628 42.011093 138.18262 42.097926 138.893346 C 42.114466 139.01731 42.068982 139.104085 41.961473 139.157802 C 41.8581 139.21152 41.800211 139.290031 41.783672 139.393334 " stroke="#0080c9" stroke-width="2" stroke-opacity="1" stroke-miterlimit="4"/><path stroke-linecap="butt" transform="matrix(0.944697, 0, 0, 0.945336, 27.155996, -12.992224)" fill="none" stroke-linejoin="miter" d="M 91.923755 183.024501 C 92.010588 183.3716 91.989913 183.722831 91.861731 184.082327 C 91.824516 184.18563 91.828651 184.284801 91.874136 184.383972 C 92.250414 185.218663 92.461295 186.181449 92.862382 186.945893 C 94.752042 190.511922 96.600353 194.098611 98.40318 197.705961 C 98.473474 197.846454 98.589251 197.920832 98.750513 197.929097 L 99.118522 197.945625 " stroke="#008dd3" stroke-width="2" stroke-opacity="1" stroke-miterlimit="4"/><path stroke-linecap="butt" transform="matrix(0.944697, 0, 0, 0.945336, 27.155996, -12.992224)" fill="none" stroke-linejoin="miter" d="M 171.231588 177.235386 C 171.194374 177.243651 171.15716 177.247783 171.12408 177.251915 C 170.933874 177.268443 170.818096 177.181669 170.780882 176.991591 C 170.673373 176.458546 170.470762 176.392432 170.164778 176.793248 C 170.123429 176.851098 170.06554 176.896552 169.999381 176.921344 C 168.572832 177.524635 166.844434 177.512239 165.703195 177.694053 C 161.452494 178.363458 157.201793 179.036995 152.955226 179.714665 C 152.49625 179.784911 151.880146 179.656815 151.38809 180.032839 C 151.247503 180.136142 151.10278 180.148538 150.945653 180.061764 C 150.569375 179.859289 150.300605 179.95846 150.147613 180.363409 " stroke="#006db8" stroke-width="2" stroke-opacity="1" stroke-miterlimit="4"/><path stroke-linecap="butt" transform="matrix(0.944697, 0, 0, 0.945336, 27.155996, -12.992224)" fill="none" stroke-linejoin="miter" d="M 171.66162 179.87995 C 171.091001 180.408863 170.450088 180.809679 169.738881 181.078268 C 169.660317 181.107193 169.623103 181.078268 169.627238 180.991493 L 169.631373 180.879926 C 169.631373 180.784887 169.590024 180.747697 169.49492 180.768358 C 167.485347 181.293139 165.43856 181.623709 163.366964 181.760069 C 162.990686 181.784862 162.548249 181.941883 162.047923 182.235264 C 161.95282 182.293114 161.849447 182.305511 161.741939 182.280718 C 160.823986 182.041054 159.943247 182.152622 159.103857 182.607156 C 159.021159 182.65261 158.930191 182.669138 158.835087 182.65261 C 157.685579 182.441871 156.598094 182.631949 155.576768 183.222844 " stroke="#0262b0" stroke-width="2" stroke-opacity="1" stroke-miterlimit="4"/><g clip-path="url(#e2e8ca16ad)"><path fill="#00adef" d="M 164.628906 66.554688 L 170.355469 77.734375 L 174.574219 86.078125 L 179.863281 96.441406 L 179.367188 96.628906 C 179.265625 96.464844 179.15625 96.378906 179.039062 96.359375 C 168.246094 94.753906 157.40625 93.175781 146.519531 91.613281 C 146.390625 91.59375 146.292969 91.523438 146.230469 91.40625 C 141.207031 81.480469 136.609375 71.222656 131.335938 61.414062 C 131.152344 60.738281 130.859375 60.148438 130.453125 59.652344 L 123.363281 45.222656 L 116.558594 31.449219 C 116.523438 31.382812 116.472656 31.328125 116.40625 31.289062 L 116.097656 31.109375 C 116.117188 30.867188 116.214844 30.746094 116.382812 30.746094 C 119.855469 30.71875 129.769531 30.722656 146.125 30.757812 C 146.28125 30.753906 146.394531 30.824219 146.464844 30.96875 C 152.289062 42.519531 158.132812 54.054688 164 65.570312 C 164.183594 65.929688 164.394531 66.257812 164.628906 66.554688 Z M 164.628906 66.554688 " fill-opacity="1" fill-rule="nonzero"/></g><path fill="#035bab" d="M 116.097656 31.109375 L 116.40625 31.289062 C 116.472656 31.328125 116.523438 31.382812 116.558594 31.449219 L 123.363281 45.222656 C 123.167969 45.300781 123.046875 45.261719 122.996094 45.113281 C 122.953125 44.976562 122.855469 44.921875 122.714844 44.953125 C 122.46875 45.007812 122.296875 44.929688 122.195312 44.71875 C 122.164062 44.652344 122.113281 44.597656 122.046875 44.558594 C 119.347656 42.953125 116.578125 41.480469 113.734375 40.148438 C 113.671875 40.117188 113.609375 40.105469 113.539062 40.113281 C 113.207031 40.144531 112.890625 40.070312 112.59375 39.890625 C 112.511719 39.839844 112.464844 39.769531 112.449219 39.675781 C 112.40625 39.382812 112.183594 39.433594 111.785156 39.835938 Z M 116.097656 31.109375 " fill-opacity="1" fill-rule="nonzero"/><path fill="#0068b5" d="M 123.363281 45.222656 L 130.453125 59.652344 C 128.195312 58.527344 125.945312 57.402344 123.695312 56.273438 C 121.148438 55 116.527344 52.46875 112.8125 50.796875 C 112.40625 50.613281 111.996094 50.308594 111.589844 49.878906 C 110.476562 48.707031 109.085938 48.136719 107.414062 48.171875 L 111.785156 39.835938 C 112.183594 39.433594 112.40625 39.382812 112.449219 39.675781 C 112.464844 39.769531 112.511719 39.839844 112.59375 39.890625 C 112.890625 40.070312 113.207031 40.144531 113.539062 40.113281 C 113.609375 40.105469 113.671875 40.117188 113.734375 40.148438 C 116.578125 41.480469 119.351562 42.953125 122.046875 44.558594 C 122.113281 44.597656 122.164062 44.652344 122.195312 44.71875 C 122.296875 44.929688 122.46875 45.007812 122.714844 44.953125 C 122.855469 44.921875 122.953125 44.976562 122.996094 45.113281 C 123.046875 45.261719 123.167969 45.300781 123.363281 45.222656 Z M 123.363281 45.222656 " fill-opacity="1" fill-rule="nonzero"/><path fill="#007bc4" d="M 130.453125 59.652344 C 130.859375 60.148438 131.152344 60.738281 131.335938 61.414062 L 131.160156 61.527344 C 131.109375 61.261719 130.914062 61.164062 130.566406 61.238281 C 128.734375 61.632812 126.664062 61.914062 124.363281 62.082031 C 121.6875 59.992188 118.761719 58.359375 115.589844 57.183594 C 115.496094 57.148438 115.425781 57.085938 115.382812 57 C 115.03125 56.316406 112.386719 55.257812 111.617188 54.964844 C 111.554688 54.941406 111.503906 54.90625 111.460938 54.855469 C 110.945312 54.230469 110.269531 53.921875 109.4375 53.925781 C 109.351562 53.929688 109.269531 53.902344 109.199219 53.847656 L 107.277344 52.367188 C 107.207031 52.308594 107.128906 52.28125 107.042969 52.285156 C 106.445312 52.292969 106.015625 52.042969 105.746094 51.535156 L 107.414062 48.171875 C 109.085938 48.136719 110.476562 48.707031 111.589844 49.878906 C 111.996094 50.308594 112.40625 50.613281 112.8125 50.796875 C 116.527344 52.46875 121.148438 55 123.695312 56.273438 C 125.945312 57.402344 128.195312 58.527344 130.453125 59.652344 Z M 130.453125 59.652344 " fill-opacity="1" fill-rule="nonzero"/><path fill="#0085cd" d="M 105.746094 51.535156 C 106.015625 52.042969 106.445312 52.292969 107.042969 52.285156 C 107.128906 52.28125 107.207031 52.308594 107.277344 52.367188 L 109.199219 53.847656 C 109.269531 53.902344 109.351562 53.929688 109.4375 53.925781 C 110.269531 53.921875 110.945312 54.230469 111.460938 54.855469 C 111.503906 54.90625 111.554688 54.945312 111.617188 54.964844 C 112.386719 55.257812 115.03125 56.316406 115.382812 57 C 115.425781 57.085938 115.496094 57.148438 115.589844 57.183594 C 118.761719 58.359375 121.6875 59.992188 124.363281 62.082031 L 119.148438 63.074219 C 117.941406 62.117188 116.644531 61.328125 115.261719 60.714844 C 113.851562 60.085938 112.84375 59.597656 112.230469 59.246094 C 109.761719 57.832031 107.226562 56.519531 104.632812 55.308594 C 104.5625 55.273438 104.488281 55.265625 104.40625 55.277344 L 103.828125 55.371094 Z M 105.746094 51.535156 " fill-opacity="1" fill-rule="nonzero"/><path fill="#0094d9" d="M 119.148438 63.074219 C 109.148438 64.636719 103.078125 65.566406 100.929688 65.867188 C 100.535156 65.921875 100.171875 65.777344 99.835938 65.429688 C 99.738281 65.332031 99.621094 65.296875 99.480469 65.324219 C 99.210938 65.378906 99 65.261719 98.84375 64.964844 L 103.828125 55.371094 L 104.40625 55.277344 C 104.488281 55.265625 104.5625 55.273438 104.632812 55.308594 C 107.226562 56.519531 109.761719 57.832031 112.230469 59.246094 C 112.84375 59.597656 113.851562 60.085938 115.261719 60.714844 C 116.644531 61.328125 117.941406 62.117188 119.148438 63.074219 Z M 119.148438 63.074219 " fill-opacity="1" fill-rule="nonzero"/><path fill="#00adef" d="M 131.160156 61.527344 C 126.941406 69.988281 122.742188 78.457031 118.566406 86.9375 C 118.007812 88.0625 117.277344 89.894531 116.453125 91.316406 C 116.398438 91.402344 116.324219 91.460938 116.222656 91.492188 C 114.992188 91.835938 113.464844 91.949219 112.507812 92.089844 C 102.910156 93.539062 93.230469 94.953125 83.472656 96.328125 C 82.972656 96.398438 82.898438 96.617188 83.253906 96.976562 C 85.046875 98.808594 87.207031 100.648438 88.929688 102.371094 C 94.460938 107.890625 100.058594 113.347656 105.722656 118.734375 C 106.632812 119.59375 107.074219 119.839844 106.867188 121.058594 C 105.160156 131.042969 103.445312 141.027344 101.730469 151.011719 C 101.632812 151.570312 101.539062 152.367188 101.449219 153.402344 L 101.054688 155.476562 L 99.914062 162.132812 L 99.050781 166.734375 L 95.722656 186.257812 C 95.710938 186.332031 95.722656 186.40625 95.753906 186.480469 L 95.890625 186.777344 C 95.773438 186.933594 95.644531 186.964844 95.503906 186.863281 C 87.695312 181.226562 79.691406 175.40625 71.496094 169.40625 C 71.371094 169.3125 71.320312 169.191406 71.34375 169.035156 C 73.34375 156.378906 75.359375 143.625 77.394531 130.773438 C 77.507812 130.066406 77.335938 129.460938 76.882812 128.949219 C 76.886719 128.363281 77.105469 127.9375 77.535156 127.671875 C 77.617188 127.617188 77.675781 127.542969 77.703125 127.449219 C 77.851562 126.929688 77.992188 126.246094 78.132812 125.398438 C 79.285156 118.332031 80.121094 113.085938 80.632812 109.667969 L 81.636719 103.476562 L 82.441406 98.832031 L 82.65625 96.972656 C 82.667969 96.847656 82.628906 96.738281 82.539062 96.652344 C 82.449219 96.5625 82.339844 96.527344 82.214844 96.546875 L 72.96875 97.953125 L 67.027344 98.816406 L 49.300781 101.3125 L 58.441406 73.019531 C 58.492188 72.871094 58.59375 72.785156 58.75 72.757812 L 97.648438 66.53125 C 97.726562 66.519531 97.796875 66.484375 97.855469 66.429688 C 98.289062 66.015625 98.621094 65.527344 98.84375 64.964844 C 99 65.261719 99.210938 65.378906 99.480469 65.324219 C 99.621094 65.296875 99.738281 65.332031 99.835938 65.429688 C 100.171875 65.777344 100.535156 65.921875 100.929688 65.867188 C 103.078125 65.566406 109.148438 64.636719 119.148438 63.074219 L 124.363281 62.082031 C 126.664062 61.914062 128.734375 61.632812 130.566406 61.238281 C 130.914062 61.164062 131.109375 61.261719 131.160156 61.527344 Z M 131.160156 61.527344 " fill-opacity="1" fill-rule="nonzero"/><path fill="#e22228" d="M 164.628906 66.554688 L 170.4375 67.488281 C 170.609375 67.691406 170.820312 67.816406 171.070312 67.871094 C 171.265625 67.910156 171.363281 68.027344 171.375 68.226562 C 171.394531 68.714844 171.191406 69.09375 170.769531 69.363281 C 170.65625 69.4375 170.597656 69.542969 170.59375 69.683594 L 170.554688 73.132812 C 170.550781 73.242188 170.511719 73.332031 170.433594 73.40625 C 169.816406 73.992188 169.683594 74.601562 170.03125 75.238281 C 170.480469 76.058594 170.738281 76.742188 170.796875 77.289062 C 170.816406 77.457031 170.753906 77.582031 170.605469 77.664062 C 170.535156 77.707031 170.453125 77.730469 170.355469 77.734375 Z M 164.628906 66.554688 " fill-opacity="1" fill-rule="nonzero"/><path fill="#d32227" d="M 170.4375 67.488281 L 177.722656 68.636719 C 177.335938 68.949219 177.335938 69.601562 177.722656 70.59375 C 177.769531 70.710938 177.761719 70.820312 177.699219 70.929688 C 176.710938 72.625 177.191406 74.359375 176.425781 75.886719 C 176.386719 75.960938 176.375 76.042969 176.390625 76.125 L 176.523438 76.894531 C 176.535156 76.984375 176.523438 77.066406 176.484375 77.144531 C 176.25 77.578125 176.210938 78.035156 176.371094 78.511719 C 176.40625 78.613281 176.402344 78.710938 176.355469 78.804688 C 175.867188 79.808594 175.726562 80.851562 175.933594 81.933594 C 175.949219 81.992188 175.945312 82.046875 175.929688 82.105469 L 175.347656 84.308594 C 175.324219 84.394531 175.269531 84.445312 175.179688 84.457031 L 175.046875 84.472656 C 174.984375 84.480469 174.960938 84.515625 174.980469 84.574219 C 175.191406 85.238281 175.058594 85.738281 174.574219 86.078125 L 170.355469 77.734375 C 170.453125 77.730469 170.535156 77.707031 170.605469 77.664062 C 170.753906 77.582031 170.816406 77.457031 170.796875 77.289062 C 170.738281 76.742188 170.480469 76.058594 170.03125 75.238281 C 169.683594 74.601562 169.816406 73.992188 170.433594 73.40625 C 170.511719 73.332031 170.550781 73.242188 170.554688 73.132812 L 170.59375 69.683594 C 170.597656 69.542969 170.65625 69.4375 170.769531 69.363281 C 171.191406 69.09375 171.394531 68.714844 171.375 68.226562 C 171.363281 68.027344 171.265625 67.910156 171.070312 67.871094 C 170.820312 67.816406 170.609375 67.691406 170.4375 67.488281 Z M 170.4375 67.488281 " fill-opacity="1" fill-rule="nonzero"/><path fill="#be2026" d="M 177.722656 68.636719 L 188.082031 70.28125 C 187.617188 70.378906 187.277344 70.621094 187.0625 71.011719 C 186.808594 71.480469 187.089844 72.195312 186.890625 72.839844 C 186.515625 74.039062 186.523438 75.3125 186.242188 76.441406 C 185.726562 78.554688 185.421875 80.703125 185.339844 82.886719 C 185.332031 82.96875 185.308594 83.042969 185.257812 83.105469 C 184.804688 83.699219 184.886719 85.574219 184.90625 86.304688 C 184.910156 86.410156 184.878906 86.5 184.804688 86.578125 C 184.148438 87.300781 183.953125 88.132812 184.21875 89.078125 C 184.238281 89.136719 184.238281 89.195312 184.226562 89.257812 L 183.875 91.03125 C 183.855469 91.128906 183.871094 91.222656 183.921875 91.304688 C 183.976562 91.390625 184.050781 91.449219 184.148438 91.476562 C 184.402344 91.546875 184.65625 91.511719 184.910156 91.367188 L 179.863281 96.441406 L 174.574219 86.078125 C 175.058594 85.738281 175.191406 85.238281 174.980469 84.574219 C 174.960938 84.515625 174.984375 84.480469 175.046875 84.472656 L 175.179688 84.457031 C 175.269531 84.445312 175.324219 84.394531 175.347656 84.308594 L 175.929688 82.105469 C 175.945312 82.046875 175.949219 81.992188 175.933594 81.933594 C 175.726562 80.851562 175.867188 79.808594 176.355469 78.804688 C 176.402344 78.710938 176.40625 78.613281 176.371094 78.511719 C 176.210938 78.035156 176.25 77.578125 176.484375 77.144531 C 176.523438 77.066406 176.535156 76.984375 176.523438 76.894531 L 176.390625 76.125 C 176.375 76.042969 176.386719 75.960938 176.425781 75.886719 C 177.191406 74.359375 176.710938 72.625 177.699219 70.929688 C 177.761719 70.820312 177.769531 70.710938 177.722656 70.59375 C 177.335938 69.601562 177.335938 68.949219 177.722656 68.636719 Z M 177.722656 68.636719 " fill-opacity="1" fill-rule="nonzero"/><path fill="#aa1d23" d="M 188.082031 70.28125 L 193.503906 71.105469 C 193.347656 72.0625 193.15625 73.003906 192.929688 73.925781 C 192.652344 75.042969 192.675781 76.34375 192.304688 77.734375 C 192.050781 78.6875 191.800781 80.660156 191.558594 83.644531 C 191.550781 83.734375 191.519531 83.808594 191.457031 83.871094 C 191.011719 84.359375 191.195312 84.558594 192 84.464844 L 184.910156 91.367188 C 184.65625 91.511719 184.402344 91.546875 184.148438 91.476562 C 184.050781 91.449219 183.976562 91.390625 183.921875 91.304688 C 183.871094 91.222656 183.855469 91.128906 183.875 91.03125 L 184.226562 89.257812 C 184.238281 89.195312 184.238281 89.136719 184.21875 89.078125 C 183.953125 88.132812 184.148438 87.300781 184.804688 86.578125 C 184.878906 86.5 184.910156 86.410156 184.90625 86.304688 C 184.886719 85.574219 184.804688 83.699219 185.257812 83.105469 C 185.308594 83.042969 185.332031 82.96875 185.339844 82.886719 C 185.421875 80.703125 185.726562 78.554688 186.242188 76.441406 C 186.523438 75.3125 186.515625 74.039062 186.890625 72.839844 C 187.089844 72.195312 186.808594 71.480469 187.0625 71.011719 C 187.277344 70.621094 187.617188 70.378906 188.082031 70.28125 Z M 188.082031 70.28125 " fill-opacity="1" fill-rule="nonzero"/><path fill="#9b1a1f" d="M 193.503906 71.105469 L 204.007812 72.765625 L 192 84.464844 C 191.195312 84.558594 191.011719 84.359375 191.457031 83.871094 C 191.519531 83.808594 191.550781 83.734375 191.558594 83.644531 C 191.800781 80.660156 192.050781 78.6875 192.304688 77.734375 C 192.675781 76.34375 192.652344 75.042969 192.929688 73.925781 C 193.15625 73.003906 193.347656 72.0625 193.503906 71.105469 Z M 193.503906 71.105469 " fill-opacity="1" fill-rule="nonzero"/><g clip-path="url(#04b1cb46e6)"><path fill="#ca2535" d="M 204.007812 72.765625 L 213.25 101.125 C 213.300781 101.273438 213.269531 101.40625 213.15625 101.515625 C 204.332031 110.21875 195.582031 118.941406 186.90625 127.6875 C 186.195312 128.402344 185.550781 129.152344 184.96875 129.941406 L 173.503906 141.398438 L 168.519531 146.386719 L 164.015625 150.894531 L 161.332031 153.515625 L 161.140625 153.417969 C 161.34375 153.382812 161.375 153.15625 161.238281 152.742188 C 161.171875 152.546875 161.121094 152.347656 161.085938 152.144531 C 159.335938 142.035156 157.652344 132.164062 156.039062 122.53125 C 155.957031 122.058594 155.65625 121.160156 155.648438 120.460938 C 155.648438 120.355469 155.6875 120.265625 155.761719 120.191406 C 163.53125 112.414062 171.378906 104.746094 179.238281 97.0625 C 179.308594 96.996094 179.347656 96.914062 179.351562 96.816406 L 179.367188 96.628906 L 179.863281 96.441406 L 184.910156 91.367188 L 192 84.464844 Z M 350.90625 129.347656 L 350.851562 129.4375 C 350.8125 129.5 350.792969 129.566406 350.792969 129.640625 L 350.96875 144.96875 C 351.140625 145.214844 351.164062 145.441406 351.035156 145.648438 C 350.960938 145.765625 350.851562 145.828125 350.710938 145.828125 L 329.976562 145.828125 C 329.882812 145.828125 329.796875 145.859375 329.722656 145.925781 C 329.652344 145.988281 329.609375 146.070312 329.597656 146.164062 C 329.472656 147.167969 329.449219 147.917969 329.523438 148.417969 C 331.582031 162.210938 344.882812 170.132812 358.027344 165.605469 C 358.226562 165.539062 358.378906 165.597656 358.484375 165.777344 C 361.878906 171.5625 366.257812 176.488281 371.621094 180.550781 C 371.671875 180.589844 371.710938 180.640625 371.738281 180.699219 C 371.765625 180.757812 371.777344 180.820312 371.773438 180.882812 C 371.765625 180.945312 371.75 181.003906 371.714844 181.058594 C 371.679688 181.113281 371.636719 181.15625 371.582031 181.1875 C 346.320312 195.738281 314.351562 181.058594 309.769531 152.007812 C 309.472656 150.140625 309.324219 147.59375 309.324219 144.367188 C 309.304688 126.953125 309.300781 109.539062 309.316406 92.121094 C 309.316406 92.015625 309.351562 91.921875 309.425781 91.847656 C 309.5 91.773438 309.59375 91.738281 309.699219 91.738281 L 329.246094 91.738281 C 329.351562 91.738281 329.441406 91.773438 329.515625 91.847656 C 329.589844 91.921875 329.628906 92.015625 329.628906 92.121094 L 329.628906 128.953125 C 329.628906 129.058594 329.667969 129.148438 329.742188 129.222656 C 329.816406 129.296875 329.90625 129.335938 330.011719 129.335938 Z M 494.949219 186.894531 C 474.109375 186.578125 457.316406 170.816406 454.734375 150.390625 C 454.382812 147.597656 454.597656 144.214844 454.597656 141.992188 C 454.609375 125.371094 454.609375 108.746094 454.601562 92.121094 C 454.601562 92.015625 454.640625 91.921875 454.714844 91.847656 C 454.789062 91.773438 454.878906 91.738281 454.984375 91.738281 L 474.277344 91.738281 C 474.378906 91.738281 474.46875 91.773438 474.546875 91.847656 C 474.621094 91.921875 474.65625 92.011719 474.660156 92.117188 C 474.683594 94.300781 474.550781 96.71875 474.550781 98.648438 C 474.53125 113.679688 474.9375 128.867188 474.414062 143.875 C 473.949219 157.125 483.257812 166.800781 496.679688 166.964844 C 498.457031 166.984375 500.628906 166.496094 503.195312 165.503906 C 503.285156 165.46875 503.375 165.464844 503.464844 165.496094 C 503.554688 165.527344 503.621094 165.585938 503.667969 165.667969 C 507.019531 171.546875 511.402344 176.511719 516.804688 180.558594 C 516.859375 180.597656 516.898438 180.648438 516.925781 180.707031 C 516.953125 180.765625 516.964844 180.828125 516.960938 180.890625 C 516.957031 180.957031 516.9375 181.015625 516.902344 181.070312 C 516.867188 181.125 516.824219 181.167969 516.769531 181.199219 C 509.972656 185.113281 502.699219 187.007812 494.949219 186.894531 Z M 304.707031 129.617188 C 304.363281 130.015625 304.265625 130.335938 304.417969 130.578125 C 304.425781 148.691406 304.425781 166.804688 304.417969 184.917969 C 304.417969 185.132812 304.523438 185.25 304.695312 185.339844 C 304.78125 185.863281 304.660156 186.324219 304.335938 186.734375 C 304.257812 186.828125 304.160156 186.875 304.035156 186.875 L 288.226562 186.875 C 288.121094 186.875 288.03125 186.835938 287.953125 186.761719 C 287.878906 186.6875 287.84375 186.597656 287.84375 186.492188 L 287.84375 179.265625 C 287.84375 178.785156 287.644531 178.679688 287.25 178.941406 C 282.648438 181.988281 277.664062 184.167969 272.296875 185.46875 C 242.03125 192.8125 213.195312 170.226562 213.363281 138.917969 C 213.550781 103.097656 252.441406 80.308594 283.898438 97.917969 C 293.046875 103.035156 299.824219 110.386719 304.222656 119.964844 C 304.25 120.023438 304.261719 120.085938 304.257812 120.152344 C 304.253906 120.214844 304.234375 120.277344 304.199219 120.332031 C 304.164062 120.386719 304.117188 120.429688 304.058594 120.460938 C 304 120.492188 303.941406 120.507812 303.875 120.507812 L 281.671875 120.507812 C 281.5625 120.507812 281.46875 120.46875 281.394531 120.390625 C 276.488281 115.214844 270.46875 112.277344 263.335938 111.570312 C 245.871094 109.851562 231.375 124.910156 233.070312 142.175781 C 234.191406 153.53125 242.273438 163.300781 253.34375 166.324219 C 268.710938 170.519531 283.84375 161.488281 287.960938 146.3125 C 287.996094 146.1875 287.972656 146.078125 287.894531 145.976562 C 287.820312 145.878906 287.71875 145.828125 287.59375 145.828125 L 264.839844 145.828125 C 264.734375 145.828125 264.644531 145.789062 264.570312 145.714844 C 264.496094 145.640625 264.457031 145.550781 264.457031 145.445312 L 264.457031 129.714844 C 264.457031 129.609375 264.496094 129.519531 264.570312 129.445312 C 264.640625 129.371094 264.730469 129.332031 264.835938 129.332031 C 278.121094 129.191406 291.410156 129.285156 304.707031 129.617188 Z M 304.707031 129.617188 " fill-opacity="1" fill-rule="nonzero"/></g><path fill="#0072bb" d="M 82.441406 98.832031 C 82.152344 98.699219 81.957031 98.492188 81.851562 98.207031 C 81.816406 98.113281 81.75 98.042969 81.660156 97.996094 C 81.566406 97.949219 81.472656 97.941406 81.375 97.972656 C 81.0625 98.070312 80.8125 98.222656 80.621094 98.429688 C 79.804688 99.296875 78.96875 100.144531 78.109375 100.964844 C 74.335938 104.59375 70.800781 108.433594 66.945312 111.988281 C 66.328125 112.5625 65.476562 113.523438 64.394531 114.878906 C 64.304688 114.992188 64.285156 115.117188 64.335938 115.253906 C 64.457031 115.589844 64.359375 115.902344 64.039062 116.191406 L 60.683594 112.835938 C 60.898438 112.527344 60.867188 112.265625 60.59375 112.050781 C 60.511719 111.984375 60.492188 111.90625 60.535156 111.816406 C 60.570312 111.730469 60.566406 111.636719 60.515625 111.53125 C 60.453125 111.390625 60.46875 111.257812 60.5625 111.136719 C 61.28125 110.199219 62.082031 109.332031 62.953125 108.542969 C 64.59375 107.058594 66.308594 105.339844 67.746094 103.71875 C 69.464844 101.785156 71.882812 100.019531 73.121094 98.609375 C 73.421875 98.265625 73.371094 98.046875 72.96875 97.953125 L 82.214844 96.546875 C 82.339844 96.527344 82.449219 96.5625 82.539062 96.652344 C 82.628906 96.738281 82.667969 96.847656 82.65625 96.972656 Z M 82.441406 98.832031 " fill-opacity="1" fill-rule="nonzero"/><path fill="#007bc4" d="M 82.441406 98.832031 L 81.636719 103.476562 C 80.808594 103.640625 80.265625 103.863281 80 104.144531 C 78.933594 105.277344 77.851562 106.390625 76.742188 107.484375 C 76.414062 107.808594 76.335938 108.285156 75.90625 108.621094 C 75.507812 108.921875 75.300781 109.082031 75.285156 109.097656 C 71.539062 112.765625 68.972656 115.253906 67.585938 116.5625 C 67.0625 117.050781 66.84375 117.636719 66.925781 118.308594 C 66.941406 118.425781 66.898438 118.507812 66.796875 118.558594 C 66.699219 118.609375 66.644531 118.683594 66.628906 118.78125 L 64.039062 116.191406 C 64.359375 115.902344 64.457031 115.589844 64.335938 115.253906 C 64.285156 115.117188 64.304688 114.992188 64.394531 114.878906 C 65.476562 113.523438 66.328125 112.5625 66.945312 111.988281 C 70.800781 108.433594 74.335938 104.59375 78.109375 100.964844 C 78.96875 100.144531 79.804688 99.296875 80.621094 98.429688 C 80.8125 98.222656 81.0625 98.070312 81.375 97.972656 C 81.472656 97.941406 81.566406 97.949219 81.660156 97.996094 C 81.75 98.042969 81.816406 98.113281 81.851562 98.207031 C 81.957031 98.492188 82.152344 98.699219 82.441406 98.832031 Z M 82.441406 98.832031 " fill-opacity="1" fill-rule="nonzero"/><path fill="#0068b5" d="M 72.96875 97.953125 C 73.371094 98.046875 73.421875 98.265625 73.121094 98.609375 C 71.882812 100.019531 69.464844 101.785156 67.746094 103.71875 C 66.308594 105.339844 64.59375 107.058594 62.953125 108.542969 C 62.082031 109.332031 61.28125 110.199219 60.5625 111.136719 C 60.46875 111.257812 60.453125 111.390625 60.515625 111.53125 C 60.566406 111.636719 60.570312 111.730469 60.535156 111.816406 C 60.492188 111.90625 60.511719 111.984375 60.59375 112.050781 C 60.867188 112.265625 60.898438 112.527344 60.683594 112.835938 L 57.640625 109.761719 C 58.21875 108.078125 59.207031 106.738281 60.609375 105.734375 C 61.347656 105.207031 61.9375 104.617188 62.367188 103.96875 C 62.417969 103.894531 62.488281 103.84375 62.570312 103.816406 C 63.21875 103.617188 63.644531 103.199219 63.855469 102.558594 C 63.878906 102.488281 63.917969 102.425781 63.976562 102.378906 C 65.199219 101.390625 66.296875 100.28125 67.269531 99.042969 C 67.496094 98.761719 67.222656 98.78125 67.027344 98.816406 Z M 72.96875 97.953125 " fill-opacity="1" fill-rule="nonzero"/><path fill="#035bab" d="M 67.027344 98.816406 C 67.222656 98.78125 67.496094 98.761719 67.269531 99.042969 C 66.296875 100.28125 65.199219 101.390625 63.976562 102.378906 C 63.917969 102.425781 63.878906 102.488281 63.855469 102.558594 C 63.644531 103.199219 63.21875 103.617188 62.570312 103.816406 C 62.488281 103.84375 62.417969 103.894531 62.367188 103.96875 C 61.9375 104.617188 61.347656 105.207031 60.609375 105.734375 C 59.207031 106.738281 58.21875 108.082031 57.640625 109.761719 L 49.300781 101.3125 Z M 67.027344 98.816406 " fill-opacity="1" fill-rule="nonzero"/><path fill="#0085cd" d="M 81.636719 103.476562 L 80.632812 109.667969 C 79.183594 110.433594 77.945312 111.429688 76.910156 112.648438 C 76.15625 113.539062 75.53125 114.203125 75.042969 114.640625 C 72.824219 116.625 70.820312 118.804688 69.023438 121.179688 L 66.628906 118.78125 C 66.644531 118.683594 66.699219 118.609375 66.796875 118.558594 C 66.898438 118.507812 66.941406 118.425781 66.925781 118.308594 C 66.84375 117.636719 67.0625 117.050781 67.585938 116.5625 C 68.972656 115.253906 71.539062 112.765625 75.285156 109.097656 C 75.300781 109.082031 75.507812 108.921875 75.90625 108.621094 C 76.335938 108.285156 76.414062 107.808594 76.742188 107.484375 C 77.851562 106.390625 78.933594 105.277344 80 104.144531 C 80.265625 103.863281 80.808594 103.640625 81.636719 103.476562 Z M 81.636719 103.476562 " fill-opacity="1" fill-rule="nonzero"/><path fill="#0094d9" d="M 80.632812 109.667969 C 80.121094 113.085938 79.285156 118.332031 78.132812 125.398438 C 77.992188 126.246094 77.851562 126.929688 77.703125 127.449219 C 77.675781 127.542969 77.617188 127.617188 77.535156 127.671875 C 77.105469 127.9375 76.886719 128.363281 76.882812 128.949219 L 69.023438 121.179688 C 70.820312 118.804688 72.824219 116.625 75.042969 114.640625 C 75.53125 114.203125 76.15625 113.539062 76.910156 112.648438 C 77.945312 111.429688 79.183594 110.433594 80.632812 109.667969 Z M 80.632812 109.667969 " fill-opacity="1" fill-rule="nonzero"/><path fill="#009bde" d="M 184.96875 129.941406 C 185.570312 132.703125 186.011719 135.441406 186.292969 138.15625 C 186.421875 139.359375 186.226562 139.664062 185.710938 139.0625 C 185.613281 138.953125 185.488281 138.910156 185.34375 138.941406 C 184.464844 139.117188 183.589844 139.304688 182.71875 139.503906 C 180.765625 139.949219 178.75 139.746094 176.695312 140.394531 C 175.808594 140.675781 174.707031 140.539062 173.820312 141.492188 C 173.742188 141.574219 173.664062 141.574219 173.589844 141.492188 L 173.503906 141.398438 Z M 184.96875 129.941406 " fill-opacity="1" fill-rule="nonzero"/><path fill="#00adef" d="M 161.140625 153.417969 L 161.332031 153.515625 L 162.769531 154.25 L 169 157.511719 L 174.128906 160.214844 C 179.621094 163.167969 185.125 166.050781 190.640625 168.855469 C 190.824219 168.949219 191.015625 168.976562 191.21875 168.941406 C 191.289062 169.15625 191.257812 169.308594 191.125 169.40625 C 183.113281 175.226562 175.125 181.046875 167.167969 186.863281 C 167.039062 186.957031 166.90625 186.96875 166.765625 186.894531 C 155.105469 180.847656 143.375 174.953125 131.710938 168.921875 C 131.476562 168.800781 131.148438 168.84375 130.910156 168.910156 C 129.855469 168.277344 128.46875 167.511719 126.75 166.617188 C 120.742188 163.492188 116.492188 161.292969 113.996094 160.027344 L 108.046875 156.96875 C 106.714844 156.296875 102.410156 154.53125 101.703125 153.5 C 102.007812 153.214844 102.257812 153.015625 102.464844 152.910156 C 112.046875 147.851562 121.636719 142.832031 131.234375 137.851562 C 131.355469 137.789062 131.472656 137.789062 131.589844 137.851562 Z M 161.140625 153.417969 " fill-opacity="1" fill-rule="nonzero"/><path fill="#008dd4" d="M 186.292969 138.15625 L 187.097656 142.855469 C 186.863281 142.609375 186.773438 142.566406 186.828125 142.71875 C 186.859375 142.8125 186.851562 142.898438 186.800781 142.980469 C 186.75 143.0625 186.675781 143.113281 186.582031 143.125 C 185.230469 143.324219 183.929688 143.515625 182.671875 143.695312 C 181.070312 143.925781 177.875 144.691406 175.386719 144.761719 C 173.140625 144.824219 170.664062 145.855469 168.519531 146.386719 L 173.503906 141.398438 L 173.589844 141.492188 C 173.664062 141.574219 173.742188 141.574219 173.820312 141.492188 C 174.707031 140.539062 175.808594 140.675781 176.695312 140.394531 C 178.75 139.746094 180.765625 139.949219 182.71875 139.503906 C 183.589844 139.304688 184.464844 139.117188 185.34375 138.941406 C 185.488281 138.910156 185.613281 138.953125 185.710938 139.0625 C 186.226562 139.664062 186.421875 139.359375 186.292969 138.15625 Z M 186.292969 138.15625 " fill-opacity="1" fill-rule="nonzero"/><path fill="#0085cd" d="M 187.097656 142.855469 L 187.578125 146.019531 C 187.382812 146.308594 187.839844 148.027344 187.203125 147.039062 C 187.125 146.925781 187.019531 146.867188 186.878906 146.867188 C 185.90625 146.863281 184.945312 146.96875 184 147.1875 C 183.015625 147.414062 181.773438 147.199219 181.058594 147.433594 C 179.710938 147.863281 178.257812 147.8125 177.015625 148.09375 C 174.902344 148.570312 172.628906 148.601562 170.574219 149.152344 C 169.433594 149.457031 168.300781 149.46875 167.039062 149.703125 C 165.957031 149.902344 165.109375 150.558594 164.015625 150.894531 L 168.519531 146.386719 C 170.664062 145.855469 173.140625 144.824219 175.386719 144.761719 C 177.875 144.691406 181.070312 143.925781 182.671875 143.695312 C 183.929688 143.515625 185.230469 143.324219 186.582031 143.125 C 186.675781 143.113281 186.75 143.0625 186.800781 142.980469 C 186.851562 142.898438 186.859375 142.8125 186.828125 142.71875 C 186.773438 142.566406 186.863281 142.609375 187.097656 142.855469 Z M 187.097656 142.855469 " fill-opacity="1" fill-rule="nonzero"/><path fill="#007bc4" d="M 187.578125 146.019531 L 188.132812 149.832031 C 188.214844 150.808594 187.902344 151.089844 187.207031 150.671875 C 187.148438 150.640625 187.082031 150.621094 187.015625 150.617188 C 185.101562 150.597656 183.160156 151.128906 181.417969 151.339844 C 180.207031 151.488281 179.015625 151.738281 177.84375 152.089844 C 176.707031 152.429688 175.691406 152.246094 174.53125 152.554688 C 173.679688 152.78125 172.933594 152.648438 172.265625 152.769531 C 170.417969 153.105469 168.570312 153.414062 166.71875 153.691406 C 165.636719 153.855469 164.667969 154.550781 163.222656 153.992188 C 162.917969 153.871094 162.769531 153.960938 162.769531 154.25 L 161.332031 153.515625 L 164.015625 150.894531 C 165.109375 150.558594 165.957031 149.902344 167.039062 149.703125 C 168.300781 149.46875 169.433594 149.457031 170.574219 149.152344 C 172.628906 148.601562 174.902344 148.570312 177.015625 148.09375 C 178.257812 147.8125 179.710938 147.863281 181.058594 147.433594 C 181.773438 147.199219 183.015625 147.414062 184 147.1875 C 184.945312 146.96875 185.90625 146.863281 186.878906 146.867188 C 187.019531 146.867188 187.125 146.925781 187.203125 147.039062 C 187.839844 148.027344 187.382812 146.308594 187.578125 146.019531 Z M 187.578125 146.019531 " fill-opacity="1" fill-rule="nonzero"/><path fill="#0072bb" d="M 188.132812 149.832031 L 188.917969 154.554688 C 188.882812 154.5625 188.847656 154.566406 188.816406 154.570312 C 188.632812 154.585938 188.527344 154.503906 188.492188 154.324219 C 188.390625 153.820312 188.199219 153.757812 187.910156 154.136719 C 187.871094 154.191406 187.816406 154.234375 187.753906 154.257812 C 186.40625 154.828125 184.773438 154.816406 183.695312 154.988281 C 179.679688 155.621094 175.664062 156.257812 171.652344 156.898438 C 171.21875 156.964844 170.636719 156.84375 170.171875 157.199219 C 170.039062 157.296875 169.902344 157.308594 169.753906 157.226562 C 169.398438 157.035156 169.144531 157.128906 169 157.511719 L 162.769531 154.25 C 162.769531 153.960938 162.917969 153.871094 163.222656 153.992188 C 164.667969 154.550781 165.636719 153.855469 166.71875 153.691406 C 168.570312 153.414062 170.417969 153.105469 172.265625 152.769531 C 172.933594 152.648438 173.679688 152.78125 174.53125 152.554688 C 175.691406 152.246094 176.707031 152.429688 177.84375 152.089844 C 179.015625 151.738281 180.207031 151.488281 181.417969 151.339844 C 183.160156 151.128906 185.101562 150.597656 187.015625 150.617188 C 187.082031 150.621094 187.148438 150.640625 187.207031 150.671875 C 187.902344 151.089844 188.214844 150.808594 188.132812 149.832031 Z M 188.132812 149.832031 " fill-opacity="1" fill-rule="nonzero"/><path fill="#007bc4" d="M 101.449219 153.402344 L 101.703125 153.5 C 102.410156 154.53125 106.714844 156.296875 108.046875 156.96875 C 108.125 157.390625 108.039062 157.601562 107.792969 157.601562 C 107.433594 157.601562 107.347656 157.757812 107.53125 158.066406 C 108.628906 159.921875 109.660156 161.863281 110.390625 163.878906 C 110.574219 164.375 110.875 164.914062 111.292969 165.496094 C 111.851562 166.265625 112.5625 167.621094 113.433594 169.566406 C 113.460938 169.636719 113.511719 169.679688 113.585938 169.699219 L 113.679688 169.730469 C 113.765625 169.757812 113.820312 169.8125 113.847656 169.894531 C 114.515625 172.175781 115.660156 174.183594 117.277344 175.925781 L 112.453125 178.3125 C 111.277344 175.855469 110.023438 173.453125 108.691406 171.105469 C 108.003906 169.890625 108.425781 169.082031 107.296875 167.820312 C 106.398438 166.808594 106.175781 165.664062 105.445312 164.554688 C 104.902344 163.730469 104.578125 162.816406 104.480469 161.808594 C 104.472656 161.734375 104.433594 161.6875 104.363281 161.671875 C 104.226562 161.636719 104.203125 161.605469 104.175781 161.457031 C 103.929688 160.015625 103.046875 159.433594 102.570312 158.203125 C 102.199219 157.234375 101.695312 156.328125 101.054688 155.476562 Z M 101.449219 153.402344 " fill-opacity="1" fill-rule="nonzero"/><path fill="#0068b5" d="M 188.917969 154.554688 L 189.324219 157.054688 C 188.785156 157.554688 188.179688 157.933594 187.507812 158.1875 C 187.433594 158.214844 187.398438 158.1875 187.402344 158.105469 L 187.40625 158 C 187.40625 157.910156 187.367188 157.875 187.277344 157.894531 C 185.378906 158.390625 183.445312 158.703125 181.484375 158.832031 C 181.132812 158.855469 180.714844 159.003906 180.242188 159.28125 C 180.152344 159.335938 180.054688 159.347656 179.953125 159.324219 C 179.085938 159.097656 178.253906 159.203125 177.460938 159.632812 C 177.382812 159.675781 177.296875 159.691406 177.207031 159.675781 C 176.121094 159.476562 175.09375 159.65625 174.128906 160.214844 L 169 157.511719 C 169.144531 157.128906 169.398438 157.035156 169.753906 157.226562 C 169.902344 157.308594 170.039062 157.296875 170.171875 157.199219 C 170.636719 156.84375 171.21875 156.964844 171.652344 156.898438 C 175.664062 156.257812 179.679688 155.621094 183.695312 154.988281 C 184.773438 154.816406 186.40625 154.828125 187.753906 154.257812 C 187.816406 154.234375 187.871094 154.191406 187.910156 154.136719 C 188.199219 153.757812 188.390625 153.820312 188.492188 154.324219 C 188.527344 154.503906 188.632812 154.585938 188.816406 154.570312 C 188.847656 154.566406 188.882812 154.5625 188.917969 154.554688 Z M 188.917969 154.554688 " fill-opacity="1" fill-rule="nonzero"/><path fill="#0072bb" d="M 101.054688 155.476562 C 101.695312 156.328125 102.199219 157.234375 102.570312 158.203125 C 103.046875 159.433594 103.929688 160.015625 104.175781 161.457031 C 104.203125 161.605469 104.226562 161.636719 104.363281 161.671875 C 104.433594 161.6875 104.472656 161.734375 104.480469 161.808594 C 104.578125 162.816406 104.902344 163.730469 105.445312 164.554688 C 106.175781 165.664062 106.398438 166.808594 107.296875 167.820312 C 108.425781 169.082031 108.003906 169.890625 108.691406 171.105469 C 110.023438 173.453125 111.277344 175.855469 112.453125 178.3125 L 109.34375 179.878906 C 107.597656 176.542969 105.855469 173.210938 104.117188 169.882812 C 103.863281 169.402344 103.339844 168.671875 103.089844 167.914062 C 102.863281 167.238281 102.652344 166.734375 102.460938 166.402344 C 101.65625 165.046875 100.957031 163.640625 100.363281 162.1875 C 100.304688 162.050781 100.207031 162.003906 100.0625 162.046875 C 100.007812 162.066406 99.957031 162.09375 99.914062 162.132812 Z M 101.054688 155.476562 " fill-opacity="1" fill-rule="nonzero"/><path fill="#0085cd" d="M 108.046875 156.96875 L 113.996094 160.027344 C 114.078125 160.355469 114.058594 160.6875 113.9375 161.027344 C 113.902344 161.125 113.90625 161.21875 113.949219 161.3125 C 114.304688 162.101562 114.503906 163.011719 114.882812 163.734375 C 116.667969 167.105469 118.414062 170.496094 120.117188 173.90625 C 120.183594 174.039062 120.292969 174.109375 120.445312 174.117188 L 120.792969 174.132812 L 117.277344 175.925781 C 115.660156 174.183594 114.515625 172.175781 113.847656 169.894531 C 113.820312 169.8125 113.765625 169.757812 113.679688 169.730469 L 113.585938 169.699219 C 113.511719 169.679688 113.460938 169.636719 113.433594 169.566406 C 112.5625 167.621094 111.851562 166.265625 111.292969 165.496094 C 110.875 164.914062 110.574219 164.375 110.390625 163.878906 C 109.660156 161.863281 108.628906 159.921875 107.53125 158.066406 C 107.347656 157.757812 107.433594 157.601562 107.792969 157.601562 C 108.039062 157.601562 108.125 157.390625 108.046875 156.96875 Z M 108.046875 156.96875 " fill-opacity="1" fill-rule="nonzero"/><path fill="#035bab" d="M 189.324219 157.054688 L 191.21875 168.941406 C 191.015625 168.976562 190.824219 168.949219 190.640625 168.855469 C 185.125 166.050781 179.621094 163.167969 174.128906 160.214844 C 175.09375 159.65625 176.121094 159.476562 177.207031 159.675781 C 177.296875 159.691406 177.382812 159.675781 177.460938 159.632812 C 178.253906 159.203125 179.085938 159.097656 179.953125 159.324219 C 180.054688 159.347656 180.152344 159.335938 180.242188 159.28125 C 180.714844 159.003906 181.132812 158.855469 181.484375 158.832031 C 183.445312 158.703125 185.378906 158.390625 187.277344 157.894531 C 187.367188 157.875 187.40625 157.910156 187.40625 158 L 187.402344 158.105469 C 187.398438 158.1875 187.433594 158.214844 187.507812 158.1875 C 188.179688 157.933594 188.785156 157.554688 189.324219 157.054688 Z M 189.324219 157.054688 " fill-opacity="1" fill-rule="nonzero"/><path fill="#0094d9" d="M 113.996094 160.027344 C 116.492188 161.292969 120.742188 163.492188 126.75 166.617188 C 128.46875 167.511719 129.855469 168.277344 130.910156 168.910156 L 120.792969 174.132812 L 120.445312 174.117188 C 120.292969 174.109375 120.183594 174.039062 120.117188 173.90625 C 118.414062 170.496094 116.667969 167.105469 114.882812 163.734375 C 114.503906 163.011719 114.304688 162.101562 113.949219 161.3125 C 113.90625 161.21875 113.902344 161.125 113.9375 161.027344 C 114.058594 160.6875 114.078125 160.355469 113.996094 160.027344 Z M 113.996094 160.027344 " fill-opacity="1" fill-rule="nonzero"/><path fill="#0068b5" d="M 109.34375 179.878906 L 106.757812 181.183594 C 105.457031 179.457031 104.378906 177.523438 103.527344 175.375 C 103.089844 174.277344 102.46875 173.191406 101.671875 172.113281 C 101.625 172.054688 101.601562 171.988281 101.597656 171.914062 C 101.5625 171.464844 101.410156 171.0625 101.132812 170.703125 C 101.082031 170.636719 101.054688 170.5625 101.054688 170.480469 C 101.035156 169.507812 100.625 168.855469 99.824219 168.523438 C 99.660156 168.457031 99.582031 168.335938 99.585938 168.160156 L 99.621094 166.75 C 99.625 166.457031 99.503906 166.382812 99.25 166.53125 C 99.175781 166.574219 99.109375 166.640625 99.050781 166.734375 L 99.914062 162.132812 C 99.957031 162.09375 100.007812 162.066406 100.0625 162.046875 C 100.207031 162.003906 100.304688 162.050781 100.363281 162.1875 C 100.957031 163.640625 101.65625 165.046875 102.460938 166.402344 C 102.652344 166.734375 102.863281 167.238281 103.089844 167.914062 C 103.339844 168.671875 103.863281 169.402344 104.117188 169.882812 C 105.855469 173.210938 107.597656 176.542969 109.34375 179.878906 Z M 109.34375 179.878906 " fill-opacity="1" fill-rule="nonzero"/><path fill="#035bab" d="M 106.757812 181.183594 L 95.890625 186.777344 L 95.753906 186.480469 C 95.722656 186.40625 95.710938 186.332031 95.722656 186.257812 L 99.050781 166.734375 C 99.109375 166.640625 99.175781 166.574219 99.25 166.53125 C 99.503906 166.382812 99.625 166.457031 99.621094 166.75 L 99.585938 168.160156 C 99.582031 168.335938 99.660156 168.457031 99.824219 168.523438 C 100.625 168.855469 101.035156 169.507812 101.054688 170.480469 C 101.054688 170.5625 101.082031 170.636719 101.132812 170.703125 C 101.410156 171.058594 101.5625 171.464844 101.597656 171.914062 C 101.601562 171.988281 101.625 172.054688 101.671875 172.113281 C 102.46875 173.191406 103.089844 174.277344 103.527344 175.375 C 104.378906 177.523438 105.457031 179.457031 106.757812 181.183594 Z M 106.757812 181.183594 " fill-opacity="1" fill-rule="nonzero"/><g clip-path="url(#ce179dbaf7)"><path stroke-linecap="butt" transform="matrix(0.944435, 0, 0, 0.943516, -27.503385, -109.848523)" fill="none" stroke-linejoin="miter" d="M 497.941084 218.77623 L 497.858363 218.916994 C 497.800458 219.012216 497.767369 219.115719 497.767369 219.227501 L 498.036214 242.784671 M 426.883377 219.1861 C 426.35396 219.807115 426.205062 220.299787 426.440818 220.668256 C 426.44909 248.51043 426.44909 276.348463 426.440818 304.190637 C 426.440818 304.517704 426.602125 304.695729 426.866833 304.836492 " stroke="#da3f47" stroke-width="2" stroke-opacity="1" stroke-miterlimit="4"/></g><path stroke-linecap="butt" transform="matrix(0.944435, 0, 0, 0.943516, -27.503385, -109.848523)" fill="none" stroke-linejoin="miter" d="M 738.821746 171.256161 C 738.08139 171.119538 737.341033 171.123678 736.59654 171.268581 C 736.464186 171.297562 736.352512 171.363804 736.261518 171.467306 C 736.174661 171.566669 736.125028 171.686731 736.120892 171.823355 L 735.980265 174.961551 C 735.971993 175.127155 736.021626 175.267918 736.137436 175.387981 C 736.24911 175.512184 736.389736 175.570145 736.555179 175.574285 C 737.899403 175.594986 739.392524 175.702629 740.405862 174.775246 C 742.076835 173.255829 740.579577 171.583229 738.821746 171.256161 " stroke="#e5929a" stroke-width="2" stroke-opacity="1" stroke-miterlimit="4"/><g clip-path="url(#804220a270)"><path fill="#ca2535" d="M 229.390625 14.515625 L 242.816406 55.640625 C 242.886719 55.859375 242.839844 56.050781 242.675781 56.207031 C 229.859375 68.828125 217.152344 81.480469 204.546875 94.160156 C 203.515625 95.199219 202.578125 96.289062 201.730469 97.433594 L 185.078125 114.050781 L 177.839844 121.28125 L 171.296875 127.816406 L 167.398438 131.617188 L 167.121094 131.480469 C 167.414062 131.425781 167.460938 131.101562 167.261719 130.5 C 167.164062 130.214844 167.089844 129.925781 167.042969 129.632812 C 164.5 114.96875 162.054688 100.65625 159.707031 86.683594 C 159.59375 86 159.152344 84.699219 159.140625 83.683594 C 159.140625 83.527344 159.195312 83.398438 159.308594 83.289062 C 170.589844 72.011719 181.996094 60.890625 193.410156 49.75 C 193.511719 49.652344 193.5625 49.535156 193.570312 49.394531 L 193.59375 49.121094 L 194.316406 48.847656 L 201.644531 41.492188 L 211.949219 31.480469 Z M 442.769531 96.570312 L 442.691406 96.703125 C 442.636719 96.792969 442.605469 96.890625 442.605469 96.996094 L 442.859375 119.222656 C 443.109375 119.578125 443.144531 119.90625 442.957031 120.207031 C 442.851562 120.382812 442.691406 120.46875 442.484375 120.46875 L 412.371094 120.46875 C 412.230469 120.46875 412.105469 120.515625 412 120.609375 C 411.894531 120.703125 411.835938 120.820312 411.816406 120.957031 C 411.636719 122.414062 411.597656 123.5 411.707031 124.222656 C 414.695312 144.230469 434.019531 155.71875 453.113281 149.152344 C 453.242188 149.109375 453.367188 149.113281 453.488281 149.160156 C 453.613281 149.203125 453.710938 149.285156 453.777344 149.398438 C 458.707031 157.789062 465.070312 164.933594 472.863281 170.828125 C 472.933594 170.882812 472.992188 170.953125 473.03125 171.039062 C 473.066406 171.125 473.085938 171.210938 473.078125 171.304688 C 473.070312 171.398438 473.042969 171.484375 472.996094 171.5625 C 472.945312 171.640625 472.882812 171.703125 472.800781 171.75 C 436.109375 192.851562 389.671875 171.5625 383.015625 129.429688 C 382.585938 126.722656 382.371094 123.03125 382.367188 118.347656 C 382.339844 93.101562 382.335938 67.84375 382.355469 42.582031 C 382.355469 42.429688 382.410156 42.300781 382.515625 42.191406 C 382.625 42.082031 382.757812 42.027344 382.910156 42.027344 L 411.304688 42.027344 C 411.460938 42.027344 411.589844 42.082031 411.699219 42.191406 C 411.808594 42.300781 411.863281 42.429688 411.863281 42.582031 L 411.863281 95.996094 C 411.863281 96.148438 411.917969 96.28125 412.027344 96.390625 C 412.132812 96.5 412.265625 96.550781 412.417969 96.550781 Z M 652.003906 180.023438 C 621.734375 179.566406 597.335938 156.707031 593.589844 127.089844 C 593.078125 123.039062 593.390625 118.132812 593.390625 114.90625 C 593.402344 90.800781 593.40625 66.695312 593.394531 42.582031 C 593.394531 42.429688 593.449219 42.300781 593.558594 42.191406 C 593.667969 42.082031 593.796875 42.027344 593.953125 42.027344 L 621.972656 42.027344 C 622.125 42.027344 622.257812 42.082031 622.363281 42.1875 C 622.472656 42.296875 622.527344 42.425781 622.53125 42.578125 C 622.5625 45.742188 622.375 49.253906 622.375 52.050781 C 622.347656 73.847656 622.9375 95.875 622.171875 117.636719 C 621.5 136.851562 635.019531 150.882812 654.515625 151.121094 C 657.101562 151.152344 660.253906 150.445312 663.984375 149.003906 C 664.113281 148.953125 664.242188 148.949219 664.371094 148.996094 C 664.503906 149.039062 664.601562 149.121094 664.667969 149.242188 C 669.539062 157.769531 675.898438 164.96875 683.75 170.839844 C 683.828125 170.894531 683.882812 170.964844 683.925781 171.050781 C 683.964844 171.136719 683.980469 171.222656 683.976562 171.316406 C 683.96875 171.410156 683.941406 171.5 683.890625 171.578125 C 683.84375 171.65625 683.777344 171.722656 683.695312 171.765625 C 673.824219 177.4375 663.261719 180.191406 652.003906 180.023438 Z M 375.660156 96.957031 C 375.160156 97.542969 375.019531 98.007812 375.242188 98.355469 C 375.25 124.625 375.25 150.890625 375.242188 177.160156 C 375.242188 177.46875 375.394531 177.636719 375.644531 177.769531 C 375.765625 178.527344 375.59375 179.199219 375.121094 179.789062 C 375.007812 179.925781 374.863281 179.996094 374.6875 179.996094 L 351.722656 179.996094 C 351.566406 179.996094 351.4375 179.941406 351.328125 179.832031 C 351.21875 179.722656 351.164062 179.59375 351.164062 179.4375 L 351.164062 168.957031 C 351.164062 168.265625 350.875 168.109375 350.300781 168.492188 C 343.617188 172.910156 336.378906 176.066406 328.582031 177.960938 C 284.617188 188.605469 242.730469 155.851562 242.976562 110.449219 C 243.25 58.503906 299.742188 25.453125 345.433594 50.988281 C 358.726562 58.414062 368.566406 69.070312 374.960938 82.960938 C 375 83.046875 375.015625 83.136719 375.007812 83.234375 C 375.003906 83.328125 374.972656 83.414062 374.921875 83.496094 C 374.871094 83.574219 374.804688 83.636719 374.71875 83.683594 C 374.636719 83.730469 374.546875 83.75 374.453125 83.75 L 342.199219 83.75 C 342.039062 83.75 341.90625 83.695312 341.796875 83.578125 C 334.671875 76.078125 325.929688 71.8125 315.5625 70.789062 C 290.199219 68.296875 269.136719 90.132812 271.605469 115.171875 C 273.230469 131.640625 284.96875 145.808594 301.050781 150.191406 C 323.375 156.28125 345.355469 143.179688 351.335938 121.171875 C 351.359375 121.085938 351.363281 121.003906 351.347656 120.917969 C 351.328125 120.832031 351.292969 120.757812 351.242188 120.6875 C 351.191406 120.621094 351.125 120.566406 351.046875 120.527344 C 350.96875 120.488281 350.890625 120.46875 350.800781 120.46875 L 317.753906 120.46875 C 317.597656 120.46875 317.46875 120.414062 317.359375 120.304688 C 317.25 120.199219 317.195312 120.066406 317.195312 119.914062 L 317.195312 97.101562 C 317.195312 96.949219 317.25 96.820312 317.355469 96.710938 C 317.464844 96.605469 317.59375 96.546875 317.746094 96.546875 C 337.042969 96.34375 356.347656 96.480469 375.660156 96.957031 Z M 375.660156 96.957031 " fill-opacity="1" fill-rule="nonzero"/></g><g clip-path="url(#ea720a0d4d)"><path fill="#ca2535" d="M 480.914062 121.023438 C 479.96875 121.023438 479.644531 121.484375 479.945312 122.40625 C 484.5 136.28125 493.675781 145.433594 507.476562 149.871094 C 511.628906 151.199219 516.03125 151.371094 521.140625 151.234375 C 533.566406 150.90625 544.574219 144.066406 551.757812 134.054688 C 551.867188 133.898438 552.019531 133.820312 552.210938 133.820312 L 583.214844 133.820312 C 583.308594 133.820312 583.394531 133.839844 583.472656 133.882812 C 583.554688 133.925781 583.621094 133.984375 583.675781 134.058594 C 583.726562 134.136719 583.757812 134.21875 583.769531 134.308594 C 583.78125 134.402344 583.769531 134.492188 583.738281 134.578125 C 577.984375 149.816406 568.203125 161.75 554.390625 170.371094 C 548.402344 174.109375 541.46875 176.828125 533.582031 178.519531 C 485.613281 188.820312 443.453125 148.375 450.53125 100.351562 C 454.667969 72.246094 477.078125 49.328125 504.699219 43.550781 C 541.773438 35.800781 580.257812 60.59375 585.558594 98.566406 C 586.511719 105.410156 586.226562 113.296875 585.75 120.503906 C 585.738281 120.648438 585.683594 120.773438 585.574219 120.875 C 585.46875 120.976562 585.339844 121.027344 585.191406 121.023438 Z M 552.382812 91.929688 C 537.140625 61.832031 495.914062 65.253906 482.039062 94.449219 C 481.75 95.058594 481.585938 95.484375 481.554688 95.730469 C 481.539062 95.832031 481.550781 95.933594 481.582031 96.03125 C 481.613281 96.132812 481.664062 96.21875 481.738281 96.296875 C 481.808594 96.375 481.894531 96.433594 481.996094 96.476562 C 482.09375 96.519531 482.199219 96.542969 482.304688 96.542969 L 553.148438 96.550781 C 553.234375 96.554688 553.316406 96.535156 553.390625 96.5 C 553.46875 96.460938 553.535156 96.410156 553.585938 96.34375 C 553.640625 96.277344 553.675781 96.203125 553.695312 96.121094 C 553.714844 96.039062 553.714844 95.957031 553.695312 95.875 C 553.332031 94.257812 552.894531 92.941406 552.382812 91.929688 Z M 684.453125 56.195312 C 684.476562 57.136719 684.40625 58.074219 684.238281 59.003906 C 684.074219 59.933594 683.816406 60.839844 683.46875 61.71875 C 683.121094 62.601562 682.6875 63.441406 682.167969 64.238281 C 681.652344 65.035156 681.058594 65.777344 680.390625 66.460938 C 679.726562 67.144531 678.996094 67.757812 678.207031 68.300781 C 677.414062 68.847656 676.578125 69.308594 675.691406 69.691406 C 674.808594 70.074219 673.894531 70.371094 672.953125 70.578125 C 672.007812 70.785156 671.054688 70.902344 670.085938 70.925781 C 669.121094 70.949219 668.160156 70.878906 667.207031 70.71875 C 666.257812 70.558594 665.328125 70.308594 664.425781 69.96875 C 663.527344 69.628906 662.667969 69.207031 661.851562 68.703125 C 661.035156 68.195312 660.277344 67.621094 659.574219 66.96875 C 658.875 66.320312 658.25 65.609375 657.691406 64.835938 C 657.136719 64.066406 656.664062 63.246094 656.269531 62.382812 C 655.878906 61.523438 655.578125 60.628906 655.367188 59.710938 C 655.15625 58.789062 655.039062 57.855469 655.015625 56.914062 C 654.992188 55.96875 655.066406 55.03125 655.230469 54.101562 C 655.394531 53.171875 655.652344 52.265625 656.003906 51.386719 C 656.351562 50.503906 656.785156 49.664062 657.300781 48.867188 C 657.820312 48.070312 658.410156 47.328125 659.078125 46.644531 C 659.746094 45.960938 660.476562 45.347656 661.265625 44.804688 C 662.054688 44.261719 662.894531 43.796875 663.777344 43.414062 C 664.660156 43.03125 665.574219 42.734375 666.519531 42.527344 C 667.460938 42.320312 668.417969 42.207031 669.382812 42.183594 C 670.351562 42.160156 671.308594 42.226562 672.261719 42.386719 C 673.214844 42.550781 674.140625 42.800781 675.042969 43.136719 C 675.945312 43.476562 676.804688 43.898438 677.621094 44.40625 C 678.4375 44.910156 679.195312 45.488281 679.894531 46.136719 C 680.59375 46.789062 681.222656 47.5 681.777344 48.269531 C 682.335938 49.042969 682.808594 49.859375 683.199219 50.722656 C 683.589844 51.585938 683.890625 52.476562 684.101562 53.398438 C 684.3125 54.316406 684.429688 55.25 684.453125 56.195312 Z M 670.570312 68.058594 C 671.300781 68.007812 672.019531 67.878906 672.726562 67.679688 C 673.429688 67.480469 674.109375 67.210938 674.765625 66.871094 C 675.417969 66.53125 676.03125 66.128906 676.609375 65.664062 C 677.1875 65.199219 677.710938 64.679688 678.1875 64.105469 C 678.667969 63.53125 679.085938 62.914062 679.445312 62.253906 C 679.804688 61.59375 680.097656 60.90625 680.324219 60.183594 C 680.554688 59.464844 680.710938 58.726562 680.800781 57.976562 C 680.886719 57.222656 680.902344 56.464844 680.847656 55.710938 C 680.792969 54.953125 680.664062 54.207031 680.46875 53.472656 C 680.273438 52.742188 680.007812 52.035156 679.675781 51.355469 C 679.347656 50.679688 678.953125 50.039062 678.503906 49.4375 C 678.050781 48.839844 677.546875 48.289062 676.992188 47.792969 C 676.433594 47.292969 675.835938 46.855469 675.199219 46.480469 C 674.5625 46.105469 673.894531 45.796875 673.199219 45.554688 C 672.5 45.316406 671.789062 45.148438 671.0625 45.054688 C 670.335938 44.957031 669.605469 44.9375 668.875 44.992188 C 668.144531 45.042969 667.425781 45.171875 666.722656 45.371094 C 666.015625 45.570312 665.335938 45.839844 664.683594 46.179688 C 664.03125 46.519531 663.414062 46.921875 662.839844 47.386719 C 662.261719 47.851562 661.734375 48.371094 661.257812 48.945312 C 660.78125 49.519531 660.363281 50.136719 660.003906 50.796875 C 659.644531 51.457031 659.351562 52.144531 659.121094 52.863281 C 658.894531 53.585938 658.738281 54.320312 658.648438 55.074219 C 658.5625 55.828125 658.542969 56.585938 658.601562 57.339844 C 658.65625 58.097656 658.78125 58.84375 658.980469 59.574219 C 659.175781 60.308594 659.441406 61.015625 659.773438 61.695312 C 660.101562 62.371094 660.492188 63.011719 660.945312 63.613281 C 661.398438 64.210938 661.902344 64.761719 662.457031 65.257812 C 663.015625 65.757812 663.609375 66.191406 664.25 66.570312 C 664.886719 66.945312 665.554688 67.253906 666.25 67.496094 C 666.945312 67.734375 667.660156 67.902344 668.386719 67.996094 C 669.113281 68.09375 669.84375 68.113281 670.570312 68.058594 Z M 863.261719 112.625 C 849.007812 100.339844 848 76.714844 859.492188 62.589844 C 866.574219 53.882812 877.769531 48.0625 888.648438 45.464844 C 909.859375 40.398438 934.496094 43.722656 955.011719 51.761719 C 955.246094 51.855469 955.363281 52.03125 955.363281 52.285156 L 955.363281 81.660156 C 955.363281 81.804688 955.3125 81.925781 955.21875 82.035156 C 955.121094 82.140625 955.003906 82.199219 954.859375 82.214844 C 952.203125 82.503906 949.46875 79.996094 947.304688 78.609375 C 932.992188 69.480469 911.660156 63.519531 895.261719 70.574219 C 888.972656 73.28125 885.074219 79.863281 888.949219 86.273438 C 890.546875 88.914062 893.332031 90.5 896.191406 91.546875 C 903.925781 94.371094 912.273438 95.679688 920.289062 97.449219 C 936.675781 101.070312 956.257812 108.851562 960.019531 127.246094 C 962.519531 139.484375 960.285156 152.351562 952.117188 161.738281 C 938.894531 176.941406 918.152344 180.941406 898.972656 180.652344 C 882.464844 180.40625 866.660156 176.984375 851.5625 170.386719 C 851.339844 170.289062 851.230469 170.121094 851.230469 169.875 L 851.230469 139.34375 C 851.230469 139.214844 851.269531 139.097656 851.355469 138.996094 C 851.4375 138.890625 851.542969 138.828125 851.675781 138.800781 C 853.3125 138.472656 854.386719 138.855469 855.761719 139.921875 C 865.800781 147.734375 877.839844 153.058594 890.363281 155.167969 C 899.597656 156.71875 926.273438 157.699219 925.265625 141.75 C 924.683594 132.597656 912.84375 129.660156 905.761719 128.300781 C 891.890625 125.648438 874.515625 122.316406 863.261719 112.625 Z M 1077.960938 173.390625 C 1038.742188 190.816406 982.402344 182.867188 972.375 132.546875 C 965.292969 97.019531 976.328125 58.605469 1013.859375 46.496094 C 1026.324219 42.476562 1041.363281 42.398438 1054.664062 44.230469 C 1065.230469 45.6875 1075.328125 49.253906 1084.8125 54.171875 C 1085.011719 54.277344 1085.113281 54.441406 1085.113281 54.667969 L 1085.113281 85.488281 C 1085.113281 85.640625 1085.058594 85.773438 1084.949219 85.878906 C 1084.84375 85.988281 1084.710938 86.042969 1084.558594 86.042969 L 1081.925781 86.066406 C 1081.789062 86.066406 1081.667969 86.023438 1081.558594 85.933594 C 1067.230469 73.839844 1050.910156 63.875 1031.40625 69.9375 C 1018.6875 73.894531 1010.664062 85.003906 1007.71875 97.644531 C 1002.394531 120.53125 1008.34375 150.605469 1035.800781 155.824219 C 1053.839844 159.253906 1067.921875 150.957031 1080.945312 139.679688 C 1082.046875 138.730469 1083.296875 138.453125 1084.703125 138.855469 C 1084.976562 138.933594 1085.109375 139.109375 1085.113281 139.390625 L 1085.113281 169.746094 C 1085.109375 169.980469 1085.003906 170.148438 1084.792969 170.25 C 1082.515625 171.335938 1080.238281 172.382812 1077.960938 173.390625 Z M 767.976562 70.957031 L 727.882812 70.957031 C 727.804688 70.957031 727.742188 70.929688 727.6875 70.875 C 727.632812 70.820312 727.605469 70.753906 727.605469 70.679688 L 727.605469 46.199219 C 727.605469 46.125 727.632812 46.058594 727.6875 46.003906 C 727.742188 45.949219 727.804688 45.921875 727.882812 45.921875 L 843.152344 45.921875 C 843.230469 45.921875 843.296875 45.949219 843.351562 46.003906 C 843.40625 46.058594 843.433594 46.125 843.433594 46.199219 L 843.433594 70.679688 C 843.433594 70.753906 843.40625 70.820312 843.351562 70.875 C 843.296875 70.929688 843.230469 70.957031 843.152344 70.957031 L 803.058594 70.957031 C 802.984375 70.957031 802.917969 70.984375 802.863281 71.039062 C 802.808594 71.09375 802.78125 71.15625 802.78125 71.234375 L 802.78125 178.046875 C 802.78125 178.125 802.753906 178.191406 802.699219 178.246094 C 802.644531 178.300781 802.578125 178.328125 802.503906 178.328125 L 768.535156 178.328125 C 768.457031 178.328125 768.390625 178.300781 768.335938 178.246094 C 768.28125 178.191406 768.253906 178.125 768.253906 178.046875 L 768.253906 71.234375 C 768.253906 71.15625 768.226562 71.09375 768.175781 71.039062 C 768.121094 70.984375 768.054688 70.957031 767.976562 70.957031 Z M 767.976562 70.957031 " fill-opacity="1" fill-rule="nonzero"/></g><path fill="#ca2535" d="M 673.867188 57.402344 L 674.378906 57.726562 C 674.460938 57.777344 674.523438 57.84375 674.570312 57.921875 C 675.476562 59.496094 676.0625 61.179688 676.335938 62.972656 C 676.355469 63.117188 676.328125 63.246094 676.25 63.367188 C 676.167969 63.484375 676.058594 63.5625 675.921875 63.597656 C 675.039062 63.820312 674.148438 63.820312 673.253906 63.601562 C 673.054688 63.550781 672.921875 63.425781 672.859375 63.230469 L 671.40625 58.695312 C 671.328125 58.453125 671.160156 58.324219 670.90625 58.3125 L 668.046875 58.15625 C 667.890625 58.148438 667.75 58.199219 667.636719 58.308594 C 667.519531 58.417969 667.464844 58.550781 667.464844 58.710938 L 667.464844 63.347656 C 667.464844 63.507812 667.40625 63.644531 667.285156 63.753906 C 667.164062 63.867188 667.023438 63.914062 666.863281 63.902344 L 664.632812 63.714844 C 664.492188 63.699219 664.371094 63.640625 664.273438 63.535156 C 664.175781 63.425781 664.128906 63.300781 664.128906 63.15625 L 664.121094 50.355469 C 664.121094 50.09375 664.246094 49.917969 664.496094 49.832031 C 667.597656 48.777344 676.5625 47.9375 675.882812 53.671875 C 675.722656 55.019531 675.074219 55.9375 673.941406 56.425781 C 673.289062 56.703125 673.265625 57.03125 673.867188 57.402344 Z M 670.265625 51.734375 C 669.566406 51.605469 668.867188 51.609375 668.164062 51.746094 C 668.039062 51.773438 667.933594 51.835938 667.847656 51.933594 C 667.765625 52.027344 667.71875 52.140625 667.714844 52.269531 L 667.582031 55.230469 C 667.574219 55.386719 667.621094 55.519531 667.730469 55.632812 C 667.835938 55.75 667.96875 55.804688 668.125 55.808594 C 669.394531 55.828125 670.804688 55.929688 671.761719 55.054688 C 673.339844 53.621094 671.921875 52.042969 670.265625 51.734375 Z M 670.265625 51.734375 " fill-opacity="1" fill-rule="nonzero"/><path fill="#ffffff" d="M 670.265625 51.734375 C 671.921875 52.042969 673.339844 53.621094 671.761719 55.054688 C 670.804688 55.929688 669.394531 55.828125 668.125 55.808594 C 667.96875 55.804688 667.835938 55.75 667.730469 55.632812 C 667.621094 55.519531 667.574219 55.386719 667.582031 55.230469 L 667.714844 52.269531 C 667.71875 52.140625 667.765625 52.027344 667.847656 51.933594 C 667.933594 51.835938 668.039062 51.773438 668.164062 51.746094 C 668.867188 51.609375 669.566406 51.605469 670.265625 51.734375 Z M 670.265625 51.734375 " fill-opacity="1" fill-rule="nonzero"/><path fill="#ea5a5a" d="M 442.769531 96.570312 L 442.902344 96.699219 C 443.003906 96.785156 443.050781 96.894531 443.046875 97.027344 L 442.859375 119.222656 L 442.605469 96.996094 C 442.605469 96.890625 442.636719 96.792969 442.691406 96.703125 Z M 375.660156 96.957031 L 375.644531 177.769531 C 375.394531 177.636719 375.242188 177.46875 375.242188 177.160156 C 375.25 150.890625 375.25 124.625 375.242188 98.355469 C 375.019531 98.007812 375.160156 97.542969 375.660156 96.957031 Z M 375.660156 96.957031 " fill-opacity="0.996" fill-rule="nonzero"/></svg>