<svg xmlns="http://www.w3.org/2000/svg" xmlns:xlink="http://www.w3.org/1999/xlink" width="1000" zoomAndPan="magnify" viewBox="0 0 750 225" height="300" preserveAspectRatio="xMidYMid meet" version="1.0"><path fill="#0f181f" d="M 318.703125 95.695312 C 339.148438 72.101562 358.46875 49.886719 377.660156 27.546875 C 380.296875 24.40625 383.179688 23.152344 387.320312 23.277344 C 397.480469 23.53125 407.640625 23.402344 419.058594 23.402344 C 410.777344 33.066406 403.503906 41.726562 396.101562 50.386719 C 380.171875 68.960938 364.363281 87.539062 348.183594 105.863281 C 344.796875 109.753906 344.542969 111.886719 348.183594 115.902344 C 371.890625 142.007812 395.347656 168.363281 418.933594 194.71875 C 419.683594 195.597656 420.4375 196.601562 422.070312 198.484375 C 409.273438 198.484375 397.480469 198.484375 385.5625 198.484375 C 382.929688 198.484375 381.800781 195.976562 380.296875 194.34375 C 360.097656 171.878906 340.027344 149.285156 319.582031 126.445312 C 318.074219 128.578125 318.703125 130.710938 318.703125 132.59375 C 318.703125 152.425781 318.578125 172.253906 318.828125 192.210938 C 318.828125 196.851562 318.074219 198.988281 312.808594 198.609375 C 306.535156 198.109375 300.261719 198.234375 293.992188 198.609375 C 290.476562 198.734375 289.851562 197.480469 289.851562 194.34375 C 289.976562 138.742188 289.976562 83.144531 289.851562 27.546875 C 289.851562 24.15625 290.855469 23.277344 294.117188 23.402344 C 300.640625 23.65625 307.035156 23.65625 313.558594 23.402344 C 317.574219 23.152344 318.828125 24.40625 318.828125 28.550781 C 318.578125 48.882812 318.703125 69.089844 318.703125 89.421875 C 318.703125 90.800781 318.703125 92.433594 318.703125 95.695312 Z M 318.703125 95.695312 " fill-opacity="1" fill-rule="nonzero"/><path fill="#15e281" d="M 159.390625 153.304688 C 152.113281 159.953125 148.351562 169.117188 142.453125 176.898438 C 138.1875 182.546875 134.425781 188.445312 130.535156 194.46875 C 128.78125 197.230469 126.398438 198.359375 123.136719 198.234375 C 112.222656 198.234375 101.433594 198.234375 90.519531 198.234375 C 85.628906 198.234375 83.121094 195.597656 82.742188 191.078125 C 82.242188 185.933594 81.738281 180.664062 82.867188 175.515625 C 83.996094 174.890625 83.371094 178.277344 84.625 176.519531 C 100.304688 152.800781 116.988281 129.832031 131.917969 105.609375 C 139.695312 93.9375 148.351562 83.019531 155.625 70.972656 C 156.253906 69.964844 157.257812 68.960938 158.636719 68.960938 C 167.292969 56.285156 176.199219 43.863281 184.601562 30.933594 C 188.117188 25.539062 192.128906 23.152344 198.402344 23.277344 C 209.941406 23.53125 221.359375 23.277344 232.898438 23.402344 C 235.910156 23.402344 239.546875 22.777344 241.179688 26.289062 C 242.683594 29.429688 240.425781 31.9375 238.796875 34.324219 C 222.109375 59.046875 205.300781 83.773438 188.617188 108.621094 C 187.992188 109.5 187.738281 110.503906 187.238281 111.382812 C 185.355469 118.789062 179.835938 123.933594 175.949219 129.957031 C 170.679688 137.867188 165.785156 146.148438 159.390625 153.304688 Z M 159.390625 153.304688 " fill-opacity="1" fill-rule="nonzero"/><path fill="#0f181f" d="M 663.796875 135.730469 C 663.796875 154.808594 663.671875 173.761719 663.925781 192.835938 C 663.925781 196.980469 663.171875 198.863281 658.53125 198.484375 C 653.511719 198.109375 648.496094 198.109375 643.476562 198.484375 C 639.210938 198.863281 638.460938 197.105469 638.460938 193.214844 C 638.585938 163.46875 638.460938 133.847656 638.710938 104.105469 C 638.710938 99.210938 637.832031 97.203125 632.3125 97.453125 C 622.152344 97.953125 611.863281 97.828125 601.578125 97.453125 C 597.1875 97.328125 596.433594 98.832031 596.433594 102.847656 C 596.5625 132.59375 596.433594 162.214844 596.6875 191.957031 C 596.6875 197.105469 595.683594 199.113281 590.289062 198.484375 C 585.523438 197.984375 580.628906 198.109375 575.863281 198.484375 C 571.847656 198.863281 571.097656 197.355469 571.097656 193.589844 C 571.222656 163.71875 570.96875 133.847656 571.347656 103.851562 C 571.347656 98.582031 569.96875 96.574219 564.824219 97.578125 C 564.449219 97.703125 563.945312 97.578125 563.570312 97.578125 C 543.625 97.578125 543.75 97.578125 545.128906 77.371094 C 545.378906 74.234375 546.382812 73.480469 549.269531 73.605469 C 555.289062 73.730469 561.4375 73.480469 567.457031 73.730469 C 570.59375 73.855469 571.472656 72.726562 571.347656 69.839844 C 571.222656 63.941406 571.222656 58.167969 571.347656 52.269531 C 571.597656 39.21875 579.75 30.433594 592.671875 29.929688 C 600.199219 29.679688 607.726562 30.054688 615.253906 29.804688 C 618.511719 29.679688 619.390625 31.058594 619.015625 33.820312 C 619.015625 34.199219 619.015625 34.699219 619.015625 35.074219 C 619.015625 40.976562 621.148438 48.253906 618.386719 52.269531 C 615.378906 56.664062 607.601562 53.398438 601.953125 53.652344 C 598.066406 53.902344 596.9375 55.28125 596.8125 58.921875 C 596.058594 73.605469 596.058594 73.605469 610.609375 73.605469 C 626.039062 73.605469 641.59375 73.859375 657.023438 73.480469 C 662.417969 73.355469 664.550781 74.359375 664.300781 80.507812 C 663.546875 98.957031 663.796875 117.28125 663.796875 135.730469 Z M 663.796875 135.730469 " fill-opacity="1" fill-rule="nonzero"/><path fill="#097f75" d="M 133.296875 106.238281 C 125.894531 117.40625 118.746094 128.703125 111.34375 139.75 C 102.1875 153.429688 92.902344 166.855469 83.371094 180.789062 C 83.121094 178.65625 82.992188 177.023438 82.742188 175.390625 C 82.742188 127.824219 82.617188 80.257812 82.617188 32.816406 C 82.617188 25.789062 85 23.402344 92.027344 23.402344 C 101.808594 23.277344 111.59375 23.277344 121.378906 23.402344 C 124.515625 23.402344 127.777344 23.277344 129.535156 26.667969 C 133.296875 33.570312 132.667969 41.101562 132.667969 48.628906 C 132.921875 67.832031 132.167969 87.035156 133.296875 106.238281 Z M 133.296875 106.238281 " fill-opacity="1" fill-rule="nonzero"/><path fill="#0c5f6f" d="M 159.390625 153.304688 C 159.265625 151.042969 160.894531 149.410156 162.023438 147.78125 C 170.304688 135.605469 178.707031 123.433594 186.988281 111.257812 C 204.421875 136.988281 221.734375 162.714844 239.171875 188.445312 C 240.675781 190.703125 242.558594 192.960938 240.925781 195.847656 C 239.296875 198.863281 236.285156 198.234375 233.652344 198.234375 C 221.359375 198.234375 209.066406 198.109375 196.769531 198.359375 C 191.628906 198.484375 188.242188 196.476562 185.480469 192.210938 C 176.953125 179.15625 168.042969 166.230469 159.390625 153.304688 Z M 159.390625 153.304688 " fill-opacity="1" fill-rule="nonzero"/><path fill="#0c6070" d="M 133.296875 106.238281 C 130.535156 103.980469 130.789062 100.714844 130.789062 97.578125 C 131.039062 77.371094 130.160156 57.289062 131.164062 37.085938 C 131.414062 33.570312 128.78125 30.433594 129.535156 26.667969 C 139.191406 40.722656 148.851562 54.78125 158.511719 68.835938 C 150.859375 81.890625 141.703125 93.8125 133.296875 106.238281 Z M 133.296875 106.238281 " fill-opacity="1" fill-rule="nonzero"/><path fill="#0f181f" d="M 650.753906 26.917969 C 660.285156 26.917969 667.6875 34.324219 667.5625 43.863281 C 667.4375 53.023438 659.910156 60.554688 650.753906 60.554688 C 641.71875 60.554688 633.941406 53.023438 633.816406 43.988281 C 633.691406 34.574219 641.21875 26.917969 650.753906 26.917969 Z M 650.753906 26.917969 " fill-opacity="1" fill-rule="nonzero"/><path fill="#0f181f" d="M 532.332031 85.65625 C 532.332031 73.605469 532.332031 73.605469 520.292969 73.605469 C 507.496094 73.605469 507.496094 73.605469 506.617188 86.910156 C 484.039062 61.179688 445.777344 68.585938 428.089844 87.914062 C 410.652344 106.992188 406.386719 145.773438 419.058594 171.25 C 436.871094 207.019531 486.796875 210.785156 505.238281 185.558594 C 505.488281 185.179688 506.242188 185.179688 506.742188 184.929688 C 507.246094 198.359375 507.246094 198.359375 520.792969 198.359375 C 522.421875 198.359375 524.179688 198.109375 525.8125 198.359375 C 530.828125 199.113281 532.460938 197.605469 532.460938 192.085938 C 532.207031 156.691406 532.332031 121.171875 532.332031 85.65625 Z M 504.863281 152.046875 C 499.96875 168.867188 485.917969 178.78125 469.988281 177.398438 C 452.050781 175.769531 440.132812 163.71875 438.25 145.269531 C 438 142.382812 438.25 139.496094 438.25 136.484375 C 437.625 123.433594 440.507812 111.382812 450.921875 102.597656 C 468.105469 87.914062 494.199219 94.316406 503.105469 115.273438 C 508.121094 127.199219 508.5 139.621094 504.863281 152.046875 Z M 504.863281 152.046875 " fill-opacity="1" fill-rule="nonzero"/></svg>