<?xml version="1.0" encoding="utf-8"?>
<!-- Generator: Adobe Illustrator 25.0.0, SVG Export Plug-In . SVG Version: 6.00 Build 0)  -->
<svg version="1.1" id="Layer_1" xmlns="http://www.w3.org/2000/svg" xmlns:xlink="http://www.w3.org/1999/xlink" x="0px" y="0px"
	 viewBox="0 0 946.7 355.5" style="enable-background:new 0 0 946.7 355.5;" xml:space="preserve">
<style type="text/css">
	.st0{fill:#FFFFFF;}
</style>
<path class="st0" d="M69.5,343.7h-9.7v8.8h10.8v2.6h-14v-24.3h13.5v2.6H59.8v7.7h9.7V343.7z"/>
<path class="st0" d="M110.3,355.1l-8.1-24.3h3.5l3.9,12c1.1,3.3,2,6.2,2.7,9.1h0.1c0.7-2.8,1.7-5.9,2.9-9l4.2-12h3.4l-8.9,24.3
	L110.3,355.1z"/>
<path class="st0" d="M170.3,342.7c0,8.4-5.2,12.8-11.6,12.8c-6.6,0-11.2-5-11.2-12.3c0-7.7,4.9-12.7,11.6-12.7
	S170.3,335.5,170.3,342.7z M151,343.1c0,5.2,2.9,9.8,8,9.8s8-4.6,8-10.1c0-4.8-2.6-9.9-8-9.9S151,337.7,151,343.1z"/>
<path class="st0" d="M198,330.8h3.2v21.6H212v2.6h-14V330.8z"/>
<path class="st0" d="M243.2,355.1l-8.2-24.3h3.5l3.9,12c1.1,3.3,2,6.2,2.7,9.1h0.1c0.7-2.8,1.7-5.9,2.8-9l4.2-12h3.4l-8.9,24.3
	L243.2,355.1z"/>
<path class="st0" d="M294.8,343.7h-9.7v8.8H296v2.6h-14v-24.3h13.5v2.6h-10.4v7.7h9.7L294.8,343.7z"/>
<path class="st0" d="M379.2,355.1v-10.3l-9.8-14h4.6l4.4,6.7c1.2,1.8,2.1,3.3,3.1,5h0.1c0.9-1.6,1.9-3.2,3.1-5l4.5-6.7h4.5
	l-10.4,13.9V355L379.2,355.1z"/>
<path class="st0" d="M437.3,342.7c0,8.4-6,12.8-13.2,12.8c-7.5,0-12.8-5-12.8-12.3c0-7.7,5.6-12.7,13.2-12.7
	C432.3,330.4,437.3,335.5,437.3,342.7z M415.2,343.1c0,5.2,3.3,9.8,9.1,9.8s9.1-4.6,9.1-10.1c0-4.8-3-9.9-9.1-9.9
	S415.2,337.7,415.2,343.1z"/>
<path class="st0" d="M463.7,330.8v14.4c0,5.4,2.8,7.7,6.6,7.7c4.2,0,6.9-2.4,6.9-7.7v-14.4h3.8V345c0,7.5-4.6,10.5-10.8,10.5
	c-5.8,0-10.2-2.8-10.2-10.4v-14.3H463.7z"/>
<path class="st0" d="M505.3,331.2c2.3-0.4,4.7-0.5,7.1-0.5c3.9,0,6.5,0.6,8.2,2c1.4,1.1,2.3,2.8,2.2,4.6c0,3.2-2.4,5.3-5.4,6.2v0.1
	c2.2,0.7,3.5,2.4,4.2,4.9c0.9,3.4,1.6,5.7,2.2,6.7H520c-0.8-1.9-1.5-3.8-1.9-5.8c-0.8-3.3-2.4-4.6-5.7-4.7H509v10.5h-3.7
	L505.3,331.2z M509,342.2h3.8c3.9,0,6.4-1.8,6.4-4.6c0-3.1-2.7-4.5-6.6-4.5c-1.2,0-2.4,0.1-3.6,0.3V342.2z"/>
<path class="st0" d="M600,331.2c2.2-0.4,4.4-0.5,6.5-0.5c3.6,0,5.9,0.5,7.6,1.8c1.5,0.9,2.4,2.5,2.3,4.3c0,2.3-1.8,4.4-4.7,5.3v0.1
	c2.6,0.6,5.7,2.5,5.7,6.1c0,1.9-0.9,3.7-2.3,4.8c-1.9,1.5-5.1,2.3-9.6,2.3c-1.9,0-3.7-0.1-5.6-0.3L600,331.2z M603.6,341.1h3.3
	c3.8,0,6-1.7,6-4.1c0-2.8-2.5-4-6.1-4c-1.1,0-2.1,0.1-3.2,0.2L603.6,341.1z M603.6,352.7c1,0.1,2,0.2,3,0.2c3.7,0,7.1-1.2,7.1-4.7
	c0-3.3-3.2-4.7-7.2-4.7h-3L603.6,352.7z"/>
<path class="st0" d="M643.3,330.8v14.4c0,5.4,2.8,7.7,6.5,7.7c4.1,0,6.8-2.4,6.8-7.7v-14.4h3.6V345c0,7.5-4.5,10.5-10.5,10.5
	c-5.7,0-10-2.8-10-10.4v-14.3H643.3z"/>
<path class="st0" d="M683.3,351.2c2,1,4.2,1.6,6.4,1.6c3.7,0,5.8-1.7,5.8-4.1c0-2.3-1.5-3.6-5.2-4.8c-4.5-1.4-7.3-3.5-7.3-6.9
	c0-3.8,3.6-6.6,9-6.6c2.1-0.1,4.2,0.3,6.1,1.2l-1,2.5c-1.6-0.8-3.4-1.2-5.3-1.2c-3.8,0-5.2,2-5.2,3.6c0,2.3,1.7,3.4,5.5,4.7
	c4.7,1.6,7.1,3.6,7.1,7.1c0,3.8-3.2,7-9.7,7c-2.4,0-4.9-0.5-7.1-1.5L683.3,351.2z"/>
<path class="st0" d="M728.4,330.8v24.3h-3.8v-24.3H728.4z"/>
<path class="st0" d="M753.9,355.1v-24.3h4.2l9.6,12.3c2,2.5,3.8,5.1,5.4,7.9h0.1c-0.3-3.3-0.5-6.7-0.4-10v-10.2h3.6v24.3h-3.9
	l-9.4-12.3c-2-2.6-3.9-5.3-5.6-8.1h-0.1c0.2,3.1,0.3,6,0.3,10V355L753.9,355.1z"/>
<path class="st0" d="M807.8,343.7h-11.6v8.8h12.9v2.6h-16.8v-24.3h16.1v2.6h-12.3v7.7h11.6V343.7z"/>
<path class="st0" d="M832.4,351.2c2.2,1,4.5,1.6,6.9,1.6c3.9,0,6.2-1.7,6.2-4.1c0-2.3-1.6-3.6-5.6-4.8c-4.9-1.4-7.9-3.5-7.9-6.9
	c0-3.8,3.8-6.6,9.7-6.6c2.3-0.1,4.5,0.3,6.6,1.2l-1.1,2.5c-1.8-0.8-3.7-1.2-5.7-1.2c-4.1,0-5.6,2-5.6,3.6c0,2.3,1.8,3.4,5.9,4.7
	c5,1.6,7.6,3.6,7.6,7.1c0,3.8-3.4,7-10.4,7c-2.6,0-5.2-0.5-7.6-1.5L832.4,351.2z"/>
<path class="st0" d="M873,351.2c2.2,1,4.5,1.6,6.9,1.6c3.9,0,6.2-1.7,6.2-4.1c0-2.3-1.6-3.6-5.6-4.8c-4.9-1.4-7.9-3.5-7.9-6.9
	c0-3.8,3.8-6.6,9.6-6.6c2.3-0.1,4.5,0.3,6.6,1.2l-1.1,2.5c-1.8-0.8-3.7-1.2-5.7-1.2c-4.1,0-5.6,2-5.6,3.6c0,2.3,1.8,3.4,5.9,4.7
	c5,1.6,7.6,3.6,7.6,7.1c0,3.8-3.4,7-10.4,7c-2.6,0-5.2-0.5-7.6-1.5L873,351.2z"/>
<polygon class="st0" points="207.7,189.7 270.3,189.2 270.3,209.1 188.2,209.2 188.2,105.2 268.7,104.7 321.7,181.7 373.8,105.2 
	458.3,105.2 458.3,209.2 373.6,209.2 373.7,144.7 393.7,144.7 393.7,188.7 436.7,188.7 436.7,124.7 379.7,124.7 322.7,209.7 
	262.7,125.7 207.7,125.7 207.7,143.7 269.7,143.7 269.7,164.7 207.7,164.7 "/>
<polygon class="st0" points="502.7,124.7 467.1,124.7 467.1,104.7 560.7,104.7 560.7,124.7 522.8,124.7 522.8,208.7 502.9,208.7 "/>
<polygon class="st0" points="691.7,104.7 670.9,104.7 670.9,208.7 692.1,208.7 692.1,175.7 727.7,208.7 753.7,208.7 696.7,155.7 
	754.7,104.7 725.7,104.7 691.7,134.7 "/>
<polygon class="st0" points="570.7,104.7 570.7,208.7 656.2,208.7 656.2,188.4 590.7,188.7 590.7,164.7 656.2,164.7 656.2,144.4 
	590.7,144.7 590.7,124.7 656.7,124.7 656.7,104.7 "/>
<path class="st0" d="M946.2,77.4C934.8,3.7,713.9-21.8,452.7,20.3S-10.9,156.3,0.5,230s232.3,99.3,493.4,57.2
	S957.5,151.2,946.2,77.4z M485.7,268.9C241.6,293.7,40,261,35.5,195.9s189.8-138,433.9-162.8s445.7,7.9,450.2,73
	S729.9,244.1,485.7,268.9z"/>
<path class="st0" d="M485.7,268.9C241.6,293.7,40,261,35.5,195.9C33.9,173.4,56,150,95.7,128v-0.4C31.6,161.5-4.5,197.7,0.5,230
	c11.4,73.7,232.3,99.3,493.4,57.1c151.7-24.5,283.5-66.4,365.2-111.7l-2.2-0.1C781.1,216.6,643.9,252.8,485.7,268.9z"/>
</svg>
