<svg xmlns="http://www.w3.org/2000/svg" xmlns:xlink="http://www.w3.org/1999/xlink" width="1000" zoomAndPan="magnify" viewBox="0 0 750 225" height="300" preserveAspectRatio="xMidYMid meet" version="1.0"><defs><clipPath id="5bf6ed103c"><path d="M 513 49 L 613.070312 49 L 613.070312 176 L 513 176 Z M 513 49 " clip-rule="nonzero"/></clipPath><clipPath id="455c615b02"><path d="M 220 13.621094 L 262 13.621094 L 262 63 L 220 63 Z M 220 13.621094 " clip-rule="nonzero"/></clipPath><clipPath id="8fd91fa7e3"><path d="M 244 156 L 268 156 L 268 211.621094 L 244 211.621094 Z M 244 156 " clip-rule="nonzero"/></clipPath><clipPath id="e1c2f07757"><path d="M 136.820312 50 L 178 50 L 178 100 L 136.820312 100 Z M 136.820312 50 " clip-rule="nonzero"/></clipPath></defs><g clip-path="url(#5bf6ed103c)"><path fill="#141fd1" d="M 556.109375 73.242188 C 551.464844 73.113281 546.835938 73.335938 542.226562 73.90625 L 542.226562 98.148438 L 543.28125 98.25 C 543.28125 98.25 549.058594 98.742188 555.6875 98.742188 C 566.40625 98.742188 572.628906 97.929688 576.402344 94.605469 C 576.859375 94.1875 577.28125 93.738281 577.667969 93.253906 C 578.054688 92.765625 578.398438 92.253906 578.695312 91.710938 C 578.996094 91.167969 579.25 90.605469 579.457031 90.019531 C 579.664062 89.4375 579.824219 88.839844 579.933594 88.226562 C 580.039062 87.617188 580.097656 87 580.105469 86.382812 C 580.109375 85.761719 580.066406 85.144531 579.972656 84.53125 C 579.875 83.917969 579.730469 83.316406 579.539062 82.730469 C 579.34375 82.140625 579.101562 81.570312 578.8125 81.023438 C 575.101562 73.574219 563.503906 73.242188 556.09375 73.242188 M 542.242188 150.015625 C 548.453125 150.40625 555.15625 150.683594 561.886719 150.4375 C 567.113281 150.25 574.03125 149.84375 578.957031 144.808594 C 579.488281 144.265625 579.972656 143.683594 580.40625 143.0625 C 580.839844 142.4375 581.222656 141.785156 581.546875 141.097656 C 581.875 140.410156 582.140625 139.703125 582.351562 138.972656 C 582.558594 138.242188 582.707031 137.496094 582.792969 136.742188 C 582.878906 135.988281 582.902344 135.230469 582.863281 134.46875 C 582.824219 133.710938 582.71875 132.960938 582.554688 132.21875 C 582.390625 131.476562 582.167969 130.753906 581.882812 130.046875 C 581.601562 129.34375 581.257812 128.664062 580.863281 128.015625 C 577.816406 122.851562 571.75 120.335938 557.03125 120.511719 C 552.0625 120.535156 547.109375 120.808594 542.171875 121.335938 Z M 554.589844 175.519531 C 539.078125 175.519531 524.5625 175.15625 513.242188 174.550781 L 513.242188 50.90625 C 517.183594 50.558594 529.386719 50.300781 546.660156 49.867188 C 556.460938 49.503906 566.222656 49.984375 575.9375 51.3125 C 594.28125 54.207031 600.953125 63 603.84375 67.816406 C 605.398438 70.28125 606.535156 72.929688 607.25 75.757812 C 607.960938 78.585938 608.21875 81.453125 608.015625 84.363281 C 607.496094 92.246094 604.941406 98.710938 596.910156 105.078125 L 595.464844 106.203125 L 597.082031 107.015625 C 599.554688 108.324219 601.777344 109.972656 603.746094 111.960938 C 605.71875 113.949219 607.347656 116.1875 608.636719 118.671875 C 610.128906 121.417969 611.246094 124.308594 611.996094 127.34375 C 612.746094 130.375 613.097656 133.457031 613.058594 136.582031 C 613.058594 149.917969 608.277344 159.996094 598.613281 166.753906 C 589.949219 172.742188 578.003906 175.53125 554.632812 175.53125 " fill-opacity="1" fill-rule="nonzero"/></g><path fill="#141fd1" d="M 485.046875 50.835938 L 456.378906 50.835938 C 453.804688 56.128906 435.953125 93.070312 427.765625 114.144531 L 427.203125 115.59375 L 426.234375 115.59375 L 425.671875 114.144531 C 417.480469 93.070312 399.671875 56.128906 397.058594 50.835938 L 368.402344 50.835938 C 362.207031 95.5 359.144531 164.582031 358.710938 174.460938 L 387.253906 174.460938 C 387.527344 166.1875 389.230469 114.074219 390.414062 102.359375 L 390.71875 99.464844 L 391.410156 99.464844 L 392.554688 102.066406 C 402.070312 123.765625 414.332031 153.71875 416.355469 158.652344 L 437.050781 158.652344 C 439.074219 153.707031 451.335938 123.824219 460.855469 102.066406 L 461.996094 99.464844 L 462.6875 99.464844 L 462.992188 102.359375 C 464.175781 114.074219 465.882812 166.1875 466.15625 174.460938 L 494.695312 174.460938 C 494.277344 164.570312 491.214844 95.5 485.003906 50.835938 " fill-opacity="1" fill-rule="nonzero"/><path fill="#eb2e4a" d="M 178.605469 73.863281 L 214.0625 89.296875 C 216.242188 90.292969 218.511719 90.613281 220.882812 90.265625 C 221.550781 90.164062 222.203125 90.003906 222.84375 89.789062 C 223.484375 89.570312 224.101562 89.300781 224.695312 88.980469 C 225.289062 88.65625 225.847656 88.285156 226.378906 87.863281 C 226.90625 87.441406 227.398438 86.980469 227.84375 86.472656 C 228.292969 85.96875 228.695312 85.425781 229.050781 84.851562 C 229.40625 84.277344 229.710938 83.675781 229.960938 83.046875 C 230.210938 82.417969 230.40625 81.773438 230.546875 81.109375 C 230.6875 80.449219 230.765625 79.78125 230.789062 79.101562 C 230.8125 78.425781 230.78125 77.753906 230.6875 77.082031 C 230.59375 76.414062 230.441406 75.757812 230.234375 75.113281 C 230.027344 74.46875 229.769531 73.847656 229.453125 73.246094 C 229.136719 72.648438 228.773438 72.082031 228.363281 71.546875 C 227.949219 71.011719 227.492188 70.515625 226.992188 70.058594 C 226.496094 69.601562 225.960938 69.191406 225.390625 68.828125 C 224.820312 68.464844 224.222656 68.152344 223.601562 67.894531 C 222.976562 67.632812 222.335938 67.429688 221.675781 67.28125 L 183.746094 58.847656 C 183.429688 58.765625 183.109375 58.703125 182.78125 58.664062 C 182.457031 58.621094 182.128906 58.597656 181.800781 58.597656 C 181.472656 58.597656 181.144531 58.617188 180.820312 58.65625 C 180.492188 58.695312 180.171875 58.753906 179.851562 58.832031 C 179.53125 58.914062 179.21875 59.011719 178.914062 59.128906 C 178.609375 59.246094 178.308594 59.382812 178.019531 59.539062 C 177.730469 59.695312 177.453125 59.867188 177.183594 60.058594 C 176.914062 60.246094 176.660156 60.453125 176.417969 60.675781 C 176.175781 60.894531 175.945312 61.132812 175.734375 61.382812 C 175.519531 61.632812 175.320312 61.894531 175.140625 62.167969 C 174.960938 62.441406 174.796875 62.726562 174.652344 63.023438 C 174.503906 63.316406 174.378906 63.621094 174.269531 63.929688 C 174.160156 64.242188 174.074219 64.558594 174.003906 64.878906 C 173.933594 65.199219 173.886719 65.523438 173.855469 65.851562 C 173.828125 66.179688 173.820312 66.507812 173.832031 66.835938 C 173.84375 67.164062 173.875 67.492188 173.925781 67.816406 C 174.035156 68.476562 174.222656 69.109375 174.492188 69.722656 C 174.757812 70.332031 175.09375 70.902344 175.503906 71.429688 C 175.914062 71.960938 176.378906 72.429688 176.902344 72.839844 C 177.429688 73.25 177.996094 73.59375 178.605469 73.863281 " fill-opacity="1" fill-rule="nonzero"/><g clip-path="url(#455c615b02)"><path fill="#eb2e4a" d="M 221.949219 48.578125 C 221.238281 49.703125 220.796875 50.925781 220.625 52.246094 C 220.449219 53.5625 220.558594 54.859375 220.953125 56.128906 C 221.191406 56.871094 221.519531 57.566406 221.941406 58.21875 C 222.363281 58.871094 222.863281 59.460938 223.441406 59.980469 C 224.019531 60.503906 224.652344 60.9375 225.34375 61.292969 C 226.035156 61.644531 226.761719 61.902344 227.523438 62.066406 C 228.28125 62.226562 229.050781 62.285156 229.824219 62.246094 C 230.601562 62.203125 231.359375 62.0625 232.097656 61.820312 C 232.835938 61.578125 233.527344 61.246094 234.179688 60.820312 C 234.828125 60.394531 235.414062 59.890625 235.929688 59.3125 L 258.101562 33.535156 C 258.808594 32.761719 259.40625 31.90625 259.890625 30.976562 C 260.375 30.042969 260.734375 29.066406 260.964844 28.042969 C 261.199219 27.019531 261.292969 25.980469 261.257812 24.929688 C 261.21875 23.882812 261.046875 22.855469 260.746094 21.847656 C 260.507812 21.117188 260.199219 20.414062 259.824219 19.742188 C 259.449219 19.074219 259.011719 18.445312 258.511719 17.859375 C 258.015625 17.273438 257.460938 16.742188 256.859375 16.265625 C 256.257812 15.789062 255.613281 15.378906 254.925781 15.027344 C 254.242188 14.679688 253.53125 14.398438 252.789062 14.191406 C 252.050781 13.984375 251.296875 13.847656 250.53125 13.789062 C 249.765625 13.726562 249 13.742188 248.238281 13.835938 C 247.476562 13.925781 246.726562 14.089844 245.996094 14.328125 C 244.671875 14.75 243.464844 15.390625 242.371094 16.25 C 241.28125 17.113281 240.375 18.140625 239.65625 19.332031 L 221.933594 48.578125 " fill-opacity="1" fill-rule="nonzero"/></g><path fill="#eb2e4a" d="M 285.617188 91.105469 C 284.324219 90.785156 283.027344 90.75 281.722656 91.003906 C 280.417969 91.257812 279.226562 91.773438 278.148438 92.550781 C 277.519531 93.007812 276.960938 93.539062 276.472656 94.140625 C 275.984375 94.746094 275.582031 95.40625 275.265625 96.113281 C 274.949219 96.824219 274.730469 97.566406 274.613281 98.335938 C 274.492188 99.101562 274.472656 99.875 274.554688 100.648438 C 274.636719 101.421875 274.820312 102.167969 275.101562 102.894531 C 275.378906 103.621094 275.75 104.296875 276.207031 104.925781 C 276.667969 105.550781 277.199219 106.109375 277.804688 106.597656 C 278.410156 107.082031 279.070312 107.484375 279.78125 107.796875 L 311.121094 120.902344 C 312.078125 121.332031 313.074219 121.636719 314.109375 121.808594 C 315.144531 121.984375 316.183594 122.023438 317.226562 121.925781 C 318.273438 121.828125 319.285156 121.597656 320.269531 121.234375 C 321.257812 120.871094 322.179688 120.390625 323.039062 119.785156 C 323.65625 119.332031 324.226562 118.824219 324.746094 118.257812 C 325.265625 117.691406 325.726562 117.082031 326.125 116.425781 C 326.527344 115.769531 326.859375 115.082031 327.121094 114.359375 C 327.386719 113.636719 327.578125 112.898438 327.695312 112.136719 C 327.816406 111.378906 327.859375 110.613281 327.828125 109.847656 C 327.796875 109.078125 327.691406 108.320312 327.507812 107.574219 C 327.328125 106.828125 327.078125 106.105469 326.753906 105.40625 C 326.433594 104.707031 326.046875 104.050781 325.59375 103.429688 C 324.78125 102.296875 323.800781 101.347656 322.644531 100.574219 C 321.488281 99.800781 320.230469 99.257812 318.878906 98.945312 L 285.660156 91.160156 " fill-opacity="1" fill-rule="nonzero"/><g clip-path="url(#8fd91fa7e3)"><path fill="#eb2e4a" d="M 264.976562 164.769531 C 264.890625 163.441406 264.535156 162.191406 263.898438 161.023438 C 263.265625 159.851562 262.417969 158.871094 261.351562 158.074219 C 260.722656 157.617188 260.046875 157.246094 259.324219 156.96875 C 258.597656 156.6875 257.847656 156.507812 257.078125 156.425781 C 256.304688 156.34375 255.535156 156.363281 254.769531 156.484375 C 254 156.605469 253.261719 156.828125 252.554688 157.144531 C 251.84375 157.460938 251.1875 157.863281 250.585938 158.355469 C 249.980469 158.84375 249.453125 159.40625 249 160.035156 C 248.542969 160.664062 248.175781 161.34375 247.902344 162.070312 C 247.625 162.796875 247.449219 163.550781 247.371094 164.324219 C 247.371094 164.410156 244.566406 198.140625 244.566406 198.226562 C 244.449219 199.269531 244.46875 200.3125 244.621094 201.351562 C 244.777344 202.390625 245.058594 203.390625 245.472656 204.355469 C 245.886719 205.320312 246.417969 206.21875 247.066406 207.042969 C 247.710938 207.871094 248.453125 208.601562 249.289062 209.234375 C 249.914062 209.683594 250.570312 210.070312 251.269531 210.390625 C 251.964844 210.710938 252.6875 210.960938 253.433594 211.140625 C 254.179688 211.316406 254.9375 211.421875 255.703125 211.449219 C 256.46875 211.480469 257.230469 211.433594 257.988281 211.3125 C 258.746094 211.191406 259.484375 211 260.203125 210.730469 C 260.921875 210.464844 261.609375 210.132812 262.265625 209.730469 C 262.917969 209.328125 263.527344 208.867188 264.089844 208.34375 C 264.652344 207.824219 265.160156 207.253906 265.613281 206.632812 C 266.4375 205.511719 267.039062 204.28125 267.417969 202.941406 C 267.796875 201.601562 267.925781 200.238281 267.808594 198.847656 C 267.808594 198.113281 264.917969 164.828125 264.917969 164.757812 " fill-opacity="1" fill-rule="nonzero"/></g><path fill="#eb2e4a" d="M 188.515625 168.011719 C 189.75 167.519531 190.828125 166.792969 191.742188 165.828125 C 192.660156 164.859375 193.332031 163.746094 193.757812 162.484375 C 193.875 162.117188 193.972656 161.742188 194.042969 161.363281 C 194.113281 160.984375 194.15625 160.601562 194.179688 160.214844 C 194.199219 159.828125 194.195312 159.441406 194.164062 159.054688 C 194.132812 158.671875 194.078125 158.289062 193.996094 157.910156 C 193.917969 157.53125 193.8125 157.160156 193.683594 156.796875 C 193.554688 156.429688 193.402344 156.074219 193.226562 155.730469 C 193.054688 155.386719 192.855469 155.054688 192.636719 154.734375 C 192.417969 154.417969 192.179688 154.113281 191.921875 153.828125 C 191.664062 153.539062 191.386719 153.269531 191.09375 153.019531 C 190.800781 152.765625 190.492188 152.535156 190.167969 152.324219 C 189.84375 152.113281 189.507812 151.925781 189.160156 151.757812 C 188.8125 151.59375 188.453125 151.449219 188.085938 151.328125 C 187.71875 151.210938 187.34375 151.113281 186.964844 151.042969 C 186.585938 150.972656 186.203125 150.929688 185.816406 150.90625 C 185.429688 150.886719 185.046875 150.890625 184.660156 150.921875 C 184.277344 150.953125 183.894531 151.007812 183.515625 151.085938 L 150.441406 158.898438 C 149.414062 159.109375 148.425781 159.445312 147.484375 159.910156 C 146.542969 160.378906 145.679688 160.957031 144.890625 161.648438 C 144.097656 162.34375 143.410156 163.125 142.824219 163.996094 C 142.238281 164.871094 141.773438 165.800781 141.429688 166.796875 C 141.191406 167.527344 141.027344 168.273438 140.9375 169.039062 C 140.84375 169.800781 140.828125 170.566406 140.890625 171.335938 C 140.949219 172.101562 141.082031 172.855469 141.289062 173.59375 C 141.496094 174.335938 141.777344 175.050781 142.125 175.734375 C 142.472656 176.421875 142.882812 177.066406 143.359375 177.671875 C 143.832031 178.273438 144.363281 178.828125 144.945312 179.328125 C 145.527344 179.828125 146.15625 180.265625 146.824219 180.640625 C 147.496094 181.019531 148.195312 181.324219 148.925781 181.5625 C 150.246094 182.007812 151.597656 182.199219 152.988281 182.148438 C 154.378906 182.097656 155.714844 181.800781 157 181.261719 L 188.515625 168.054688 " fill-opacity="1" fill-rule="nonzero"/><g clip-path="url(#e1c2f07757)"><path fill="#eb2e4a" d="M 161.925781 96.109375 C 162.773438 97.128906 163.796875 97.925781 164.996094 98.496094 C 166.195312 99.070312 167.457031 99.363281 168.785156 99.378906 C 169.5625 99.378906 170.324219 99.28125 171.078125 99.078125 C 171.828125 98.878906 172.539062 98.585938 173.210938 98.195312 C 173.886719 97.808594 174.496094 97.335938 175.046875 96.785156 C 175.59375 96.234375 176.0625 95.625 176.453125 94.949219 C 176.839844 94.273438 177.132812 93.5625 177.332031 92.808594 C 177.53125 92.058594 177.628906 91.292969 177.628906 90.511719 C 177.625 89.734375 177.523438 88.96875 177.320312 88.21875 C 177.113281 87.46875 176.816406 86.757812 176.425781 86.085938 C 176.425781 86.011719 158.847656 57.082031 158.789062 57.011719 C 158.269531 56.097656 157.644531 55.269531 156.910156 54.519531 C 156.175781 53.769531 155.359375 53.125 154.457031 52.589844 C 153.554688 52.054688 152.601562 51.640625 151.589844 51.355469 C 150.582031 51.066406 149.554688 50.914062 148.507812 50.894531 C 147.738281 50.894531 146.976562 50.96875 146.222656 51.117188 C 145.46875 51.269531 144.738281 51.492188 144.03125 51.785156 C 143.320312 52.078125 142.644531 52.441406 142.007812 52.867188 C 141.367188 53.296875 140.777344 53.78125 140.234375 54.324219 C 139.691406 54.867188 139.207031 55.460938 138.777344 56.101562 C 138.351562 56.738281 137.992188 57.414062 137.699219 58.125 C 137.402344 58.835938 137.183594 59.570312 137.03125 60.324219 C 136.882812 61.078125 136.808594 61.839844 136.808594 62.609375 C 136.800781 64.003906 137.042969 65.351562 137.523438 66.660156 C 138.003906 67.964844 138.699219 69.148438 139.609375 70.203125 L 161.925781 96.109375 " fill-opacity="1" fill-rule="nonzero"/></g><path fill="#eb2e4a" d="M 248.25 57.648438 C 248.25 57.734375 244.554688 96.109375 244.554688 96.195312 C 244.277344 98.578125 244.671875 100.84375 245.738281 102.992188 C 246.042969 103.59375 246.398438 104.164062 246.804688 104.699219 C 247.210938 105.238281 247.65625 105.738281 248.148438 106.199219 C 248.636719 106.660156 249.164062 107.074219 249.726562 107.445312 C 250.289062 107.816406 250.878906 108.132812 251.496094 108.402344 C 252.113281 108.667969 252.75 108.882812 253.402344 109.039062 C 254.058594 109.199219 254.71875 109.300781 255.390625 109.34375 C 256.0625 109.386719 256.730469 109.375 257.402344 109.300781 C 258.070312 109.230469 258.726562 109.101562 259.375 108.914062 C 260.019531 108.730469 260.644531 108.488281 261.25 108.195312 C 261.855469 107.902344 262.433594 107.558594 262.980469 107.164062 C 263.523438 106.773438 264.035156 106.335938 264.503906 105.855469 C 264.976562 105.371094 265.402344 104.855469 265.785156 104.300781 C 266.164062 103.746094 266.496094 103.160156 266.777344 102.550781 C 267.058594 101.9375 267.285156 101.304688 267.457031 100.65625 C 267.628906 100.003906 267.746094 99.34375 267.804688 98.671875 C 267.863281 98 267.863281 97.328125 267.808594 96.660156 C 267.808594 96.570312 264.125 58.007812 264.109375 57.9375 C 264.042969 56.839844 263.757812 55.804688 263.257812 54.828125 C 263.019531 54.359375 262.738281 53.921875 262.417969 53.511719 C 262.09375 53.101562 261.734375 52.726562 261.335938 52.386719 C 260.9375 52.046875 260.511719 51.746094 260.054688 51.492188 C 259.601562 51.234375 259.125 51.027344 258.628906 50.863281 C 258.128906 50.703125 257.621094 50.589844 257.101562 50.53125 C 256.585938 50.46875 256.066406 50.457031 255.542969 50.5 C 255.023438 50.539062 254.511719 50.628906 254.007812 50.773438 C 253.503906 50.914062 253.019531 51.105469 252.554688 51.339844 C 251.960938 51.648438 251.410156 52.019531 250.910156 52.460938 C 250.40625 52.902344 249.96875 53.402344 249.589844 53.953125 C 249.210938 54.503906 248.90625 55.09375 248.675781 55.722656 C 248.445312 56.351562 248.292969 56.996094 248.222656 57.664062 " fill-opacity="1" fill-rule="nonzero"/><path fill="#eb2e4a" d="M 285.195312 118.875 L 247.457031 127.292969 C 245.113281 127.769531 243.085938 128.84375 241.375 130.519531 C 240.898438 130.996094 240.460938 131.511719 240.074219 132.0625 C 239.683594 132.613281 239.34375 133.195312 239.054688 133.804688 C 238.765625 134.417969 238.53125 135.046875 238.351562 135.699219 C 238.171875 136.351562 238.046875 137.011719 237.980469 137.683594 C 237.917969 138.359375 237.910156 139.03125 237.960938 139.707031 C 238.011719 140.378906 238.121094 141.042969 238.285156 141.699219 C 238.453125 142.355469 238.671875 142.992188 238.949219 143.605469 C 239.226562 144.222656 239.550781 144.8125 239.929688 145.371094 C 240.308594 145.933594 240.730469 146.457031 241.199219 146.941406 C 241.667969 147.429688 242.175781 147.871094 242.71875 148.269531 C 243.265625 148.667969 243.839844 149.019531 244.445312 149.316406 C 245.050781 149.617188 245.679688 149.859375 246.324219 150.050781 C 246.972656 150.238281 247.632812 150.371094 248.304688 150.449219 C 248.972656 150.523438 249.644531 150.542969 250.320312 150.5 C 250.992188 150.460938 251.660156 150.359375 252.316406 150.203125 C 252.972656 150.046875 253.609375 149.835938 254.230469 149.570312 L 289.863281 134.050781 C 290.878906 133.648438 291.777344 133.058594 292.546875 132.285156 C 292.917969 131.914062 293.246094 131.511719 293.539062 131.078125 C 293.828125 130.640625 294.070312 130.183594 294.273438 129.699219 C 294.472656 129.214844 294.621094 128.71875 294.726562 128.203125 C 294.828125 127.691406 294.878906 127.171875 294.878906 126.648438 C 294.878906 126.128906 294.828125 125.609375 294.726562 125.097656 C 294.621094 124.582031 294.472656 124.085938 294.273438 123.601562 C 294.070312 123.117188 293.828125 122.660156 293.539062 122.222656 C 293.246094 121.789062 292.917969 121.386719 292.546875 121.015625 C 292.074219 120.546875 291.546875 120.144531 290.972656 119.804688 C 290.398438 119.46875 289.789062 119.203125 289.148438 119.019531 C 288.507812 118.832031 287.855469 118.726562 287.1875 118.703125 C 286.523438 118.675781 285.863281 118.734375 285.210938 118.875 " fill-opacity="1" fill-rule="nonzero"/><path fill="#eb2e4a" d="M 238.429688 173.03125 L 218.800781 139.675781 C 217.628906 137.585938 215.980469 135.988281 213.863281 134.875 C 213.261719 134.566406 212.640625 134.316406 211.996094 134.117188 C 211.351562 133.917969 210.695312 133.777344 210.027344 133.691406 C 209.359375 133.605469 208.6875 133.578125 208.015625 133.609375 C 207.34375 133.640625 206.679688 133.730469 206.019531 133.875 C 205.363281 134.023438 204.722656 134.222656 204.101562 134.480469 C 203.476562 134.738281 202.878906 135.046875 202.3125 135.40625 C 201.742188 135.765625 201.207031 136.171875 200.707031 136.625 C 200.207031 137.078125 199.75 137.570312 199.335938 138.101562 C 198.921875 138.632812 198.554688 139.195312 198.238281 139.789062 C 197.917969 140.386719 197.65625 141.003906 197.445312 141.644531 C 197.234375 142.285156 197.078125 142.9375 196.980469 143.605469 C 196.882812 144.273438 196.84375 144.945312 196.859375 145.617188 C 196.875 146.292969 196.953125 146.960938 197.085938 147.621094 C 197.21875 148.285156 197.40625 148.929688 197.648438 149.558594 C 197.894531 150.1875 198.1875 150.789062 198.539062 151.367188 C 198.886719 151.945312 199.28125 152.488281 199.722656 152.996094 L 225.445312 182.15625 C 225.65625 182.410156 225.878906 182.648438 226.117188 182.875 C 226.355469 183.101562 226.609375 183.3125 226.871094 183.503906 C 227.136719 183.699219 227.414062 183.878906 227.699219 184.039062 C 227.984375 184.199219 228.28125 184.339844 228.585938 184.464844 C 228.890625 184.585938 229.199219 184.691406 229.515625 184.777344 C 229.835938 184.859375 230.15625 184.925781 230.480469 184.972656 C 230.804688 185.015625 231.132812 185.042969 231.460938 185.046875 C 231.789062 185.050781 232.117188 185.035156 232.441406 185 C 232.769531 184.964844 233.089844 184.910156 233.410156 184.832031 C 233.730469 184.757812 234.042969 184.664062 234.351562 184.546875 C 234.660156 184.433594 234.957031 184.300781 235.25 184.148438 C 235.539062 183.996094 235.820312 183.828125 236.089844 183.640625 C 236.363281 183.453125 236.621094 183.253906 236.863281 183.035156 C 237.109375 182.816406 237.339844 182.582031 237.558594 182.335938 C 237.773438 182.089844 237.976562 181.828125 238.160156 181.558594 C 238.34375 181.285156 238.511719 181.003906 238.660156 180.710938 C 238.960938 180.113281 239.179688 179.488281 239.324219 178.835938 C 239.46875 178.183594 239.527344 177.523438 239.507812 176.855469 C 239.488281 176.1875 239.386719 175.53125 239.203125 174.890625 C 239.023438 174.25 238.761719 173.636719 238.429688 173.058594 " fill-opacity="1" fill-rule="nonzero"/><path fill="#eb2e4a" d="M 172.554688 145.214844 L 198.175781 116.285156 C 199.800781 114.523438 200.8125 112.460938 201.210938 110.097656 C 201.3125 109.429688 201.359375 108.761719 201.34375 108.089844 C 201.332031 107.417969 201.261719 106.75 201.136719 106.089844 C 201.007812 105.429688 200.828125 104.785156 200.589844 104.15625 C 200.351562 103.523438 200.0625 102.921875 199.71875 102.339844 C 199.375 101.761719 198.988281 101.21875 198.550781 100.703125 C 198.117188 100.191406 197.640625 99.722656 197.125 99.292969 C 196.605469 98.863281 196.058594 98.480469 195.472656 98.144531 C 194.890625 97.808594 194.285156 97.527344 193.652344 97.296875 C 193.023438 97.066406 192.375 96.890625 191.714844 96.773438 C 191.054688 96.652344 190.386719 96.59375 189.714844 96.589844 C 189.042969 96.585938 188.375 96.636719 187.714844 96.75 C 187.050781 96.859375 186.402344 97.027344 185.769531 97.25 C 185.132812 97.472656 184.523438 97.75 183.9375 98.078125 C 183.351562 98.40625 182.796875 98.78125 182.277344 99.207031 C 181.753906 99.632812 181.273438 100.097656 180.832031 100.605469 C 180.390625 101.109375 179.996094 101.652344 179.644531 102.226562 L 159.886719 135.667969 C 159.710938 135.945312 159.554688 136.234375 159.414062 136.53125 C 159.273438 136.828125 159.152344 137.132812 159.050781 137.445312 C 158.949219 137.757812 158.863281 138.074219 158.800781 138.398438 C 158.738281 138.722656 158.695312 139.046875 158.671875 139.375 C 158.648438 139.703125 158.644531 140.03125 158.664062 140.359375 C 158.679688 140.6875 158.71875 141.011719 158.777344 141.335938 C 158.835938 141.660156 158.914062 141.980469 159.007812 142.292969 C 159.105469 142.609375 159.222656 142.914062 159.359375 143.214844 C 159.492188 143.515625 159.644531 143.804688 159.816406 144.085938 C 159.988281 144.367188 160.175781 144.632812 160.378906 144.890625 C 160.585938 145.148438 160.804688 145.394531 161.039062 145.625 C 161.273438 145.855469 161.519531 146.070312 161.78125 146.269531 C 162.042969 146.46875 162.316406 146.648438 162.597656 146.816406 C 162.882812 146.980469 163.175781 147.128906 163.476562 147.257812 C 163.777344 147.386719 164.085938 147.5 164.402344 147.589844 C 164.71875 147.679688 165.039062 147.753906 165.363281 147.804688 C 166.023438 147.90625 166.6875 147.929688 167.351562 147.863281 C 168.019531 147.800781 168.667969 147.660156 169.296875 147.433594 C 169.929688 147.210938 170.523438 146.910156 171.078125 146.539062 C 171.632812 146.164062 172.136719 145.726562 172.582031 145.230469 " fill-opacity="1" fill-rule="nonzero"/></svg>