<svg xmlns="http://www.w3.org/2000/svg" xmlns:xlink="http://www.w3.org/1999/xlink" width="1000" zoomAndPan="magnify" viewBox="0 0 750 225" height="300" preserveAspectRatio="xMidYMid meet" version="1.0"><defs><clipPath id="09925bb491"><path d="M 394 57.183594 L 457 57.183594 L 457 168 L 394 168 Z M 394 57.183594 " clip-rule="nonzero"/></clipPath><clipPath id="37336d457e"><path d="M 184 90 L 275 90 L 275 168.183594 L 184 168.183594 Z M 184 90 " clip-rule="nonzero"/></clipPath><clipPath id="3ac6f1b02e"><path d="M 445 90 L 535 90 L 535 168.183594 L 445 168.183594 Z M 445 90 " clip-rule="nonzero"/></clipPath><clipPath id="2c2cd60b01"><path d="M 635 90 L 726 90 L 726 168.183594 L 635 168.183594 Z M 635 90 " clip-rule="nonzero"/></clipPath><clipPath id="c869fe5ca7"><path d="M 284 57.183594 L 371 57.183594 L 371 168.183594 L 284 168.183594 Z M 284 57.183594 " clip-rule="nonzero"/></clipPath></defs><path fill="#ed1c24" d="M 564.960938 94.703125 L 564.980469 94.703125 Z M 626.050781 110.371094 C 625.1875 106.648438 623.636719 103.53125 621.285156 100.828125 C 618.09375 97.214844 614.019531 94.832031 608.820312 93.515625 C 604.011719 92.238281 596.960938 91.632812 587.234375 91.632812 C 576.648438 91.632812 569.8125 92.863281 564.980469 94.726562 C 562.824219 95.503906 560.476562 97.191406 558.75 98.835938 L 558.75 95.265625 L 545.035156 95.265625 L 545.035156 167.253906 L 558.8125 167.253906 L 558.8125 121.535156 C 558.8125 109.589844 570.976562 104.875 583.09375 104.875 L 589.175781 104.875 C 601.296875 104.875 613.585938 109.589844 613.585938 121.535156 L 613.585938 167.253906 L 627.171875 167.253906 L 627.171875 127.980469 C 627.171875 119.066406 626.828125 113.636719 626.074219 110.390625 Z M 626.050781 110.371094 " fill-opacity="1" fill-rule="nonzero"/><g clip-path="url(#09925bb491)"><path fill="#ed1c24" d="M 394.300781 91.394531 L 408.015625 91.394531 C 408.164062 84.015625 408.425781 77.003906 409.222656 73.800781 C 409.871094 70.621094 411.292969 67.894531 413.363281 65.816406 C 415.757812 62.941406 419.097656 60.863281 423.390625 59.433594 C 427.53125 58.308594 434.582031 57.359375 443.8125 57.207031 L 456.6875 57.207031 C 456.6875 57.207031 444.308594 69.300781 444.308594 69.300781 C 443.855469 69.300781 439.5 69.300781 439.066406 69.300781 C 420.847656 69.300781 422.117188 81.007812 422.117188 91.371094 L 454.164062 91.371094 L 441.203125 104.613281 L 421.792969 104.613281 L 421.859375 167.101562 L 408.015625 167.101562 L 408.015625 104.613281 L 394.300781 104.613281 L 394.300781 91.371094 Z M 394.300781 91.394531 " fill-opacity="1" fill-rule="nonzero"/></g><path fill="#ed1c24" d="M 380.605469 67.722656 L 380.605469 81.828125 L 394.320312 81.828125 L 394.320312 67.722656 Z M 380.605469 67.722656 " fill-opacity="1" fill-rule="nonzero"/><g clip-path="url(#37336d457e)"><path fill="#0061af" d="M 274.726562 129.476562 C 274.726562 138.023438 273.734375 145.074219 271.75 150.332031 C 269.746094 155.808594 262.929688 168.183594 229.808594 168.183594 C 196.683594 168.183594 189.871094 155.808594 187.863281 150.332031 C 185.878906 145.074219 184.890625 138.023438 184.890625 129.476562 C 184.890625 120.929688 185.878906 113.875 187.863281 108.617188 C 189.871094 103.140625 196.683594 90.765625 229.808594 90.765625 C 262.929688 90.765625 269.746094 103.121094 271.75 108.617188 C 273.734375 113.875 274.726562 120.90625 274.726562 129.476562 Z M 257.386719 112.921875 C 256.117188 109.808594 253.894531 107.792969 250.488281 106.605469 C 246.949219 105.457031 240.71875 104.808594 229.808594 104.636719 C 218.917969 104.785156 212.683594 105.457031 209.128906 106.605469 C 205.71875 107.792969 203.5 109.808594 202.226562 112.921875 C 201.214844 115.304688 200.070312 121.101562 200.070312 129.476562 C 200.070312 137.847656 201.214844 143.625 202.226562 146.027344 C 203.5 149.144531 205.71875 151.15625 209.128906 152.347656 C 212.664062 153.492188 218.894531 154.140625 229.808594 154.316406 C 240.699219 154.164062 246.929688 153.492188 250.488281 152.347656 C 253.894531 151.15625 256.117188 149.144531 257.386719 146.027344 C 258.402344 143.648438 259.542969 137.847656 259.542969 129.476562 C 259.542969 121.101562 258.402344 115.324219 257.386719 112.921875 Z M 257.386719 112.921875 " fill-opacity="1" fill-rule="nonzero"/></g><g clip-path="url(#3ac6f1b02e)"><path fill="#ed1c24" d="M 534.964844 129.476562 C 534.964844 138.023438 533.972656 145.074219 531.988281 150.332031 C 529.984375 155.808594 523.167969 168.183594 490.046875 168.183594 C 456.921875 168.183594 450.109375 155.808594 448.101562 150.332031 C 446.117188 145.074219 445.128906 138.023438 445.128906 129.476562 C 445.128906 120.929688 446.117188 113.875 448.101562 108.617188 C 450.109375 103.140625 456.921875 90.765625 490.046875 90.765625 C 523.167969 90.765625 529.984375 103.121094 531.988281 108.617188 C 533.972656 113.875 534.964844 120.90625 534.964844 129.476562 Z M 517.625 112.921875 C 516.355469 109.808594 514.132812 107.792969 510.726562 106.605469 C 507.1875 105.457031 500.9375 104.808594 490.046875 104.636719 C 479.15625 104.785156 472.921875 105.457031 469.367188 106.605469 C 465.957031 107.792969 463.738281 109.808594 462.464844 112.921875 C 461.453125 115.304688 460.308594 121.101562 460.308594 129.476562 C 460.308594 137.847656 461.453125 143.625 462.464844 146.027344 C 463.738281 149.144531 465.957031 151.15625 469.367188 152.347656 C 472.902344 153.492188 479.132812 154.140625 490.046875 154.316406 C 500.9375 154.164062 507.167969 153.492188 510.726562 152.347656 C 514.132812 151.15625 516.355469 149.144531 517.625 146.027344 C 518.640625 143.648438 519.78125 137.847656 519.78125 129.476562 C 519.78125 121.101562 518.640625 115.324219 517.625 112.921875 Z M 517.625 112.921875 " fill-opacity="1" fill-rule="nonzero"/></g><path fill="#0061af" d="M 112.085938 94.207031 Z M 112.085938 94.207031 Z M 173.914062 110.261719 C 173.050781 106.539062 171.476562 103.421875 169.125 100.71875 C 165.914062 97.105469 161.792969 94.726562 156.574219 93.40625 C 151.746094 92.128906 144.757812 91.523438 134.96875 91.523438 C 124.273438 91.523438 117.027344 92.390625 112.128906 94.226562 C 108.097656 95.699219 104.734375 98.402344 102.253906 102.125 C 99.363281 98.230469 95.785156 95.570312 91.320312 94.054688 C 86.253906 92.34375 76.828125 91.5 64.949219 91.5 C 56.019531 91.5 49.894531 92.128906 46.207031 93.449219 L 46.164062 93.449219 C 43.382812 94.507812 40.730469 96.285156 38.121094 98.816406 L 38.121094 95.136719 L 24.300781 95.136719 L 24.300781 167.125 L 37.992188 167.125 L 37.992188 121.40625 C 37.992188 109.460938 50.089844 104.742188 62.316406 104.742188 L 68.441406 104.742188 C 80.667969 104.742188 92.875 109.460938 92.875 121.40625 L 92.875 167.125 L 106.566406 167.125 L 106.566406 121.40625 C 106.566406 109.460938 118.515625 104.742188 130.742188 104.742188 L 136.863281 104.742188 C 149.09375 104.742188 161.339844 109.460938 161.339844 121.40625 L 161.339844 167.125 L 175.011719 167.125 L 175.011719 127.851562 C 175.011719 118.9375 174.667969 113.507812 173.890625 110.261719 Z M 173.914062 110.261719 " fill-opacity="1" fill-rule="nonzero"/><g clip-path="url(#2c2cd60b01)"><path fill="#ed1c24" d="M 718.542969 134.734375 L 725.550781 134.734375 C 725.636719 133.046875 725.699219 131.292969 725.699219 129.476562 C 725.699219 120.90625 724.707031 113.875 722.726562 108.617188 C 720.71875 103.140625 713.90625 90.765625 680.78125 90.765625 C 647.660156 90.765625 640.84375 103.121094 638.839844 108.617188 C 636.855469 113.875 635.863281 120.90625 635.863281 129.476562 C 635.863281 138.042969 636.855469 145.074219 638.839844 150.332031 C 640.84375 155.808594 647.660156 168.183594 680.78125 168.183594 C 713.90625 168.183594 720.71875 155.808594 722.726562 150.332031 C 722.898438 149.859375 723.070312 149.339844 723.222656 148.839844 L 706.679688 148.839844 C 705.410156 150.398438 703.683594 151.546875 701.441406 152.324219 C 697.882812 153.472656 691.652344 154.121094 680.761719 154.292969 C 669.871094 154.140625 663.636719 153.472656 660.082031 152.324219 C 656.671875 151.132812 654.453125 149.121094 653.179688 146.007812 C 652.402344 144.167969 651.539062 140.292969 651.195312 134.796875 L 718.519531 134.796875 L 718.519531 134.710938 Z M 660.125 106.625 C 663.660156 105.480469 669.890625 104.832031 680.804688 104.65625 C 691.695312 104.808594 697.925781 105.480469 701.484375 106.625 C 704.890625 107.816406 707.113281 109.828125 708.382812 112.945312 C 709.054688 114.503906 709.765625 117.53125 710.195312 121.792969 L 651.433594 121.792969 C 651.84375 117.53125 652.574219 114.503906 653.246094 112.945312 C 654.515625 109.828125 656.738281 107.816406 660.144531 106.625 Z M 660.125 106.625 " fill-opacity="1" fill-rule="nonzero"/></g><path fill="#0061af" d="M 380.605469 91.394531 L 380.605469 167.101562 L 394.320312 167.101562 L 394.320312 91.394531 Z M 380.605469 91.394531 " fill-opacity="1" fill-rule="nonzero"/><g clip-path="url(#c869fe5ca7)"><path fill="#0061af" d="M 367.96875 108.617188 C 365.964844 103.140625 359.148438 90.765625 326.027344 90.765625 C 313.347656 90.765625 304.550781 92.582031 298.382812 95.136719 L 298.382812 57.183594 L 284.6875 57.183594 L 284.6875 167.296875 L 298.382812 167.296875 L 298.382812 163.8125 C 304.550781 166.367188 313.347656 168.183594 326.027344 168.183594 C 359.148438 168.183594 365.964844 155.828125 367.96875 150.332031 C 369.953125 145.074219 370.945312 138.023438 370.945312 129.476562 C 370.945312 120.929688 369.953125 113.875 367.96875 108.617188 Z M 353.609375 146.027344 C 352.335938 149.144531 350.113281 151.15625 346.707031 152.347656 C 343.148438 153.492188 336.917969 154.140625 326.027344 154.316406 C 315.136719 154.164062 310.847656 153.492188 307.289062 152.347656 C 303.878906 151.15625 301.660156 149.144531 300.386719 146.027344 C 299.589844 144.144531 298.707031 140.121094 298.359375 134.386719 L 298.359375 124.5625 C 298.707031 118.828125 299.589844 114.804688 300.386719 112.921875 C 301.660156 109.808594 303.878906 107.792969 307.289062 106.605469 C 310.824219 105.457031 315.117188 104.808594 326.027344 104.636719 C 336.917969 104.785156 343.148438 105.457031 346.707031 106.605469 C 350.113281 107.792969 352.335938 109.808594 353.609375 112.921875 C 354.621094 115.304688 355.765625 121.101562 355.765625 129.476562 C 355.765625 137.847656 354.621094 143.625 353.609375 146.027344 Z M 353.609375 146.027344 " fill-opacity="1" fill-rule="nonzero"/></g></svg>