<?xml version="1.0" encoding="utf-8"?>
<!-- Generator: Adobe Illustrator 25.0.0, SVG Export Plug-In . SVG Version: 6.00 Build 0)  -->
<svg version="1.1" id="Layer_1" xmlns="http://www.w3.org/2000/svg" xmlns:xlink="http://www.w3.org/1999/xlink" x="0px" y="0px"
	 viewBox="0 0 1045 321" style="enable-background:new 0 0 1045 321;" xml:space="preserve">
<style type="text/css">
	.st0{fill:#323E44;}
	.st1{fill:#696969;}
	.st2{fill-rule:evenodd;clip-rule:evenodd;fill:#39A07C;}
	.st3{fill:#39A07C;}
</style>
<polygon class="st0" points="1002.8,146 1002.8,156.5 970.5,156.5 970.5,146 978,144.4 978,131.9 957.1,93.6 949.6,92.5 949.6,82 
	980.7,82 980.7,92.5 976.3,93.4 986.2,113.8 987.3,116.4 987.7,116.4 989,113.9 1000.5,93.4 993,92.5 993,82 1023.5,82 1023.5,92.5 
	1015.9,93.6 995.3,130.5 995.3,144.4 "/>
<polygon class="st0" points="924.6,146 924.6,156.5 892.3,156.5 892.3,146 899.8,144.4 899.8,95.9 888.7,95.9 888.2,103.9 
	875.1,103.9 875.1,82 942,82 942,103.9 928.8,103.9 928.3,95.9 917.1,95.9 917.1,144.4 "/>
<polygon class="st0" points="866.4,146 866.4,156.5 834.1,156.5 834.1,146 841.6,144.4 841.6,94.2 834.1,92.5 834.1,82 866.4,82 
	866.4,92.5 858.9,94.2 858.9,144.4 "/>
<path class="st0" d="M797.2,157.5c-6.8,0-12.9-1.5-18.4-4.3c-5.4-2.8-9.6-7-12.7-12.4c-3-5.5-4.6-12.1-4.6-19.8v-3.5
	c0-7.2,1.4-13.5,4.2-19c2.8-5.5,6.9-9.8,12.1-12.9c5.2-3.2,11.4-4.7,18.6-4.7c5,0,9.8,0.7,14.3,2.1c4.5,1.4,8.8,3.7,12.7,7v19.2
	h-12.6l-1.8-11c-0.5-0.4-1.2-0.7-1.8-1.1c-0.5-0.4-1.2-0.7-1.8-1c-2.5-1.2-5.3-1.8-8.5-1.8c-3.6,0-6.9,0.9-9.6,2.7
	c-2.7,1.8-4.8,4.4-6.4,7.9c-1.5,3.4-2.2,7.6-2.2,12.4v3.5c0,4.5,0.8,8.5,2.3,12c1.6,3.5,3.7,6.2,6.5,8.1s6,2.9,9.7,2.9
	c1.9,0,3.9-0.2,5.9-0.6c2-0.4,3.9-1,5.8-1.8l1.8-10.5h12.7v18.8c-2.8,2.1-6.5,3.8-11,5.4C808.1,156.8,803,157.5,797.2,157.5z"/>
<polygon class="st0" points="667.7,146 667.7,156.5 635.4,156.5 635.4,146 642.8,144.4 642.8,94.2 635.4,92.5 635.4,82 660.4,82 
	689.3,129.7 689.6,129.7 689.6,94.2 680.1,92.5 680.1,82 712.5,82 712.5,92.5 704.9,94.2 704.9,156.5 687.8,156.5 658.4,109.8 
	658.1,109.8 658.1,144.4 "/>
<polygon class="st0" points="622.9,134.6 622.9,156.5 564.6,156.5 564.6,146 572,144.4 572,94.2 564.6,92.5 564.6,82 622.1,82 
	622.1,103.5 609,103.5 608.6,95.8 589.4,95.8 589.4,111.1 612.4,111.1 612.4,124.8 589.4,124.8 589.4,142.6 609.5,142.6 
	609.9,134.6 "/>
<path class="st0" d="M527.2,95.7H517v21.8h10.2c3.5,0,6.2-1,8-3s2.8-4.6,2.8-7.7c0-3.2-0.9-5.9-2.8-8
	C533.4,96.8,530.7,95.7,527.2,95.7z M524.5,146v10.5h-32.3V146l7.5-1.6V94.2l-7.5-1.6V82h35c5.8,0,10.8,1,14.9,3.1
	c4.2,2.1,7.5,5,9.8,8.7c2.3,3.7,3.5,8,3.5,12.9s-1.2,9.2-3.4,12.9c-2.3,3.7-5.6,6.5-9.8,8.6c-4.2,2.1-9.2,3.1-14.9,3.1h-10.2v13.1
	L524.5,146z"/>
<path class="st0" d="M446.9,143.9c3.6,0,6.7-1,9.3-3c5.3-4.2,7.9-11.2,7.9-21.1v-1.3c0-4.7-0.7-8.9-2-12.5c-1.4-3.6-3.3-6.4-5.9-8.4
	c-2.5-2-5.7-3-9.3-3c-3.9,0-7,1-9.5,3c-2.5,2-4.3,4.7-5.5,8.4c-1.2,3.6-1.8,7.8-1.8,12.6v1.3c0,4.8,0.6,9.1,1.8,12.7
	c1.2,3.6,3,6.4,5.5,8.4C439.9,142.9,443.1,143.9,446.9,143.9z M446.9,157.5c-5,0-9.6-0.9-13.8-2.8c-4.1-1.9-7.8-4.5-10.9-8
	c-3.1-3.4-5.5-7.4-7.1-11.9c-1.6-4.6-2.5-9.6-2.5-15v-1.2c0-5.3,0.8-10.3,2.5-14.9c1.7-4.5,4.1-8.5,7.1-11.9c3-3.4,6.6-6.1,10.8-8
	c4.1-1.9,8.7-2.8,13.7-2.8c4.8,0,9.4,1,13.6,2.8c4.2,1.9,7.9,4.5,11,8c3.2,3.4,5.6,7.4,7.3,11.9c1.8,4.5,2.6,9.5,2.6,14.9v1.2
	c0,5.4-0.8,10.4-2.6,15c-1.8,4.5-4.2,8.5-7.3,11.9c-3.2,3.4-6.8,6.1-11,8C456.3,156.6,451.8,157.5,446.9,157.5z"/>
<polygon class="st1" points="744.2,262.9 749.4,249.7 737.1,218 744.9,217.9 753,242.2 753.1,242.2 761.4,217.9 769.3,217.9 
	751.9,262.9 "/>
<path class="st1" d="M719.8,250.6c-1.4,0-2.8-0.1-4.4-0.3c-1.5-0.2-3-0.4-4.4-0.7c-1.4-0.4-2.6-0.8-3.7-1.2l1-5.9
	c1.8,0.7,3.6,1.2,5.4,1.6c1.8,0.4,3.5,0.5,5.2,0.5c2.2,0,3.8-0.3,4.8-0.9c1-0.6,1.6-1.5,1.6-2.8c0-0.7-0.2-1.3-0.5-1.7
	c-0.4-0.5-1-0.9-1.9-1.3c-0.8-0.4-2.1-0.8-3.8-1.2c-2.5-0.7-4.6-1.4-6.4-2.2c-1.8-0.8-3.2-1.9-4.1-3.2c-1-1.3-1.4-2.9-1.4-4.8
	c0-3,1.1-5.2,3.3-6.7c2.2-1.6,5.4-2.4,9.5-2.4c1.9,0,3.9,0.2,5.9,0.5c2.1,0.3,3.9,0.8,5.7,1.4l-1,5.9c-1.7-0.6-3.3-1.1-5-1.3
	c-1.6-0.3-3.2-0.4-4.8-0.4c-2.2,0-3.8,0.2-4.8,0.8c-1,0.5-1.5,1.3-1.5,2.5c0,0.6,0.2,1.2,0.5,1.6c0.4,0.5,1,0.9,1.8,1.3
	c0.8,0.4,2.1,0.7,3.7,1.1c1.8,0.4,3.5,0.9,5,1.5c1.5,0.5,2.7,1.3,3.8,2.1c1.1,0.8,1.9,1.8,2.4,2.9c0.6,1.1,0.9,2.4,0.9,3.9
	c0,1.9-0.5,3.7-1.6,5.1c-1,1.4-2.5,2.5-4.5,3.3C724.8,250.2,722.5,250.6,719.8,250.6z"/>
<path class="st1" d="M684.4,244.6c1.5,0,2.8-0.2,4.1-0.8c1.2-0.5,2.2-1.3,2.9-2.3c0.7-1,1.1-2,1.1-3.2v-3.9h-3.3
	c-3.4,0-6,0.5-7.8,1.4c-1.7,0.9-2.5,2.3-2.5,4.2c0,1.4,0.5,2.5,1.5,3.3C681.3,244.3,682.7,244.6,684.4,244.6z M681.8,250.6
	c-3.1,0-5.5-0.8-7.3-2.6c-1.8-1.8-2.6-4.1-2.6-7.2c0-3.8,1.4-6.6,4.2-8.6c2.8-2,6.9-3,12-3h4.4c0-1.6-0.2-2.7-0.6-3.6
	c-0.4-0.8-1-1.5-1.9-1.8c-0.8-0.3-2.1-0.5-3.8-0.5c-2,0-4.1,0.2-6.2,0.6s-4.1,1-5.9,1.8l-1-6c2-0.8,4.2-1.4,6.7-1.8s4.9-0.7,7.4-0.7
	c3.2,0,5.6,0.4,7.4,1.2c1.8,0.8,3.2,2.1,3.9,3.9c0.8,1.8,1.2,4.3,1.2,7.3v20.2h-7l-0.1-3.7h-0.1c-1.1,1.3-2.6,2.3-4.7,3.2
	C686,250.2,683.9,250.6,681.8,250.6z"/>
<polygon class="st1" points="635.9,250 635.9,205 664.9,205 664.9,211.7 643.3,211.7 643.3,223.2 663.8,223.2 663.8,229.7 
	643.3,229.7 643.3,243.3 664.9,243.3 664.9,250 "/>
<path class="st1" d="M584.7,250.6c-4.4,0-7.8-1-10.2-3c-2.4-2-3.6-4.8-3.6-8.5c0-1.9,0.4-3.7,1.2-5.2c0.8-1.6,2.2-3.2,4.1-4.7
	c1.9-1.6,4.6-3.3,7.9-5.1c2.7-1.5,4.7-2.7,6.1-3.7c1.5-1,2.4-2,3-2.8s0.8-1.8,0.8-2.8c0-1.6-0.6-2.8-1.7-3.6c-1.1-0.8-2.8-1.2-5-1.2
	c-2.1,0-3.8,0.4-5,1.2c-1.2,0.8-1.8,2-1.8,3.6c0,0.8,0.2,1.8,0.7,2.7c0.5,0.9,1.3,1.9,2.4,3.1c1.1,1.1,2.6,2.4,4.5,4l15.1,12.5
	l-3.4,5.2l-19-15.8c-1.8-1.6-3.3-3-4.4-4.2c-1.1-1.3-1.8-2.5-2.3-3.8c-0.5-1.2-0.7-2.5-0.7-3.8c0-3.3,1.2-5.8,3.6-7.5
	c2.4-1.8,5.8-2.7,10.1-2.7c4.3,0,7.7,0.9,10.2,2.7c2.5,1.8,3.7,4.2,3.7,7.5c0,1.7-0.4,3.3-1.3,4.9c-0.8,1.5-2.3,3-4.2,4.5
	c-1.9,1.5-4.5,3.2-7.8,4.9c-2.3,1.2-4.1,2.4-5.5,3.4c-1.3,1-2.3,2.1-2.9,3c-0.6,1-0.9,2.1-0.9,3.2c0,1.8,0.7,3.3,2.1,4.3
	c1.5,1,3.5,1.5,6.1,1.5c2.7,0,5.1-0.5,7.4-1.7c2.3-1.2,4.5-3,6.5-5.4v-12h6.6V250h-6.5l-0.1-4.7h-0.1c-1.9,1.7-4.3,3-7.2,3.9
	C590.6,250.1,587.7,250.6,584.7,250.6z"/>
<path class="st1" d="M538,250.6c-3.6,0-6.3-0.8-7.9-2.4c-1.6-1.6-2.4-4.1-2.4-7.6V224h-6.9v-6.1h6.9v-10.5h7.4v10.5h10.4v6.1H535
	v14.7c0,2.1,0.3,3.5,1,4.3c0.7,0.8,1.8,1.2,3.5,1.2c0.8,0,1.8-0.1,2.7-0.2c1-0.2,1.8-0.4,2.5-0.7l0.7,6.2c-1.3,0.4-2.6,0.7-3.8,0.8
	C540.4,250.5,539.2,250.6,538,250.6z"/>
<path class="st1" d="M503.1,250.6c-1.4,0-2.8-0.1-4.4-0.3c-1.5-0.2-3-0.4-4.4-0.7c-1.4-0.4-2.6-0.8-3.7-1.2l1-5.9
	c1.8,0.7,3.6,1.2,5.4,1.6c1.8,0.4,3.5,0.5,5.2,0.5c2.2,0,3.8-0.3,4.8-0.9c1-0.6,1.6-1.5,1.6-2.8c0-0.7-0.2-1.3-0.5-1.7
	c-0.4-0.5-1-0.9-1.9-1.3c-0.8-0.4-2.1-0.8-3.8-1.2c-2.5-0.7-4.6-1.4-6.4-2.2s-3.2-1.9-4.1-3.2c-1-1.3-1.5-2.9-1.5-4.8
	c0-3,1.1-5.2,3.3-6.7c2.2-1.6,5.4-2.4,9.5-2.4c1.9,0,3.9,0.2,5.9,0.5c2.1,0.3,3.9,0.8,5.7,1.4l-1,5.9c-1.7-0.6-3.3-1.1-5-1.3
	c-1.6-0.3-3.2-0.4-4.8-0.4c-2.2,0-3.8,0.2-4.8,0.8c-1,0.5-1.5,1.3-1.5,2.5c0,0.6,0.2,1.2,0.5,1.6c0.4,0.5,1,0.9,1.8,1.3
	c0.8,0.4,2.1,0.7,3.7,1.1c1.8,0.4,3.5,0.9,5,1.5c1.5,0.5,2.7,1.3,3.8,2.1c1.1,0.8,1.9,1.8,2.4,2.9c0.6,1.1,0.9,2.4,0.9,3.9
	c0,1.9-0.5,3.7-1.6,5.1c-1,1.4-2.5,2.5-4.5,3.3C508,250.2,505.7,250.6,503.1,250.6z"/>
<path class="st1" d="M467.7,244.6c1.5,0,2.8-0.2,4.1-0.8c1.2-0.5,2.2-1.3,2.9-2.3c0.7-1,1.1-2,1.1-3.2v-3.9h-3.3
	c-3.4,0-6,0.5-7.8,1.4c-1.7,0.9-2.5,2.3-2.5,4.2c0,1.4,0.5,2.5,1.5,3.3C464.5,244.3,465.9,244.6,467.7,244.6z M465,250.6
	c-3.1,0-5.5-0.8-7.3-2.6c-1.8-1.8-2.6-4.1-2.6-7.2c0-3.8,1.4-6.6,4.2-8.6c2.8-2,6.9-3,12-3h4.4c0-1.6-0.2-2.7-0.6-3.6
	c-0.4-0.8-1-1.5-1.9-1.8c-0.8-0.3-2.1-0.5-3.8-0.5c-2,0-4.1,0.2-6.2,0.6s-4.1,1-5.9,1.8l-1-6c2-0.8,4.2-1.4,6.7-1.8s4.9-0.7,7.4-0.7
	c3.2,0,5.6,0.4,7.4,1.2c1.8,0.8,3.2,2.1,3.9,3.9c0.8,1.8,1.2,4.3,1.2,7.3v20.2h-7l-0.1-3.7h-0.1c-1.1,1.3-2.6,2.3-4.7,3.2
	C469.2,250.2,467.1,250.6,465,250.6z"/>
<polygon class="st1" points="421.2,250 421.2,205 451.3,205 451.3,211.8 428.6,211.8 428.6,224.6 450.1,224.6 450.1,231.3 
	428.6,231.3 428.6,250 "/>
<path class="st2" d="M69.1,212.4c-31.2,14.7-49.5,31-47.3,45.2c4.2,28.1,85.5,37.8,181.6,21.8s170.6-51.8,166.4-79.8
	c-2.3-15.3-27.5-25.2-65.5-28.3v11.6c33.4,4.8,54.9,14.5,55.7,27.6c1.6,24.8-69.8,52.6-159.6,62c-89.8,9.5-164-3-165.7-27.8
	c-0.7-10.7,12.2-22,34.5-32.1L69.1,212.4L69.1,212.4z"/>
<path class="st0" d="M200.2,272.5c-89.8,9.5-164-3-165.7-27.8c-0.5-8.5,7.5-17.5,22.1-25.8v-0.2c-23.6,13-36.9,26.7-35,39
	c4.2,28.1,85.5,37.8,181.5,21.8c55.8-9.3,104.3-25.3,134.4-42.5l-0.8-0.1C308.9,252.6,258.4,266.4,200.2,272.5z"/>
<path class="st3" d="M173.3,247.9c-10.6-10.4-21.2-20.9-31.7-31.3c-0.2,0.2-0.4,0.4-0.5,0.5c0.7,0.9,1.4,1.8,2.2,2.7
	c6.3,6.9,12.6,13.7,18.9,20.6c3.6,3.9,7.2,7.8,10.7,11.8c0.8,0.9,1.4,1,2.4,0.4c6.8-3.9,13.6-7.9,20.4-11.9
	c9.3-5.4,18.7-10.8,28.1-16.1c0.7-0.4,1.3-0.8,1.9-1.2c3.1-1.9,3.4-2.6,2.6-6.8c-1.6,0.5-3.2,1.1-4.7,1.6c-7,2.5-14.1,5-21.1,7.5
	c-7,2.5-14,5.2-21,7.6c-1.9,0.7-3.9,1.3-5.9,1.9c-1.2,0.4-1.8,0.9-1.8,2.4c0.1,3.3,0.1,6.7,0.1,10
	C173.6,247.7,173.4,247.8,173.3,247.9z"/>
<path class="st3" d="M228.4,196c-3.8,0.7-7.2,1.5-10.7,2.2c-3.3,0.7-6.6,1.5-9.9,2.2c-3.2,0.7-6.4,1.4-9.6,2.1
	c-4.2,0.9-8.4,1.8-12.5,2.7c-2.9,0.7-5.8,1.4-8.7,2.1c-0.1,0-0.1,0.1-0.2,0.1c-3.1,1-3.1,1-3.1,4.3c0,2.8,0,5.5,0,8.8
	c-11-8.2-21.6-16.1-32.3-24.1c-0.2,0.2-0.3,0.4-0.5,0.5c0.4,0.5,0.8,1.2,1.3,1.6c8.5,7.3,17,14.5,25.5,21.8c1.8,1.5,3.6,3.1,5.5,4.5
	c0.4,0.2,1.1,0.3,1.6,0.1c5.6-2.4,11.1-4.8,16.6-7.3c8.7-3.9,17.5-7.8,26.3-11.7c3.2-1.4,6.3-2.8,9.4-4.2c0.8-0.4,1.4-0.9,1.3-2
	C228.3,198.4,228.4,197.3,228.4,196z"/>
<path class="st3" d="M173.8,191.7c-11-5.5-21.6-10.8-32.2-16.1c-0.1,0.2-0.2,0.3-0.3,0.5c0.4,0.4,0.7,0.9,1.1,1.2
	c10,6.2,20.1,12.3,30.1,18.5c1.5,0.9,2.8,0.4,4.1,0c4.2-1.3,8.5-2.7,12.7-4.1c5-1.6,9.9-3.2,14.9-4.7c7.8-2.4,15.6-4.8,23.4-7.3
	c0.3-0.1,0.7-0.6,0.7-0.9c0.1-1.4,0.1-2.8,0.1-4.4c-3.5,0.3-6.7,0.5-9.9,0.7c-2.5,0.2-5.2,0.5-7.7,0.8c-5.6,0.5-11.3,1-16.9,1.5
	c-6.3,0.5-12.6,1.2-18.9,1.7c-1,0.1-1.1,0.7-1.1,1.5C173.8,184.1,173.8,187.7,173.8,191.7z"/>
<path class="st3" d="M173.8,136.2c-3,0-5.9,0.1-8.8,0c-5.3-0.1-10.5-0.2-15.9-0.2c-2.2-0.1-4.5-0.2-6.7-0.3c-0.4,0-0.7,0.3-1,0.5
	c0.3,0.2,0.6,0.6,1,0.7c5,0.7,9.9,1.2,14.9,1.8c5.2,0.7,10.4,1.5,15.5,2.1c2.2,0.2,4.5,0,6.7-0.1c4.2-0.2,8.4-0.4,12.5-0.5
	c8.2-0.4,16.4-0.7,24.6-1c3.8-0.2,7.7-0.5,11.8-0.8c0-1.3,0.1-2.7-0.1-4.1c-0.1-0.4-0.5-0.9-0.8-1c-3.6-0.7-7.3-1.2-10.9-1.9
	c-3.8-0.7-7.6-1.5-11.5-2.2c-2.5-0.4-5-0.8-7.5-1.2c-4-0.7-8-1.5-12-2.1c-3.6-0.6-7.1-1.2-10.7-1.8c-1.1-0.2-1.2,0.5-1.2,1.3
	c0,3,0,6.1,0,9.1C173.8,134.9,173.8,135.5,173.8,136.2z"/>
<path class="st3" d="M228.3,70c0-1.6,0.1-3-0.1-4.5c-0.1-0.4-0.5-0.9-1-1.2c-8.2-4.8-16.6-9.6-24.8-14.4
	c-9.2-5.3-18.2-10.5-27.4-15.8c-0.3-0.1-0.7-0.2-1.3-0.4c0,3-0.2,5.8,0.1,8.5c0.4,3.2-0.8,4.8-3.3,6.5c-9.3,6.2-18.4,12.7-27.5,19.1
	c-0.6,0.4-1.1,1-1.6,1.5c0.1,0.2,0.2,0.3,0.2,0.5c0.5-0.2,1.1-0.4,1.6-0.7c8.2-4.9,16.4-9.9,24.6-14.8c1.3-0.8,2.8-1.5,4.1-2.4
	c1.9-1.5,3.8-0.6,5.6,0.1c5.9,2.1,11.8,4.2,17.6,6.4c6.4,2.3,12.9,4.7,19.3,7C218.9,66.8,223.5,68.4,228.3,70z"/>
<path class="st3" d="M228.3,93.6c0-1.4,0.1-2.8-0.1-4.1c-0.1-0.4-0.6-1.1-1-1.3c-7.6-3.4-15.2-6.7-22.9-10.1
	c-9.9-4.4-19.8-8.9-29.7-13.3c-0.2-0.1-0.4-0.1-0.8-0.2c-0.1,0.6-0.1,1.2-0.1,1.7c0,3.2-0.1,6.4,0,9.6c0,0.9-0.1,1.5-1.2,1.9
	c-8.1,3.6-16.2,7.4-24.2,11.1c-2.1,1-4.2,2-6.4,3c-0.3,0.1-0.5,0.4-0.8,0.7c0.1,0.2,0.1,0.4,0.2,0.5c1.5-0.4,2.9-0.8,4.3-1.3
	c5.9-2.1,11.8-4.2,17.6-6.3c3.1-1.1,6.1-2.2,9.3-3.3c0.8-0.2,1.8-0.4,2.7-0.2c3.3,0.7,6.4,1.5,9.6,2.2c4.1,1,8.2,1.9,12.3,2.8
	c3.1,0.7,6.2,1.3,9.3,1.9c3,0.7,5.9,1.3,8.9,2c3.9,0.9,7.8,1.8,11.7,2.7C227.5,93.6,227.9,93.6,228.3,93.6z"/>
<path class="st3" d="M141.4,115.3c1.5-0.1,3-0.2,4.4-0.4c6.5-0.7,13.1-1.5,19.6-2.2c2.2-0.2,4.5-0.6,6.7-0.7
	c3.1-0.1,6.2,0.1,9.3,0.2c3.3,0.2,6.7,0.7,10,1c9.4,0.8,18.9,1.6,28.3,2.5c2.8,0.2,5.6,0.5,8.5,0.8c0-1.7,0-3.3,0-5
	c-17.9-5.6-36.1-11.2-54.4-16.9c0,4.5,0,8.5,0,12.7c-10.9,2.4-21.7,4.7-32.5,7.1C141.4,114.7,141.4,115,141.4,115.3z"/>
<path class="st3" d="M228.3,159.5c0-1.6,0-3.2,0-4.9c-2.4-0.2-4.7-0.4-7-0.4c-6.4-0.2-12.8-0.4-19.2-0.6c-5.9-0.2-11.8-0.5-17.6-0.8
	c-3-0.1-6-0.3-9-0.5c-1.2-0.1-1.8,0.3-1.7,1.7c0.1,3.5,0,7,0,10.8c-10.9-2.8-21.6-5.7-32.3-8.5c-0.1,0.2-0.2,0.5-0.2,0.7
	c1,0.4,2.1,1,3.2,1.3c7,2.5,14.1,5.2,21.2,7.7c2.4,0.9,4.8,1.9,7.2,2.7c0.9,0.3,2,0.2,3,0.1c5-0.9,9.9-1.9,14.9-2.8
	c3.8-0.7,7.7-1.2,11.5-1.9c3.9-0.7,7.8-1.5,11.6-2.2c3.8-0.7,7.6-1.3,11.4-1.9C226.3,159.9,227.2,159.6,228.3,159.5z"/>
<path class="st0" d="M300.3,216.2c-3,0.4-5.9,0.8-8.7,1.3c-2.7,0.4-5.4,0.8-8.1,1.3c-2.6,0.4-5.2,0.8-7.8,1.2
	c-3.4,0.5-6.8,1-10.1,1.6c-2.4,0.4-4.7,0.8-7.1,1.2c-0.1,0-0.1,0-0.1,0.1c-2.5,0.5-2.5,0.5-2.5,2.5c0,1.6,0,3.2,0,5.1
	c-9-4.8-17.6-9.3-26.3-14c-0.1,0.1-0.3,0.2-0.4,0.3c0.4,0.3,0.7,0.7,1.1,0.9c6.9,4.2,13.9,8.4,20.8,12.6c1.5,0.9,2.9,1.8,4.5,2.6
	c0.3,0.2,0.9,0.2,1.3,0.1c4.5-1.4,9-2.8,13.5-4.2c7.2-2.2,14.2-4.5,21.4-6.8c2.5-0.8,5.2-1.6,7.7-2.5c0.7-0.2,1.2-0.5,1-1.2
	C300.2,217.7,300.3,217,300.3,216.2z"/>
<path class="st0" d="M255.9,207.5c-9-3.3-17.6-6.6-26.3-9.8c-0.1,0.1-0.2,0.2-0.2,0.3c0.3,0.2,0.5,0.5,0.9,0.7
	c8.2,3.8,16.4,7.5,24.6,11.3c1.2,0.5,2.2,0.2,3.3,0c3.5-0.8,6.9-1.7,10.4-2.5c4.1-1,8.1-1.9,12.2-2.8c6.4-1.5,12.7-3,19.1-4.4
	c0.2-0.1,0.5-0.4,0.6-0.5c0.1-0.8,0.1-1.7,0.1-2.7c-2.8,0.2-5.5,0.3-8.1,0.5c-2.1,0.1-4.2,0.3-6.3,0.5c-4.6,0.3-9.2,0.6-13.8,0.9
	c-5.2,0.4-10.3,0.7-15.4,1c-0.8,0.1-0.8,0.5-0.8,1C255.9,202.9,255.9,205.1,255.9,207.5z"/>
<path class="st0" d="M255.8,161c-2.5,0-4.8,0-7.2,0c-4.3-0.1-8.7-0.1-13-0.2c-1.8-0.1-3.7-0.2-5.5-0.2c-0.3,0-0.5,0.2-0.8,0.4
	c0.2,0.2,0.5,0.5,0.8,0.5c4.1,0.5,8.1,0.9,12.2,1.4c4.2,0.5,8.4,1.2,12.7,1.6c1.8,0.2,3.7,0,5.5-0.1c3.4-0.1,6.9-0.3,10.2-0.4
	c6.7-0.2,13.4-0.5,20.1-0.8c3.2-0.1,6.3-0.4,9.6-0.6c0-1,0.1-2.1,0-3.2c0-0.2-0.4-0.7-0.7-0.7c-3-0.5-5.9-1-8.9-1.5
	c-3.2-0.5-6.2-1.2-9.4-1.7c-2-0.4-4.1-0.6-6.1-1c-3.3-0.5-6.5-1.1-9.8-1.6c-2.9-0.5-5.8-1-8.7-1.4c-0.9-0.2-1,0.4-1,1
	c0,2.3,0,4.7,0,7C255.8,160,255.8,160.4,255.8,161z"/>
<path class="st0" d="M300.1,109.1c0-1,0.1-1.9,0-2.8c0-0.2-0.5-0.5-0.8-0.7c-6.7-3-13.5-6.1-20.2-9.1c-7.5-3.3-14.9-6.7-22.4-10
	c-0.2-0.1-0.5-0.1-1.1-0.3c0,1.9-0.2,3.6,0.1,5.3c0.3,2-0.7,3-2.7,4.1c-7.6,3.9-15,8-22.5,12.1c-0.5,0.2-0.9,0.6-1.3,0.9
	c0.1,0.1,0.1,0.2,0.2,0.3c0.4-0.1,0.9-0.3,1.3-0.5c6.7-3.1,13.4-6.2,20.1-9.3c1.1-0.5,2.4-0.9,3.3-1.5c0.8-0.5,3-0.4,4.5,0
	c4.8,1.3,9.6,2.7,14.4,4c5.3,1.5,10.5,2.9,15.8,4.4C292.4,107.1,296.1,108.1,300.1,109.1z"/>
<path class="st0" d="M300.4,127.1c0-1,0.1-1.9,0-2.8c0-0.3-0.5-0.7-0.8-0.9c-6.2-2.4-12.4-4.7-18.7-7c-8.1-3.1-16.2-6.2-24.2-9.2
	c-0.2-0.1-0.3-0.1-0.7-0.2c0,0.4-0.1,0.8-0.1,1.2c0,2.2-0.1,4.4,0,6.7c0,0.6-0.1,1-0.9,1.3c-6.6,2.5-13.2,5.2-19.8,7.7
	c-1.8,0.7-3.5,1.4-5.2,2.1c-0.2,0.1-0.4,0.3-0.7,0.4c0.1,0.1,0.1,0.2,0.2,0.4c1.2-0.3,2.4-0.6,3.5-0.9c4.8-1.5,9.6-2.9,14.4-4.4
	c2.5-0.8,5-1.6,7.6-2.3c0.7-0.2,1.5-0.2,2.2-0.1c2.7,0.5,5.2,1,7.9,1.5c3.3,0.7,6.7,1.3,10.1,2c2.5,0.5,5.1,0.9,7.6,1.3
	c2.4,0.4,4.8,0.9,7.2,1.4c3.2,0.6,6.4,1.3,9.6,1.9C299.7,127.1,300,127.1,300.4,127.1z"/>
<path class="st0" d="M229.7,144.7c1.2-0.1,2.4-0.1,3.6-0.2c5.3-0.5,10.7-1.2,16-1.7c1.8-0.2,3.6-0.5,5.5-0.5c2.5-0.1,5,0,7.6,0.2
	c2.7,0.2,5.5,0.5,8.2,0.7c7.7,0.6,15.3,1.3,23,1.9c2.2,0.2,4.5,0.4,6.9,0.6c0-1.3,0-2.5,0-3.8c-14.6-4.2-29.4-8.5-44.3-12.9
	c0,3.5,0,6.5,0,9.7c-8.9,1.8-17.6,3.6-26.4,5.4C229.6,144.2,229.6,144.4,229.7,144.7z"/>
<path class="st0" d="M300.4,181.5c0-1.1,0-2.1,0-3.2c-1.9-0.1-3.8-0.2-5.8-0.3c-5.2-0.2-10.4-0.2-15.6-0.4
	c-4.8-0.1-9.6-0.3-14.4-0.5c-2.4-0.1-4.9-0.2-7.4-0.3c-1-0.1-1.5,0.2-1.4,1.1c0.1,2.3,0.1,4.6,0.1,7c-8.9-1.9-17.6-3.7-26.4-5.5
	c-0.1,0.2-0.1,0.3-0.2,0.5c0.8,0.3,1.7,0.6,2.6,0.8c5.8,1.7,11.5,3.3,17.3,5c2,0.6,3.9,1.3,5.9,1.8c0.7,0.2,1.6,0.2,2.4,0.1
	c4.1-0.6,8.1-1.3,12.2-1.8c3.2-0.4,6.3-0.8,9.5-1.3c3.2-0.4,6.3-1,9.5-1.5c3.1-0.4,6.2-0.8,9.3-1.3
	C298.7,181.8,299.5,181.6,300.4,181.5z"/>
<path class="st0" d="M138.8,214.9c-5.8,1.7-11.5,3.4-17.2,5c-5.9,1.7-11.7,3.4-17.6,5.1c-3.6,1-7.2,2.1-10.8,3.2
	c-1,0.3-1.2,0.7-1.2,1.8c0.1,2,0,3.4,0,5.5c-1.8-0.8-20.2-9.9-20.2-9.9c8.6,7.2,11.1,8.5,20.2,15c8.7-4.1,18.9-8.5,27.6-12.6
	c5.4-2.5,10.8-5.2,16.2-7.6C139.3,218.7,139.4,218.7,138.8,214.9z"/>
<path class="st0" d="M92.2,213.5c-2.8-0.7-18.6-6.3-20.2-7.2c2.3,2.1,18.1,11.5,20.2,12.5c8.5-3.1,18.2-6.5,26.7-9.6
	c6.6-2.4,13.2-4.8,19.9-7.2c0-1.2,0-2.4,0-3.8c-2.6,0.5-5.2,0.9-7.7,1.4c-3.9,0.7-7.7,1.5-11.5,2.2c-3.9,0.7-7.8,1.5-11.8,2.2
	c-3.8,0.7-7.5,1.3-11.2,2c-1.3,0.2-3.1,0.4-4.4,0.5C92.2,209.9,92.2,210.1,92.2,213.5z"/>
<path class="st0" d="M138.8,185.2c0-1.3,0-2.5,0-3.9c-15.6,1.2-30.8,2.2-46.6,3.4c0,3,0,4.5,0,7.5c-6.4-1.9-9.4-2.9-18.5-6.3
	l-1.8-0.7c11.6,7.2,20.2,12.1,20.2,12.1c7.8-1.9,17.3-4.7,25-6.6c5.8-1.5,11.7-3.1,17.6-4.6C135.9,185.8,137.2,185.5,138.8,185.2z"
	/>
<path class="st0" d="M138.8,168.9c0-1.2,0-2.3,0-3.5c-4.3-0.2-8.5-0.3-12.7-0.5c-10.8-0.4-23.2-0.7-33.9-1.1c0,1,0,8.2,0,8.5
	c-4.6-0.8-12.1-1.9-20.2-3.5c0,0,17,6.1,20.2,7.2c0,0,2.5-0.6,4.8-0.8c3.5-0.4,6.9-1.1,10.2-1.6c5.2-0.8,10.3-1.5,15.5-2.2
	c4.4-0.7,8.9-1.3,13.3-2C137,169.3,137.9,169,138.8,168.9z"/>
<path class="st0" d="M138.8,97c0.5-3.3,0.5-3.3-2.9-4.8c-7.7-3.6-15.3-7.2-23-10.8c-6.5-3-13-6.1-19.5-9.2C93.1,72,92.8,72,92.2,72
	c0,2.4,0,4.7,0,6.9c0,1.4-0.5,2.1-1.9,2.8C82,86.2,80,87.4,71.8,92.1c8.5-4.1,10.7-3.7,19.2-7.8c0.8-0.4,2-0.5,2.8-0.2
	c8.8,2.5,17.6,5,26.3,7.5c5.8,1.7,11.6,3.5,17.3,5.2C137.9,97,138.4,96.9,138.8,97z"/>
<path class="st0" d="M138.8,151.2c0-1.2,0-2.2,0-3.4c-6-0.8-11.9-1.6-17.8-2.5c-6.2-0.9-12.4-1.9-18.6-2.8c-3-0.4-7.3-0.9-10.2-1.3
	c0,0,0,0.6,0,1.4c0,2.4,0,4.7,0,7.3c-9.4,0-16.7,0.4-20.2,0.4c6.4,1,20.2,2.8,20.2,2.8s11.7-0.7,20.8-0.9c6.2-0.1,12.4-0.3,18.6-0.6
	C133.9,151.5,136.3,151.3,138.8,151.2z"/>
<path class="st0" d="M92.2,94.6c0,2.4,0,4.6,0,6.7c0,1.7-0.8,2.3-2.5,3.1c-3.4,1.5-5.4,2.4-17.5,8.2c8.1-2.2,11.8-3.7,19.3-5.6
	c1.5-0.4,3.3-0.1,4.9,0.2c7.4,1.3,14.8,2.7,22.1,4.1c6.2,1.2,12.5,2.3,18.7,3.5c0.5,0.1,1,0.1,1.6,0.1c0.7-3,0.6-3.3-2.7-4.5
	c-11.4-4.1-22.8-8.1-34.3-12.2c-2.5-0.9-5-1.9-7.5-2.8C93.7,95,93.2,94.8,92.2,94.6z"/>
<path class="st0" d="M92.2,117.3c0,2.7,0,4.8,0,7c0.1,1.5-0.7,1.9-2.6,2.4c-3.9,0.8-17.6,4.1-17.6,4.1c7.8-0.7,9.8-0.5,17.5-1
	c5.5-0.3,11.1,0.3,16.6,0.6c3.6,0.2,7.2,0.7,10.9,1c7,0.5,13.9,0.9,20.9,1.3c0.2,0,0.5-0.1,0.9-0.1c0-1.2,0-2.2,0-3.4
	C123.3,125.2,108.1,121.3,92.2,117.3z"/>
</svg>
