<svg xmlns="http://www.w3.org/2000/svg" xmlns:xlink="http://www.w3.org/1999/xlink" width="1000" zoomAndPan="magnify" viewBox="0 0 750 225" height="300" preserveAspectRatio="xMidYMid meet" version="1.0"><defs><clipPath id="f2c714b770"><path d="M 639 87 L 717 87 L 717 164.421875 L 639 164.421875 Z M 639 87 " clip-rule="nonzero"/></clipPath><clipPath id="ac6d7fb24c"><path d="M 364 87 L 439 87 L 439 164.421875 L 364 164.421875 Z M 364 87 " clip-rule="nonzero"/></clipPath><clipPath id="108ad55b6f"><path d="M 284 87 L 364 87 L 364 164.421875 L 284 164.421875 Z M 284 87 " clip-rule="nonzero"/></clipPath><clipPath id="d899cfa614"><path d="M 121 87 L 201 87 L 201 164.421875 L 121 164.421875 Z M 121 87 " clip-rule="nonzero"/></clipPath></defs><g clip-path="url(#f2c714b770)"><path fill="#0056a8" d="M 708.808594 152.566406 C 703.3125 158.332031 697.078125 161.769531 689.261719 163.339844 C 683.988281 164.40625 679.367188 164.628906 674.003906 164.074219 C 666.894531 163.34375 661.03125 161.066406 655.308594 156.796875 C 650.632812 153.316406 647.28125 149.550781 644.355469 144.507812 C 642.097656 140.601562 640.78125 136.949219 640.050781 132.5 C 639.023438 126.328125 639.292969 120.898438 640.921875 114.867188 C 644.640625 101.140625 654.992188 91.410156 668.9375 88.515625 C 676.90625 86.863281 683.988281 87.035156 691.863281 89.0625 C 697.46875 90.507812 701.925781 92.945312 706.167969 96.882812 C 708.84375 99.359375 710.746094 101.847656 712.429688 105.070312 C 714.425781 108.882812 715.234375 112.582031 715.003906 116.875 L 690.125 116.875 C 689.585938 113.546875 687.988281 110.898438 685.304688 108.859375 C 681.824219 106.214844 677.335938 106.003906 673.617188 108.296875 C 671.078125 109.875 669.40625 112.019531 668.507812 114.867188 C 666.363281 121.644531 666.269531 127.953125 668.179688 134.800781 C 668.992188 137.679688 670.359375 139.9375 672.542969 141.988281 C 675.027344 144.359375 678.128906 145.332031 681.535156 144.832031 C 683.640625 144.523438 685.355469 143.605469 686.777344 142.011719 C 688.265625 140.367188 689.117188 138.601562 689.507812 136.417969 C 689.78125 134.882812 689.933594 133.582031 690.019531 132.023438 L 716.246094 132.023438 C 716.769531 139.914062 714.261719 146.84375 708.808594 152.566406 " fill-opacity="1" fill-rule="nonzero"/></g><path fill="#0056a8" d="M 608.535156 79.539062 L 635.742188 79.539062 L 635.742188 60.363281 L 608.535156 60.363281 Z M 608.535156 79.539062 " fill-opacity="1" fill-rule="nonzero"/><path fill="#0056a8" d="M 608.535156 161.988281 L 635.742188 161.988281 L 635.742188 89.394531 L 608.535156 89.394531 Z M 608.535156 161.988281 " fill-opacity="1" fill-rule="nonzero"/><path fill="#0056a8" d="M 552.171875 97.054688 C 555.75 93.933594 559.164062 91.730469 563.480469 89.738281 C 570.507812 86.5 577.539062 85.972656 584.972656 88.140625 C 592.945312 90.46875 598.691406 96.066406 601.207031 103.972656 C 602.414062 107.769531 602.9375 111.140625 602.9375 115.125 L 602.9375 161.976562 L 574.042969 161.976562 L 574.042969 119.84375 C 574.042969 118.433594 573.871094 117.242188 573.449219 115.890625 C 572.710938 113.472656 571.105469 111.691406 568.765625 110.707031 C 563.644531 108.535156 557.820312 110.457031 555.007812 115.246094 C 553.832031 117.242188 553.296875 119.210938 553.296875 121.527344 L 553.296875 161.976562 L 525.3125 161.976562 L 525.3125 89.382812 L 551.566406 89.382812 L 552.171875 97.054688 " fill-opacity="1" fill-rule="nonzero"/><path fill="#0056a8" d="M 230.375 97.054688 C 233.953125 93.933594 237.363281 91.730469 241.671875 89.738281 C 248.707031 86.5 255.738281 85.972656 263.167969 88.140625 C 271.148438 90.46875 276.890625 96.066406 279.40625 103.972656 C 280.617188 107.769531 281.136719 111.140625 281.136719 115.125 L 281.136719 161.976562 L 252.242188 161.976562 L 252.242188 119.84375 C 252.242188 118.433594 252.0625 117.242188 251.652344 115.890625 C 250.90625 113.472656 249.304688 111.691406 246.957031 110.707031 C 241.839844 108.535156 236.015625 110.457031 233.207031 115.246094 C 232.03125 117.242188 231.496094 119.210938 231.496094 121.527344 L 231.496094 161.976562 L 203.511719 161.976562 L 203.511719 89.382812 L 229.761719 89.382812 L 230.375 97.054688 " fill-opacity="1" fill-rule="nonzero"/><g clip-path="url(#ac6d7fb24c)"><path fill="#0056a8" d="M 401.867188 135.296875 C 403.949219 135.648438 405.695312 136.082031 407.695312 136.75 C 409.367188 137.296875 410.519531 138.589844 410.882812 140.300781 C 411.28125 142.167969 410.753906 143.941406 409.410156 145.285156 C 408.042969 146.664062 406.488281 147.460938 404.570312 147.757812 C 402.003906 148.167969 399.730469 147.957031 397.285156 147.070312 C 396.101562 146.648438 395.164062 146.113281 394.191406 145.316406 C 392.941406 144.265625 392.136719 143.058594 391.648438 141.5 C 391.242188 140.179688 391.082031 139.011719 391.105469 137.628906 L 364.460938 137.628906 L 364.460938 139.179688 C 364.460938 141.679688 364.851562 143.800781 365.730469 146.140625 C 367.066406 149.660156 368.898438 152.382812 371.664062 154.949219 C 375.269531 158.316406 379.035156 160.417969 383.78125 161.769531 C 393.628906 164.570312 402.5 165.125 412.625 163.578125 C 417.375 162.851562 421.292969 161.574219 425.566406 159.367188 C 427.445312 158.394531 428.953125 157.390625 430.578125 156.03125 C 437.773438 150 440.445312 140.796875 437.566406 131.871094 C 436.480469 128.507812 434.761719 125.914062 432.082031 123.597656 C 428.414062 120.425781 424.699219 118.402344 420.03125 117.042969 C 419.011719 116.75 418.140625 116.5 417.109375 116.21875 C 411.402344 114.636719 406.5 113.59375 400.636719 112.726562 C 399.070312 112.492188 397.75 112.238281 396.199219 111.878906 C 395.484375 111.710938 394.890625 111.511719 394.226562 111.207031 C 392.589844 110.472656 391.863281 108.546875 392.601562 106.914062 C 392.640625 106.828125 392.679688 106.75 392.726562 106.664062 C 393.605469 105.09375 394.910156 104.074219 396.628906 103.570312 C 399.671875 102.695312 402.472656 102.769531 405.457031 103.78125 C 408.320312 104.757812 410.117188 107.378906 409.996094 110.398438 L 435.667969 110.398438 C 435.644531 107.25 435.164062 104.589844 434.101562 101.632812 C 433.011719 98.632812 431.359375 96.351562 428.847656 94.375 C 426.664062 92.644531 424.59375 91.46875 421.992188 90.464844 C 419.460938 89.480469 417.226562 88.867188 414.546875 88.398438 C 408.183594 87.308594 402.710938 86.988281 396.265625 87.367188 C 392.585938 87.582031 389.480469 88.035156 385.875 88.875 C 381.027344 90.015625 377.121094 91.882812 373.203125 94.949219 C 369.875 97.554688 367.695312 100.597656 366.300781 104.582031 C 365.664062 106.386719 365.359375 107.992188 365.277344 109.890625 C 365.132812 113.078125 365.59375 115.789062 366.777344 118.75 C 368.894531 124.050781 372.65625 127.808594 377.976562 129.925781 C 380.671875 130.996094 383.03125 131.703125 385.875 132.28125 C 391.480469 133.4375 396.226562 134.335938 401.867188 135.296875 " fill-opacity="1" fill-rule="nonzero"/></g><path fill="#0056a8" d="M 83.355469 130.679688 L 64.683594 130.679688 L 64.683594 106.859375 L 76.816406 106.859375 C 79.121094 106.859375 81.070312 106.804688 83.375 106.675781 C 86.566406 106.503906 89.21875 105.078125 91.121094 102.515625 C 92.128906 101.152344 92.699219 99.777344 92.9375 98.09375 C 93.140625 96.679688 93.167969 95.46875 93.027344 94.054688 C 92.507812 88.753906 88.109375 84.777344 82.773438 84.777344 L 64.683594 84.777344 L 64.683594 161.980469 L 33.773438 161.980469 L 33.773438 60.351562 L 84.296875 60.351562 C 86.304688 60.351562 88.003906 60.390625 90.007812 60.5 C 103.414062 61.21875 114.457031 68.644531 120.132812 80.777344 C 123.089844 87.09375 124.09375 93.167969 123.335938 100.101562 C 121.730469 114.695312 111.5 126.046875 97.125 129.191406 C 92.359375 130.234375 88.230469 130.679688 83.355469 130.679688 " fill-opacity="1" fill-rule="nonzero"/><path fill="#0056a8" d="M 489.140625 88 C 486.265625 87.542969 483.808594 87.355469 480.898438 87.355469 C 477.984375 87.355469 475.53125 87.542969 472.648438 88 C 464.296875 89.304688 457.53125 92.652344 451.433594 98.492188 C 444.90625 104.753906 441.332031 112.15625 440.515625 121.148438 C 440.015625 126.671875 440.445312 131.429688 441.933594 136.765625 C 444.21875 144.960938 448.507812 151.289062 455.273438 156.457031 C 459.726562 159.875 464.15625 161.921875 469.644531 163.113281 C 473.542969 163.964844 476.910156 164.316406 480.898438 164.316406 C 484.882812 164.316406 488.253906 163.964844 492.15625 163.113281 C 497.640625 161.921875 502.070312 159.875 506.523438 156.457031 L 490.890625 139.460938 C 488.402344 144.96875 481.925781 147.425781 476.402344 144.941406 C 473.859375 143.800781 472.050781 142.003906 470.902344 139.460938 C 469.84375 137.109375 469.226562 135.007812 468.84375 132.457031 C 468.070312 127.359375 468.15625 122.929688 469.160156 117.863281 C 469.667969 115.234375 470.550781 113.089844 472.019531 110.847656 C 475.230469 105.957031 481.808594 104.589844 486.71875 107.792969 C 488 108.632812 488.9375 109.570312 489.773438 110.847656 C 491.246094 113.089844 492.128906 115.234375 492.636719 117.863281 C 493.625 122.929688 493.726562 127.359375 492.953125 132.457031 C 492.566406 135.007812 491.949219 137.109375 490.890625 139.460938 L 506.523438 156.457031 C 513.292969 151.289062 517.582031 144.960938 519.859375 136.765625 C 521.351562 131.429688 521.773438 126.671875 521.28125 121.148438 C 520.464844 112.15625 516.898438 104.753906 510.367188 98.492188 C 504.265625 92.644531 497.503906 89.304688 489.140625 88 " fill-opacity="1" fill-rule="nonzero"/><g clip-path="url(#108ad55b6f)"><path fill="#0056a8" d="M 361.476562 156.296875 C 361.066406 150.316406 360.839844 145.25 360.71875 139.246094 C 360.5625 131.363281 360.464844 124.710938 360.414062 116.828125 C 360.378906 112.574219 359.910156 108.984375 358.84375 104.867188 C 357.445312 99.472656 354.277344 95.371094 349.398438 92.644531 C 346.453125 91 343.75 89.992188 340.453125 89.277344 C 329.960938 87.039062 320.699219 86.851562 310.125 88.683594 C 307.152344 89.195312 304.695312 89.90625 301.90625 91.058594 C 295.460938 93.71875 291.023438 98.5625 288.957031 105.203125 C 288.164062 107.742188 287.953125 110.042969 288.257812 112.691406 C 288.3125 113.175781 288.433594 113.585938 288.65625 114.027344 L 313.136719 114.625 C 313.078125 113.066406 313.28125 111.75 313.808594 110.289062 C 314.609375 108.0625 316.183594 106.480469 318.417969 105.667969 C 321.703125 104.460938 324.867188 104.417969 328.195312 105.5 C 330.382812 106.21875 331.933594 107.792969 332.617188 109.984375 C 333.042969 111.355469 332.832031 112.703125 332 113.875 C 331.277344 114.910156 330.386719 115.605469 329.203125 116.058594 C 328.472656 116.335938 327.851562 116.539062 327.101562 116.738281 C 323.699219 117.652344 320.792969 118.28125 317.320312 118.859375 C 314.566406 119.308594 312.25 119.738281 309.523438 120.292969 C 305.816406 121.023438 302.71875 121.835938 299.128906 122.996094 C 295.839844 124.054688 293.25 125.5625 290.710938 127.894531 C 287.40625 130.910156 285.515625 134.484375 284.886719 138.921875 C 284.46875 141.878906 284.566406 144.453125 285.222656 147.367188 C 286.9375 154.9375 292.203125 160.535156 299.679688 162.707031 C 307.964844 165.105469 315.742188 164.710938 323.742188 161.488281 C 327.632812 159.925781 330.597656 157.761719 333.277344 154.539062 L 331.550781 142.058594 C 330.316406 143.964844 328.785156 145.265625 326.714844 146.175781 C 324.769531 147.035156 323.015625 147.484375 320.902344 147.703125 C 319.140625 147.875 317.613281 147.746094 315.90625 147.269531 C 314.519531 146.890625 313.4375 146.242188 312.453125 145.199219 C 311.625 144.304688 311.128906 143.34375 310.875 142.152344 C 310.488281 140.320312 311.09375 138.558594 312.523438 137.347656 C 313.484375 136.53125 314.421875 135.984375 315.597656 135.554688 C 318.441406 134.511719 320.867188 133.726562 323.777344 132.902344 C 327.296875 131.914062 330.210938 130.839844 333.535156 129.316406 C 333.859375 131.972656 333.84375 134.246094 333.476562 136.886719 C 333.207031 138.824219 332.617188 140.421875 331.550781 142.058594 L 333.277344 154.539062 C 333.8125 156.3125 334.304688 157.792969 334.910156 159.53125 C 335.257812 160.503906 335.703125 161.257812 336.386719 162.015625 L 363.355469 162.015625 C 362.207031 160.214844 361.621094 158.433594 361.476562 156.296875 " fill-opacity="1" fill-rule="nonzero"/></g><g clip-path="url(#d899cfa614)"><path fill="#0056a8" d="M 198.125 156.296875 C 197.71875 150.316406 197.488281 145.25 197.371094 139.246094 C 197.207031 131.363281 197.117188 124.710938 197.0625 116.828125 C 197.035156 112.574219 196.5625 108.984375 195.492188 104.867188 C 194.09375 99.472656 190.929688 95.371094 186.050781 92.644531 C 183.101562 91 180.398438 89.992188 177.101562 89.277344 C 166.609375 87.039062 157.347656 86.851562 146.769531 88.683594 C 143.804688 89.195312 141.339844 89.90625 138.554688 91.058594 C 132.113281 93.71875 127.675781 98.5625 125.609375 105.203125 C 124.820312 107.742188 124.601562 110.042969 124.910156 112.691406 C 124.964844 113.175781 125.085938 113.585938 125.304688 114.027344 L 149.789062 114.625 C 149.730469 113.066406 149.929688 111.75 150.457031 110.289062 C 151.257812 108.0625 152.835938 106.480469 155.070312 105.667969 C 158.355469 104.460938 161.515625 104.417969 164.839844 105.5 C 167.03125 106.21875 168.589844 107.792969 169.273438 109.984375 C 169.695312 111.355469 169.480469 112.703125 168.652344 113.875 C 167.925781 114.910156 167.03125 115.605469 165.855469 116.058594 C 165.121094 116.335938 164.5 116.539062 163.75 116.738281 C 160.347656 117.652344 157.4375 118.28125 153.96875 118.859375 C 151.21875 119.308594 148.898438 119.738281 146.167969 120.292969 C 142.464844 121.023438 139.375 121.835938 135.773438 122.996094 C 132.496094 124.054688 129.902344 125.5625 127.359375 127.894531 C 124.054688 130.910156 122.171875 134.484375 121.535156 138.921875 C 121.117188 141.878906 121.214844 144.453125 121.875 147.367188 C 123.582031 154.9375 128.859375 160.535156 136.324219 162.707031 C 144.621094 165.105469 152.386719 164.710938 160.390625 161.488281 C 164.28125 159.925781 167.253906 157.761719 169.929688 154.539062 L 168.203125 142.058594 C 166.96875 143.964844 165.433594 145.265625 163.359375 146.175781 C 161.421875 147.035156 159.660156 147.484375 157.554688 147.703125 C 155.785156 147.875 154.269531 147.746094 152.558594 147.269531 C 151.171875 146.890625 150.085938 146.242188 149.109375 145.199219 C 148.273438 144.304688 147.777344 143.34375 147.527344 142.152344 C 147.144531 140.320312 147.742188 138.558594 149.175781 137.347656 C 150.128906 136.53125 151.066406 135.984375 152.246094 135.554688 C 155.089844 134.511719 157.523438 133.726562 160.433594 132.902344 C 163.953125 131.914062 166.863281 130.839844 170.1875 129.316406 C 170.511719 131.972656 170.496094 134.246094 170.125 136.886719 C 169.855469 138.824219 169.261719 140.421875 168.203125 142.058594 L 169.929688 154.539062 C 170.460938 156.3125 170.957031 157.792969 171.566406 159.53125 C 171.90625 160.503906 172.355469 161.257812 173.035156 162.015625 L 200.003906 162.015625 C 198.855469 160.214844 198.273438 158.433594 198.125 156.296875 " fill-opacity="1" fill-rule="nonzero"/></g></svg>