<svg xmlns="http://www.w3.org/2000/svg" xmlns:xlink="http://www.w3.org/1999/xlink" width="1000" zoomAndPan="magnify" viewBox="0 0 750 225" height="300" preserveAspectRatio="xMidYMid meet" version="1.0"><defs><clipPath id="c5145ce31e"><path d="M 107.027344 12 L 302 12 L 302 207 L 107.027344 207 Z M 107.027344 12 " clip-rule="nonzero"/></clipPath><clipPath id="ce04b35b7b"><path d="M 285.15625 105.5 L 296.671875 105.511719 C 297.523438 105.511719 298.398438 105.511719 299.214844 105.683594 C 301.1875 106.117188 302.125 108.054688 301.144531 109.824219 L 299.183594 112.148438 C 292.074219 119.164062 284.992188 126.199219 277.796875 133.117188 C 274.292969 136.480469 272.980469 140.285156 273.882812 145.121094 L 279.378906 176.359375 C 282.234375 192.230469 269.992188 206.679688 253.875 206.292969 C 249.898438 206.195312 246.160156 205.097656 242.613281 203.234375 L 214.511719 188.503906 C 210.117188 186.132812 206.011719 186.207031 201.65625 188.578125 L 173.597656 203.414062 C 158.515625 211.28125 140.628906 202.824219 137.136719 186.195312 C 136.21875 181.855469 136.8125 177.542969 137.566406 173.234375 L 142.414062 145.003906 C 143.179688 140.554688 141.941406 136.835938 138.621094 133.65625 L 115.476562 111.191406 C 110.113281 105.953125 107.570312 99.519531 107.796875 92.066406 C 108.152344 80.382812 116.953125 70.210938 128.484375 68.335938 L 159.097656 63.746094 C 159.9375 63.617188 160.777344 63.457031 161.628906 63.347656 C 166.324219 62.777344 169.363281 60.136719 171.195312 55.882812 L 181.476562 32.175781 C 182.488281 29.828125 183.578125 27.511719 184.515625 25.128906 C 187.023438 18.75 191.703125 14.882812 198.316406 13.363281 C 205.914062 11.605469 213.121094 12.640625 219.542969 17.167969 C 221.503906 18.546875 223.21875 20.539062 224.480469 22.597656 L 245.554688 57.703125 C 247.429688 60.847656 250.230469 62.617188 253.808594 63.132812 L 286.988281 67.851562 C 288 67.992188 289.035156 68.101562 289.992188 68.445312 C 292.210938 69.230469 292.761719 71.667969 291.144531 73.402344 L 290.121094 74.296875 C 284.140625 79.113281 278.648438 83.445312 273.257812 87.90625 C 268.917969 91.503906 264.003906 92.90625 258.476562 92.140625 L 236.441406 89.003906 C 231.785156 88.347656 228.464844 85.921875 226.257812 81.753906 L 209.664062 50.871094 C 209.339844 50.269531 209.058594 49.644531 208.652344 49.09375 C 207.574219 47.648438 205.847656 47.628906 204.804688 49.070312 L 203.769531 51.117188 C 199.246094 61.054688 194.652344 70.957031 190.257812 80.957031 C 188.082031 85.914062 184.472656 88.445312 179.171875 89.175781 L 145.261719 94.199219 C 144.753906 94.273438 144.226562 94.296875 143.753906 94.46875 C 142.050781 95.082031 141.53125 96.707031 142.597656 98.152344 L 144.375 99.984375 C 152.394531 107.773438 160.410156 115.578125 168.449219 123.34375 C 170.796875 125.609375 172.585938 128.183594 172.792969 131.503906 L 172.414062 136.824219 C 170.550781 148.007812 168.621094 159.183594 166.691406 170.355469 C 166.488281 171.519531 166.421875 172.566406 167.445312 173.375 C 168.589844 174.28125 169.6875 173.828125 170.785156 173.246094 L 194.082031 160.929688 C 196.496094 159.65625 198.941406 158.441406 201.3125 157.082031 C 205.9375 154.433594 210.441406 154.476562 215.160156 157.007812 L 245.058594 172.71875 C 246.308594 173.375 247.558594 174.410156 249.070312 173.300781 C 250.578125 172.1875 249.953125 170.734375 249.714844 169.3125 L 243.777344 134.777344 C 243.066406 130.695312 244.070312 127.128906 246.96875 124.207031 L 260.457031 110.898438 C 264.121094 107.398438 268.5625 105.597656 273.648438 105.523438 L 285.164062 105.511719 Z M 285.15625 105.5 " clip-rule="nonzero"/></clipPath><clipPath id="c89a8d68a4"><path d="M 312 51.074219 L 425.902344 51.074219 L 425.902344 152.582031 L 312 152.582031 Z M 312 51.074219 " clip-rule="nonzero"/></clipPath><clipPath id="300d050875"><path d="M 339.5 152.113281 L 313.371094 152.113281 C 312.789062 150.035156 312.722656 108.429688 313.339844 105.566406 L 316.507812 105.566406 C 339.371094 105.585938 362.234375 105.617188 385.101562 105.609375 L 391.210938 105.175781 C 395.574219 104.433594 398.203125 101.914062 398.539062 97.515625 C 398.871094 93.035156 398.871094 88.476562 398.503906 83.992188 C 398.148438 79.660156 395.789062 77.527344 391.414062 76.847656 L 385.304688 76.441406 C 362.355469 76.417969 339.402344 76.417969 316.453125 76.417969 L 313.21875 76.417969 C 313.113281 75.652344 312.941406 75.015625 312.941406 74.371094 L 312.941406 55.945312 C 312.941406 55.179688 312.984375 54.394531 313.167969 53.660156 C 313.488281 52.398438 314.328125 51.59375 315.664062 51.417969 L 316.863281 51.332031 C 342.796875 51.34375 368.140625 51.34375 393.472656 51.375 C 398.300781 51.386719 402.964844 52.398438 407.460938 54.113281 C 416.167969 57.433594 421.488281 63.800781 423.890625 72.699219 C 424.980469 76.753906 425.667969 80.867188 425.636719 85.082031 L 425.550781 99.152344 C 425.261719 105.414062 424.0625 111.492188 420.886719 117.050781 C 417.609375 122.785156 412.644531 126.230469 406.414062 128.0625 C 401.039062 129.648438 395.5 129.894531 389.949219 129.894531 L 343.109375 129.90625 C 342.023438 129.90625 340.933594 129.992188 339.617188 130.058594 L 339.617188 137.664062 C 339.617188 140.054688 339.640625 142.4375 339.609375 144.828125 L 339.511719 152.113281 " clip-rule="nonzero"/></clipPath><clipPath id="62de73cdaa"><path d="M 430 51.074219 L 569 51.074219 L 569 152.582031 L 430 152.582031 Z M 430 51.074219 " clip-rule="nonzero"/></clipPath><clipPath id="c6dccc2e42"><path d="M 430.066406 51.417969 L 461.757812 51.417969 C 462.164062 52.238281 462.597656 53.058594 462.984375 53.886719 L 495.945312 125.1875 C 496.054688 125.414062 496.183594 125.640625 496.269531 125.875 C 496.851562 127.417969 497.667969 128.460938 499.609375 128.417969 C 501.441406 128.375 502.085938 127.332031 502.722656 125.929688 L 514.359375 100.867188 C 521.699219 85.09375 529.035156 69.316406 536.375 53.542969 L 537.429688 51.441406 L 568.753906 51.441406 C 568.246094 52.703125 567.925781 53.726562 567.449219 54.683594 L 524.175781 142.308594 C 523.003906 144.679688 521.816406 147.039062 520.664062 149.421875 C 519.746094 151.304688 518.261719 152.210938 516.171875 152.210938 L 482.628906 152.222656 C 479.964844 152.234375 478.382812 150.949219 477.273438 148.644531 L 467.046875 127.71875 C 455.152344 103.367188 443.234375 79.003906 431.328125 54.640625 L 430.078125 51.417969 " clip-rule="nonzero"/></clipPath><clipPath id="c3ab9a28dd"><path d="M 578.71875 51 L 605.625 51 L 605.625 152.582031 L 578.71875 152.582031 Z M 578.71875 51 " clip-rule="nonzero"/></clipPath><clipPath id="ac62682f2a"><path d="M 578.894531 152.027344 L 578.894531 51.785156 C 580.8125 51.246094 600.765625 51.0625 604.949219 51.515625 C 605.464844 53.316406 605.605469 148.847656 605.066406 152.027344 Z M 578.894531 152.027344 " clip-rule="nonzero"/></clipPath><clipPath id="4989727354"><path d="M 327 161.042969 L 363.480469 161.042969 L 363.480469 207 L 327 207 Z M 327 161.042969 " clip-rule="nonzero"/></clipPath><clipPath id="0b34c730c5"><path d="M 356.394531 193.628906 L 356.589844 190.980469 C 356.613281 182.964844 356.601562 174.9375 356.601562 166.917969 L 356.578125 165.722656 C 356.699219 162.847656 357.699219 161.832031 359.898438 161.8125 C 362.117188 161.789062 363.214844 162.761719 363.25 165.042969 L 363.28125 177.585938 C 363.28125 185.429688 363.28125 193.285156 363.28125 201.128906 L 363.214844 203.425781 C 363.023438 204.914062 362.214844 205.761719 360.738281 205.882812 L 356.644531 205.894531 C 355.179688 205.816406 354.476562 204.707031 353.800781 203.585938 L 341.839844 184.222656 C 340.09375 181.390625 338.359375 178.554688 336.589844 175.734375 L 335.105469 173.675781 C 334.027344 174.644531 334.316406 175.636719 334.316406 176.507812 L 334.296875 200.570312 C 334.296875 201.25 334.328125 201.9375 334.273438 202.617188 C 334.070312 205.320312 331.925781 206.679688 329.382812 205.730469 C 328.335938 205.332031 327.734375 204.535156 327.550781 203.457031 L 327.484375 202.273438 C 327.484375 189.816406 327.476562 177.953125 327.484375 166.101562 C 327.484375 162.554688 328.335938 161.875 331.816406 161.628906 C 334.683594 161.421875 336.34375 162.578125 337.777344 164.992188 L 353.90625 191.410156 C 354.425781 192.25 355.015625 193.039062 355.578125 193.847656 L 356.125 193.71875 " clip-rule="nonzero"/></clipPath><clipPath id="668eb054b6"><path d="M 527.0625 161.042969 L 563.652344 161.042969 L 563.652344 206 L 527.0625 206 Z M 527.0625 161.042969 " clip-rule="nonzero"/></clipPath><clipPath id="a3eb729380"><path d="M 534.726562 173.730469 C 533.410156 174.644531 533.820312 175.765625 533.820312 176.691406 L 533.800781 200.503906 C 533.800781 201.183594 533.820312 201.875 533.789062 202.550781 C 533.691406 204.921875 532.765625 205.871094 530.554688 205.902344 C 528.21875 205.9375 527.152344 204.957031 527.140625 202.476562 L 527.140625 165.097656 C 527.140625 162.804688 528.109375 161.867188 530.371094 161.691406 L 531.570312 161.714844 C 534.359375 161.5 535.804688 162.4375 536.957031 164.34375 L 553.691406 191.605469 C 554.152344 192.359375 554.714844 193.070312 555.261719 193.835938 C 556.640625 192.953125 556.242188 191.820312 556.242188 190.882812 L 556.265625 166.8125 C 556.265625 166.132812 556.242188 165.441406 556.285156 164.765625 C 556.414062 162.714844 557.527344 161.683594 559.5625 161.671875 C 561.609375 161.660156 562.742188 162.695312 562.902344 164.722656 L 562.925781 165.746094 C 562.925781 177.953125 562.925781 189.644531 562.925781 201.335938 L 563.042969 202.734375 C 562.65625 204.0625 562.320312 204.914062 561.769531 205.277344 C 560.015625 206.453125 557.96875 205.839844 556.039062 205.816406 C 554.808594 205.808594 554.164062 204.78125 553.570312 203.8125 L 542.410156 185.734375 C 540.351562 182.390625 538.292969 179.050781 536.222656 175.722656 L 534.746094 173.707031 " clip-rule="nonzero"/></clipPath><clipPath id="d7580772f6"><path d="M 447.425781 160 L 476 160 L 476 206.589844 L 447.425781 206.589844 Z M 447.425781 160 " clip-rule="nonzero"/></clipPath><clipPath id="70f2159109"><path d="M 454.257812 174.289062 L 454.265625 174.289062 L 454.289062 179.65625 C 454.363281 181.273438 455.066406 181.949219 456.671875 182.070312 L 460.246094 182.058594 C 463.910156 181.734375 466.421875 179.742188 467.757812 176.390625 C 469.449219 172.1875 466.875 167.554688 462.46875 166.457031 C 460.386719 165.9375 458.394531 166.292969 456.402344 166.714844 C 454.839844 167.046875 454.320312 167.792969 454.265625 169.441406 L 454.257812 174.300781 M 454.375 187.769531 L 454.257812 190.636719 C 454.246094 194.558594 454.289062 198.480469 454.234375 202.402344 C 454.203125 204.75 452.953125 205.925781 450.765625 205.871094 C 448.835938 205.816406 447.78125 204.878906 447.542969 202.953125 L 447.488281 201.59375 C 447.488281 189.742188 447.488281 178.578125 447.488281 167.414062 L 447.640625 165.140625 C 447.964844 164.332031 448.503906 163.308594 449.214844 163.007812 C 454.234375 160.894531 459.472656 159.613281 464.890625 161.046875 C 470.019531 162.402344 473.726562 165.582031 474.75 171.003906 C 475.808594 176.628906 473.769531 181.207031 469.253906 184.699219 L 468.683594 185.0625 C 466.710938 186.421875 466.648438 186.539062 467.628906 188.320312 L 474.007812 199.6875 C 474.210938 200.0625 474.4375 200.417969 474.632812 200.796875 C 475.816406 203.027344 475.625 204.578125 474.050781 205.484375 C 472.207031 206.539062 469.503906 205.945312 468.457031 204.09375 L 461.054688 190.65625 C 459.136719 187.175781 458.835938 187.035156 454.375 187.789062 " clip-rule="nonzero"/></clipPath><clipPath id="daa5b94a79"><path d="M 480 161.042969 L 522 161.042969 L 522 206.589844 L 480 206.589844 Z M 480 161.042969 " clip-rule="nonzero"/></clipPath><clipPath id="4655402473"><path d="M 493.121094 188.933594 L 494.210938 189.546875 C 498.683594 189.589844 502.765625 189.644531 506.859375 189.578125 C 508.390625 189.558594 508.714844 188.921875 508.058594 187.328125 L 502.097656 173.210938 C 501.894531 172.738281 501.386719 172.402344 500.632812 171.585938 L 493.132812 188.945312 M 500.878906 161.734375 C 503.433594 161.433594 504.835938 162.414062 505.761719 164.679688 L 520.890625 200.773438 C 521.019531 201.085938 521.179688 201.398438 521.289062 201.722656 C 521.902344 203.597656 521.460938 204.988281 520.039062 205.6875 C 518.304688 206.539062 515.976562 205.9375 515.167969 204.234375 L 512.398438 197.640625 C 511.742188 195.894531 510.71875 195.105469 508.769531 195.140625 L 493.15625 195.140625 C 491.28125 195.105469 490.128906 195.722656 489.4375 197.519531 L 486.625 203.824219 C 486.195312 204.652344 485.363281 205.527344 484.523438 205.828125 C 483.242188 206.292969 481.785156 206.214844 480.730469 205.050781 C 479.738281 203.941406 479.945312 202.714844 480.492188 201.464844 L 486.550781 187.359375 C 489.769531 179.839844 493.070312 172.339844 496.195312 164.773438 C 497.152344 162.449219 498.53125 161.273438 500.878906 161.734375 " clip-rule="nonzero"/></clipPath><clipPath id="93c3adc02d"><path d="M 403.300781 161.042969 L 439.890625 161.042969 L 439.890625 207 L 403.300781 207 Z M 403.300781 161.042969 " clip-rule="nonzero"/></clipPath><clipPath id="06ef593803"><path d="M 439.074219 182.5 L 439.117188 198.867188 C 439.171875 201.164062 438.320312 202.476562 436.261719 203.414062 C 430.894531 205.859375 425.292969 207.144531 419.398438 206.925781 C 411.835938 206.648438 403.675781 200.808594 403.816406 190.894531 L 403.839844 166.078125 C 403.839844 165.5625 403.808594 165.042969 403.871094 164.546875 C 404.121094 162.664062 405.238281 161.660156 407.113281 161.628906 C 409.171875 161.585938 410.367188 162.554688 410.605469 164.546875 L 410.648438 165.917969 C 410.648438 174.527344 410.886719 182.46875 410.585938 190.386719 C 410.304688 197.875 416.480469 202.152344 422.632812 201.140625 L 429.613281 199.71875 C 432.144531 198.984375 432.394531 198.492188 432.402344 195.859375 L 432.414062 166.953125 C 432.414062 166.273438 432.394531 165.582031 432.425781 164.902344 C 432.542969 162.738281 433.730469 161.628906 435.851562 161.683594 C 437.878906 161.726562 439.019531 162.75 439.042969 164.851562 L 439.0625 182.5 Z M 439.074219 182.5 " clip-rule="nonzero"/></clipPath><clipPath id="75287790cc"><path d="M 611.007812 162 L 637 162 L 637 206 L 611.007812 206 Z M 611.007812 162 " clip-rule="nonzero"/></clipPath><clipPath id="67edce2f4a"><path d="M 611.910156 183.945312 L 611.910156 167.316406 C 611.910156 166.640625 611.886719 165.949219 611.929688 165.269531 C 612.082031 162.898438 612.890625 162.046875 615.269531 162.027344 L 628.578125 162.003906 C 630.367188 162.003906 632.164062 161.996094 633.953125 162.015625 C 635.160156 162.027344 636.109375 162.535156 636.59375 163.675781 C 637.316406 165.378906 636.292969 167.175781 634.34375 167.4375 L 630.257812 167.523438 C 627.359375 167.53125 624.460938 167.488281 621.5625 167.542969 C 619.417969 167.585938 618.738281 168.210938 618.6875 170.25 L 618.6875 177.671875 C 618.738281 179.699219 619.449219 180.386719 621.542969 180.421875 L 631.777344 180.441406 C 632.457031 180.441406 633.144531 180.410156 633.824219 180.453125 C 635.753906 180.570312 636.851562 181.59375 636.84375 183.222656 C 636.832031 184.828125 635.699219 185.925781 633.804688 185.957031 L 623.058594 185.980469 C 622.382812 185.980469 621.691406 185.949219 621.011719 186.011719 C 619.503906 186.164062 618.761719 186.777344 618.71875 188.230469 L 618.730469 198.210938 C 618.78125 199.816406 619.613281 200.417969 621.53125 200.441406 L 632.53125 200.460938 C 633.210938 200.460938 633.910156 200.417969 634.570312 200.546875 C 636.066406 200.839844 636.9375 202.046875 636.820312 203.5 C 636.703125 204.859375 635.796875 205.808594 634.320312 205.945312 L 631.25 205.988281 C 626.132812 205.988281 621.011719 206 615.894531 205.988281 C 612.652344 205.980469 611.941406 205.3125 611.929688 202.109375 L 611.917969 183.945312 " clip-rule="nonzero"/></clipPath><clipPath id="4a67d97c04"><path d="M 569 160 L 606 160 L 606 207 L 569 207 Z M 569 160 " clip-rule="nonzero"/></clipPath><clipPath id="0aee93e203"><path d="M 593.644531 206.949219 C 584.980469 206.9375 577.75 203.953125 572.988281 196.421875 C 564.304688 182.671875 571.824219 163.742188 588.882812 160.9375 C 593.613281 160.164062 598.234375 160.617188 602.8125 161.800781 C 604.859375 162.328125 605.734375 163.652344 605.324219 165.292969 C 604.9375 166.84375 603.515625 167.457031 601.414062 167.125 C 598.804688 166.714844 596.199219 166.144531 593.578125 166.101562 C 584.582031 165.972656 577.027344 172.824219 576.113281 181.539062 C 575.066406 191.53125 582.070312 199.382812 590.175781 201 C 593.527344 201.667969 596.789062 201.378906 600.066406 200.710938 L 601.382812 200.355469 C 603.601562 200.019531 604.839844 200.753906 605.261719 202.121094 C 605.710938 203.597656 605.066406 205.148438 603.460938 205.570312 L 596.1875 206.917969 C 595.359375 207.046875 594.484375 206.9375 593.632812 206.9375 " clip-rule="nonzero"/></clipPath><clipPath id="43c7ecf648"><path d="M 369 160.390625 L 397.921875 160.390625 L 397.921875 207.890625 L 369 207.890625 Z M 369 160.390625 " clip-rule="nonzero"/></clipPath><clipPath id="dd39c87b27"><path d="M 385.113281 160.703125 L 391.4375 161.605469 C 391.945312 161.683594 392.4375 161.824219 392.925781 161.984375 C 394.703125 162.578125 395.488281 163.921875 395.015625 165.484375 C 394.574219 166.929688 393.269531 167.578125 391.566406 167.316406 L 384.238281 166.347656 C 382.515625 166.1875 380.867188 166.628906 379.378906 167.621094 C 375.886719 169.945312 375.511719 173.914062 378.625 176.671875 L 382.191406 179.136719 C 385.1875 180.9375 388.300781 182.566406 391.230469 184.460938 C 395.089844 186.960938 397.578125 190.355469 397.503906 195.214844 C 397.4375 198.996094 395.867188 201.972656 392.792969 204.113281 C 390.445312 205.753906 387.839844 206.699219 384.949219 206.960938 C 380.964844 207.304688 377.128906 206.722656 373.378906 205.40625 L 372.570312 205.117188 C 370.554688 204.082031 369.917969 202.402344 370.628906 200.851562 C 371.246094 199.503906 372.632812 199.019531 374.347656 199.566406 L 379.445312 201.207031 C 381.179688 201.527344 383.023438 201.648438 384.777344 201.476562 C 387.417969 201.226562 389.410156 199.804688 390.414062 197.273438 C 391.414062 194.742188 390.671875 192.433594 388.765625 190.765625 C 386.726562 188.988281 384.402344 187.519531 382.105469 186.078125 L 374.574219 181.722656 C 371.535156 179.742188 369.917969 176.855469 369.8125 173.148438 C 369.691406 169.148438 371.277344 166.035156 374.464844 163.695312 C 377.644531 161.371094 381.242188 160.59375 385.132812 160.703125 " clip-rule="nonzero"/></clipPath><clipPath id="dbc9a2355c"><path d="M 312.902344 161.691406 L 320 161.691406 L 320 206 L 312.902344 206 Z M 312.902344 161.691406 " clip-rule="nonzero"/></clipPath><clipPath id="73e74dc0f2"><path d="M 312.984375 183.910156 L 312.992188 165.238281 C 313.015625 162.78125 314.058594 161.84375 316.453125 161.910156 C 318.660156 161.972656 319.589844 162.910156 319.609375 165.324219 L 319.621094 179.644531 C 319.621094 186.808594 319.621094 193.964844 319.621094 201.128906 L 319.640625 202.328125 C 319.46875 205.160156 318.445312 206.042969 316.117188 205.988281 C 313.972656 205.9375 313.015625 205.074219 312.992188 202.84375 L 312.972656 184.933594 C 312.972656 184.589844 312.972656 184.257812 312.972656 183.910156 Z M 312.984375 183.910156 " clip-rule="nonzero"/></clipPath></defs><g clip-path="url(#c5145ce31e)"><g clip-path="url(#ce04b35b7b)"><path fill="#e11f27" d="M 107.785156 12.554688 L 301.546875 12.554688 L 301.546875 206.382812 L 107.785156 206.382812 Z M 107.785156 12.554688 " fill-opacity="1" fill-rule="nonzero"/></g></g><g clip-path="url(#c89a8d68a4)"><g clip-path="url(#300d050875)"><path fill="#1b3765" d="M 307.519531 45.871094 L 642.214844 45.871094 L 642.214844 212.445312 L 307.519531 212.445312 Z M 307.519531 45.871094 " fill-opacity="1" fill-rule="nonzero"/></g></g><g clip-path="url(#62de73cdaa)"><g clip-path="url(#c6dccc2e42)"><path fill="#1b3765" d="M 307.519531 45.871094 L 642.214844 45.871094 L 642.214844 212.445312 L 307.519531 212.445312 Z M 307.519531 45.871094 " fill-opacity="1" fill-rule="nonzero"/></g></g><g clip-path="url(#c3ab9a28dd)"><g clip-path="url(#ac62682f2a)"><path fill="#1b3765" d="M 307.519531 45.871094 L 642.214844 45.871094 L 642.214844 212.445312 L 307.519531 212.445312 Z M 307.519531 45.871094 " fill-opacity="1" fill-rule="nonzero"/></g></g><g clip-path="url(#4989727354)"><g clip-path="url(#0b34c730c5)"><path fill="#1b3765" d="M 307.519531 45.871094 L 642.214844 45.871094 L 642.214844 212.445312 L 307.519531 212.445312 Z M 307.519531 45.871094 " fill-opacity="1" fill-rule="nonzero"/></g></g><g clip-path="url(#668eb054b6)"><g clip-path="url(#a3eb729380)"><path fill="#1b3765" d="M 307.519531 45.871094 L 642.214844 45.871094 L 642.214844 212.445312 L 307.519531 212.445312 Z M 307.519531 45.871094 " fill-opacity="1" fill-rule="nonzero"/></g></g><g clip-path="url(#d7580772f6)"><g clip-path="url(#70f2159109)"><path fill="#1b3765" d="M 307.519531 45.871094 L 642.214844 45.871094 L 642.214844 212.445312 L 307.519531 212.445312 Z M 307.519531 45.871094 " fill-opacity="1" fill-rule="nonzero"/></g></g><g clip-path="url(#daa5b94a79)"><g clip-path="url(#4655402473)"><path fill="#1b3765" d="M 307.519531 45.871094 L 642.214844 45.871094 L 642.214844 212.445312 L 307.519531 212.445312 Z M 307.519531 45.871094 " fill-opacity="1" fill-rule="nonzero"/></g></g><g clip-path="url(#93c3adc02d)"><g clip-path="url(#06ef593803)"><path fill="#1b3765" d="M 307.519531 45.871094 L 642.214844 45.871094 L 642.214844 212.445312 L 307.519531 212.445312 Z M 307.519531 45.871094 " fill-opacity="1" fill-rule="nonzero"/></g></g><g clip-path="url(#75287790cc)"><g clip-path="url(#67edce2f4a)"><path fill="#1b3765" d="M 307.519531 45.871094 L 642.214844 45.871094 L 642.214844 212.445312 L 307.519531 212.445312 Z M 307.519531 45.871094 " fill-opacity="1" fill-rule="nonzero"/></g></g><g clip-path="url(#4a67d97c04)"><g clip-path="url(#0aee93e203)"><path fill="#1b3765" d="M 307.519531 45.871094 L 642.214844 45.871094 L 642.214844 212.445312 L 307.519531 212.445312 Z M 307.519531 45.871094 " fill-opacity="1" fill-rule="nonzero"/></g></g><g clip-path="url(#43c7ecf648)"><g clip-path="url(#dd39c87b27)"><path fill="#1b3765" d="M 307.519531 45.871094 L 642.214844 45.871094 L 642.214844 212.445312 L 307.519531 212.445312 Z M 307.519531 45.871094 " fill-opacity="1" fill-rule="nonzero"/></g></g><g clip-path="url(#dbc9a2355c)"><g clip-path="url(#73e74dc0f2)"><path fill="#1b3765" d="M 307.519531 45.871094 L 642.214844 45.871094 L 642.214844 212.445312 L 307.519531 212.445312 Z M 307.519531 45.871094 " fill-opacity="1" fill-rule="nonzero"/></g></g></svg>