<svg xmlns="http://www.w3.org/2000/svg" xmlns:xlink="http://www.w3.org/1999/xlink" width="1000" zoomAndPan="magnify" viewBox="0 0 750 225" height="300" preserveAspectRatio="xMidYMid meet" version="1.0"><path fill="#de2729" d="M 270.996094 48.019531 C 281.898438 44.3125 293.644531 43.996094 305.078125 45.160156 C 313.4375 46.007812 321.695312 47.699219 329.84375 49.5 C 329.949219 51.300781 329.84375 52.996094 329.84375 54.792969 C 319.261719 52.359375 308.464844 50.136719 297.5625 49.710938 C 288.035156 49.394531 278.296875 50.558594 269.621094 54.476562 C 263.269531 57.335938 257.449219 61.996094 254.273438 68.347656 C 251.308594 74.277344 250.460938 81.371094 251.839844 87.828125 C 253.53125 95.136719 258.613281 101.066406 264.328125 105.511719 C 274.277344 113.347656 286.027344 118.324219 296.714844 124.886719 C 301.371094 127.746094 306.03125 131.03125 309.523438 135.371094 C 311.957031 138.335938 313.863281 141.933594 314.496094 145.851562 C 315.554688 151.886719 313.757812 158.347656 309.523438 162.6875 C 305.925781 166.394531 300.949219 168.40625 295.867188 169.253906 C 288.882812 170.417969 281.792969 169.675781 275.019531 167.980469 C 265.808594 165.757812 257.339844 161.417969 249.191406 156.652344 C 249.191406 154.640625 249.191406 152.734375 249.191406 150.722656 C 250.671875 151.253906 251.945312 152.3125 253.320312 153.054688 C 264.011719 159.195312 275.757812 164.382812 288.25 164.59375 C 293.859375 164.488281 299.890625 163.851562 304.441406 160.359375 C 308.464844 157.289062 310.050781 151.886719 309.523438 147.015625 C 308.992188 142.886719 306.558594 139.289062 303.59375 136.429688 C 299.363281 132.40625 294.28125 129.230469 289.199219 126.371094 C 278.933594 120.546875 268.136719 115.570312 259.140625 107.734375 C 253.320312 102.757812 248.558594 96.300781 246.863281 88.78125 C 244.324219 77.347656 247.816406 64.640625 256.175781 56.382812 C 260.304688 52.570312 265.597656 49.816406 270.996094 48.019531 Z M 270.996094 48.019531 " fill-opacity="1" fill-rule="nonzero"/><path fill="#de2729" d="M 388.800781 45.054688 C 403.933594 43.359375 419.175781 46.21875 433.890625 49.5 C 433.996094 51.300781 433.890625 53.101562 433.890625 54.792969 C 419.917969 51.617188 405.523438 48.652344 391.023438 50.03125 C 384.777344 50.664062 378.425781 52.148438 372.710938 54.792969 C 368.054688 57.019531 363.714844 60.195312 360.644531 64.429688 C 356.835938 69.511719 355.035156 75.972656 355.140625 82.324219 C 355.140625 87.089844 356.625 91.851562 359.164062 95.875 C 362.445312 101.066406 367.3125 105.089844 372.289062 108.476562 C 381.496094 114.722656 391.65625 119.382812 401.078125 125.207031 C 405.628906 128.066406 410.179688 131.347656 413.566406 135.582031 C 416.105469 138.652344 417.90625 142.464844 418.4375 146.382812 C 419.28125 152.101562 417.589844 158.136719 413.671875 162.371094 C 410.285156 166.078125 405.523438 168.195312 400.652344 169.148438 C 393.878906 170.417969 386.894531 169.886719 380.121094 168.40625 C 370.488281 166.183594 361.386719 161.839844 352.917969 156.757812 C 352.917969 154.851562 352.917969 152.839844 352.917969 150.933594 C 353.765625 151.253906 354.613281 151.78125 355.351562 152.3125 C 361.070312 155.699219 366.996094 158.769531 373.242188 161.101562 C 380.542969 163.746094 388.269531 165.335938 396.101562 164.59375 C 400.652344 164.171875 405.523438 163.003906 409.015625 159.722656 C 412.296875 156.757812 413.460938 152.101562 413.355469 147.863281 C 413.039062 143.628906 410.605469 139.921875 407.640625 136.957031 C 403.40625 132.828125 398.21875 129.652344 393.140625 126.6875 C 382.976562 120.863281 372.289062 115.992188 363.292969 108.476562 C 358.421875 104.347656 354.082031 99.265625 351.753906 93.230469 C 349.636719 87.933594 349.214844 82.113281 350.0625 76.394531 C 351.011719 69.828125 353.765625 63.371094 358.210938 58.289062 C 360.855469 55.21875 364.136719 52.78125 367.738281 50.875 C 374.40625 47.59375 381.601562 45.792969 388.800781 45.054688 Z M 388.800781 45.054688 " fill-opacity="1" fill-rule="nonzero"/><path fill="#de2729" d="M 459.925781 46.640625 C 461.726562 46.535156 463.417969 46.640625 465.21875 46.640625 C 465.21875 93.019531 465.21875 139.394531 465.21875 185.769531 C 463.417969 185.769531 461.726562 185.769531 459.925781 185.769531 C 460.136719 161.523438 460.457031 137.171875 460.457031 112.921875 C 460.5625 90.792969 460.667969 68.664062 459.925781 46.640625 Z M 459.925781 46.640625 " fill-opacity="1" fill-rule="nonzero"/><path fill="#de2729" d="M 470.722656 46.640625 C 472.308594 46.640625 473.792969 46.640625 475.378906 46.640625 C 475.378906 93.019531 475.378906 139.394531 475.378906 185.769531 C 473.792969 185.769531 472.203125 185.769531 470.722656 185.769531 C 470.722656 139.394531 470.722656 93.019531 470.722656 46.640625 Z M 470.722656 46.640625 " fill-opacity="1" fill-rule="nonzero"/><path fill="#de2729" d="M 480.882812 46.535156 C 482.578125 46.535156 484.164062 46.429688 485.859375 46.535156 C 485.964844 46.640625 486.070312 46.746094 486.175781 46.851562 C 485.648438 59.984375 485.648438 73.21875 485.539062 86.347656 C 485.433594 119.382812 485.859375 152.523438 486.175781 185.558594 C 484.375 185.558594 482.683594 185.558594 480.882812 185.558594 C 480.882812 139.394531 480.882812 93.019531 480.882812 46.535156 Z M 480.882812 46.535156 " fill-opacity="1" fill-rule="nonzero"/><path fill="#de2729" d="M 286.132812 54.371094 C 295.234375 53.101562 304.441406 53.949219 313.332031 55.960938 C 318.941406 57.230469 324.445312 58.816406 329.84375 60.617188 C 329.84375 61.996094 329.84375 63.371094 329.84375 64.746094 C 322.328125 62.207031 314.710938 59.769531 306.984375 58.5 C 298.515625 57.019531 289.625 56.910156 281.261719 59.453125 C 276.183594 61.042969 271.3125 63.898438 268.136719 68.242188 C 264.75 72.6875 263.480469 78.617188 264.328125 84.125 C 265.386719 90.265625 269.9375 94.921875 274.59375 98.628906 C 283.484375 105.511719 293.859375 110.171875 303.488281 115.886719 C 309.097656 119.277344 314.601562 122.875 319.15625 127.640625 C 322.648438 131.347656 325.503906 135.792969 326.882812 140.664062 C 328.363281 146.277344 328.046875 152.3125 326.246094 157.710938 C 324.339844 163.324219 320.636719 168.300781 315.554688 171.582031 C 309.3125 175.710938 301.796875 177.195312 294.386719 177.722656 C 278.828125 178.78125 263.375 174.546875 249.296875 168.195312 C 249.296875 166.710938 249.296875 165.335938 249.296875 163.851562 C 260.410156 169.039062 272.160156 173.171875 284.4375 174.125 C 291.53125 174.546875 298.726562 174.015625 305.394531 171.582031 C 310.476562 169.78125 315.238281 166.605469 318.414062 162.050781 C 321.90625 157.183594 323.28125 150.933594 322.753906 145.003906 C 322.222656 140.136719 319.789062 135.582031 316.613281 131.980469 C 312.59375 127.429688 307.511719 123.933594 302.429688 120.757812 C 292.695312 114.722656 282.109375 109.957031 272.796875 103.183594 C 267.609375 99.371094 262.738281 94.5 260.621094 88.253906 C 258.71875 82.957031 258.929688 77.03125 260.835938 71.839844 C 262.632812 66.863281 266.234375 62.523438 270.679688 59.664062 C 275.125 56.699219 280.628906 55.113281 286.132812 54.371094 Z M 286.132812 54.371094 " fill-opacity="1" fill-rule="nonzero"/><path fill="#de2729" d="M 389.117188 54.582031 C 401.5 52.675781 414.203125 54.792969 426.164062 58.289062 C 428.808594 59.03125 431.347656 59.875 433.890625 60.722656 C 433.890625 62.101562 433.890625 63.476562 433.890625 64.851562 C 427.007812 62.523438 420.128906 60.300781 412.933594 58.921875 C 406.6875 57.757812 400.335938 57.019531 394.09375 57.757812 C 387.953125 58.394531 381.8125 60.089844 376.734375 63.6875 C 372.921875 66.441406 369.960938 70.464844 368.796875 75.125 C 367.738281 79.464844 367.632812 84.125 369.535156 88.253906 C 371.96875 93.335938 376.308594 97.042969 380.753906 100.324219 C 391.65625 108.054688 404.148438 113.136719 414.941406 120.863281 C 419.28125 124.042969 423.515625 127.640625 426.585938 132.089844 C 429.125 135.6875 430.820312 139.816406 431.347656 144.160156 C 432.300781 151.570312 430.503906 159.511719 425.949219 165.441406 C 422.882812 169.570312 418.648438 172.535156 413.882812 174.441406 C 407.429688 177.089844 400.335938 177.828125 393.457031 177.933594 C 379.484375 177.933594 365.832031 173.910156 353.128906 168.195312 C 353.128906 166.710938 353.128906 165.230469 353.128906 163.851562 C 359.480469 166.921875 366.042969 169.464844 372.710938 171.371094 C 379.378906 173.171875 386.257812 174.441406 393.140625 174.335938 C 399.277344 174.230469 405.523438 173.382812 411.238281 170.839844 C 415.683594 168.933594 419.707031 165.96875 422.351562 161.945312 C 425.738281 157.078125 427.113281 150.933594 426.480469 145.003906 C 425.949219 140.03125 423.515625 135.582031 420.234375 131.875 C 416.636719 127.851562 412.085938 124.570312 407.535156 121.710938 C 402.453125 118.429688 397.054688 115.675781 391.761719 112.710938 C 385.730469 109.324219 379.589844 105.933594 374.300781 101.59375 C 370.277344 98.207031 366.574219 94.183594 364.667969 89.207031 C 361.28125 80.523438 363.503906 70.042969 370.066406 63.371094 C 375.144531 58.183594 382.132812 55.640625 389.117188 54.582031 Z M 389.117188 54.582031 " fill-opacity="1" fill-rule="nonzero"/><path fill="#de2729" d="M 284.96875 62.839844 C 291.210938 60.9375 297.878906 61.253906 304.125 62.417969 C 313.015625 63.898438 321.484375 67.394531 329.84375 70.675781 C 329.738281 72.476562 330.164062 74.382812 329.738281 76.183594 C 322.753906 73.324219 315.765625 70.464844 308.464844 68.558594 C 302.007812 66.972656 295.128906 65.910156 288.566406 67.289062 C 285.390625 67.921875 282.109375 69.300781 279.992188 71.839844 C 277.558594 74.699219 276.921875 78.617188 277.347656 82.21875 C 278.40625 86.347656 281.792969 89.207031 284.96875 91.640625 C 294.703125 98.734375 305.816406 103.289062 315.980469 109.640625 C 320.53125 112.5 324.765625 115.570312 328.679688 119.277344 C 332.703125 123.195312 336.195312 127.746094 338.3125 132.933594 C 340.640625 138.546875 341.277344 144.6875 340.640625 150.722656 C 340.003906 157.289062 337.78125 163.746094 334.078125 169.148438 C 331.433594 172.957031 328.046875 176.242188 324.128906 178.675781 C 318.203125 182.382812 311.429688 184.710938 304.441406 185.875 C 291.421875 188.207031 277.980469 187.148438 265.066406 184.289062 C 259.777344 183.125 254.484375 181.746094 249.191406 180.265625 C 249.191406 178.464844 249.191406 176.664062 249.191406 174.96875 C 261.789062 178.570312 274.699219 181.746094 287.929688 182.0625 C 295.128906 182.0625 302.429688 181.324219 309.3125 179.207031 C 314.710938 177.511719 320 175.074219 324.339844 171.371094 C 329.210938 167.347656 332.808594 161.734375 334.394531 155.59375 C 335.667969 150.511719 335.984375 145.113281 335.03125 140.027344 C 333.761719 133.886719 330.269531 128.382812 325.929688 123.933594 C 318.835938 116.839844 309.839844 111.96875 301.054688 107.207031 C 295.128906 103.921875 288.988281 100.957031 283.378906 97.148438 C 279.355469 94.289062 275.335938 90.898438 273.324219 86.242188 C 271.101562 81.371094 271.628906 75.546875 274.277344 70.996094 C 276.5 66.863281 280.628906 64.113281 284.96875 62.839844 Z M 284.96875 62.839844 " fill-opacity="1" fill-rule="nonzero"/><path fill="#de2729" d="M 389.117188 62.839844 C 395.363281 60.9375 402.136719 61.359375 408.488281 62.417969 C 417.273438 64.007812 425.632812 67.289062 433.890625 70.675781 C 433.890625 72.476562 434.101562 74.382812 433.785156 76.183594 C 426.691406 73.21875 419.601562 70.359375 412.085938 68.453125 C 406.050781 66.972656 399.703125 66.019531 393.457031 67.078125 C 390.070312 67.605469 386.578125 68.875 384.25 71.417969 C 381.707031 74.171875 380.96875 78.089844 381.179688 81.6875 C 381.601562 84.546875 383.507812 86.769531 385.414062 88.78125 C 390.28125 93.335938 396.316406 96.511719 402.136719 99.792969 C 411.449219 104.769531 420.976562 109.535156 429.230469 116.3125 C 434.207031 120.441406 438.652344 125.3125 441.402344 131.136719 C 444.261719 136.957031 445.214844 143.628906 444.578125 150.089844 C 443.734375 160.675781 438.652344 171.160156 429.972656 177.40625 C 420.871094 183.863281 409.652344 186.40625 398.644531 187.039062 C 383.191406 187.992188 367.949219 184.605469 353.128906 180.371094 C 353.128906 178.570312 353.128906 176.769531 353.128906 174.96875 C 365.726562 178.570312 378.746094 181.746094 391.871094 182.0625 C 398.960938 182.0625 406.050781 181.324219 412.828125 179.417969 C 418.332031 177.828125 423.726562 175.289062 428.171875 171.582031 C 432.511719 167.980469 435.898438 163.21875 437.699219 157.921875 C 439.289062 153.160156 439.921875 147.96875 439.394531 142.992188 C 438.757812 136.957031 436.113281 131.347656 432.300781 126.6875 C 428.808594 122.453125 424.46875 119.066406 419.917969 115.992188 C 414.835938 112.605469 409.546875 109.746094 404.253906 106.78125 C 398.007812 103.394531 391.65625 100.324219 385.941406 96.089844 C 382.34375 93.441406 378.957031 90.160156 377.261719 86.03125 C 375.144531 81.054688 375.78125 75.230469 378.53125 70.675781 C 380.863281 66.652344 384.882812 64.113281 389.117188 62.839844 Z M 389.117188 62.839844 " fill-opacity="1" fill-rule="nonzero"/></svg>