<svg xmlns="http://www.w3.org/2000/svg" xmlns:xlink="http://www.w3.org/1999/xlink" width="1000" zoomAndPan="magnify" viewBox="0 0 750 225" height="300" preserveAspectRatio="xMidYMid meet" version="1.0"><defs><clipPath id="47bf71c35e"><path d="M 483 52.863281 L 591.160156 52.863281 L 591.160156 98.917969 L 483 98.917969 Z M 483 52.863281 " clip-rule="nonzero"/></clipPath><clipPath id="e50717e7c9"><path d="M 574.035156 52.914062 C 562.738281 52.914062 557.648438 55.460938 551.5 62.136719 L 537.128906 77.984375 L 522.8125 62.136719 C 516.132812 55.460938 511.519531 52.914062 500.277344 52.914062 L 483.363281 52.914062 C 483.363281 52.914062 509.503906 85.722656 513.109375 89.273438 C 518.785156 95.421875 522.335938 98.496094 530.023438 98.496094 L 543.863281 98.496094 C 551.550781 98.496094 555.636719 95.421875 561.308594 89.273438 C 564.859375 85.667969 591.054688 52.914062 591.054688 52.914062 Z M 574.035156 52.914062 " clip-rule="nonzero"/></clipPath><clipPath id="9a36829c09"><path d="M 538.136719 87.738281 L 611.308594 87.738281 L 611.308594 181 L 538.136719 181 Z M 538.136719 87.738281 " clip-rule="nonzero"/></clipPath><clipPath id="2a3d168381"><path d="M 564.808594 95.421875 C 556.589844 96.957031 551.976562 98.972656 547.894531 105.652344 L 544.339844 111.269531 L 541.265625 117.417969 C 537.128906 124.09375 537.660156 129.183594 540.734375 137.398438 C 542.273438 142.007812 557.171875 180.964844 557.171875 180.964844 L 565.921875 166.601562 C 571.542969 156.902344 571.542969 151.230469 568.996094 142.539062 L 562.847656 122.082031 L 583.367188 117.46875 C 592.539062 115.457031 597.152344 112.328125 602.824219 102.628906 L 611.042969 87.738281 C 610.992188 87.738281 569.953125 94.414062 564.808594 95.421875 " clip-rule="nonzero"/></clipPath><clipPath id="7053f743c3"><path d="M 462.84375 87.628906 L 536 87.628906 L 536 181 L 462.84375 181 Z M 462.84375 87.628906 " clip-rule="nonzero"/></clipPath><clipPath id="81ef59d784"><path d="M 533.046875 117.417969 L 529.496094 111.269531 L 526.417969 105.652344 C 522.335938 98.972656 517.722656 96.957031 509.503906 95.421875 C 504.414062 94.414062 462.898438 87.738281 462.898438 87.738281 L 471.648438 102.628906 C 477.265625 112.328125 481.878906 115.457031 490.628906 117.46875 L 511.625 122.082031 L 505 142.539062 C 502.453125 151.230469 502.929688 156.902344 508.550781 166.601562 L 516.769531 180.964844 C 516.769531 180.964844 532.144531 142.007812 533.683594 137.398438 C 536.121094 129.234375 537.128906 124.09375 533.046875 117.417969 " clip-rule="nonzero"/></clipPath><clipPath id="35e160e993"><path d="M 139 54.453125 L 442.695312 54.453125 L 442.695312 179.480469 L 139 179.480469 Z M 139 54.453125 " clip-rule="nonzero"/></clipPath><clipPath id="277ca93d3d"><path d="M 416.769531 110.421875 L 417.773438 109.945312 C 427.53125 104.429688 434.210938 95.367188 434.210938 84.292969 C 434.210938 62.933594 417.457031 54.558594 393.011719 54.613281 C 393.011719 54.613281 344.074219 54.558594 340.945312 54.558594 C 336.914062 54.558594 334.792969 56.890625 334.792969 60.972656 L 334.792969 169.992188 C 334.792969 174.972656 336.914062 176.933594 340.519531 176.933594 C 344.074219 176.933594 399.269531 176.933594 399.269531 176.933594 C 424.136719 176.933594 442.484375 165.648438 442.484375 140.789062 C 442.429688 125.527344 432.886719 114.023438 416.769531 110.421875 M 361.730469 75.492188 L 389.089844 75.492188 C 400.222656 75.492188 406.320312 79.890625 406.320312 89.0625 C 406.320312 98.390625 399.324219 103.105469 389.832031 103.105469 L 361.675781 103.105469 Z M 392.535156 156 L 361.730469 156 L 361.730469 123.195312 L 392.800781 123.195312 C 405.316406 123.195312 414.222656 128.335938 414.222656 139.886719 C 414.222656 152.554688 403.140625 156 392.535156 156 M 304.996094 54.558594 L 288.238281 54.558594 C 285.324219 54.613281 282.9375 56.945312 282.9375 59.859375 L 282.9375 171.582031 C 282.9375 174.496094 285.324219 176.882812 288.238281 176.882812 L 304.996094 176.882812 C 307.910156 176.882812 310.296875 174.496094 310.296875 171.582031 L 310.296875 59.859375 C 310.246094 56.945312 307.910156 54.558594 304.996094 54.558594 M 258.546875 54.558594 L 243.699219 54.558594 C 238.824219 54.558594 237.390625 56.414062 235.800781 63.199219 C 230.285156 86.941406 223.550781 124.199219 210.191406 143.863281 C 210.191406 143.863281 207.113281 149.058594 202.980469 149.058594 C 198.789062 149.058594 195.714844 143.863281 195.714844 143.863281 C 182.351562 124.148438 173.285156 86.886719 167.824219 63.199219 C 166.234375 56.414062 164.75 54.558594 159.925781 54.503906 L 145.023438 54.503906 C 139.988281 54.503906 138.503906 58.746094 139.246094 62.402344 C 143.964844 86.730469 151.972656 123.722656 170.792969 155.734375 C 179.703125 170.894531 188.027344 179.214844 202.925781 179.265625 C 217.773438 179.214844 226.148438 170.894531 235.003906 155.734375 C 253.882812 123.722656 259.609375 86.730469 264.328125 62.402344 C 265.070312 58.796875 263.585938 54.558594 258.546875 54.558594 " clip-rule="nonzero"/></clipPath></defs><g clip-path="url(#47bf71c35e)"><g clip-path="url(#e50717e7c9)"><path fill="#f8b517" d="M 170.582031 44.859375 L 618.996094 44.859375 L 618.996094 268.148438 L 170.582031 268.148438 Z M 170.582031 44.859375 " fill-opacity="1" fill-rule="nonzero"/></g></g><g clip-path="url(#9a36829c09)"><g clip-path="url(#2a3d168381)"><path fill="#f07a22" d="M 170.582031 44.859375 L 618.996094 44.859375 L 618.996094 268.148438 L 170.582031 268.148438 Z M 170.582031 44.859375 " fill-opacity="1" fill-rule="nonzero"/></g></g><g clip-path="url(#7053f743c3)"><g clip-path="url(#81ef59d784)"><path fill="#f59221" d="M 170.582031 44.859375 L 618.996094 44.859375 L 618.996094 268.148438 L 170.582031 268.148438 Z M 170.582031 44.859375 " fill-opacity="1" fill-rule="nonzero"/></g></g><g clip-path="url(#35e160e993)"><g clip-path="url(#277ca93d3d)"><path fill="#0768b0" d="M 131.027344 -35.914062 L 579.441406 -35.914062 L 579.441406 187.375 L 131.027344 187.375 Z M 131.027344 -35.914062 " fill-opacity="1" fill-rule="nonzero"/></g></g></svg>