<svg xmlns="http://www.w3.org/2000/svg" xmlns:xlink="http://www.w3.org/1999/xlink" width="1000" zoomAndPan="magnify" viewBox="0 0 750 225" height="300" preserveAspectRatio="xMidYMid meet" version="1.0"><path fill="#ef0032" d="M 197.964844 76.542969 L 186.980469 76.542969 C 182.601562 76.542969 179.050781 80.089844 179.050781 84.460938 L 179.050781 165.558594 C 179.050781 169.929688 182.601562 173.480469 186.980469 173.480469 L 197.964844 173.480469 C 202.339844 173.480469 205.890625 169.929688 205.890625 165.558594 L 205.890625 84.460938 C 205.808594 80.007812 202.339844 76.542969 197.964844 76.542969 " fill-opacity="1" fill-rule="nonzero"/><path fill="#ef0032" d="M 158.582031 76.542969 C 151.644531 76.542969 145.863281 80.667969 143.058594 86.605469 L 113.984375 148.398438 C 113.324219 149.882812 111.921875 152.195312 110.765625 152.195312 C 109.609375 152.195312 108.203125 149.800781 107.542969 148.398438 L 78.222656 86.605469 C 75.414062 80.667969 69.632812 76.542969 62.695312 76.542969 L 45.765625 76.542969 L 91.933594 165.808594 C 96.476562 174.632812 105.890625 174.386719 110.683594 174.386719 C 117.289062 174.386719 125.050781 174.058594 129.183594 165.808594 L 175.351562 76.460938 L 158.582031 76.460938 Z M 158.582031 76.542969 " fill-opacity="1" fill-rule="nonzero"/><path fill="#ef0032" d="M 668.976562 61.6875 C 668.976562 57.316406 665.421875 53.769531 661.046875 53.769531 L 650.0625 53.769531 C 645.683594 53.769531 642.132812 57.316406 642.132812 61.6875 L 642.132812 141.796875 C 642.132812 154.003906 646.511719 161.183594 654.273438 166.296875 C 661.789062 171.25 670.542969 173.394531 686.730469 173.394531 L 695.570312 173.394531 C 699.945312 173.394531 703.414062 169.847656 703.414062 165.472656 L 703.414062 156.894531 L 696.808594 156.894531 C 692.015625 156.894531 681.941406 156.726562 675.996094 152.6875 C 668.230469 147.570312 668.890625 138.414062 668.890625 131.8125 L 668.890625 61.6875 Z M 668.976562 61.6875 " fill-opacity="1" fill-rule="nonzero"/><path fill="#ef0032" d="M 497.648438 156.878906 C 492.855469 156.878906 482.78125 156.710938 476.835938 152.671875 C 469.070312 147.554688 469.730469 138.398438 469.730469 131.796875 L 469.730469 92.859375 L 495.664062 92.859375 C 500.042969 92.859375 503.59375 89.308594 503.59375 84.9375 L 503.59375 76.523438 L 469.730469 76.523438 L 469.730469 61.671875 C 469.730469 57.300781 466.179688 53.753906 461.804688 53.753906 L 450.820312 53.753906 C 446.441406 53.753906 442.890625 57.300781 442.890625 61.671875 L 442.890625 76.523438 L 387.058594 76.523438 L 387.058594 61.671875 C 387.058594 57.300781 383.507812 53.753906 379.128906 53.753906 L 368.144531 53.753906 C 363.769531 53.753906 360.21875 57.300781 360.21875 61.671875 L 360.21875 76.523438 L 343.535156 76.523438 L 343.535156 85.101562 C 343.535156 89.476562 347.085938 93.023438 351.464844 93.023438 L 360.21875 93.023438 L 360.21875 141.78125 C 360.21875 153.988281 364.59375 161.167969 372.359375 166.28125 C 379.875 171.234375 388.628906 173.378906 404.816406 173.378906 L 413.652344 173.378906 C 418.03125 173.378906 421.5 169.832031 421.5 165.457031 L 421.5 156.878906 L 414.890625 156.878906 C 410.101562 156.878906 400.027344 156.710938 394.078125 152.671875 C 386.316406 147.554688 386.976562 138.398438 386.976562 131.796875 L 386.976562 92.859375 L 442.808594 92.859375 L 442.808594 141.613281 C 442.808594 153.824219 447.183594 161.003906 454.949219 166.117188 C 462.464844 171.066406 471.136719 173.210938 487.40625 173.210938 L 496.160156 173.210938 C 500.539062 173.210938 504.089844 169.664062 504.089844 165.292969 L 504.089844 156.710938 L 497.648438 156.710938 Z M 497.648438 156.878906 " fill-opacity="1" fill-rule="nonzero"/><path fill="#ef0032" d="M 310.136719 109.902344 C 310.136719 112.457031 309.472656 115.59375 304.1875 115.59375 L 266.113281 115.59375 C 256.453125 115.59375 248.605469 119.964844 248.605469 125.492188 L 248.605469 115.59375 C 248.851562 109.15625 248.605469 103.878906 254.140625 98.929688 C 261.40625 92.328125 272.390625 92.492188 279.492188 92.492188 C 287.007812 92.492188 295.683594 92.824219 302.371094 96.867188 C 306.253906 99.339844 310.136719 103.878906 310.136719 109.902344 M 333.921875 165.503906 L 333.921875 156.925781 L 274.703125 156.925781 C 264.875 156.925781 253.644531 155.851562 250.257812 145.457031 C 249.347656 142.488281 248.6875 136.300781 248.6875 132.09375 L 319.136719 132.09375 C 323.925781 132.09375 328.550781 131.351562 332.1875 128.464844 C 337.222656 124.503906 337.886719 118.808594 337.886719 113.859375 C 337.886719 101.652344 334.910156 89.605469 320.707031 82.429688 C 309.558594 76.734375 294.855469 76.242188 280.734375 76.242188 C 269.335938 76.242188 248.6875 76.242188 235.472656 85.398438 C 222.175781 94.554688 221.019531 107.921875 221.019531 125.988281 C 221.019531 138.777344 221.679688 152.140625 229.691406 161.214844 C 239.769531 172.519531 254.386719 173.507812 266.691406 173.507812 L 326.074219 173.507812 C 330.371094 173.34375 333.921875 169.796875 333.921875 165.503906 " fill-opacity="1" fill-rule="nonzero"/><path fill="#ef0032" d="M 599.402344 109.902344 C 599.402344 112.457031 598.742188 115.59375 593.457031 115.59375 L 555.382812 115.59375 C 545.71875 115.59375 537.875 119.964844 537.875 125.492188 L 537.875 115.59375 C 538.121094 109.15625 537.875 103.878906 543.324219 98.929688 C 550.59375 92.328125 561.660156 92.492188 568.679688 92.492188 C 576.277344 92.492188 584.949219 92.824219 591.558594 96.867188 C 595.523438 99.339844 599.402344 103.878906 599.402344 109.902344 M 623.191406 165.503906 L 623.191406 156.925781 L 563.972656 156.925781 C 554.144531 156.925781 542.914062 155.851562 539.527344 145.457031 C 538.617188 142.488281 537.957031 136.300781 537.957031 132.09375 L 608.40625 132.09375 C 613.195312 132.09375 617.820312 131.351562 621.457031 128.464844 C 626.492188 124.503906 627.15625 118.808594 627.15625 113.859375 C 627.15625 101.652344 624.179688 89.605469 609.976562 82.429688 C 598.742188 76.734375 584.125 76.242188 569.917969 76.242188 C 558.523438 76.242188 537.875 76.242188 524.660156 85.398438 C 511.445312 94.554688 510.289062 107.921875 510.289062 125.988281 C 510.289062 138.777344 510.949219 152.140625 518.960938 161.214844 C 529.039062 172.519531 543.65625 173.507812 556.042969 173.507812 L 615.425781 173.507812 C 619.636719 173.34375 623.191406 169.796875 623.191406 165.503906 " fill-opacity="1" fill-rule="nonzero"/><path fill="#ef0032" d="M 197.964844 49.390625 L 186.980469 49.390625 C 182.601562 49.390625 179.050781 52.9375 179.050781 57.226562 L 179.050781 76.449219 L 179.132812 76.449219 C 179.875 71.996094 184.996094 67.292969 192.429688 67.292969 L 197.882812 67.292969 C 202.257812 67.292969 205.808594 63.746094 205.808594 59.371094 L 205.808594 57.226562 C 205.808594 52.9375 202.339844 49.390625 197.964844 49.390625 " fill-opacity="1" fill-rule="nonzero"/></svg>