<svg xmlns="http://www.w3.org/2000/svg" xmlns:xlink="http://www.w3.org/1999/xlink" width="1000" zoomAndPan="magnify" viewBox="0 0 750 225" height="300" preserveAspectRatio="xMidYMid meet" version="1.0"><defs><clipPath id="a8aa4c074d"><path d="M 102.226562 115 L 107 115 L 107 120 L 102.226562 120 Z M 102.226562 115 " clip-rule="nonzero"/></clipPath><clipPath id="0ec0b57c87"><path d="M 236 36 L 237.976562 36 L 237.976562 38 L 236 38 Z M 236 36 " clip-rule="nonzero"/></clipPath></defs><path fill="#9cdfac" d="M 168.089844 181.621094 C 166.527344 181.46875 165.164062 180.71875 163.734375 180.160156 C 163.070312 179.28125 162.953125 178.253906 162.945312 177.191406 C 162.933594 165.875 162.90625 154.550781 162.980469 143.238281 C 162.984375 141.980469 162.71875 140.363281 164.691406 140.074219 C 164.859375 140.222656 165.019531 140.363281 165.1875 140.511719 C 165.90625 140.488281 165.917969 140.097656 165.6875 139.574219 C 163.863281 135.238281 161.789062 131.007812 160.433594 126.492188 C 160.960938 121.605469 160.652344 116.703125 160.679688 111.8125 C 160.742188 100.152344 160.296875 88.492188 160.898438 76.839844 C 160.910156 76.609375 160.808594 76.367188 160.761719 76.128906 C 162.457031 72.222656 164.710938 68.675781 167.632812 65.570312 C 168.601562 65.996094 168.722656 66.890625 168.820312 67.785156 C 168.921875 68.746094 168.890625 69.710938 168.890625 70.683594 C 168.890625 106.117188 168.898438 141.554688 168.871094 176.992188 C 168.871094 178.554688 169.273438 180.238281 168.089844 181.621094 Z M 168.089844 181.621094 " fill-opacity="1" fill-rule="nonzero"/><path fill="#99dda9" d="M 168.089844 181.621094 C 168.089844 144.039062 168.089844 106.453125 168.082031 68.871094 C 168.082031 67.75 168.269531 66.597656 167.632812 65.5625 C 168.960938 63.65625 170.65625 62.097656 172.425781 60.613281 C 173.917969 61.695312 173.671875 63.324219 173.679688 64.820312 C 173.71875 73.449219 173.730469 82.089844 173.691406 90.71875 C 173.621094 105.644531 173.691406 120.570312 173.613281 135.5 C 173.5625 145.175781 173.445312 154.855469 173.53125 164.527344 C 173.582031 170.726562 173.550781 176.914062 173.402344 183.109375 C 171.625 182.613281 169.859375 182.121094 168.089844 181.621094 Z M 168.089844 181.621094 " fill-opacity="1" fill-rule="nonzero"/><path fill="#95daa6" d="M 173.394531 183.109375 C 171.820312 180.582031 172.96875 177.820312 172.839844 175.183594 C 172.679688 171.910156 173.027344 168.636719 172.621094 165.324219 C 172.304688 162.777344 172.683594 160.148438 172.722656 157.554688 C 173.144531 126.1875 172.832031 94.820312 172.902344 63.453125 C 172.902344 62.511719 172.59375 61.566406 172.425781 60.621094 C 173.855469 59.101562 175.449219 57.78125 177.265625 56.75 C 178.222656 57.8125 178.085938 59.144531 178.15625 60.414062 C 178.359375 64.1875 178.292969 67.964844 178.195312 71.738281 C 178.015625 79.117188 178.023438 86.515625 178.105469 93.890625 C 178.222656 103.703125 178.085938 113.519531 178.242188 123.335938 C 178.339844 129.273438 178.042969 135.253906 178.265625 141.183594 C 178.488281 146.828125 177.621094 152.417969 178.164062 158.085938 C 178.507812 161.628906 177.730469 165.324219 178.023438 168.933594 C 178.398438 173.613281 177.769531 178.265625 178.007812 182.921875 C 178.027344 183.332031 177.964844 183.726562 177.757812 184.085938 C 176.257812 183.957031 174.789062 183.691406 173.394531 183.109375 Z M 173.394531 183.109375 " fill-opacity="1" fill-rule="nonzero"/><path fill="#8fd59f" d="M 184.003906 52.339844 C 185.070312 51.589844 186.15625 50.871094 187.429688 50.515625 C 188.523438 52.289062 188.207031 54.265625 188.210938 56.175781 C 188.230469 97.390625 188.226562 138.597656 188.226562 179.8125 C 188.226562 181.738281 188.191406 183.667969 188.863281 185.519531 C 187.238281 185.640625 185.621094 185.582031 184.050781 185.070312 C 183.242188 184.21875 183.328125 183.148438 183.328125 182.101562 C 183.320312 139.929688 183.328125 97.765625 183.3125 55.59375 C 183.3125 54.449219 183.4375 53.355469 184.003906 52.339844 Z M 184.003906 52.339844 " fill-opacity="1" fill-rule="nonzero"/><path fill="#89d09a" d="M 192.703125 90.203125 C 193.464844 96.644531 195.28125 102.84375 197.011719 109.0625 C 196.210938 109.84375 196.417969 110.867188 196.4375 111.804688 C 196.675781 123.238281 196.476562 134.675781 196.496094 146.109375 C 196.515625 157.710938 196.527344 169.308594 196.386719 180.917969 C 196.367188 182.621094 196.617188 184.105469 198.132812 185.125 C 196.0625 185.976562 193.90625 185.519531 191.777344 185.554688 C 190.925781 184.636719 190.992188 183.480469 190.992188 182.355469 C 190.972656 152.695312 190.972656 123.035156 190.996094 93.386719 C 190.996094 92.273438 190.90625 91.101562 191.785156 90.1875 C 192.09375 90.027344 192.398438 90.035156 192.703125 90.203125 Z M 192.703125 90.203125 " fill-opacity="1" fill-rule="nonzero"/><path fill="#8cd39d" d="M 192.269531 90.203125 C 191.4375 90.996094 191.804688 92.03125 191.804688 92.953125 C 191.785156 123.820312 191.792969 154.6875 191.792969 185.554688 C 190.984375 185.550781 190.175781 185.539062 189.375 185.53125 C 188.613281 184.488281 188.574219 183.285156 188.574219 182.0625 C 188.566406 139.042969 188.566406 96.019531 188.582031 53 C 188.582031 51.800781 188.484375 50.558594 189.375 49.558594 C 190.113281 49.066406 190.863281 48.585938 191.773438 48.476562 C 192.804688 49.523438 192.585938 50.878906 192.5625 52.132812 C 192.445312 59.367188 192.910156 66.613281 192.289062 73.839844 C 192.257812 74.242188 192.308594 74.640625 192.398438 75.035156 C 192.527344 76.089844 192.671875 77.152344 192.316406 78.195312 C 192.316406 81.035156 192.316406 83.867188 192.316406 86.707031 C 192.601562 87.878906 192.65625 89.042969 192.269531 90.203125 Z M 192.269531 90.203125 " fill-opacity="1" fill-rule="nonzero"/><path fill="#87ce98" d="M 198.136719 185.125 C 196.109375 185.40625 195.597656 184.503906 195.609375 182.527344 C 195.703125 171.246094 195.65625 159.953125 195.65625 148.671875 C 195.65625 141.21875 195.65625 133.757812 195.65625 126.304688 C 195.65625 121.34375 195.625 116.386719 195.683594 111.421875 C 195.695312 110.484375 195.203125 109.066406 197.019531 109.066406 C 197.730469 112.839844 199.980469 116.050781 200.902344 119.742188 C 200.128906 121.0625 200.839844 122.429688 200.832031 123.761719 C 200.785156 143.253906 200.792969 162.75 200.8125 182.242188 C 200.8125 183.050781 200.792969 183.855469 200.515625 184.625 C 199.816406 185.257812 198.957031 185.089844 198.136719 185.125 Z M 198.136719 185.125 " fill-opacity="1" fill-rule="nonzero"/><path fill="#92d8a3" d="M 177.75 184.085938 C 176.605469 181.449219 177.234375 178.632812 177.40625 176.007812 C 177.652344 172.304688 176.976562 168.667969 177.265625 164.996094 C 177.789062 158.390625 177.117188 151.769531 177.652344 145.136719 C 178.027344 140.46875 177.105469 135.691406 177.382812 131 C 177.730469 125.210938 177.03125 119.441406 177.441406 113.675781 C 177.742188 109.390625 177.375 105.140625 177.355469 100.871094 C 177.332031 94.949219 177.550781 89.023438 177.511719 83.105469 C 177.480469 77.8125 177.460938 72.527344 177.6875 67.226562 C 177.835938 63.746094 177.421875 60.234375 177.257812 56.738281 C 178.042969 55.800781 179.0625 55.199219 180.160156 54.714844 C 180.640625 55.457031 180.40625 56.285156 180.40625 57.074219 C 180.417969 84.261719 180.414062 111.449219 180.417969 138.636719 C 180.417969 152.988281 180.417969 167.332031 180.414062 181.679688 C 180.414062 182.636719 180.585938 183.621094 180.167969 184.546875 C 179.300781 184.710938 178.546875 184.289062 177.75 184.085938 Z M 177.75 184.085938 " fill-opacity="1" fill-rule="nonzero"/><path fill="#8cd39d" d="M 189.367188 49.550781 C 189.367188 94.875 189.367188 140.203125 189.367188 185.523438 C 189.199219 185.523438 189.03125 185.519531 188.863281 185.519531 C 187.171875 185.03125 187.429688 183.660156 187.429688 182.394531 C 187.429688 152.421875 187.429688 122.460938 187.429688 92.492188 C 187.429688 79.765625 187.410156 67.039062 187.460938 54.3125 C 187.46875 53.042969 186.984375 51.777344 187.429688 50.515625 C 187.960938 49.953125 188.613281 49.648438 189.367188 49.550781 Z M 189.367188 49.550781 " fill-opacity="1" fill-rule="nonzero"/><path fill="#84cc95" d="M 200.507812 184.625 C 199.703125 183.917969 200.019531 182.96875 200.019531 182.128906 C 200 162.140625 200 142.148438 200.03125 122.164062 C 200.03125 121.316406 199.476562 120.132812 200.898438 119.742188 C 201.988281 123.054688 203.925781 126.027344 204.824219 129.421875 C 204.167969 130.660156 204.691406 131.953125 204.691406 133.207031 C 204.65625 149.078125 204.652344 164.949219 204.683594 180.8125 C 204.683594 181.621094 204.652344 182.425781 204.4375 183.207031 C 203.261719 184.070312 201.945312 184.503906 200.507812 184.625 Z M 200.507812 184.625 " fill-opacity="1" fill-rule="nonzero"/><path fill="#9cdda8" d="M 160.761719 76.125 C 161.394531 76.421875 161.808594 76.847656 161.71875 77.617188 C 161.007812 83.699219 161.710938 89.808594 161.503906 95.871094 C 161.183594 105.386719 161.71875 114.898438 161.324219 124.410156 C 161.292969 125.238281 161.296875 126.039062 160.433594 126.480469 C 155.148438 111.308594 153.9375 95.992188 158.882812 80.484375 C 159.355469 78.988281 159.703125 77.390625 160.761719 76.125 Z M 160.761719 76.125 " fill-opacity="1" fill-rule="nonzero"/><path fill="#90d6a1" d="M 184.003906 52.339844 C 184.019531 83.53125 184.03125 114.714844 184.042969 145.910156 C 184.050781 158.964844 184.042969 172.019531 184.042969 185.078125 C 183.875 185.070312 183.707031 185.058594 183.539062 185.050781 C 182.460938 184.765625 181.9375 184.050781 181.890625 182.957031 C 181.859375 182.230469 181.867188 181.507812 181.867188 180.78125 C 181.867188 139.601562 181.867188 98.414062 181.867188 57.230469 C 181.867188 55.867188 181.710938 54.472656 182.53125 53.246094 C 183.03125 52.941406 183.519531 52.636719 184.003906 52.339844 Z M 184.003906 52.339844 " fill-opacity="1" fill-rule="nonzero"/><path fill="#91d6a1" d="M 182.539062 53.246094 C 182.558594 58.808594 182.589844 64.378906 182.597656 69.945312 C 182.601562 107.21875 182.597656 144.492188 182.601562 181.773438 C 182.601562 182.949219 182.304688 184.230469 183.546875 185.050781 C 182.71875 185.050781 181.859375 185.253906 181.136719 184.652344 C 180.246094 183.628906 180.417969 182.386719 180.433594 181.1875 C 180.535156 168.773438 180.574219 156.359375 180.523438 143.941406 C 180.445312 125.558594 180.523438 107.171875 180.433594 88.792969 C 180.386719 78.472656 180.417969 68.144531 180.425781 57.820312 C 180.425781 56.375 180.285156 54.875 181.613281 53.820312 C 181.917969 53.625 182.226562 53.4375 182.539062 53.246094 Z M 182.539062 53.246094 " fill-opacity="1" fill-rule="nonzero"/><path fill="#92d8a3" d="M 181.613281 53.820312 C 181 54.945312 181.148438 56.167969 181.148438 57.371094 C 181.144531 99.796875 181.144531 142.21875 181.136719 184.652344 C 180.8125 184.617188 180.492188 184.59375 180.167969 184.558594 C 179.605469 183.691406 179.695312 182.710938 179.695312 181.746094 C 179.695312 174.410156 179.695312 167.078125 179.695312 159.742188 C 179.695312 125.921875 179.695312 92.097656 179.695312 58.277344 C 179.695312 57.074219 179.597656 55.859375 180.167969 54.726562 C 180.503906 54.191406 181.007812 53.929688 181.613281 53.820312 Z M 181.613281 53.820312 " fill-opacity="1" fill-rule="nonzero"/><path fill="#82ca93" d="M 204.429688 183.207031 C 203.578125 182.535156 203.886719 181.585938 203.886719 180.738281 C 203.867188 164.417969 203.867188 148.101562 203.894531 131.785156 C 203.894531 130.9375 203.359375 129.746094 204.820312 129.417969 C 205.476562 132.347656 207.609375 134.675781 208.160156 137.652344 C 207.359375 138.882812 208.070312 140.167969 208.0625 141.417969 C 208.019531 153.808594 208.03125 166.199219 208.042969 178.589844 C 208.042969 179.480469 207.925781 180.347656 207.734375 181.214844 C 206.804688 182.160156 205.730469 182.878906 204.429688 183.207031 Z M 204.429688 183.207031 " fill-opacity="1" fill-rule="nonzero"/><path fill="#9cdda8" d="M 157.925781 133.867188 C 159.289062 134.878906 160.742188 135.789062 161.796875 137.167969 C 162.054688 137.9375 162.125 138.734375 162.125 139.546875 C 162.085938 151.382812 162.136719 163.214844 162.085938 175.050781 C 162.082031 176.441406 162.382812 178.027344 160.789062 178.917969 C 159.386719 178.703125 158.144531 178.070312 156.925781 177.378906 C 157.433594 164.1875 157.019531 150.980469 157.15625 137.789062 C 157.167969 136.449219 156.867188 135.011719 157.925781 133.867188 Z M 157.925781 133.867188 " fill-opacity="1" fill-rule="nonzero"/><path fill="#9cdba5" d="M 157.925781 133.867188 C 157.925781 147.382812 157.933594 160.894531 157.917969 174.410156 C 157.917969 175.484375 158.28125 176.730469 156.925781 177.371094 C 156.050781 177.234375 155.238281 176.964844 154.550781 176.375 C 154.101562 172.015625 154.160156 167.660156 154.53125 163.300781 C 157.324219 159.878906 156.699219 156.402344 154.707031 152.894531 C 154.195312 151.996094 153.691406 151.097656 153.183594 150.203125 C 153.429688 145.164062 153.234375 140.117188 153.324219 135.078125 C 153.351562 133.738281 153.195312 132.300781 154.53125 131.375 C 155.664062 132.210938 156.792969 133.039062 157.925781 133.867188 Z M 157.925781 133.867188 " fill-opacity="1" fill-rule="nonzero"/><path fill="#80c891" d="M 207.738281 181.222656 C 207.007812 180.585938 207.273438 179.726562 207.273438 178.949219 C 207.261719 165.984375 207.253906 153.027344 207.289062 140.058594 C 207.289062 139.210938 206.730469 138.027344 208.167969 137.652344 C 209.296875 141.40625 211.292969 144.859375 212 148.761719 C 211.609375 149.203125 211.378906 149.707031 211.382812 150.296875 C 211.511719 159.152344 211.101562 168.011719 211.617188 176.867188 C 210.945312 178.875 209.34375 180.042969 207.738281 181.222656 Z M 207.738281 181.222656 " fill-opacity="1" fill-rule="nonzero"/><path fill="#9cdfab" d="M 160.78125 178.917969 C 161.410156 177.902344 161.316406 176.765625 161.316406 175.644531 C 161.316406 163.835938 161.316406 152.027344 161.316406 140.214844 C 161.316406 139.171875 161.207031 138.117188 161.800781 137.167969 C 162.945312 137.957031 164.007812 138.832031 164.699219 140.074219 C 163.359375 140.738281 163.753906 141.988281 163.746094 143.054688 C 163.726562 155.425781 163.734375 167.789062 163.734375 180.160156 C 162.726562 179.804688 161.632812 179.636719 160.78125 178.917969 Z M 160.78125 178.917969 " fill-opacity="1" fill-rule="nonzero"/><path fill="#7ec68f" d="M 211.617188 176.867188 C 210.710938 176.125 210.640625 175.101562 210.640625 174.027344 C 210.652344 166.390625 210.628906 158.757812 210.671875 151.117188 C 210.679688 150.179688 210.203125 148.769531 212 148.761719 C 212.894531 153.101562 214.214844 157.335938 214.671875 161.804688 C 215.242188 167.238281 214.757812 172.273438 211.617188 176.867188 Z M 211.617188 176.867188 " fill-opacity="1" fill-rule="nonzero"/><path fill="#8ad09a" d="M 192.269531 75.191406 C 191.480469 74.472656 191.804688 73.527344 191.796875 72.679688 C 191.765625 64.613281 191.765625 56.542969 191.757812 48.476562 C 193.085938 47.546875 194.570312 46.980469 196.132812 46.625 C 196.84375 49.007812 195.824219 51.363281 196.023438 53.777344 C 196.28125 56.855469 196.207031 59.988281 196.152344 63.09375 C 195.230469 66.050781 194.402344 69.050781 193.324219 71.949219 C 192.917969 73.035156 192.910156 74.109375 192.710938 75.183594 C 192.566406 75.425781 192.417969 75.425781 192.269531 75.191406 Z M 192.269531 75.191406 " fill-opacity="1" fill-rule="nonzero"/><path fill="#9bd9a1" d="M 154.539062 131.375 C 153.523438 136.535156 154.328125 141.753906 154.046875 146.9375 C 153.992188 148.070312 154.53125 149.402344 153.183594 150.210938 C 151.871094 148.605469 150.550781 147 149.242188 145.398438 C 149.589844 141.464844 149.5 137.523438 149.511719 133.582031 C 149.519531 131.921875 149.265625 130.167969 150.703125 128.847656 C 152.148438 129.429688 153.382812 130.339844 154.539062 131.375 Z M 154.539062 131.375 " fill-opacity="1" fill-rule="nonzero"/><path fill="#9bd59b" d="M 145.796875 142.027344 C 144.496094 140.902344 143.191406 139.773438 141.894531 138.648438 C 142.441406 135.046875 142.066406 131.421875 142.21875 127.804688 C 142.261719 126.640625 142.03125 125.320312 143.40625 124.636719 C 144.613281 125.121094 145.816406 125.613281 146.8125 126.492188 C 147.328125 126.820312 147.582031 127.308594 147.574219 127.902344 C 147.527344 132.070312 147.703125 136.234375 147.449219 140.394531 C 147.398438 141.261719 147.355469 142.523438 145.796875 142.027344 Z M 145.796875 142.027344 " fill-opacity="1" fill-rule="nonzero"/><path fill="#9cd79e" d="M 145.796875 142.027344 C 146.609375 141.929688 146.804688 141.390625 146.804688 140.660156 C 146.796875 135.9375 146.804688 131.214844 146.8125 126.492188 C 148.253906 127.042969 149.578125 127.773438 150.703125 128.839844 C 149.789062 133.550781 150.410156 138.320312 150.171875 143.054688 C 150.125 143.902344 150.6875 145.074219 149.242188 145.390625 C 148.089844 144.265625 146.941406 143.144531 145.796875 142.027344 Z M 145.796875 142.027344 " fill-opacity="1" fill-rule="nonzero"/><path fill="#9bd297" d="M 143.398438 124.636719 C 142.359375 128.503906 143.21875 132.449219 142.921875 136.347656 C 142.855469 137.21875 143.355469 138.390625 141.886719 138.648438 C 140.492188 137.832031 139.1875 136.890625 138.035156 135.75 C 138.386719 132.113281 138.292969 128.464844 138.351562 124.824219 C 138.367188 124.035156 138.410156 123.226562 139.070312 122.628906 C 140.648438 123 142.023438 123.828125 143.398438 124.636719 Z M 143.398438 124.636719 " fill-opacity="1" fill-rule="nonzero"/><path fill="#9bd79e" d="M 151.613281 175.042969 C 148.871094 174.246094 146.429688 172.804688 143.902344 171.535156 C 143.980469 171.050781 144.285156 170.65625 144.40625 170.191406 C 144.917969 168.25 144.402344 167.484375 142.367188 167.402344 C 139.507812 167.292969 136.632812 167.484375 133.789062 167.066406 C 133.058594 165.992188 134.125 166.320312 134.449219 166.316406 C 136.292969 166.261719 138.132812 166.238281 139.96875 166.28125 C 143.734375 166.367188 147.464844 166.109375 151.140625 165.226562 C 151.597656 165.1875 151.96875 165.414062 152.027344 165.828125 C 152.464844 168.929688 153.074219 172.035156 151.613281 175.042969 Z M 151.613281 175.042969 " fill-opacity="1" fill-rule="nonzero"/><path fill="#99c784" d="M 123.574219 127.042969 C 121.5 126.304688 119.5625 125.289062 117.660156 124.175781 C 117.570312 121.574219 117.292969 118.972656 117.785156 116.378906 C 119.621094 116.390625 121.371094 116.871094 123.117188 117.371094 C 123.453125 117.578125 123.9375 117.542969 124.167969 117.886719 C 125.242188 119.433594 124.835938 125.398438 123.574219 127.042969 Z M 123.574219 127.042969 " fill-opacity="1" fill-rule="nonzero"/><path fill="#9ad093" d="M 139.070312 122.621094 C 139.070312 125.8125 139.0625 129.003906 139.070312 132.191406 C 139.070312 133.480469 138.964844 134.726562 138.042969 135.742188 C 136.816406 135.070312 135.605469 134.371094 134.597656 133.375 C 134.230469 129.925781 134.46875 126.480469 134.488281 123.03125 C 134.496094 122.304688 134.617188 121.582031 135.238281 121.070312 C 136.628906 121.296875 137.867188 121.910156 139.070312 122.621094 Z M 139.070312 122.621094 " fill-opacity="1" fill-rule="nonzero"/><path fill="#9ace90" d="M 135.230469 121.070312 C 135.21875 124.355469 135.226562 127.648438 135.1875 130.9375 C 135.171875 131.785156 135.476562 132.734375 134.59375 133.382812 C 133.136719 132.839844 131.882812 131.964844 130.707031 130.96875 C 130.425781 128.089844 130.605469 125.199219 130.636719 122.320312 C 130.648438 121.316406 130.964844 120.421875 131.808594 119.796875 C 133.027344 120.003906 134.199219 120.34375 135.230469 121.070312 Z M 135.230469 121.070312 " fill-opacity="1" fill-rule="nonzero"/><path fill="#87ce98" d="M 196.160156 63.09375 C 194.351562 61.003906 195.683594 58.480469 195.417969 56.203125 C 195.054688 53.089844 194.953125 49.738281 196.140625 46.625 C 196.84375 46.050781 197.683594 45.816406 198.5625 45.695312 C 199.46875 46.601562 199.253906 47.773438 199.289062 48.863281 C 199.371094 51.820312 199.183594 54.777344 199.429688 57.734375 C 198.335938 59.519531 197.246094 61.308594 196.160156 63.09375 Z M 196.160156 63.09375 " fill-opacity="1" fill-rule="nonzero"/><path fill="#99c47f" d="M 117.792969 116.378906 C 118.429688 118.988281 118.742188 121.59375 117.667969 124.175781 C 115.652344 123.621094 113.804688 122.675781 111.96875 121.710938 C 111.515625 121.207031 111.285156 120.585938 111.347656 119.929688 C 111.515625 118.253906 110.929688 116.824219 110.074219 115.453125 C 112.679688 115.460938 115.25 115.777344 117.792969 116.378906 Z M 117.792969 116.378906 " fill-opacity="1" fill-rule="nonzero"/><path fill="#85cd96" d="M 199.421875 57.734375 C 198.363281 57.160156 198.558594 56.144531 198.558594 55.207031 C 198.550781 52.035156 198.558594 48.863281 198.558594 45.6875 C 199.960938 45.054688 201.34375 44.363281 202.90625 44.199219 C 203.421875 47.265625 203.113281 50.332031 202.90625 53.402344 C 202.15625 55.171875 200.425781 56.15625 199.421875 57.734375 Z M 199.421875 57.734375 " fill-opacity="1" fill-rule="nonzero"/><path fill="#9aca8a" d="M 123.574219 127.042969 C 124.558594 124.222656 123.851562 121.316406 123.957031 118.457031 C 123.96875 118.105469 123.414062 117.730469 123.117188 117.371094 C 124.808594 117.53125 126.4375 117.933594 127.980469 118.648438 C 129.34375 121.722656 128.710938 124.90625 128.453125 128.0625 C 128.40625 128.613281 128.058594 129.132812 127.324219 129.027344 C 125.972656 128.5625 124.71875 127.910156 123.574219 127.042969 Z M 123.574219 127.042969 " fill-opacity="1" fill-rule="nonzero"/><path fill="#9cdaa3" d="M 151.613281 175.042969 C 151.378906 171.777344 152.214844 168.457031 151.140625 165.234375 C 152.269531 164.585938 153.402344 163.945312 154.527344 163.300781 C 155.507812 164.496094 155.03125 165.921875 154.980469 167.203125 C 154.851562 170.253906 155.585938 173.359375 154.546875 176.371094 C 153.453125 176.1875 152.496094 175.695312 151.613281 175.042969 Z M 151.613281 175.042969 " fill-opacity="1" fill-rule="nonzero"/><path fill="#9acc8c" d="M 127.324219 129.023438 C 128.492188 127.882812 127.839844 126.441406 127.910156 125.140625 C 128.03125 122.980469 127.96875 120.8125 127.980469 118.644531 C 129.429688 118.441406 130.398438 119.839844 131.800781 119.78125 C 130.921875 122.585938 131.488281 125.464844 131.308594 128.304688 C 131.25 129.214844 131.652344 130.246094 130.703125 130.960938 C 129.460938 130.523438 128.3125 129.921875 127.324219 129.023438 Z M 127.324219 129.023438 " fill-opacity="1" fill-rule="nonzero"/><path fill="#7ac28b" d="M 233.851562 37.851562 C 228.109375 39.503906 222.363281 41.132812 216.941406 43.722656 C 215.804688 44.238281 215.585938 43.410156 215.441406 42.628906 C 215.234375 41.457031 215.746094 40.679688 216.921875 40.375 C 222.5 38.972656 228.125 37.871094 233.859375 37.328125 C 233.976562 37.445312 234.007812 37.5625 233.96875 37.679688 C 233.929688 37.792969 233.890625 37.851562 233.851562 37.851562 Z M 233.851562 37.851562 " fill-opacity="1" fill-rule="nonzero"/><path fill="#9ed49a" d="M 133.789062 167.078125 C 137.234375 166.261719 140.71875 166.8125 144.179688 166.792969 C 145.167969 166.789062 145.402344 167.707031 145.339844 168.558594 C 145.253906 169.730469 145.875 171.269531 143.902344 171.542969 C 140.53125 170.054688 137.15625 168.566406 133.789062 167.078125 Z M 133.789062 167.078125 " fill-opacity="1" fill-rule="nonzero"/><path fill="#83cb94" d="M 202.914062 53.402344 C 202.066406 50.332031 202.1875 47.265625 202.914062 44.199219 C 203.984375 43.683594 205.066406 43.195312 206.296875 43.230469 C 207.570312 45.191406 206.707031 47.511719 207.371094 49.578125 C 206.273438 51.3125 204.074219 51.75 202.914062 53.402344 Z M 202.914062 53.402344 " fill-opacity="1" fill-rule="nonzero"/><path fill="#80c891" d="M 207.371094 49.582031 C 205.820312 48.871094 206.382812 47.460938 206.3125 46.285156 C 206.246094 45.269531 206.296875 44.25 206.296875 43.234375 C 207.804688 42.386719 209.4375 41.992188 211.140625 41.800781 C 212.148438 43.113281 211.757812 44.78125 212.269531 46.226562 C 210.628906 47.34375 209 48.464844 207.371094 49.582031 Z M 207.371094 49.582031 " fill-opacity="1" fill-rule="nonzero"/><path fill="#98c079" d="M 110.070312 115.460938 C 111.5625 115.855469 112.265625 116.703125 112.015625 118.359375 C 111.847656 119.453125 111.976562 120.597656 111.96875 121.71875 C 109.765625 121.140625 107.679688 120.273438 105.644531 119.277344 C 106.019531 117.992188 105.757812 116.535156 106.664062 115.390625 C 107.792969 115.410156 108.933594 115.433594 110.070312 115.460938 Z M 110.070312 115.460938 " fill-opacity="1" fill-rule="nonzero"/><g clip-path="url(#a8aa4c074d)"><path fill="#99bd76" d="M 106.65625 115.382812 C 106.230469 116.65625 107.660156 118.417969 105.636719 119.269531 C 102.316406 118.234375 99 117.199219 95.679688 116.164062 C 95.703125 115.945312 95.722656 115.726562 95.75 115.5 C 99.382812 115.324219 103.011719 115.183594 106.65625 115.382812 Z M 106.65625 115.382812 " fill-opacity="1" fill-rule="nonzero"/></g><path fill="#7dc58e" d="M 212.261719 46.21875 C 210.292969 45.152344 211.449219 43.289062 211.132812 41.792969 C 213.007812 41.09375 214.933594 40.601562 216.921875 40.371094 C 215.921875 41.488281 215.085938 42.609375 216.941406 43.714844 C 215.566406 44.890625 213.773438 45.292969 212.261719 46.21875 Z M 212.261719 46.21875 " fill-opacity="1" fill-rule="nonzero"/><path fill="#daf3e0" d="M 165.6875 139.566406 C 166.136719 140.019531 166.765625 140.6875 166.324219 141.164062 C 165.75 141.792969 165.445312 140.972656 165.1875 140.507812 C 165.355469 140.195312 165.519531 139.886719 165.6875 139.566406 Z M 165.6875 139.566406 " fill-opacity="1" fill-rule="nonzero"/><path fill="#91cb9f" d="M 233.851562 37.851562 C 233.851562 37.679688 233.859375 37.503906 233.859375 37.328125 C 234.589844 36.734375 235.460938 36.964844 236.28125 36.933594 C 236.449219 37.042969 236.5 37.148438 236.4375 37.238281 C 236.378906 37.328125 236.320312 37.378906 236.253906 37.378906 C 235.453125 37.542969 234.652344 37.699219 233.851562 37.851562 Z M 233.851562 37.851562 " fill-opacity="1" fill-rule="nonzero"/><path fill="#8cd39d" d="M 192.269531 90.203125 C 192.28125 89.042969 192.289062 87.878906 192.300781 86.714844 C 192.960938 87.8125 192.683594 89.023438 192.703125 90.203125 C 192.5625 90.203125 192.414062 90.203125 192.269531 90.203125 Z M 192.269531 90.203125 " fill-opacity="1" fill-rule="nonzero"/><g clip-path="url(#0ec0b57c87)"><path fill="#baddc2" d="M 236.261719 37.386719 C 236.28125 37.238281 236.292969 37.089844 236.289062 36.941406 C 236.921875 36.609375 237.5625 36.332031 238.757812 36.714844 C 237.652344 37.003906 236.953125 37.199219 236.261719 37.386719 Z M 236.261719 37.386719 " fill-opacity="1" fill-rule="nonzero"/></g><path fill="#8cd39d" d="M 192.269531 75.191406 C 192.417969 75.191406 192.566406 75.191406 192.710938 75.191406 C 192.695312 76.214844 192.929688 77.261719 192.300781 78.199219 C 192.289062 77.195312 192.28125 76.195312 192.269531 75.191406 Z M 192.269531 75.191406 " fill-opacity="1" fill-rule="nonzero"/><path fill="#2c4d58" d="M 268.175781 70.019531 C 269.414062 68.480469 270.363281 66.644531 272.445312 65.949219 C 275.925781 64.78125 279.160156 66.449219 280.832031 70.433594 C 286.953125 85.054688 293.035156 99.679688 299.136719 114.308594 C 302.519531 122.410156 305.917969 130.507812 309.3125 138.605469 C 309.648438 139.398438 310.011719 140.179688 310.402344 141.046875 C 311.488281 140.300781 311.59375 139.238281 311.964844 138.34375 C 321.273438 116.09375 330.558594 93.824219 339.863281 71.570312 C 340.328125 70.457031 340.789062 69.308594 341.453125 68.316406 C 343.148438 65.792969 346.523438 64.925781 349.253906 66.191406 C 352.019531 67.472656 353.648438 70.5625 352.691406 73.46875 C 351.621094 76.722656 350.210938 79.859375 348.890625 83.023438 C 338.203125 108.644531 327.484375 134.25 316.820312 159.875 C 315.613281 162.773438 313.75 164.671875 310.523438 164.644531 C 307.449219 164.621094 305.472656 162.886719 304.433594 160.039062 C 304.328125 159.753906 304.171875 159.496094 304.058594 159.210938 C 292.707031 132.007812 281.367188 104.808594 269.992188 77.613281 C 269.503906 76.445312 269.390625 75.042969 268.175781 74.253906 C 268.175781 72.859375 268.175781 71.441406 268.175781 70.019531 Z M 268.175781 70.019531 " fill-opacity="1" fill-rule="nonzero"/><path fill="#2c4d58" d="M 373.773438 165.335938 C 370.328125 163.203125 369.417969 160.085938 369.453125 156.113281 C 369.613281 138.125 369.5 120.140625 369.53125 102.15625 C 369.539062 96.65625 374.398438 93.359375 378.953125 95.707031 C 381.191406 96.855469 382.398438 98.753906 382.398438 101.328125 C 382.398438 120.53125 382.398438 139.722656 382.398438 158.925781 C 382.398438 162.359375 380.203125 164.078125 377.414062 165.335938 C 376.207031 165.335938 374.988281 165.335938 373.773438 165.335938 Z M 373.773438 165.335938 " fill-opacity="1" fill-rule="nonzero"/><path fill="#f6f7f7" d="M 580.722656 165.335938 C 580.722656 165.15625 580.722656 164.980469 580.722656 164.800781 C 581.816406 163.601562 583.292969 163.753906 584.6875 163.746094 C 592.972656 163.707031 601.25 163.707031 609.539062 163.746094 C 610.925781 163.753906 612.40625 163.589844 613.503906 164.785156 C 613.503906 164.960938 613.503906 165.148438 613.503906 165.328125 C 602.566406 165.335938 591.644531 165.335938 580.722656 165.335938 Z M 580.722656 165.335938 " fill-opacity="1" fill-rule="nonzero"/><path fill="#2c4d58" d="M 613.496094 164.792969 C 602.574219 164.792969 591.644531 164.800781 580.722656 164.800781 C 569.160156 162.773438 562.21875 155.691406 561.707031 145.378906 C 561.480469 140.761719 563.808594 137.679688 567.707031 137.4375 C 571.601562 137.191406 574.292969 139.976562 574.617188 144.558594 C 574.925781 148.949219 577.882812 151.925781 582.253906 151.949219 C 592.164062 152.015625 602.070312 152.015625 611.976562 151.957031 C 616.46875 151.933594 619.496094 148.800781 619.542969 144.234375 C 619.589844 139.277344 619.601562 134.320312 619.535156 129.363281 C 619.476562 124.667969 616.414062 121.617188 611.6875 121.59375 C 602.078125 121.550781 592.476562 121.585938 582.871094 121.585938 C 570.578125 121.578125 561.917969 112.878906 561.925781 100.546875 C 561.925781 95.589844 561.878906 90.636719 561.925781 85.679688 C 562.039062 74.636719 570.765625 65.800781 581.75 65.695312 C 591.960938 65.605469 602.175781 65.617188 612.382812 65.695312 C 622.785156 65.777344 631.324219 73.777344 632.222656 84.113281 C 632.621094 88.664062 630.390625 91.890625 626.507812 92.304688 C 622.867188 92.6875 619.378906 89.515625 619.4375 85.34375 C 619.496094 81.289062 616.21875 78.433594 612.125 78.410156 C 602.117188 78.34375 592.105469 78.34375 582.09375 78.417969 C 577.882812 78.449219 574.769531 81.476562 574.671875 85.644531 C 574.550781 90.902344 574.558594 96.167969 574.664062 101.425781 C 574.753906 105.847656 577.941406 108.765625 582.601562 108.78125 C 592.105469 108.816406 601.609375 108.78125 611.117188 108.789062 C 623.605469 108.800781 632.238281 117.4375 632.273438 129.949219 C 632.28125 133.996094 632.273438 138.035156 632.273438 142.085938 C 632.28125 155.171875 626.410156 162.269531 613.496094 164.792969 Z M 613.496094 164.792969 " fill-opacity="1" fill-rule="nonzero"/><path fill="#2c4d58" d="M 477.472656 114.949219 C 477.472656 100.996094 477.464844 87.03125 477.472656 73.078125 C 477.484375 67.636719 479.738281 65.363281 485.234375 65.355469 C 503.535156 65.332031 521.832031 65.339844 540.132812 65.355469 C 544.917969 65.363281 547.949219 68 547.890625 71.96875 C 547.828125 75.933594 544.804688 78.417969 539.960938 78.402344 C 524.394531 78.328125 508.828125 78.277344 493.261719 78.109375 C 491.007812 78.085938 490.105469 78.480469 490.164062 81.03125 C 490.34375 89.214844 490.332031 97.417969 490.171875 105.601562 C 490.121094 107.964844 490.859375 108.402344 493.050781 108.386719 C 504.070312 108.273438 515.085938 108.320312 526.105469 108.34375 C 530.394531 108.351562 533.207031 110.730469 533.429688 114.386719 C 533.671875 118.460938 530.9375 121.269531 526.414062 121.308594 C 517.625 121.382812 508.828125 121.324219 500.03125 121.324219 C 498.515625 121.324219 497 121.339844 495.480469 121.339844 C 490.226562 121.355469 490.226562 121.347656 490.226562 126.753906 C 490.226562 133.933594 490.390625 141.121094 490.148438 148.292969 C 490.050781 151.121094 491 151.535156 493.519531 151.511719 C 509.191406 151.398438 524.859375 151.421875 540.53125 151.472656 C 546.375 151.488281 549.683594 156.6875 546.917969 161.3125 C 545.378906 163.882812 542.945312 164.515625 540.164062 164.507812 C 530.558594 164.492188 520.957031 164.5 511.351562 164.5 C 502.753906 164.5 494.160156 164.507812 485.566406 164.5 C 479.640625 164.492188 477.464844 162.351562 477.464844 156.515625 C 477.464844 142.660156 477.472656 128.804688 477.472656 114.949219 Z M 477.472656 114.949219 " fill-opacity="1" fill-rule="nonzero"/><path fill="#2c4d58" d="M 402.039062 128.765625 C 402.039062 119.660156 402.011719 110.558594 402.046875 101.457031 C 402.070312 94.640625 406.519531 91.980469 412.457031 95.242188 C 413.136719 95.617188 413.640625 95.851562 414.378906 95.542969 C 419.082031 93.53125 424.058594 93.71875 429.003906 93.832031 C 433.238281 93.929688 437.484375 93.425781 441.710938 94.195312 C 451.179688 95.933594 458.136719 103.851562 458.226562 113.503906 C 458.363281 128.164062 458.289062 142.832031 458.25 157.5 C 458.242188 161.660156 455.589844 164.425781 451.851562 164.433594 C 448.019531 164.433594 445.398438 161.570312 445.390625 157.214844 C 445.367188 143.261719 445.382812 129.300781 445.382812 115.347656 C 445.382812 109.660156 442.535156 106.738281 436.871094 106.691406 C 432.320312 106.648438 427.773438 106.65625 423.222656 106.671875 C 417.871094 106.691406 414.984375 109.5625 414.984375 114.90625 C 414.96875 128.863281 414.992188 142.824219 414.976562 156.777344 C 414.96875 160.621094 413.226562 163.234375 410.242188 164.039062 C 405.878906 165.207031 402.109375 162.1875 402.070312 157.289062 C 401.980469 147.773438 402.039062 138.265625 402.039062 128.765625 Z M 402.039062 128.765625 " fill-opacity="1" fill-rule="nonzero"/><path fill="#2c4d58" d="M 369.558594 74.027344 C 369.566406 69.429688 371.234375 66.871094 374.671875 66.273438 C 377.550781 65.769531 379.863281 66.726562 381.476562 69.167969 C 383.046875 71.554688 382.886719 77.742188 381.183594 79.910156 C 379.382812 82.199219 377.023438 83.042969 374.1875 82.222656 C 370.894531 81.265625 369.546875 78.847656 369.558594 74.027344 Z M 369.558594 74.027344 " fill-opacity="1" fill-rule="nonzero"/></svg>