<svg xmlns="http://www.w3.org/2000/svg" xmlns:xlink="http://www.w3.org/1999/xlink" width="1000" zoomAndPan="magnify" viewBox="0 0 750 225" height="300" preserveAspectRatio="xMidYMid meet" version="1.0"><defs><clipPath id="e3e00bcbbe"><path d="M 85 34.707031 L 239 34.707031 L 239 183 L 85 183 Z M 85 34.707031 " clip-rule="nonzero"/></clipPath><clipPath id="fd08e3b138"><path d="M 381 94 L 420 94 L 420 141.773438 L 381 141.773438 Z M 381 94 " clip-rule="nonzero"/></clipPath><clipPath id="a029882612"><path d="M 510 94 L 556 94 L 556 141.773438 L 510 141.773438 Z M 510 94 " clip-rule="nonzero"/></clipPath><clipPath id="f7a06c19d6"><path d="M 583 94 L 618 94 L 618 141.773438 L 583 141.773438 Z M 583 94 " clip-rule="nonzero"/></clipPath><clipPath id="60890ea389"><path d="M 257.125 94 L 301 94 L 301 141.773438 L 257.125 141.773438 Z M 257.125 94 " clip-rule="nonzero"/></clipPath><clipPath id="f2f730ed3d"><path d="M 455 94 L 484 94 L 484 141.773438 L 455 141.773438 Z M 455 94 " clip-rule="nonzero"/></clipPath><clipPath id="879ab77911"><path d="M 645 92 L 682.375 92 L 682.375 141.773438 L 645 141.773438 Z M 645 92 " clip-rule="nonzero"/></clipPath><clipPath id="4e5cbc1885"><path d="M 332 94 L 346 94 L 346 141.773438 L 332 141.773438 Z M 332 94 " clip-rule="nonzero"/></clipPath></defs><g clip-path="url(#e3e00bcbbe)"><path fill="#3c3c3c" d="M 238.027344 34.925781 C 235.230469 33.667969 231.09375 38.179688 229.695312 38.652344 C 225.511719 39.472656 221.648438 41.453125 218.539062 44.367188 C 213.140625 49.6875 179.285156 100.585938 171.167969 110.042969 C 166.832031 115.109375 163.285156 119.621094 162.183594 119.621094 C 161.078125 119.621094 157.53125 115.109375 153.195312 110.042969 C 145.078125 100.566406 111.183594 49.6875 105.804688 44.367188 C 102.695312 41.453125 98.832031 39.472656 94.652344 38.652344 C 93.253906 38.179688 89.132812 33.667969 86.316406 34.925781 C 84.167969 35.914062 86.492188 40.464844 86.492188 40.464844 C 87.460938 43.300781 99.242188 71.027344 111.027344 96.722656 C 121.667969 119.898438 131.679688 139.878906 135.601562 147.683594 C 151.363281 178.972656 160.035156 182.226562 162.144531 182.265625 C 164.25 182.265625 173.019531 178.992188 188.6875 147.683594 C 192.628906 139.800781 202.636719 119.898438 213.277344 96.722656 C 225.101562 71.105469 236.925781 43.300781 237.773438 40.464844 C 237.832031 40.464844 240.175781 35.914062 238.027344 34.925781 Z M 234.085938 41.390625 C 228.90625 47.28125 192.253906 123.386719 183.976562 137.453125 C 175.699219 151.523438 165.136719 168.984375 162.203125 168.984375 C 159.285156 168.84375 148.824219 151.582031 140.527344 137.453125 C 132.230469 123.324219 95.539062 47.28125 90.355469 41.390625 C 88.996094 39.792969 85.648438 36.679688 86.847656 36.011719 C 88.601562 35.046875 92.761719 39.695312 95.203125 40.328125 C 98.625 40.851562 101.773438 42.503906 104.148438 45.015625 C 108.582031 49.234375 116.722656 62.515625 131.105469 83.972656 C 140.09375 97.414062 147.582031 107.757812 151.777344 113.039062 C 157 119.660156 160.605469 122.890625 162.183594 122.890625 C 163.757812 122.890625 167.34375 119.71875 172.566406 113.039062 C 176.765625 107.777344 184.253906 97.433594 193.238281 83.972656 C 207.625 62.515625 215.742188 49.234375 220.214844 45.015625 C 222.589844 42.5 225.738281 40.847656 229.160156 40.328125 C 231.644531 39.695312 235.761719 35.046875 237.496094 36.011719 C 238.757812 36.679688 235.40625 39.792969 234.007812 41.390625 Z M 234.085938 41.390625 " fill-opacity="1" fill-rule="nonzero"/></g><path fill="#3c3c3c" d="M 225.773438 45.527344 C 223.800781 48.757812 216.117188 63.855469 206.304688 81.667969 C 195.40625 101.589844 182.378906 124.113281 179.78125 128.507812 C 174.914062 136.722656 165.21875 150.734375 162.183594 150.832031 C 159.167969 150.714844 149.472656 136.722656 144.605469 128.488281 C 142.023438 124.113281 129.078125 101.589844 118.101562 81.667969 C 108.25 63.933594 100.484375 48.757812 98.632812 45.527344 C 96.78125 42.296875 97.351562 41.191406 101.195312 45.527344 C 106.929688 52.167969 120.683594 76.089844 120.683594 76.089844 C 120.683594 76.089844 144.410156 115.660156 148.113281 120.902344 C 151.816406 126.144531 159.402344 135.9375 162.144531 136.035156 C 164.921875 135.9375 172.6875 125.867188 176.191406 120.902344 C 179.699219 115.933594 203.664062 76.089844 203.664062 76.089844 C 203.664062 76.089844 217.457031 52.226562 223.191406 45.644531 C 227.035156 41.191406 227.644531 42.019531 225.773438 45.527344 Z M 225.773438 45.527344 " fill-opacity="1" fill-rule="nonzero"/><g clip-path="url(#fd08e3b138)"><path fill="#3c3c3c" d="M 408.363281 113.019531 C 402.535156 106.441406 394.1875 103.835938 392.953125 94.472656 L 381.335938 94.472656 L 381.335938 141.636719 L 392.773438 141.636719 L 392.773438 113.019531 C 392.773438 114.785156 400.988281 119.511719 404.210938 124.371094 C 406.382812 127.050781 407.789062 130.269531 408.277344 133.6875 C 408.59375 136.339844 408.695312 139.011719 408.585938 141.679688 L 419.757812 141.679688 L 419.757812 94.515625 L 408.363281 94.515625 Z M 408.363281 113.019531 " fill-opacity="1" fill-rule="evenodd"/></g><g clip-path="url(#a029882612)"><path fill="#3c3c3c" d="M 536.566406 94.476562 L 524.996094 94.476562 C 521.417969 106.359375 517.089844 120.179688 513.425781 132.015625 C 512.453125 135.238281 511.570312 138.242188 510.511719 141.644531 L 519.34375 141.644531 C 522.566406 141.644531 522.566406 141.644531 523.757812 138.417969 C 524.953125 135.195312 524.953125 134.621094 529.148438 134.621094 C 533.34375 134.621094 535.152344 135.105469 536.917969 131.925781 L 538.421875 129.058594 C 539.390625 133.207031 540.40625 137.402344 541.425781 141.6875 L 555.378906 141.6875 C 555.070312 140.628906 546.546875 112.453125 542.128906 98.277344 C 541.8125 97.082031 541.074219 96.042969 540.050781 95.34375 C 539.03125 94.648438 537.792969 94.339844 536.566406 94.476562 Z M 530.425781 124.332031 C 529.589844 124.332031 527.867188 124.730469 527.511719 125.878906 L 528 124.332031 L 532.414062 109.359375 C 532.722656 110.332031 535.375 119.386719 536.832031 124.332031 Z M 530.425781 124.332031 " fill-opacity="1" fill-rule="evenodd"/></g><g clip-path="url(#f7a06c19d6)"><path fill="#3c3c3c" d="M 608.015625 115.714844 C 601.746094 112.753906 596.710938 112.492188 596.710938 108.558594 C 596.710938 106.042969 598.65625 104.410156 601.921875 104.410156 C 605.851562 104.410156 609.605469 106.085938 609.605469 108.824219 C 610.753906 108.824219 611.871094 108.472656 612.808594 107.816406 C 613.75 107.160156 614.464844 106.234375 614.863281 105.160156 C 615.1875 103.8125 615.109375 102.398438 614.640625 101.097656 C 614.167969 99.792969 613.324219 98.65625 612.210938 97.828125 C 609.167969 95.957031 605.714844 94.84375 602.148438 94.582031 C 598.585938 94.320312 595.007812 94.917969 591.722656 96.328125 C 589.34375 97.199219 587.304688 98.8125 585.90625 100.925781 C 584.507812 103.039062 583.820312 105.542969 583.949219 108.074219 C 583.949219 114.65625 590.925781 118.453125 593.488281 119.867188 C 596.050781 121.277344 599.625 122.867188 601.613281 123.929688 C 603.601562 124.988281 605.101562 127.109375 604.75 128.699219 C 604.394531 130.289062 601.789062 131.214844 600.332031 131.171875 C 597.507812 131.058594 594.753906 130.273438 592.296875 128.875 C 589.1875 127.347656 586.367188 125.300781 583.949219 122.824219 L 583.949219 131.214844 C 583.949219 134.527344 586.90625 136.78125 589.558594 138.503906 C 593.023438 140.617188 597.023438 141.707031 601.082031 141.636719 C 603.320312 141.753906 605.558594 141.421875 607.667969 140.664062 C 609.773438 139.90625 611.710938 138.734375 613.359375 137.222656 C 615.777344 134.75 617.152344 131.445312 617.203125 127.992188 C 617.203125 122.605469 614.773438 119.160156 607.839844 115.714844 " fill-opacity="1" fill-rule="evenodd"/></g><g clip-path="url(#60890ea389)"><path fill="#3c3c3c" d="M 288.285156 94.609375 C 289.257812 105.519531 283.074219 114.617188 280.644531 124.550781 C 278.527344 118.8125 274.023438 104.679688 272.167969 99.027344 C 271.460938 96.863281 270.578125 94.609375 267.75 94.609375 C 264.21875 94.609375 260.683594 94.609375 257.195312 94.609375 C 257.195312 94.875 257.195312 95.050781 257.195312 95.183594 C 262.628906 110.375 268.367188 126.582031 273.84375 141.773438 L 283.296875 141.773438 C 284.296875 141.613281 285.238281 141.183594 286.015625 140.53125 C 286.792969 139.878906 287.378906 139.027344 287.710938 138.066406 C 289.300781 133.429688 296.542969 113.777344 298.664062 107.152344 C 300.121094 103.1875 300.738281 98.960938 300.472656 94.742188 Z M 288.285156 94.609375 " fill-opacity="1" fill-rule="evenodd"/></g><g clip-path="url(#f2f730ed3d)"><path fill="#3c3c3c" d="M 455.882812 141.679688 L 468.734375 141.679688 L 468.734375 123.265625 L 475.535156 123.265625 C 479.949219 123.265625 482.113281 120.925781 482.113281 117.257812 L 482.113281 112.84375 C 477.699219 112.84375 473.28125 112.84375 468.867188 112.84375 L 468.867188 105.160156 L 483.746094 105.160156 L 483.746094 94.472656 L 455.882812 94.472656 Z M 455.882812 141.679688 " fill-opacity="1" fill-rule="evenodd"/></g><g clip-path="url(#879ab77911)"><path fill="#3c3c3c" d="M 663.707031 94.472656 L 645.246094 94.472656 L 645.246094 104.410156 L 656.375 104.410156 L 656.375 141.683594 L 669.273438 141.683594 C 669.273438 129.230469 669.273438 116.863281 669.273438 104.410156 C 676.867188 104.410156 677.664062 104.675781 680.222656 102.601562 C 682.785156 100.523438 682.253906 99.550781 682.253906 92.175781 C 678.8125 94.828125 669.714844 94.472656 663.664062 94.472656 " fill-opacity="1" fill-rule="evenodd"/></g><g clip-path="url(#4e5cbc1885)"><path fill="#3c3c3c" d="M 340.621094 94.472656 L 332.757812 94.472656 L 332.757812 141.679688 L 345.476562 141.679688 C 345.476562 134.4375 345.476562 127.460938 345.476562 120.484375 C 345.476562 113.503906 345.476562 106.261719 345.476562 99.109375 C 345.523438 98.488281 345.429688 97.867188 345.203125 97.289062 C 344.976562 96.710938 344.625 96.191406 344.171875 95.769531 C 343.71875 95.34375 343.175781 95.027344 342.585938 94.84375 C 341.992188 94.65625 341.367188 94.605469 340.75 94.691406 " fill-opacity="1" fill-rule="evenodd"/></g></svg>