<svg xmlns="http://www.w3.org/2000/svg" xmlns:xlink="http://www.w3.org/1999/xlink" width="1000" zoomAndPan="magnify" viewBox="0 0 750 225" height="300" preserveAspectRatio="xMidYMid meet" version="1.0"><defs><g/><clipPath id="346323bb57"><path d="M 45 18 L 218 18 L 218 199 L 45 199 Z M 45 18 " clip-rule="nonzero"/></clipPath><clipPath id="99645fa533"><path d="M 170.933594 44.980469 C 179.824219 32.324219 193.171875 23.335938 217.207031 19.175781 C 217.207031 19.125 217.1875 19.0625 217.1875 18.980469 C 68.46875 35.351562 132.128906 145.726562 132.773438 147.136719 C 132.160156 146.273438 100.726562 108.664062 45.097656 114.054688 C 95.683594 126.175781 156.464844 180.734375 90.589844 175.128906 C 117.121094 189.921875 157.996094 203.269531 174.875 196.394531 C 221.371094 176.277344 136.4375 94.011719 170.933594 44.980469 " clip-rule="nonzero"/></clipPath><linearGradient x1="46.158165" gradientTransform="matrix(3.122758, 0, 0, 3.125943, 23.442978, 9.10001)" y1="66.30877" x2="29.452844" gradientUnits="userSpaceOnUse" y2="-2.320407" id="bbcd35f4c7"><stop stop-opacity="1" stop-color="rgb(99.273682%, 79.421997%, 25.17395%)" offset="0"/><stop stop-opacity="1" stop-color="rgb(99.194336%, 79.226685%, 25.088501%)" offset="0.015625"/><stop stop-opacity="1" stop-color="rgb(99.049377%, 78.895569%, 24.928284%)" offset="0.0234375"/><stop stop-opacity="1" stop-color="rgb(98.916626%, 78.623962%, 24.775696%)" offset="0.03125"/><stop stop-opacity="1" stop-color="rgb(98.783875%, 78.353882%, 24.621582%)" offset="0.0390625"/><stop stop-opacity="1" stop-color="rgb(98.649597%, 78.082275%, 24.468994%)" offset="0.046875"/><stop stop-opacity="1" stop-color="rgb(98.516846%, 77.810669%, 24.316406%)" offset="0.0546875"/><stop stop-opacity="1" stop-color="rgb(98.384094%, 77.539062%, 24.163818%)" offset="0.0625"/><stop stop-opacity="1" stop-color="rgb(98.251343%, 77.267456%, 24.01123%)" offset="0.0703125"/><stop stop-opacity="1" stop-color="rgb(98.117065%, 76.997375%, 23.857117%)" offset="0.078125"/><stop stop-opacity="1" stop-color="rgb(97.984314%, 76.725769%, 23.704529%)" offset="0.0859375"/><stop stop-opacity="1" stop-color="rgb(97.851562%, 76.454163%, 23.551941%)" offset="0.09375"/><stop stop-opacity="1" stop-color="rgb(97.717285%, 76.182556%, 23.399353%)" offset="0.101562"/><stop stop-opacity="1" stop-color="rgb(97.584534%, 75.91095%, 23.246765%)" offset="0.109375"/><stop stop-opacity="1" stop-color="rgb(97.451782%, 75.640869%, 23.092651%)" offset="0.117187"/><stop stop-opacity="1" stop-color="rgb(97.319031%, 75.369263%, 22.940063%)" offset="0.125"/><stop stop-opacity="1" stop-color="rgb(97.184753%, 75.097656%, 22.787476%)" offset="0.132812"/><stop stop-opacity="1" stop-color="rgb(97.052002%, 74.82605%, 22.634888%)" offset="0.140625"/><stop stop-opacity="1" stop-color="rgb(96.91925%, 74.554443%, 22.4823%)" offset="0.148437"/><stop stop-opacity="1" stop-color="rgb(96.786499%, 74.284363%, 22.328186%)" offset="0.15625"/><stop stop-opacity="1" stop-color="rgb(96.652222%, 74.012756%, 22.175598%)" offset="0.164062"/><stop stop-opacity="1" stop-color="rgb(96.513367%, 73.721313%, 22.016907%)" offset="0.171875"/><stop stop-opacity="1" stop-color="rgb(96.353149%, 73.370361%, 21.838379%)" offset="0.179687"/><stop stop-opacity="1" stop-color="rgb(96.180725%, 72.982788%, 21.64917%)" offset="0.1875"/><stop stop-opacity="1" stop-color="rgb(96.008301%, 72.595215%, 21.458435%)" offset="0.189014"/><stop stop-opacity="1" stop-color="rgb(95.922852%, 72.401428%, 21.363831%)" offset="0.195312"/><stop stop-opacity="1" stop-color="rgb(95.835876%, 72.206116%, 21.269226%)" offset="0.203125"/><stop stop-opacity="1" stop-color="rgb(95.661926%, 71.818542%, 21.080017%)" offset="0.210937"/><stop stop-opacity="1" stop-color="rgb(95.489502%, 71.429443%, 20.889282%)" offset="0.21875"/><stop stop-opacity="1" stop-color="rgb(95.317078%, 71.04187%, 20.700073%)" offset="0.226562"/><stop stop-opacity="1" stop-color="rgb(95.144653%, 70.652771%, 20.509338%)" offset="0.234375"/><stop stop-opacity="1" stop-color="rgb(94.972229%, 70.265198%, 20.320129%)" offset="0.242187"/><stop stop-opacity="1" stop-color="rgb(94.799805%, 69.877625%, 20.13092%)" offset="0.25"/><stop stop-opacity="1" stop-color="rgb(94.62738%, 69.488525%, 19.940186%)" offset="0.257812"/><stop stop-opacity="1" stop-color="rgb(94.454956%, 69.100952%, 19.750977%)" offset="0.265625"/><stop stop-opacity="1" stop-color="rgb(94.282532%, 68.711853%, 19.561768%)" offset="0.273437"/><stop stop-opacity="1" stop-color="rgb(94.110107%, 68.32428%, 19.371033%)" offset="0.28125"/><stop stop-opacity="1" stop-color="rgb(93.937683%, 67.935181%, 19.181824%)" offset="0.289062"/><stop stop-opacity="1" stop-color="rgb(93.765259%, 67.547607%, 18.991089%)" offset="0.296875"/><stop stop-opacity="1" stop-color="rgb(93.592834%, 67.160034%, 18.80188%)" offset="0.304687"/><stop stop-opacity="1" stop-color="rgb(93.418884%, 66.770935%, 18.612671%)" offset="0.3125"/><stop stop-opacity="1" stop-color="rgb(93.24646%, 66.383362%, 18.421936%)" offset="0.320312"/><stop stop-opacity="1" stop-color="rgb(93.074036%, 65.994263%, 18.232727%)" offset="0.328125"/><stop stop-opacity="1" stop-color="rgb(92.901611%, 65.606689%, 18.041992%)" offset="0.335937"/><stop stop-opacity="1" stop-color="rgb(92.729187%, 65.21759%, 17.852783%)" offset="0.34375"/><stop stop-opacity="1" stop-color="rgb(92.555237%, 64.825439%, 17.666626%)" offset="0.347656"/><stop stop-opacity="1" stop-color="rgb(92.468262%, 64.627075%, 17.575073%)" offset="0.351562"/><stop stop-opacity="1" stop-color="rgb(92.375183%, 64.401245%, 17.500305%)" offset="0.355469"/><stop stop-opacity="1" stop-color="rgb(92.282104%, 64.176941%, 17.427063%)" offset="0.359375"/><stop stop-opacity="1" stop-color="rgb(92.189026%, 63.951111%, 17.352295%)" offset="0.363281"/><stop stop-opacity="1" stop-color="rgb(92.095947%, 63.726807%, 17.279053%)" offset="0.367187"/><stop stop-opacity="1" stop-color="rgb(92.001343%, 63.500977%, 17.204285%)" offset="0.371094"/><stop stop-opacity="1" stop-color="rgb(91.908264%, 63.276672%, 17.129517%)" offset="0.375"/><stop stop-opacity="1" stop-color="rgb(91.815186%, 63.050842%, 17.054749%)" offset="0.378906"/><stop stop-opacity="1" stop-color="rgb(91.722107%, 62.826538%, 16.981506%)" offset="0.382812"/><stop stop-opacity="1" stop-color="rgb(91.629028%, 62.600708%, 16.906738%)" offset="0.386719"/><stop stop-opacity="1" stop-color="rgb(91.53595%, 62.376404%, 16.833496%)" offset="0.390625"/><stop stop-opacity="1" stop-color="rgb(91.441345%, 62.150574%, 16.758728%)" offset="0.394531"/><stop stop-opacity="1" stop-color="rgb(91.348267%, 61.92627%, 16.685486%)" offset="0.398437"/><stop stop-opacity="1" stop-color="rgb(91.255188%, 61.700439%, 16.610718%)" offset="0.402344"/><stop stop-opacity="1" stop-color="rgb(91.162109%, 61.476135%, 16.53595%)" offset="0.40625"/><stop stop-opacity="1" stop-color="rgb(91.069031%, 61.250305%, 16.461182%)" offset="0.410156"/><stop stop-opacity="1" stop-color="rgb(90.975952%, 61.026001%, 16.387939%)" offset="0.414062"/><stop stop-opacity="1" stop-color="rgb(90.881348%, 60.801697%, 16.313171%)" offset="0.417969"/><stop stop-opacity="1" stop-color="rgb(90.788269%, 60.577393%, 16.239929%)" offset="0.421875"/><stop stop-opacity="1" stop-color="rgb(90.69519%, 60.351562%, 16.165161%)" offset="0.425781"/><stop stop-opacity="1" stop-color="rgb(90.602112%, 60.127258%, 16.091919%)" offset="0.429688"/><stop stop-opacity="1" stop-color="rgb(90.509033%, 59.901428%, 16.017151%)" offset="0.433594"/><stop stop-opacity="1" stop-color="rgb(90.415955%, 59.677124%, 15.942383%)" offset="0.4375"/><stop stop-opacity="1" stop-color="rgb(90.32135%, 59.451294%, 15.867615%)" offset="0.441406"/><stop stop-opacity="1" stop-color="rgb(90.228271%, 59.22699%, 15.794373%)" offset="0.445312"/><stop stop-opacity="1" stop-color="rgb(90.135193%, 59.00116%, 15.719604%)" offset="0.449219"/><stop stop-opacity="1" stop-color="rgb(90.042114%, 58.776855%, 15.646362%)" offset="0.453125"/><stop stop-opacity="1" stop-color="rgb(89.949036%, 58.551025%, 15.571594%)" offset="0.457031"/><stop stop-opacity="1" stop-color="rgb(89.855957%, 58.326721%, 15.498352%)" offset="0.460937"/><stop stop-opacity="1" stop-color="rgb(89.761353%, 58.100891%, 15.423584%)" offset="0.464844"/><stop stop-opacity="1" stop-color="rgb(89.668274%, 57.876587%, 15.348816%)" offset="0.46875"/><stop stop-opacity="1" stop-color="rgb(89.575195%, 57.650757%, 15.274048%)" offset="0.472656"/><stop stop-opacity="1" stop-color="rgb(89.482117%, 57.426453%, 15.200806%)" offset="0.476562"/><stop stop-opacity="1" stop-color="rgb(89.389038%, 57.200623%, 15.126038%)" offset="0.480469"/><stop stop-opacity="1" stop-color="rgb(89.295959%, 56.976318%, 15.052795%)" offset="0.484375"/><stop stop-opacity="1" stop-color="rgb(89.201355%, 56.752014%, 14.978027%)" offset="0.488281"/><stop stop-opacity="1" stop-color="rgb(89.108276%, 56.52771%, 14.904785%)" offset="0.492187"/><stop stop-opacity="1" stop-color="rgb(89.015198%, 56.30188%, 14.830017%)" offset="0.496094"/><stop stop-opacity="1" stop-color="rgb(88.922119%, 56.077576%, 14.755249%)" offset="0.5"/><stop stop-opacity="1" stop-color="rgb(88.829041%, 55.851746%, 14.680481%)" offset="0.503906"/><stop stop-opacity="1" stop-color="rgb(88.735962%, 55.627441%, 14.607239%)" offset="0.507812"/><stop stop-opacity="1" stop-color="rgb(88.632202%, 55.432129%, 14.564514%)" offset="0.515625"/><stop stop-opacity="1" stop-color="rgb(88.398743%, 55.125427%, 14.567566%)" offset="0.523438"/><stop stop-opacity="1" stop-color="rgb(88.140869%, 54.901123%, 14.657593%)" offset="0.53125"/><stop stop-opacity="1" stop-color="rgb(87.882996%, 54.675293%, 14.74762%)" offset="0.539062"/><stop stop-opacity="1" stop-color="rgb(87.625122%, 54.450989%, 14.837646%)" offset="0.546875"/><stop stop-opacity="1" stop-color="rgb(87.365723%, 54.226685%, 14.927673%)" offset="0.554687"/><stop stop-opacity="1" stop-color="rgb(87.107849%, 54.00238%, 15.0177%)" offset="0.5625"/><stop stop-opacity="1" stop-color="rgb(86.849976%, 53.778076%, 15.107727%)" offset="0.570312"/><stop stop-opacity="1" stop-color="rgb(86.590576%, 53.552246%, 15.196228%)" offset="0.578125"/><stop stop-opacity="1" stop-color="rgb(86.380005%, 53.369141%, 15.270996%)" offset="0.59375"/><stop stop-opacity="1" stop-color="rgb(86.299133%, 53.29895%, 15.299988%)" offset="0.625"/><stop stop-opacity="1" stop-color="rgb(86.299133%, 53.29895%, 15.299988%)" offset="0.75"/><stop stop-opacity="1" stop-color="rgb(86.299133%, 53.29895%, 15.299988%)" offset="0.810986"/><stop stop-opacity="1" stop-color="rgb(86.299133%, 53.29895%, 15.299988%)" offset="1"/></linearGradient></defs><g clip-path="url(#346323bb57)"><g clip-path="url(#99645fa533)"><path fill="url(#bbcd35f4c7)" d="M 45.097656 18.980469 L 45.097656 203.269531 L 221.371094 203.269531 L 221.371094 18.980469 Z M 45.097656 18.980469 " fill-rule="nonzero"/></g></g><path fill="#368ccb" d="M 563.222656 142.859375 C 562.082031 142.804688 560.945312 142.667969 559.8125 142.515625 C 554.925781 141.855469 553.132812 140.140625 552.214844 135.265625 C 552.035156 134.316406 551.847656 133.367188 551.738281 132.40625 C 549.558594 113.285156 547.398438 94.160156 545.207031 75.039062 C 544.835938 71.8125 544.375 68.597656 543.871094 65.390625 C 543.703125 64.316406 543.152344 63.371094 541.898438 63.207031 C 540.65625 63.046875 539.945312 63.816406 539.390625 64.777344 C 539.042969 65.382812 538.746094 66.019531 538.4375 66.652344 C 531.765625 80.378906 525.097656 94.105469 518.429688 107.832031 C 515.035156 114.816406 511.632812 121.792969 508.0625 129.128906 C 505.078125 123.21875 502.269531 117.671875 499.476562 112.117188 C 491.703125 96.6875 483.933594 81.257812 476.167969 65.824219 C 475.425781 64.34375 474.527344 63.003906 472.617188 63.226562 C 470.757812 63.441406 470.644531 65.082031 470.484375 66.425781 C 469.179688 77.511719 467.945312 88.605469 466.675781 99.691406 C 465.246094 112.179688 463.835938 124.667969 462.335938 137.144531 C 461.789062 141.644531 461.210938 142.113281 456.613281 142.804688 C 455.445312 142.976562 454.101562 143.058594 454.113281 144.550781 C 454.128906 146.324219 455.675781 146.589844 456.996094 146.496094 C 463.417969 146.039062 469.828125 146.226562 476.246094 146.5 C 477.574219 146.558594 479.144531 146.296875 479.148438 144.554688 C 479.148438 142.929688 477.640625 142.925781 476.410156 142.738281 C 471.335938 141.96875 471.339844 141.957031 471.515625 136.734375 C 471.535156 136.121094 471.558594 135.503906 471.613281 134.890625 C 472.445312 125.34375 473.277344 115.796875 474.132812 106.253906 C 474.589844 101.128906 475.09375 96.003906 475.644531 90.171875 C 476.398438 91.664062 476.835938 92.5 477.246094 93.347656 C 485.171875 109.785156 493.097656 126.226562 502.015625 142.160156 C 502.917969 143.769531 503.453125 146.105469 505.804688 146.105469 C 508.324219 146.105469 508.773438 143.636719 509.621094 141.917969 C 517.839844 125.238281 525.992188 108.523438 534.175781 91.824219 C 534.542969 91.078125 534.667969 90.144531 535.5 89.695312 C 535.609375 89.757812 535.722656 89.789062 535.726562 89.832031 C 537.339844 106.1875 538.953125 122.546875 540.539062 138.90625 C 540.640625 139.9375 540.867188 141.003906 540.371094 142.019531 C 538.992188 144.847656 539.183594 145.316406 542.414062 145.699219 C 548.890625 146.464844 555.414062 146.257812 561.914062 146.515625 C 562.429688 146.539062 562.957031 146.375 563.472656 146.261719 C 564.519531 146.023438 565.316406 145.433594 565.15625 144.285156 C 565.023438 143.285156 564.222656 142.90625 563.222656 142.859375 Z M 563.222656 142.859375 " fill-opacity="1" fill-rule="nonzero"/><path fill="#368ccb" d="M 436.175781 63.476562 C 430.371094 63.4375 424.5625 63.472656 418.757812 63.484375 C 417.351562 63.488281 415.941406 63.472656 414.539062 63.53125 C 413.480469 63.574219 412.636719 63.949219 412.644531 65.234375 C 412.652344 66.480469 413.476562 66.929688 414.503906 67.058594 C 415.722656 67.210938 416.957031 67.265625 418.1875 67.320312 C 420.777344 67.4375 422.277344 68.722656 422.535156 71.332031 C 422.65625 72.554688 422.746094 73.785156 422.777344 75.011719 C 423.0625 86.265625 423.375 97.523438 423.582031 108.78125 C 423.691406 114.546875 423.601562 120.320312 423.601562 126.398438 C 408.296875 110.421875 393.207031 94.664062 378.109375 78.910156 C 373.300781 73.894531 368.503906 68.863281 363.65625 63.886719 C 362.566406 62.765625 361.324219 61.402344 359.5625 62.183594 C 357.984375 62.878906 358.054688 64.648438 357.902344 66.101562 C 357.765625 67.410156 357.835938 68.738281 357.835938 70.054688 C 357.832031 84.132812 357.84375 98.207031 357.828125 112.285156 C 357.820312 120.027344 357.859375 127.769531 357.699219 135.507812 C 357.601562 140.273438 356.820312 141.003906 352.292969 141.550781 C 350.929688 141.71875 349.367188 141.761719 349.488281 143.554688 C 349.609375 145.296875 351.222656 145.371094 352.542969 145.285156 C 359.667969 144.835938 366.785156 144.980469 373.910156 145.277344 C 375.28125 145.335938 377.0625 145.320312 377.089844 143.382812 C 377.109375 141.578125 375.460938 141.6875 374.136719 141.566406 C 368.203125 141.007812 367.371094 140.160156 366.832031 134.175781 C 366.773438 133.476562 366.765625 132.769531 366.746094 132.066406 C 366.453125 121.691406 366.105469 111.316406 365.890625 100.9375 C 365.769531 95.09375 365.867188 89.25 365.867188 83.042969 C 370.671875 88.109375 375.289062 93.007812 379.929688 97.878906 C 394.375 113.039062 408.773438 128.246094 424.140625 142.492188 C 425.359375 143.617188 426.667969 144.707031 428.089844 145.542969 C 429.75 146.515625 431.007812 146.046875 431.179688 143.929688 C 431.289062 142.53125 431.320312 141.121094 431.332031 139.714844 C 431.460938 117.371094 431.574219 95.023438 431.710938 72.679688 C 431.738281 68.414062 432.421875 67.628906 436.308594 67.144531 C 437.648438 66.980469 439.195312 66.894531 439.175781 65.125 C 439.140625 63.160156 437.414062 63.484375 436.175781 63.476562 Z M 436.175781 63.476562 " fill-opacity="1" fill-rule="nonzero"/><path fill="#368ccb" d="M 317.183594 50.5 C 318.054688 50.351562 318.632812 49.894531 318.734375 48.96875 C 318.851562 47.898438 318.265625 47.292969 317.320312 47.054688 C 316.648438 46.886719 315.921875 46.792969 315.234375 46.84375 C 307.847656 47.375 300.464844 47.007812 293.082031 46.828125 C 292.203125 46.804688 291.332031 46.824219 290.496094 47.210938 C 289.65625 47.601562 289.316406 48.253906 289.410156 49.117188 C 289.5 49.910156 290.019531 50.371094 290.804688 50.476562 C 291.414062 50.554688 292.03125 50.574219 292.644531 50.601562 C 297.253906 50.789062 297.90625 51.675781 296.574219 56.097656 C 293.96875 64.765625 290.605469 73.160156 287.414062 81.613281 C 281.804688 96.46875 276.066406 111.273438 269.699219 126.46875 C 266.925781 119.09375 264.359375 112.289062 261.808594 105.480469 C 255.597656 88.878906 249.355469 72.289062 243.21875 55.664062 C 241.796875 51.816406 242.46875 51.019531 246.492188 50.632812 C 247.953125 50.496094 250.238281 51.125 250.214844 48.84375 C 250.191406 46.53125 247.882812 46.941406 246.296875 46.839844 C 244.808594 46.746094 243.300781 46.769531 241.8125 46.886719 C 236.011719 47.347656 230.214844 47.160156 224.410156 46.890625 C 222.128906 46.785156 219.832031 46.785156 217.550781 46.867188 C 216.238281 46.914062 214.664062 47.066406 214.722656 48.878906 C 214.777344 50.539062 216.21875 50.5 217.480469 50.621094 C 218.957031 50.761719 220.449219 50.960938 221.890625 51.304688 C 226.667969 52.449219 228.273438 56.453125 229.851562 60.398438 C 240.445312 86.878906 251.003906 113.371094 261.597656 139.847656 C 262.441406 141.964844 263.277344 144.117188 264.425781 146.070312 C 265.710938 148.246094 267.613281 148.140625 268.953125 146 C 269.558594 145.039062 270.035156 143.988281 270.507812 142.953125 C 280.632812 120.84375 289.605469 98.242188 299.003906 75.828125 C 301.617188 69.597656 304.261719 63.378906 306.902344 57.160156 C 308.679688 52.972656 311.625 50.460938 316.390625 50.578125 C 316.660156 50.585938 316.925781 50.546875 317.183594 50.5 Z M 317.183594 50.5 " fill-opacity="1" fill-rule="nonzero"/><path fill="#368ccb" d="M 619.773438 131.554688 C 618.582031 131.355469 617.984375 132.089844 617.691406 133.113281 C 617.449219 133.953125 617.292969 134.816406 617.089844 135.667969 C 616.339844 138.753906 614.300781 140.519531 611.242188 140.984375 C 606.089844 141.765625 600.902344 141.859375 595.730469 141.121094 C 592.0625 140.597656 590.609375 139.304688 590.535156 135.679688 C 590.351562 126.710938 590.4375 117.734375 590.390625 108.765625 C 590.382812 107.742188 590.734375 107.359375 591.765625 107.40625 C 596.863281 107.617188 601.976562 107.589844 607.050781 108.03125 C 610.898438 108.367188 611.394531 109.144531 611.828125 113.023438 C 611.960938 114.1875 611.957031 115.496094 613.488281 115.566406 C 614.972656 115.636719 615.335938 114.386719 615.441406 113.214844 C 615.824219 108.929688 615.984375 104.625 616.796875 100.382812 C 616.953125 99.574219 616.832031 98.738281 615.960938 98.359375 C 615.140625 98 614.386719 98.296875 613.839844 98.96875 C 612.753906 100.300781 611.28125 100.824219 609.65625 100.871094 C 603.765625 101.042969 597.871094 101.136719 591.980469 101.296875 C 590.929688 101.324219 590.375 101.117188 590.378906 99.875 C 590.421875 91.164062 590.421875 82.457031 590.378906 73.746094 C 590.375 72.566406 590.785156 72.246094 591.902344 72.289062 C 597.257812 72.507812 602.644531 72.023438 607.964844 72.953125 C 611.285156 73.535156 613.253906 73.640625 613.292969 78.316406 C 613.304688 79.425781 613.460938 80.777344 615.019531 80.84375 C 616.640625 80.910156 617.082031 79.613281 617.210938 78.371094 C 617.582031 74.699219 617.824219 71.023438 618.492188 67.378906 C 618.804688 65.679688 618.121094 64.585938 616.089844 65.203125 C 613.714844 65.921875 611.269531 66.09375 608.796875 66.078125 C 597.273438 66 585.75 65.941406 574.222656 65.886719 C 573.167969 65.878906 572.113281 65.902344 571.058594 65.96875 C 570.097656 66.03125 569.34375 66.414062 569.292969 67.523438 C 569.242188 68.578125 569.851562 69.175781 570.789062 69.402344 C 571.464844 69.566406 572.179688 69.582031 572.878906 69.628906 C 577.414062 69.933594 578.183594 70.648438 578.277344 75.230469 C 578.667969 93.789062 578.636719 112.347656 578.355469 130.910156 C 578.308594 133.804688 578.207031 136.695312 577.800781 139.585938 C 577.441406 142.144531 576.71875 143.941406 573.699219 143.945312 C 572.441406 143.949219 570.742188 144.070312 570.925781 145.964844 C 571.109375 147.90625 572.832031 147.671875 574.210938 147.730469 C 574.914062 147.761719 575.617188 147.722656 576.316406 147.664062 C 582.382812 147.15625 588.449219 147.316406 594.515625 147.894531 C 601.375 147.894531 608.234375 147.890625 615.097656 147.898438 C 617.109375 147.902344 618.820312 147.339844 619.4375 145.226562 C 620.550781 141.414062 621.046875 137.492188 621.140625 133.527344 C 621.15625 132.609375 620.855469 131.738281 619.773438 131.554688 Z M 619.773438 131.554688 " fill-opacity="1" fill-rule="nonzero"/><path fill="#368ccb" d="M 341.230469 141.003906 C 340.003906 140.910156 338.785156 140.675781 337.558594 140.621094 C 335.085938 140.519531 333.914062 139.160156 333.71875 136.808594 C 333.53125 134.617188 333.234375 132.429688 333.230469 130.238281 C 333.175781 110.96875 333.148438 91.703125 333.1875 72.433594 C 333.195312 67.878906 334.175781 66.429688 338.25 66.46875 C 339.449219 66.476562 340.609375 66.007812 340.550781 64.5 C 340.484375 62.890625 339.164062 62.871094 338.023438 62.867188 C 330.632812 62.839844 323.242188 62.847656 315.851562 62.863281 C 314.660156 62.867188 313.378906 63.03125 313.328125 64.542969 C 313.28125 65.953125 314.410156 66.351562 315.648438 66.542969 C 320.453125 67.28125 320.984375 67.804688 321 72.777344 C 321.050781 90.726562 321.050781 108.671875 321.023438 126.621094 C 321.019531 129.339844 320.816406 132.066406 320.59375 134.78125 C 320.1875 139.75 320.15625 139.765625 315.238281 141.042969 C 314.269531 141.292969 313.640625 141.71875 313.59375 142.773438 C 313.539062 143.898438 314.28125 144.375 315.199219 144.523438 C 316.140625 144.675781 317.121094 144.695312 318.082031 144.660156 C 321.511719 144.539062 324.9375 144.367188 328.363281 144.214844 C 328.363281 144.351562 328.363281 144.484375 328.363281 144.617188 C 331.003906 144.617188 333.640625 144.613281 336.277344 144.617188 C 337.949219 144.617188 339.625 144.726562 341.285156 144.597656 C 342.371094 144.515625 343.394531 144.039062 343.261719 142.625 C 343.152344 141.410156 342.296875 141.09375 341.230469 141.003906 Z M 341.230469 141.003906 " fill-opacity="1" fill-rule="nonzero"/><g fill="#368ccb" fill-opacity="1"><g transform="translate(271.162021, 198.482183)"><g><path d="M 5.453125 -1 L 7.59375 -0.65625 L 7.59375 0 L 0.921875 0 L 0.921875 -0.65625 L 3.0625 -1 L 3.0625 -15.71875 L 0.921875 -16.03125 L 0.921875 -16.703125 L 7.59375 -16.703125 L 7.59375 -16.03125 L 5.453125 -15.71875 Z M 5.453125 -1 "/></g></g></g><g fill="#368ccb" fill-opacity="1"><g transform="translate(279.645915, 198.482183)"><g><path d="M 14.375 -15.71875 L 12.125 -16.03125 L 12.125 -16.703125 L 17.8125 -16.703125 L 17.8125 -16.03125 L 15.671875 -15.71875 L 15.671875 0 L 14.46875 0 L 4.1875 -15.015625 L 4.1875 -1 L 6.421875 -0.65625 L 6.421875 0 L 0.734375 0 L 0.734375 -0.65625 L 2.875 -1 L 2.875 -15.71875 L 0.734375 -16.03125 L 0.734375 -16.703125 L 5.78125 -16.703125 L 14.375 -4.328125 Z M 14.375 -15.71875 "/></g></g></g><g fill="#368ccb" fill-opacity="1"><g transform="translate(298.044271, 198.482183)"><g><path d="M 3.921875 0 L 3.921875 -0.65625 L 6.5625 -1 L 6.5625 -15.625 L 5.9375 -15.625 C 3.832031 -15.625 2.394531 -15.539062 1.625 -15.375 L 1.296875 -12.78125 L 0.453125 -12.78125 L 0.453125 -16.703125 L 15.140625 -16.703125 L 15.140625 -12.78125 L 14.296875 -12.78125 L 13.96875 -15.375 C 13.71875 -15.4375 13.171875 -15.488281 12.328125 -15.53125 C 11.492188 -15.570312 10.578125 -15.59375 9.578125 -15.59375 L 8.96875 -15.59375 L 8.96875 -1 L 11.625 -0.65625 L 11.625 0 Z M 3.921875 0 "/></g></g></g><g fill="#368ccb" fill-opacity="1"><g transform="translate(313.60637, 198.482183)"><g><path d="M 0.734375 -0.65625 L 2.875 -1 L 2.875 -15.71875 L 0.734375 -16.03125 L 0.734375 -16.703125 L 13.25 -16.703125 L 13.25 -12.703125 L 12.4375 -12.703125 L 12.03125 -15.40625 C 11.101562 -15.519531 9.757812 -15.578125 8 -15.578125 L 5.28125 -15.578125 L 5.28125 -9.046875 L 9.78125 -9.046875 L 10.171875 -11.046875 L 10.96875 -11.046875 L 10.96875 -5.921875 L 10.171875 -5.921875 L 9.78125 -7.9375 L 5.28125 -7.9375 L 5.28125 -1.125 L 8.5625 -1.125 C 10.695312 -1.125 12.097656 -1.1875 12.765625 -1.3125 L 13.46875 -4.40625 L 14.296875 -4.40625 L 14.0625 0 L 0.734375 0 Z M 0.734375 -0.65625 "/></g></g></g><g fill="#368ccb" fill-opacity="1"><g transform="translate(329.168469, 198.482183)"><g><path d="M 5.28125 -7.328125 L 5.28125 -1 L 7.796875 -0.65625 L 7.796875 0 L 0.890625 0 L 0.890625 -0.65625 L 2.875 -1 L 2.875 -15.71875 L 0.734375 -16.03125 L 0.734375 -16.703125 L 7.9375 -16.703125 C 10.03125 -16.703125 11.570312 -16.347656 12.5625 -15.640625 C 13.5625 -14.929688 14.0625 -13.796875 14.0625 -12.234375 C 14.0625 -11.128906 13.757812 -10.171875 13.15625 -9.359375 C 12.550781 -8.546875 11.710938 -7.984375 10.640625 -7.671875 L 15.15625 -1 L 16.953125 -0.65625 L 16.953125 0 L 12.96875 0 L 8.28125 -7.328125 Z M 11.578125 -12.0625 C 11.578125 -13.332031 11.269531 -14.234375 10.65625 -14.765625 C 10.039062 -15.304688 8.957031 -15.578125 7.40625 -15.578125 L 5.28125 -15.578125 L 5.28125 -8.4375 L 7.484375 -8.4375 C 8.960938 -8.4375 10.015625 -8.710938 10.640625 -9.265625 C 11.265625 -9.816406 11.578125 -10.75 11.578125 -12.0625 Z M 11.578125 -12.0625 "/></g></g></g><g fill="#368ccb" fill-opacity="1"><g transform="translate(346.161136, 198.482183)"><g><path d="M 14.375 -15.71875 L 12.125 -16.03125 L 12.125 -16.703125 L 17.8125 -16.703125 L 17.8125 -16.03125 L 15.671875 -15.71875 L 15.671875 0 L 14.46875 0 L 4.1875 -15.015625 L 4.1875 -1 L 6.421875 -0.65625 L 6.421875 0 L 0.734375 0 L 0.734375 -0.65625 L 2.875 -1 L 2.875 -15.71875 L 0.734375 -16.03125 L 0.734375 -16.703125 L 5.78125 -16.703125 L 14.375 -4.328125 Z M 14.375 -15.71875 "/></g></g></g><g fill="#368ccb" fill-opacity="1"><g transform="translate(364.559493, 198.482183)"><g><path d="M 5.734375 -0.65625 L 5.734375 0 L 0.25 0 L 0.25 -0.65625 L 2.140625 -1 L 7.828125 -16.828125 L 10.1875 -16.828125 L 16.109375 -1 L 18.21875 -0.65625 L 18.21875 0 L 11.15625 0 L 11.15625 -0.65625 L 13.40625 -1 L 11.75 -5.8125 L 5.171875 -5.8125 L 3.5 -1 Z M 8.40625 -15.046875 L 5.546875 -6.9375 L 11.359375 -6.9375 Z M 8.40625 -15.046875 "/></g></g></g><g fill="#368ccb" fill-opacity="1"><g transform="translate(380.133928, 198.482183)"><g><path d="M 3.921875 0 L 3.921875 -0.65625 L 6.5625 -1 L 6.5625 -15.625 L 5.9375 -15.625 C 3.832031 -15.625 2.394531 -15.539062 1.625 -15.375 L 1.296875 -12.78125 L 0.453125 -12.78125 L 0.453125 -16.703125 L 15.140625 -16.703125 L 15.140625 -12.78125 L 14.296875 -12.78125 L 13.96875 -15.375 C 13.71875 -15.4375 13.171875 -15.488281 12.328125 -15.53125 C 11.492188 -15.570312 10.578125 -15.59375 9.578125 -15.59375 L 8.96875 -15.59375 L 8.96875 -1 L 11.625 -0.65625 L 11.625 0 Z M 3.921875 0 "/></g></g></g><g fill="#368ccb" fill-opacity="1"><g transform="translate(395.696027, 198.482183)"><g><path d="M 5.453125 -1 L 7.59375 -0.65625 L 7.59375 0 L 0.921875 0 L 0.921875 -0.65625 L 3.0625 -1 L 3.0625 -15.71875 L 0.921875 -16.03125 L 0.921875 -16.703125 L 7.59375 -16.703125 L 7.59375 -16.03125 L 5.453125 -15.71875 Z M 5.453125 -1 "/></g></g></g><g fill="#368ccb" fill-opacity="1"><g transform="translate(404.179921, 198.482183)"><g><path d="M 3.640625 -8.375 C 3.640625 -5.6875 4.085938 -3.738281 4.984375 -2.53125 C 5.878906 -1.332031 7.285156 -0.734375 9.203125 -0.734375 C 11.097656 -0.734375 12.5 -1.332031 13.40625 -2.53125 C 14.3125 -3.738281 14.765625 -5.6875 14.765625 -8.375 C 14.765625 -11.03125 14.3125 -12.945312 13.40625 -14.125 C 12.507812 -15.300781 11.109375 -15.890625 9.203125 -15.890625 C 7.285156 -15.890625 5.878906 -15.300781 4.984375 -14.125 C 4.085938 -12.945312 3.640625 -11.03125 3.640625 -8.375 Z M 1.046875 -8.375 C 1.046875 -14.050781 3.765625 -16.890625 9.203125 -16.890625 C 11.890625 -16.890625 13.921875 -16.164062 15.296875 -14.71875 C 16.671875 -13.28125 17.359375 -11.164062 17.359375 -8.375 C 17.359375 -5.53125 16.660156 -3.378906 15.265625 -1.921875 C 13.867188 -0.472656 11.847656 0.25 9.203125 0.25 C 6.546875 0.25 4.519531 -0.472656 3.125 -1.921875 C 1.738281 -3.367188 1.046875 -5.519531 1.046875 -8.375 Z M 1.046875 -8.375 "/></g></g></g><g fill="#368ccb" fill-opacity="1"><g transform="translate(422.578278, 198.482183)"><g><path d="M 14.375 -15.71875 L 12.125 -16.03125 L 12.125 -16.703125 L 17.8125 -16.703125 L 17.8125 -16.03125 L 15.671875 -15.71875 L 15.671875 0 L 14.46875 0 L 4.1875 -15.015625 L 4.1875 -1 L 6.421875 -0.65625 L 6.421875 0 L 0.734375 0 L 0.734375 -0.65625 L 2.875 -1 L 2.875 -15.71875 L 0.734375 -16.03125 L 0.734375 -16.703125 L 5.78125 -16.703125 L 14.375 -4.328125 Z M 14.375 -15.71875 "/></g></g></g><g fill="#368ccb" fill-opacity="1"><g transform="translate(440.976634, 198.482183)"><g><path d="M 5.734375 -0.65625 L 5.734375 0 L 0.25 0 L 0.25 -0.65625 L 2.140625 -1 L 7.828125 -16.828125 L 10.1875 -16.828125 L 16.109375 -1 L 18.21875 -0.65625 L 18.21875 0 L 11.15625 0 L 11.15625 -0.65625 L 13.40625 -1 L 11.75 -5.8125 L 5.171875 -5.8125 L 3.5 -1 Z M 8.40625 -15.046875 L 5.546875 -6.9375 L 11.359375 -6.9375 Z M 8.40625 -15.046875 "/></g></g></g><g fill="#368ccb" fill-opacity="1"><g transform="translate(459.374991, 198.482183)"><g><path d="M 7.859375 -16.03125 L 5.28125 -15.71875 L 5.28125 -1.078125 L 8.5625 -1.078125 C 10.332031 -1.078125 11.628906 -1.15625 12.453125 -1.3125 L 13.234375 -4.796875 L 14.03125 -4.796875 L 13.8125 0 L 0.734375 0 L 0.734375 -0.65625 L 2.875 -1 L 2.875 -15.71875 L 0.734375 -16.03125 L 0.734375 -16.703125 L 7.859375 -16.703125 Z M 7.859375 -16.03125 "/></g></g></g><g fill="#368ccb" fill-opacity="1"><g transform="translate(473.991647, 198.482183)"><g/></g></g><g fill="#368ccb" fill-opacity="1"><g transform="translate(480.360788, 198.482183)"><g><path d="M 0.734375 0 L 0.734375 -0.65625 L 2.875 -1 L 2.875 -15.71875 L 0.734375 -16.03125 L 0.734375 -16.703125 L 7.421875 -16.703125 L 7.421875 -16.03125 L 5.28125 -15.71875 L 5.28125 -9.15625 L 13.125 -9.15625 L 13.125 -15.71875 L 10.984375 -16.03125 L 10.984375 -16.703125 L 17.65625 -16.703125 L 17.65625 -16.03125 L 15.515625 -15.71875 L 15.515625 -1 L 17.65625 -0.65625 L 17.65625 0 L 10.984375 0 L 10.984375 -0.65625 L 13.125 -1 L 13.125 -8.03125 L 5.28125 -8.03125 L 5.28125 -1 L 7.421875 -0.65625 L 7.421875 0 Z M 0.734375 0 "/></g></g></g><g fill="#368ccb" fill-opacity="1"><g transform="translate(498.759133, 198.482183)"><g><path d="M 3.640625 -8.375 C 3.640625 -5.6875 4.085938 -3.738281 4.984375 -2.53125 C 5.878906 -1.332031 7.285156 -0.734375 9.203125 -0.734375 C 11.097656 -0.734375 12.5 -1.332031 13.40625 -2.53125 C 14.3125 -3.738281 14.765625 -5.6875 14.765625 -8.375 C 14.765625 -11.03125 14.3125 -12.945312 13.40625 -14.125 C 12.507812 -15.300781 11.109375 -15.890625 9.203125 -15.890625 C 7.285156 -15.890625 5.878906 -15.300781 4.984375 -14.125 C 4.085938 -12.945312 3.640625 -11.03125 3.640625 -8.375 Z M 1.046875 -8.375 C 1.046875 -14.050781 3.765625 -16.890625 9.203125 -16.890625 C 11.890625 -16.890625 13.921875 -16.164062 15.296875 -14.71875 C 16.671875 -13.28125 17.359375 -11.164062 17.359375 -8.375 C 17.359375 -5.53125 16.660156 -3.378906 15.265625 -1.921875 C 13.867188 -0.472656 11.847656 0.25 9.203125 0.25 C 6.546875 0.25 4.519531 -0.472656 3.125 -1.921875 C 1.738281 -3.367188 1.046875 -5.519531 1.046875 -8.375 Z M 1.046875 -8.375 "/></g></g></g><g fill="#368ccb" fill-opacity="1"><g transform="translate(517.157478, 198.482183)"><g><path d="M 1.734375 -4.5 L 2.53125 -4.5 L 2.96875 -2.234375 C 3.28125 -1.847656 3.8125 -1.503906 4.5625 -1.203125 C 5.3125 -0.910156 6.050781 -0.765625 6.78125 -0.765625 C 7.945312 -0.765625 8.851562 -1.0625 9.5 -1.65625 C 10.15625 -2.25 10.484375 -3.066406 10.484375 -4.109375 C 10.484375 -4.703125 10.351562 -5.191406 10.09375 -5.578125 C 9.84375 -5.972656 9.507812 -6.304688 9.09375 -6.578125 C 8.6875 -6.847656 8.222656 -7.078125 7.703125 -7.265625 C 7.179688 -7.453125 6.644531 -7.640625 6.09375 -7.828125 C 5.539062 -8.023438 5.003906 -8.238281 4.484375 -8.46875 C 3.960938 -8.695312 3.492188 -8.988281 3.078125 -9.34375 C 2.671875 -9.707031 2.335938 -10.148438 2.078125 -10.671875 C 1.828125 -11.203125 1.703125 -11.851562 1.703125 -12.625 C 1.703125 -13.957031 2.195312 -15 3.1875 -15.75 C 4.1875 -16.507812 5.570312 -16.890625 7.34375 -16.890625 C 8.6875 -16.890625 10.144531 -16.707031 11.71875 -16.34375 L 11.71875 -12.875 L 10.90625 -12.875 L 10.484375 -14.921875 C 9.628906 -15.535156 8.582031 -15.84375 7.34375 -15.84375 C 6.226562 -15.84375 5.359375 -15.613281 4.734375 -15.15625 C 4.109375 -14.707031 3.796875 -14.082031 3.796875 -13.28125 C 3.796875 -12.738281 3.921875 -12.289062 4.171875 -11.9375 C 4.421875 -11.582031 4.75 -11.273438 5.15625 -11.015625 C 5.570312 -10.765625 6.039062 -10.546875 6.5625 -10.359375 C 7.09375 -10.179688 7.632812 -9.992188 8.1875 -9.796875 C 8.738281 -9.609375 9.28125 -9.390625 9.8125 -9.140625 C 10.34375 -8.898438 10.8125 -8.585938 11.21875 -8.203125 C 11.625 -7.828125 11.953125 -7.367188 12.203125 -6.828125 C 12.460938 -6.285156 12.59375 -5.613281 12.59375 -4.8125 C 12.59375 -3.207031 12.097656 -1.960938 11.109375 -1.078125 C 10.117188 -0.191406 8.695312 0.25 6.84375 0.25 C 5.945312 0.25 5.046875 0.171875 4.140625 0.015625 C 3.234375 -0.140625 2.429688 -0.359375 1.734375 -0.640625 Z M 1.734375 -4.5 "/></g></g></g><g fill="#368ccb" fill-opacity="1"><g transform="translate(531.326316, 198.482183)"><g><path d="M 10.671875 -11.75 C 10.671875 -13.125 10.351562 -14.101562 9.71875 -14.6875 C 9.082031 -15.28125 8.007812 -15.578125 6.5 -15.578125 L 5.28125 -15.578125 L 5.28125 -7.671875 L 6.5625 -7.671875 C 7.96875 -7.671875 9.003906 -7.988281 9.671875 -8.625 C 10.335938 -9.269531 10.671875 -10.3125 10.671875 -11.75 Z M 5.28125 -6.546875 L 5.28125 -1 L 7.921875 -0.65625 L 7.921875 0 L 0.890625 0 L 0.890625 -0.65625 L 2.875 -1 L 2.875 -15.71875 L 0.734375 -16.03125 L 0.734375 -16.703125 L 7.03125 -16.703125 C 11.113281 -16.703125 13.15625 -15.0625 13.15625 -11.78125 C 13.15625 -10.070312 12.632812 -8.769531 11.59375 -7.875 C 10.5625 -6.988281 9.082031 -6.546875 7.15625 -6.546875 Z M 5.28125 -6.546875 "/></g></g></g><g fill="#368ccb" fill-opacity="1"><g transform="translate(545.495154, 198.482183)"><g><path d="M 5.453125 -1 L 7.59375 -0.65625 L 7.59375 0 L 0.921875 0 L 0.921875 -0.65625 L 3.0625 -1 L 3.0625 -15.71875 L 0.921875 -16.03125 L 0.921875 -16.703125 L 7.59375 -16.703125 L 7.59375 -16.03125 L 5.453125 -15.71875 Z M 5.453125 -1 "/></g></g></g><g fill="#368ccb" fill-opacity="1"><g transform="translate(553.979048, 198.482183)"><g><path d="M 3.921875 0 L 3.921875 -0.65625 L 6.5625 -1 L 6.5625 -15.625 L 5.9375 -15.625 C 3.832031 -15.625 2.394531 -15.539062 1.625 -15.375 L 1.296875 -12.78125 L 0.453125 -12.78125 L 0.453125 -16.703125 L 15.140625 -16.703125 L 15.140625 -12.78125 L 14.296875 -12.78125 L 13.96875 -15.375 C 13.71875 -15.4375 13.171875 -15.488281 12.328125 -15.53125 C 11.492188 -15.570312 10.578125 -15.59375 9.578125 -15.59375 L 8.96875 -15.59375 L 8.96875 -1 L 11.625 -0.65625 L 11.625 0 Z M 3.921875 0 "/></g></g></g><g fill="#368ccb" fill-opacity="1"><g transform="translate(567.500951, 198.482183)"><g><path d="M 5.734375 -0.65625 L 5.734375 0 L 0.25 0 L 0.25 -0.65625 L 2.140625 -1 L 7.828125 -16.828125 L 10.1875 -16.828125 L 16.109375 -1 L 18.21875 -0.65625 L 18.21875 0 L 11.15625 0 L 11.15625 -0.65625 L 13.40625 -1 L 11.75 -5.8125 L 5.171875 -5.8125 L 3.5 -1 Z M 8.40625 -15.046875 L 5.546875 -6.9375 L 11.359375 -6.9375 Z M 8.40625 -15.046875 "/></g></g></g><g fill="#368ccb" fill-opacity="1"><g transform="translate(585.899297, 198.482183)"><g><path d="M 7.859375 -16.03125 L 5.28125 -15.71875 L 5.28125 -1.078125 L 8.5625 -1.078125 C 10.332031 -1.078125 11.628906 -1.15625 12.453125 -1.3125 L 13.234375 -4.796875 L 14.03125 -4.796875 L 13.8125 0 L 0.734375 0 L 0.734375 -0.65625 L 2.875 -1 L 2.875 -15.71875 L 0.734375 -16.03125 L 0.734375 -16.703125 L 7.859375 -16.703125 Z M 7.859375 -16.03125 "/></g></g></g><path fill="#368ccb" d="M 692.476562 135.488281 L 692.476562 142.019531 L 685.121094 143.683594 L 688.085938 126.105469 L 695.320312 126.105469 L 694.847656 143.328125 C 687.371094 147.367188 679.183594 149.03125 670.882812 149.03125 C 646.914062 149.03125 630.777344 131.6875 630.777344 107.457031 C 630.777344 83.703125 647.625 65.890625 670.761719 65.890625 C 677.171875 65.890625 685.59375 66.957031 693.660156 71.589844 L 694.132812 88.8125 L 686.898438 88.8125 L 683.933594 71.234375 L 691.289062 72.898438 L 691.289062 80.140625 C 684.523438 73.84375 677.878906 71.828125 672.1875 71.828125 C 656.167969 71.828125 643.234375 84.296875 643.234375 107.453125 C 643.234375 130.613281 654.863281 143.085938 671.351562 143.085938 C 678.121094 143.089844 685.710938 141.074219 692.476562 135.488281 Z M 692.476562 135.488281 " fill-opacity="1" fill-rule="nonzero"/></svg>