<svg xmlns="http://www.w3.org/2000/svg" xmlns:xlink="http://www.w3.org/1999/xlink" width="1000" zoomAndPan="magnify" viewBox="0 0 750 225" height="300" preserveAspectRatio="xMidYMid meet" version="1.0"><path fill="#004f9f" d="M 151.882812 98.21875 C 149.917969 106.078125 145.664062 115.578125 139.117188 124.746094 C 135.84375 129.007812 132.242188 133.265625 128.316406 137.523438 C 119.476562 146.363281 110.3125 153.242188 101.472656 157.171875 C 116.203125 157.171875 129.625 150.621094 138.789062 140.46875 C 149.265625 129.660156 154.503906 114.265625 151.882812 98.21875 Z M 151.882812 98.21875 " fill-opacity="1" fill-rule="nonzero"/><path fill="#004f9f" d="M 139.117188 108.699219 C 147.957031 95.925781 154.175781 82.824219 156.140625 72.34375 C 156.464844 70.050781 156.792969 67.757812 156.792969 65.792969 L 156.792969 65.136719 C 156.792969 60.222656 155.15625 56.621094 150.574219 54.65625 C 147.628906 53.671875 143.699219 54 139.117188 55.3125 C 135.515625 56.621094 131.261719 58.585938 126.679688 61.535156 C 105.402344 49.414062 78.230469 54.328125 62.847656 72.34375 C 50.078125 86.425781 46.480469 109.355469 54.664062 126.714844 C 51.390625 118.523438 51.0625 108.699219 53.027344 100.183594 C 53.351562 98.546875 54.007812 96.582031 54.335938 94.941406 C 54.335938 94.613281 54.664062 93.960938 54.664062 93.632812 C 54.988281 92.648438 55.644531 91.667969 55.972656 91.011719 C 61.210938 79.875 70.703125 73.324219 77.902344 76.601562 C 85.105469 79.875 86.742188 91.011719 81.503906 103.132812 C 79.867188 106.40625 76.59375 112.957031 72.339844 120.164062 C 62.191406 137.847656 53.351562 161.105469 68.410156 163.722656 C 72.992188 164.050781 78.230469 162.742188 83.796875 160.121094 C 102.128906 152.589844 124.058594 130.972656 139.117188 108.699219 Z M 139.117188 59.570312 C 148.28125 56.949219 151.554688 62.515625 144.355469 78.566406 C 142.71875 75.945312 141.082031 73.652344 139.117188 71.6875 C 136.5 69.066406 133.550781 66.449219 129.953125 63.828125 C 133.550781 61.535156 136.5 60.222656 139.117188 59.570312 Z M 139.117188 59.570312 " fill-opacity="1" fill-rule="nonzero"/><path fill="#004f9f" d="M 618.792969 69.992188 L 618.296875 84.824219 L 654.953125 84.824219 L 654.953125 155.027344 L 671.792969 155.027344 L 671.792969 84.824219 L 708.449219 84.824219 L 708.449219 69.992188 Z M 618.792969 69.992188 " fill-opacity="1" fill-rule="nonzero"/><path fill="#004f9f" d="M 554.398438 69.496094 L 496.9375 69.496094 L 496.9375 154.535156 L 514.769531 154.535156 L 514.769531 123.386719 L 541.519531 123.386719 L 554.398438 122.890625 C 581.144531 123.386719 586.59375 105.585938 586.59375 96.195312 C 586.59375 88.285156 582.136719 69.496094 554.398438 69.496094 Z M 552.910156 109.046875 L 514.769531 109.046875 L 514.769531 84.328125 L 552.910156 84.328125 C 563.3125 84.824219 568.761719 90.261719 568.761719 96.195312 C 568.761719 103.609375 563.808594 108.554688 552.910156 109.046875 Z M 552.910156 109.046875 " fill-opacity="1" fill-rule="nonzero"/><path fill="#004f9f" d="M 415.203125 134.261719 L 357.25 69.992188 L 336.445312 69.992188 L 336.445312 155.027344 L 353.285156 155.027344 L 353.285156 90.753906 L 411.738281 155.027344 L 432.046875 155.027344 L 432.046875 69.992188 L 415.203125 69.992188 Z M 415.203125 134.261719 " fill-opacity="1" fill-rule="nonzero"/><path fill="#004f9f" d="M 239.851562 136.734375 L 205.671875 69.496094 L 187.34375 69.496094 L 230.441406 155.523438 L 248.769531 155.523438 L 292.855469 69.992188 L 274.527344 69.992188 Z M 239.851562 136.734375 " fill-opacity="1" fill-rule="nonzero"/></svg>