<svg xmlns="http://www.w3.org/2000/svg" xmlns:xlink="http://www.w3.org/1999/xlink" width="1000" zoomAndPan="magnify" viewBox="0 0 750 225" height="300" preserveAspectRatio="xMidYMid meet" version="1.0"><defs><clipPath id="cc9f06004b"><path d="M 55.65625 97 L 118 97 L 118 166 L 55.65625 166 Z M 55.65625 97 " clip-rule="nonzero"/></clipPath><clipPath id="ca2e6fd8ab"><path d="M 122 57.332031 L 150 57.332031 L 150 129 L 122 129 Z M 122 57.332031 " clip-rule="nonzero"/></clipPath><clipPath id="e3bfb564e1"><path d="M 90 57.332031 L 118 57.332031 L 118 129 L 90 129 Z M 90 57.332031 " clip-rule="nonzero"/></clipPath><clipPath id="4946422055"><path d="M 645 90 L 694.34375 90 L 694.34375 145 L 645 145 Z M 645 90 " clip-rule="nonzero"/></clipPath><clipPath id="c96bac158d"><path d="M 657 128 L 694.34375 128 L 694.34375 165 L 657 165 Z M 657 128 " clip-rule="nonzero"/></clipPath><clipPath id="07b0be3ada"><path d="M 196.417969 61 L 292 61 L 292 165 L 196.417969 165 Z M 196.417969 61 " clip-rule="nonzero"/></clipPath></defs><path fill="#e10600" d="M 182.238281 97.742188 L 167.496094 97.742188 C 165.386719 97.746094 163.304688 97.980469 161.25 98.441406 C 159.191406 98.902344 157.207031 99.578125 155.296875 100.472656 C 153.386719 101.363281 151.597656 102.453125 149.925781 103.738281 C 148.25 105.023438 146.738281 106.472656 145.378906 108.085938 L 121.972656 134.945312 L 121.972656 165.753906 C 124.195312 165.449219 126.296875 164.769531 128.28125 163.722656 C 130.261719 162.671875 132.007812 161.316406 133.511719 159.652344 L 183.84375 101.242188 C 184.117188 100.929688 184.289062 100.566406 184.347656 100.15625 C 184.410156 99.742188 184.355469 99.347656 184.179688 98.96875 C 184.007812 98.589844 183.746094 98.289062 183.394531 98.066406 C 183.039062 97.84375 182.65625 97.734375 182.238281 97.742188 Z M 182.238281 97.742188 " fill-opacity="1" fill-rule="nonzero"/><g clip-path="url(#cc9f06004b)"><path fill="#e10600" d="M 57.535156 97.742188 L 72.210938 97.742188 C 74.316406 97.746094 76.402344 97.980469 78.457031 98.441406 C 80.515625 98.902344 82.5 99.578125 84.410156 100.472656 C 86.316406 101.363281 88.109375 102.453125 89.78125 103.738281 C 91.453125 105.023438 92.96875 106.472656 94.328125 108.085938 L 117.804688 134.945312 L 117.804688 165.753906 C 115.582031 165.449219 113.476562 164.769531 111.496094 163.722656 C 109.511719 162.671875 107.769531 161.316406 106.261719 159.652344 L 56.3125 101.242188 C 56.042969 100.957031 55.867188 100.625 55.789062 100.242188 C 55.707031 99.863281 55.730469 99.488281 55.859375 99.117188 C 55.988281 98.75 56.203125 98.441406 56.503906 98.195312 C 56.804688 97.945312 57.148438 97.796875 57.535156 97.742188 Z M 57.535156 97.742188 " fill-opacity="1" fill-rule="nonzero"/></g><g clip-path="url(#ca2e6fd8ab)"><path fill="#e10600" d="M 149.859375 59.882812 L 149.859375 90.121094 C 149.828125 92.226562 149.453125 94.265625 148.738281 96.246094 C 148.023438 98.226562 147.007812 100.035156 145.691406 101.671875 L 122.28125 128.945312 L 122.28125 86.519531 L 146.652344 58.277344 C 147.308594 56.984375 149.859375 57.953125 149.859375 59.882812 Z M 149.859375 59.882812 " fill-opacity="1" fill-rule="nonzero"/></g><g clip-path="url(#e3bfb564e1)"><path fill="#e10600" d="M 90.226562 59.882812 L 90.226562 90.121094 C 90.257812 92.226562 90.632812 94.265625 91.34375 96.246094 C 92.058594 98.226562 93.078125 100.035156 94.394531 101.671875 L 117.804688 128.945312 L 117.804688 86.519531 L 93.429688 58.277344 C 92.464844 56.984375 90.226562 57.953125 90.226562 59.882812 Z M 90.226562 59.882812 " fill-opacity="1" fill-rule="nonzero"/></g><g clip-path="url(#4946422055)"><path fill="#e10600" d="M 692.875 90.878906 L 681.164062 90.878906 C 679.507812 90.882812 677.867188 91.054688 676.25 91.402344 C 674.628906 91.746094 673.0625 92.257812 671.550781 92.933594 C 670.039062 93.609375 668.613281 94.4375 667.273438 95.414062 C 665.9375 96.390625 664.714844 97.492188 663.609375 98.726562 L 645.089844 120.148438 L 645.089844 144.5 C 646.851562 144.199219 648.527344 143.632812 650.113281 142.804688 C 651.695312 141.972656 653.113281 140.914062 654.363281 139.636719 L 693.871094 93.390625 C 694.082031 93.183594 694.21875 92.9375 694.28125 92.648438 C 694.339844 92.359375 694.316406 92.078125 694.207031 91.804688 C 694.101562 91.53125 693.925781 91.308594 693.683594 91.140625 C 693.4375 90.972656 693.171875 90.886719 692.875 90.878906 Z M 692.875 90.878906 " fill-opacity="1" fill-rule="nonzero"/></g><g clip-path="url(#c96bac158d)"><path fill="#00b74f" d="M 665.078125 128.832031 L 659.839844 134.664062 C 659.429688 135.085938 659.066406 135.539062 658.746094 136.03125 C 658.429688 136.523438 658.160156 137.039062 657.9375 137.582031 C 657.71875 138.125 657.550781 138.679688 657.441406 139.253906 C 657.328125 139.828125 657.273438 140.410156 657.273438 140.996094 C 657.273438 141.578125 657.328125 142.160156 657.441406 142.734375 C 657.550781 143.308594 657.71875 143.867188 657.9375 144.410156 C 658.160156 144.953125 658.429688 145.46875 658.746094 145.957031 C 659.066406 146.449219 659.429688 146.90625 659.839844 147.324219 C 665.078125 154.152344 673.488281 164.351562 673.488281 164.351562 L 694.445312 164.351562 Z M 665.078125 128.832031 " fill-opacity="1" fill-rule="nonzero"/></g><g clip-path="url(#07b0be3ada)"><path fill="#00b74f" d="M 231.039062 164.875 L 196.402344 61.167969 L 218.828125 61.167969 L 244.191406 140.523438 L 269.550781 61.167969 L 291.871094 61.167969 L 256.269531 164.875 Z M 231.039062 164.875 " fill-opacity="1" fill-rule="nonzero"/></g><path fill="#00b74f" d="M 339.292969 61.167969 C 341.640625 61.125 343.972656 61.316406 346.28125 61.742188 C 348.59375 62.171875 350.835938 62.824219 353.015625 63.703125 C 355.195312 64.582031 357.261719 65.667969 359.222656 66.960938 C 361.183594 68.257812 362.992188 69.734375 364.652344 71.394531 C 365.886719 72.617188 367.023438 73.929688 368.066406 75.324219 C 369.105469 76.71875 370.035156 78.183594 370.855469 79.714844 C 371.675781 81.246094 372.378906 82.832031 372.964844 84.46875 C 373.550781 86.109375 374.011719 87.777344 374.347656 89.484375 C 374.683594 91.191406 374.890625 92.910156 374.96875 94.648438 C 375.050781 96.382812 375 98.117188 374.820312 99.847656 C 374.640625 101.574219 374.335938 103.28125 373.902344 104.964844 C 373.46875 106.648438 372.914062 108.292969 372.234375 109.894531 C 371.558594 111.496094 370.765625 113.039062 369.859375 114.519531 C 368.949219 116.003906 367.9375 117.414062 366.820312 118.746094 C 365.703125 120.078125 364.492188 121.320312 363.1875 122.472656 C 361.886719 123.628906 360.503906 124.679688 359.042969 125.625 C 357.585938 126.574219 356.0625 127.410156 354.480469 128.132812 C 352.894531 128.851562 351.265625 129.453125 349.59375 129.933594 C 347.917969 130.414062 346.21875 130.769531 344.492188 130.996094 C 342.765625 131.222656 341.035156 131.320312 339.292969 131.292969 L 321.242188 131.292969 L 321.242188 165.292969 L 300.78125 165.292969 L 300.78125 61.167969 Z M 339.292969 111.804688 C 339.800781 111.808594 340.308594 111.789062 340.816406 111.738281 C 341.324219 111.691406 341.828125 111.621094 342.324219 111.519531 C 342.824219 111.421875 343.316406 111.296875 343.804688 111.148438 C 344.292969 111 344.769531 110.828125 345.238281 110.632812 C 345.707031 110.433594 346.164062 110.214844 346.613281 109.96875 C 347.058594 109.726562 347.492188 109.460938 347.910156 109.171875 C 348.332031 108.886719 348.734375 108.578125 349.121094 108.25 C 349.511719 107.921875 349.882812 107.574219 350.234375 107.207031 C 350.585938 106.839844 350.921875 106.457031 351.234375 106.058594 C 351.546875 105.65625 351.839844 105.242188 352.113281 104.8125 C 352.382812 104.382812 352.632812 103.941406 352.859375 103.484375 C 353.085938 103.027344 353.289062 102.5625 353.46875 102.089844 C 353.644531 101.613281 353.800781 101.128906 353.929688 100.636719 C 354.058594 100.144531 354.164062 99.648438 354.242188 99.148438 C 354.324219 98.644531 354.375 98.140625 354.402344 97.632812 C 354.433594 97.125 354.433594 96.617188 354.410156 96.109375 C 354.445312 95.601562 354.453125 95.089844 354.433594 94.578125 C 354.414062 94.070312 354.371094 93.558594 354.300781 93.054688 C 354.226562 92.546875 354.128906 92.046875 354.003906 91.550781 C 353.882812 91.054688 353.730469 90.566406 353.558594 90.085938 C 353.382812 89.605469 353.183594 89.136719 352.957031 88.675781 C 352.734375 88.214844 352.484375 87.769531 352.214844 87.335938 C 351.945312 86.902344 351.652344 86.480469 351.335938 86.078125 C 351.023438 85.675781 350.6875 85.289062 350.332031 84.921875 C 349.976562 84.554688 349.605469 84.203125 349.210938 83.875 C 348.820312 83.542969 348.414062 83.234375 347.992188 82.949219 C 347.566406 82.660156 347.128906 82.398438 346.675781 82.15625 C 346.226562 81.914062 345.765625 81.695312 345.289062 81.503906 C 344.816406 81.308594 344.332031 81.140625 343.839844 81 C 343.351562 80.855469 342.851562 80.738281 342.347656 80.648438 C 341.84375 80.554688 341.335938 80.492188 340.828125 80.453125 C 340.316406 80.414062 339.804688 80.402344 339.292969 80.417969 L 321.242188 80.417969 L 321.242188 111.570312 Z M 339.292969 111.804688 " fill-opacity="1" fill-rule="nonzero"/><path fill="#00b74f" d="M 460.726562 134.691406 C 460.816406 136.710938 460.679688 138.714844 460.3125 140.703125 C 459.945312 142.691406 459.363281 144.613281 458.558594 146.46875 C 457.753906 148.324219 456.753906 150.066406 455.554688 151.695312 C 454.355469 153.324219 452.984375 154.796875 451.449219 156.113281 C 449.898438 157.507812 448.222656 158.738281 446.429688 159.808594 C 444.636719 160.878906 442.761719 161.765625 440.796875 162.476562 C 438.832031 163.183594 436.816406 163.699219 434.753906 164.019531 C 432.6875 164.339844 430.613281 164.457031 428.527344 164.378906 L 384.644531 164.378906 L 384.644531 61.167969 L 425.617188 61.167969 C 427.660156 61.144531 429.6875 61.308594 431.703125 61.65625 C 433.714844 62.003906 435.679688 62.53125 437.59375 63.234375 C 439.511719 63.941406 441.347656 64.816406 443.105469 65.855469 C 444.859375 66.898438 446.507812 68.089844 448.046875 69.429688 C 449.511719 70.75 450.824219 72.207031 451.984375 73.804688 C 453.144531 75.402344 454.121094 77.101562 454.921875 78.90625 C 455.722656 80.707031 456.324219 82.574219 456.726562 84.503906 C 457.132812 86.433594 457.328125 88.386719 457.320312 90.355469 C 457.363281 92.355469 457.179688 94.335938 456.765625 96.292969 C 456.355469 98.25 455.726562 100.136719 454.882812 101.949219 C 454.039062 103.765625 453 105.457031 451.765625 107.035156 C 450.53125 108.609375 449.132812 110.027344 447.574219 111.28125 C 448.59375 111.867188 449.574219 112.519531 450.507812 113.234375 C 451.441406 113.953125 452.324219 114.726562 453.152344 115.5625 C 453.980469 116.398438 454.75 117.289062 455.457031 118.226562 C 456.167969 119.164062 456.808594 120.148438 457.386719 121.175781 C 457.964844 122.199219 458.46875 123.257812 458.902344 124.351562 C 459.332031 125.445312 459.691406 126.566406 459.972656 127.707031 C 460.253906 128.847656 460.460938 130.003906 460.585938 131.171875 C 460.710938 132.34375 460.757812 133.515625 460.726562 134.691406 Z M 404.527344 80.15625 L 404.527344 103.042969 L 425.015625 103.042969 C 425.753906 103.054688 426.488281 102.992188 427.214844 102.859375 C 427.945312 102.722656 428.652344 102.515625 429.335938 102.242188 C 430.023438 101.964844 430.671875 101.621094 431.289062 101.214844 C 431.90625 100.804688 432.476562 100.339844 433 99.820312 C 433.523438 99.296875 433.988281 98.726562 434.398438 98.109375 C 434.804688 97.496094 435.148438 96.84375 435.425781 96.160156 C 435.703125 95.476562 435.910156 94.769531 436.046875 94.042969 C 436.179688 93.316406 436.242188 92.585938 436.230469 91.847656 C 436.261719 91.101562 436.21875 90.363281 436.097656 89.628906 C 435.976562 88.894531 435.78125 88.179688 435.511719 87.484375 C 435.242188 86.789062 434.902344 86.132812 434.496094 85.507812 C 434.089844 84.882812 433.621094 84.308594 433.09375 83.78125 C 432.566406 83.257812 431.992188 82.789062 431.367188 82.382812 C 430.742188 81.976562 430.082031 81.636719 429.386719 81.367188 C 428.691406 81.097656 427.972656 80.902344 427.238281 80.78125 C 426.503906 80.664062 425.761719 80.617188 425.015625 80.652344 L 404.527344 80.652344 Z M 428.421875 145.886719 C 429.222656 145.894531 430.019531 145.820312 430.804688 145.671875 C 431.59375 145.519531 432.359375 145.292969 433.101562 144.988281 C 433.84375 144.6875 434.546875 144.3125 435.214844 143.867188 C 435.882812 143.425781 436.5 142.921875 437.066406 142.355469 C 437.632812 141.789062 438.140625 141.171875 438.585938 140.503906 C 439.027344 139.839844 439.402344 139.136719 439.707031 138.394531 C 440.007812 137.652344 440.238281 136.890625 440.386719 136.105469 C 440.539062 135.316406 440.613281 134.523438 440.605469 133.722656 C 440.632812 132.917969 440.578125 132.117188 440.441406 131.324219 C 440.300781 130.527344 440.085938 129.753906 439.789062 129.003906 C 439.492188 128.253906 439.121094 127.542969 438.679688 126.867188 C 438.238281 126.195312 437.730469 125.570312 437.160156 125 C 436.585938 124.429688 435.964844 123.925781 435.289062 123.484375 C 434.613281 123.039062 433.898438 122.671875 433.148438 122.375 C 432.398438 122.078125 431.625 121.863281 430.828125 121.726562 C 430.03125 121.589844 429.230469 121.535156 428.421875 121.5625 L 405.027344 121.5625 L 405.027344 145.914062 Z M 428.421875 145.886719 " fill-opacity="1" fill-rule="nonzero"/><path fill="#00b74f" d="M 611.921875 96.6875 C 617.160156 101.917969 619.78125 109.347656 619.78125 119.074219 L 619.78125 164.351562 L 600.757812 164.351562 L 600.757812 122.03125 C 600.757812 112.300781 594.917969 106.941406 586.140625 106.941406 C 576.394531 106.941406 570.054688 112.773438 570.054688 125.433594 L 570.054688 165.347656 L 551.035156 165.347656 L 551.035156 90.878906 L 570.054688 90.878906 L 570.054688 99.144531 C 574.457031 92.316406 582.238281 88.917969 592.007812 88.917969 C 593.84375 88.859375 595.667969 88.988281 597.476562 89.296875 C 599.289062 89.609375 601.050781 90.097656 602.761719 90.765625 C 604.472656 91.433594 606.097656 92.265625 607.640625 93.261719 C 609.183594 94.261719 610.609375 95.402344 611.921875 96.6875 Z M 611.921875 96.6875 " fill-opacity="1" fill-rule="nonzero"/><path fill="#00b74f" d="M 645.0625 123.496094 L 645.0625 164.875 L 626.042969 164.875 L 626.042969 61.167969 L 645.0625 61.167969 L 645.0625 123.496094 " fill-opacity="1" fill-rule="nonzero"/><path fill="#00b74f" d="M 525.042969 90.878906 L 525.042969 99.640625 C 519.203125 92.34375 511.394531 88.917969 500.652344 88.917969 C 498.265625 88.910156 495.902344 89.152344 493.5625 89.640625 C 491.226562 90.132812 488.964844 90.859375 486.78125 91.820312 C 484.59375 92.785156 482.535156 93.96875 480.597656 95.363281 C 478.664062 96.761719 476.894531 98.34375 475.292969 100.113281 C 473.539062 101.96875 471.984375 103.976562 470.621094 106.132812 C 469.261719 108.292969 468.117188 110.558594 467.199219 112.9375 C 466.277344 115.316406 465.59375 117.761719 465.148438 120.273438 C 464.703125 122.785156 464.503906 125.316406 464.550781 127.863281 C 464.46875 130.417969 464.644531 132.953125 465.074219 135.472656 C 465.503906 137.992188 466.179688 140.445312 467.101562 142.828125 C 468.027344 145.210938 469.175781 147.480469 470.554688 149.632812 C 471.933594 151.785156 473.511719 153.78125 475.292969 155.617188 C 476.910156 157.367188 478.6875 158.933594 480.625 160.320312 C 482.566406 161.707031 484.625 162.878906 486.808594 163.84375 C 488.988281 164.804688 491.246094 165.539062 493.578125 166.039062 C 495.910156 166.539062 498.269531 166.796875 500.652344 166.8125 C 510.898438 166.8125 519.175781 163.410156 525.042969 156.085938 L 525.042969 164.851562 L 544.066406 164.851562 L 544.066406 90.878906 Z M 504.554688 149.3125 C 503.855469 149.3125 503.152344 149.277344 502.453125 149.210938 C 501.753906 149.140625 501.058594 149.039062 500.371094 148.902344 C 499.679688 148.765625 499 148.59375 498.328125 148.390625 C 497.65625 148.1875 496.996094 147.949219 496.34375 147.683594 C 495.695312 147.414062 495.0625 147.113281 494.441406 146.785156 C 493.820312 146.453125 493.21875 146.09375 492.636719 145.703125 C 492.050781 145.3125 491.488281 144.894531 490.945312 144.449219 C 490.402344 144.003906 489.882812 143.535156 489.382812 143.039062 C 488.886719 142.542969 488.414062 142.023438 487.96875 141.480469 C 487.523438 140.9375 487.105469 140.375 486.714844 139.792969 C 486.324219 139.207031 485.964844 138.609375 485.632812 137.988281 C 485.300781 137.371094 485 136.738281 484.730469 136.089844 C 484.464844 135.441406 484.226562 134.78125 484.023438 134.109375 C 483.820312 133.4375 483.648438 132.757812 483.511719 132.070312 C 483.375 131.382812 483.269531 130.6875 483.203125 129.992188 C 483.132812 129.292969 483.097656 128.59375 483.097656 127.890625 C 483.097656 127.1875 483.132812 126.488281 483.203125 125.792969 C 483.269531 125.09375 483.375 124.398438 483.511719 123.710938 C 483.648438 123.023438 483.820312 122.34375 484.023438 121.671875 C 484.226562 121 484.464844 120.339844 484.730469 119.691406 C 485 119.042969 485.300781 118.410156 485.632812 117.792969 C 485.964844 117.171875 486.324219 116.574219 486.714844 115.988281 C 487.105469 115.40625 487.523438 114.84375 487.96875 114.300781 C 488.414062 113.757812 488.886719 113.238281 489.382812 112.742188 C 489.882812 112.246094 490.402344 111.777344 490.945312 111.332031 C 491.488281 110.886719 492.050781 110.46875 492.636719 110.078125 C 493.21875 109.6875 493.820312 109.328125 494.441406 109 C 495.0625 108.667969 495.695312 108.367188 496.34375 108.097656 C 496.996094 107.832031 497.65625 107.59375 498.328125 107.390625 C 499 107.1875 499.679688 107.015625 500.371094 106.878906 C 501.058594 106.742188 501.753906 106.640625 502.453125 106.570312 C 503.152344 106.503906 503.855469 106.46875 504.554688 106.46875 C 505.257812 106.46875 505.960938 106.503906 506.660156 106.570312 C 507.359375 106.640625 508.054688 106.742188 508.742188 106.878906 C 509.433594 107.015625 510.113281 107.1875 510.785156 107.390625 C 511.457031 107.59375 512.117188 107.832031 512.765625 108.097656 C 513.417969 108.367188 514.050781 108.667969 514.671875 109 C 515.289062 109.328125 515.894531 109.6875 516.476562 110.078125 C 517.0625 110.46875 517.625 110.886719 518.167969 111.332031 C 518.710938 111.777344 519.230469 112.246094 519.730469 112.742188 C 520.226562 113.238281 520.695312 113.757812 521.144531 114.300781 C 521.589844 114.84375 522.007812 115.40625 522.398438 115.988281 C 522.789062 116.574219 523.148438 117.171875 523.480469 117.792969 C 523.8125 118.410156 524.109375 119.042969 524.378906 119.691406 C 524.648438 120.339844 524.886719 121 525.089844 121.671875 C 525.292969 122.34375 525.464844 123.023438 525.601562 123.710938 C 525.738281 124.398438 525.839844 125.09375 525.910156 125.792969 C 525.980469 126.488281 526.011719 127.1875 526.011719 127.890625 C 526.007812 128.589844 525.964844 129.285156 525.890625 129.976562 C 525.816406 130.671875 525.710938 131.359375 525.570312 132.042969 C 525.429688 132.726562 525.253906 133.402344 525.046875 134.070312 C 524.839844 134.734375 524.601562 135.390625 524.332031 136.035156 C 524.0625 136.679688 523.761719 137.308594 523.429688 137.921875 C 523.097656 138.535156 522.738281 139.132812 522.351562 139.714844 C 521.960938 140.292969 521.542969 140.851562 521.101562 141.390625 C 520.65625 141.929688 520.1875 142.449219 519.695312 142.941406 C 519.203125 143.4375 518.683594 143.90625 518.144531 144.347656 C 517.605469 144.792969 517.046875 145.210938 516.46875 145.601562 C 515.886719 145.988281 515.289062 146.351562 514.675781 146.683594 C 514.0625 147.015625 513.433594 147.316406 512.789062 147.589844 C 512.144531 147.859375 511.488281 148.097656 510.820312 148.308594 C 510.15625 148.515625 509.480469 148.691406 508.792969 148.832031 C 508.109375 148.976562 507.421875 149.085938 506.726562 149.160156 C 506.03125 149.234375 505.335938 149.277344 504.636719 149.285156 Z M 504.554688 149.3125 " fill-opacity="1" fill-rule="nonzero"/></svg>